<svg width="22" height="27" viewBox="0 0 22 27" fill="none" xmlns="http://www.w3.org/2000/svg">
<path d="M10.9999 13.3839C11.7333 13.3839 12.361 13.1228 12.8833 12.6005C13.4055 12.0783 13.6666 11.4505 13.6666 10.7172C13.6666 9.98387 13.4055 9.35609 12.8833 8.83387C12.361 8.31165 11.7333 8.05054 10.9999 8.05054C10.2666 8.05054 9.63881 8.31165 9.11658 8.83387C8.59436 9.35609 8.33325 9.98387 8.33325 10.7172C8.33325 11.4505 8.59436 12.0783 9.11658 12.6005C9.63881 13.1228 10.2666 13.3839 10.9999 13.3839ZM10.9999 23.1839C13.711 20.695 15.7221 18.4339 17.0333 16.4005C18.3444 14.3672 18.9999 12.5616 18.9999 10.9839C18.9999 8.56165 18.2277 6.57831 16.6833 5.03387C15.1388 3.48943 13.2444 2.7172 10.9999 2.7172C8.75547 2.7172 6.86103 3.48943 5.31659 5.03387C3.77214 6.57831 2.99992 8.56165 2.99992 10.9839C2.99992 12.5616 3.65547 14.3672 4.96659 16.4005C6.2777 18.4339 8.28881 20.695 10.9999 23.1839ZM10.9999 26.7172C7.42214 23.6728 4.74992 20.845 2.98325 18.2339C1.21659 15.6228 0.333252 13.2061 0.333252 10.9839C0.333252 7.65054 1.40547 4.99498 3.54992 3.0172C5.69436 1.03943 8.1777 0.0505371 10.9999 0.0505371C13.8221 0.0505371 16.3055 1.03943 18.4499 3.0172C20.5944 4.99498 21.6666 7.65054 21.6666 10.9839C21.6666 13.2061 20.7833 15.6228 19.0166 18.2339C17.2499 20.845 14.5777 23.6728 10.9999 26.7172Z" fill="black"/>
</svg>
