<svg width="221" height="137" viewBox="0 0 221 137" fill="none" xmlns="http://www.w3.org/2000/svg">
<path d="M210.781 90.6545C221.464 109.772 206.005 147.282 107.962 121.214C58.8044 108.143 22.0829 137.588 14.5193 117.035C-3.1059 69.1635 68.8719 13.7875 108.897 52.4483C145.483 87.7865 191.337 55.8596 210.781 90.6545Z" stroke="#E4E4E4" stroke-width="4" stroke-miterlimit="10" stroke-dasharray="32.09 32.09"/>
<path d="M210.218 132.736H10.3105C16.5668 86.5133 58.928 50.7598 110.261 50.7598C161.594 50.7598 203.958 86.5133 210.218 132.736Z" fill="#F6F5F5"/>
<path d="M184.16 11.7961H108.968C105.468 11.7961 102.63 14.6338 102.63 18.1343V125.992C102.63 129.492 105.468 132.33 108.968 132.33H184.16C187.661 132.33 190.498 129.492 190.498 125.992V18.1343C190.498 14.6338 187.661 11.7961 184.16 11.7961Z" fill="#A9BAE6"/>
<path d="M182.894 16.6538H110.571V121.711H182.894V16.6538Z" fill="#F6F5F5"/>
<path d="M182.894 16.6547C182.916 57.6207 184.238 107.029 179.637 117.969C159.369 119.945 135.635 120.578 110.57 120.698L120.098 16.9711L182.894 16.6547Z" fill="#E4E4E4"/>
<path d="M176.398 114.657C144.806 119.713 123.694 119.98 106.566 118.709C108.784 95.0857 109.676 55.8408 110.575 16.6589L148.644 16.7442L183.097 19.0187C183.595 59.6844 183.65 97.2485 176.398 114.657Z" fill="white"/>
<path d="M165.234 27.244L127.188 26.3474L127.052 32.1424L165.097 33.039L165.234 27.244Z" fill="#708CD5"/>
<path d="M172.567 41.4256L138.25 40.6168L138.187 43.2692L172.505 44.0779L172.567 41.4256Z" fill="#708CD5"/>
<path d="M161.439 46.9499L138.113 46.4002L138.051 49.0526L161.377 49.6023L161.439 46.9499Z" fill="#D3DFFF"/>
<path d="M127.436 40.5178L119.312 40.3263L119.121 48.4505L127.245 48.642L127.436 40.5178Z" fill="white" stroke="#708CD5" stroke-width="6" stroke-miterlimit="10"/>
<path d="M120.638 42.4592C120.888 43.4195 121.351 47.4422 123.367 46.3174C123.831 46.0615 124.225 45.3724 124.573 44.9776L126.449 42.8507L130.196 38.5951C130.517 38.2318 129.103 37.3201 128.701 37.7764L125.37 41.5586L123.704 43.4502C123.319 43.8877 122.425 45.2982 121.856 45.4236L122.788 45.7246C123.008 45.9046 122.6 44.6271 122.591 44.5921C122.437 43.9991 122.282 43.4058 122.126 42.8123C121.998 42.3228 120.452 41.7335 120.641 42.4592H120.638Z" fill="#EE6F57"/>
<path d="M166.162 56.0524L137.902 55.3864L137.84 58.0388L166.099 58.7048L166.162 56.0524Z" fill="#708CD5"/>
<path d="M172.431 61.3158L138.104 60.6293L138.051 63.2824L172.378 63.9689L172.431 61.3158Z" fill="#D3DFFF"/>
<path d="M127.089 55.2881L118.964 55.0967L118.773 63.2209L126.897 63.4124L127.089 55.2881Z" fill="white" stroke="#708CD5" stroke-width="6" stroke-miterlimit="10"/>
<path d="M120.286 57.4586C120.536 58.4188 120.999 62.4416 123.015 61.3167C123.479 61.0609 123.873 60.3718 124.22 59.9769L126.097 57.8492L129.844 53.5944C130.165 53.2311 128.751 52.3152 128.349 52.7757L125.018 56.558L123.352 58.4487C122.967 58.8862 122.073 60.2976 121.504 60.423L122.436 60.724C122.656 60.9039 122.248 59.6264 122.239 59.5915C122.084 58.9985 121.929 58.4052 121.775 57.8116C121.646 57.3221 120.1 56.7328 120.289 57.4586H120.286Z" fill="#EE6F57"/>
<path d="M171.87 70.9656L137.553 70.1569L137.491 72.8092L171.808 73.618L171.87 70.9656Z" fill="#708CD5"/>
<path d="M152.765 76.3019L137.417 75.9402L137.355 78.5926L152.702 78.9543L152.765 76.3019Z" fill="#D3DFFF"/>
<path d="M126.741 70.0579L118.617 69.8664L118.425 77.9906L126.549 78.1821L126.741 70.0579Z" fill="white" stroke="#708CD5" stroke-width="6" stroke-miterlimit="10"/>
<path d="M120.049 72.3334C120.3 73.2937 120.763 77.3164 122.778 76.1916C123.243 75.9357 123.636 75.2466 123.983 74.8518L125.859 72.7249L129.606 68.4693C129.927 68.106 128.513 67.1943 128.111 67.6506L124.779 71.4328L123.111 73.3244C122.726 73.7619 121.832 75.1725 121.263 75.2978L122.196 75.5989C122.415 75.7788 122.008 74.5013 121.998 74.4663C121.844 73.8739 121.689 73.2806 121.534 72.6865C121.406 72.197 119.859 71.6077 120.049 72.3334Z" fill="#EE6F57"/>
<path d="M171.954 85.0812L137.627 84.3947L137.574 87.0478L171.901 87.7343L171.954 85.0812Z" fill="#708CD5"/>
<path d="M164.179 91.3486L137.07 90.7098L137.007 93.3622L164.117 94.001L164.179 91.3486Z" fill="#D3DFFF"/>
<path d="M126.392 84.8274L118.268 84.6359L118.076 92.7602L126.2 92.9516L126.392 84.8274Z" fill="white" stroke="#708CD5" stroke-width="6" stroke-miterlimit="10"/>
<path d="M119.7 87.007C119.951 87.9672 120.414 91.9891 122.429 90.8642C122.894 90.6084 123.287 89.9193 123.634 89.5253L125.51 87.3933L129.257 83.1386C129.578 82.7753 128.164 81.8594 127.762 82.3199L124.43 86.1021L122.77 87.9971C122.385 88.4346 121.491 89.846 120.922 89.9705L121.855 90.2715C122.075 90.4523 121.667 89.1748 121.657 89.1399C121.502 88.5463 121.348 87.953 121.192 87.36C121.064 86.8697 119.517 86.2804 119.708 87.007H119.7Z" fill="#EE6F57"/>
<path d="M150.463 99.9052L136.86 99.5846L136.798 102.237L150.401 102.558L150.463 99.9052Z" fill="#708CD5"/>
<path d="M171.046 106.176L136.728 105.368L136.666 108.02C149.943 108.332 166.848 108.953 170.298 108.425C170.821 107.825 171.104 107.094 171.046 106.176Z" fill="#D3DFFF"/>
<path d="M126.161 99.4889L118.037 99.2975L117.845 107.422L125.969 107.613L126.161 99.4889Z" fill="white" stroke="#708CD5" stroke-width="6" stroke-miterlimit="10"/>
<path d="M119.359 101.552C119.615 102.512 120.073 106.534 122.088 105.409C122.552 105.153 122.946 104.464 123.293 104.07L125.169 101.938L128.921 97.6835C129.241 97.3193 127.828 96.4042 127.426 96.8639L124.095 100.646L122.429 102.538C122.043 102.975 121.15 104.386 120.581 104.511L121.514 104.812C121.733 104.993 121.325 103.715 121.316 103.68C121.161 103.087 121.006 102.494 120.851 101.901C120.723 101.41 119.176 100.821 119.366 101.548L119.359 101.552Z" fill="#EE6F57"/>
<path d="M162.852 12.5262V20.6382H130.274V12.5262C130.274 11.9105 130.394 11.3006 130.63 10.7317C130.865 10.1627 131.21 9.64574 131.646 9.21043C131.75 9.10526 131.861 9.00617 131.977 8.91365C132.815 8.21662 133.871 7.83628 134.961 7.8391C135.791 7.83945 136.609 7.65289 137.356 7.29329C137.672 7.14044 137.974 6.95888 138.257 6.7509C139.208 6.04694 139.908 5.0554 140.252 3.92296C140.598 2.78807 141.299 1.79424 142.252 1.08794C143.205 0.38165 144.36 0.000264003 145.547 0H147.58C148.766 0.000264003 149.921 0.38165 150.874 1.08794C151.827 1.79424 152.528 2.78807 152.874 3.92296C153.218 5.05837 153.919 6.05252 154.873 6.75773C155.156 6.9657 155.458 7.14727 155.774 7.30012C156.521 7.65972 157.339 7.84627 158.168 7.84592C159.409 7.84772 160.599 8.34129 161.477 9.21852C162.355 10.0958 162.849 11.2851 162.852 12.5262Z" fill="#EE6F57"/>
<path d="M165.496 16.6538V22.6815H127.631V16.6538H130.275V20.6348H162.853V16.6538H165.496Z" fill="#E4E4E4"/>
<path d="M146.565 7.60286C148.16 7.60286 149.454 6.37341 149.454 4.85679C149.454 3.34018 148.16 2.11072 146.565 2.11072C144.969 2.11072 143.675 3.34018 143.675 4.85679C143.675 6.37341 144.969 7.60286 146.565 7.60286Z" fill="white"/>
<path d="M84.1307 42.8192C82.9752 42.6009 81.8955 40.6701 81.5203 39.9298C81.4278 39.7487 81.3978 39.5421 81.435 39.3422L81.8955 36.9049C81.8955 36.9049 82.9564 37.0848 82.8745 38.4979C82.8685 38.6451 82.8935 38.7918 82.9479 38.9286L83.3547 39.9912L84.5554 39.0617L83.8971 37.2017C83.8971 37.2017 83.0153 37.4439 82.5599 37.2989C81.6218 37.0004 82.8507 36.2755 83.2421 36.1902C83.6335 36.1049 84.4821 35.803 84.8693 36.4614C85.2565 37.1198 85.4893 37.5078 85.4893 37.5078C85.4893 37.5078 85.9157 36.035 85.6249 32.7423C85.6121 32.5939 85.9831 32.5973 86.0871 32.7039C86.3992 33.0211 86.8964 33.9874 86.9229 36.9262C86.9229 36.9262 86.9749 33.5013 87.5616 33.1491C88.046 32.8583 88.2908 34.5349 87.9497 37.3773C87.9497 37.3773 88.5816 34.9161 89.0344 34.9118C89.7977 34.9042 89.0438 41.4854 87.125 43.4468L84.1307 42.8192Z" fill="#F9B384"/>
<path d="M87.7528 41.8119C87.7187 42.1394 87.6811 42.4566 87.6402 42.7636C87.5235 43.7384 87.355 44.7063 87.1353 45.6632C87.1251 45.7041 87.1183 45.7417 87.1081 45.7792C86.5247 48.1671 86.419 49.3406 84.4268 49.0267L82.38 46.6934L82.3596 46.6695L82.2095 46.499L82.6256 45.2709L82.6802 45.1106L82.9872 44.2168L83.0248 44.1008L83.5501 42.5658L83.7616 41.9415L87.7528 41.8119Z" fill="#F9B384"/>
<path d="M49.6653 126.775L49.1434 128.406C45.5616 129.581 43.4781 130.928 43.3442 132.5H53.6915L54.5213 127.042C52.4259 127.55 50.7458 127.194 49.6653 126.775Z" fill="#1F3C88"/>
<path d="M50.9632 122.72L49.666 126.775C50.7465 127.194 52.4266 127.55 54.522 127.038L55.0567 123.516L50.9632 122.72Z" fill="#F9B384"/>
<path d="M68.6532 126.594L68.9569 122.465L64.0958 122.72L63.8306 126.527C65.8867 127.183 67.5923 126.926 68.6532 126.594Z" fill="#F9B384"/>
<path d="M74.5007 132.5C74.3668 130.928 72.5392 128.775 68.531 128.264L68.6538 126.594C67.5903 126.927 65.8889 127.183 63.8311 126.527L63.4141 132.497L74.5007 132.5Z" fill="#1F3C88"/>
<path d="M64.7136 43.8792L58.8496 43.9201V35.0508H64.5362L64.5396 35.5932L64.5669 38.4041L64.6078 42.9172L64.7136 43.8792Z" fill="#F9B384"/>
<path d="M64.5669 38.8305C63.5128 39.9392 60.7633 38.6873 59.6035 37.466L64.5396 36.0162L64.5669 38.8305Z" fill="#E28B6D"/>
<path d="M65.9279 33.004C65.9293 33.6722 65.878 34.3395 65.7744 34.9996C65.4878 36.7905 64.7305 38.3324 62.9839 38.3802C58.8563 38.4996 57.6794 36.139 56.9017 34.2082C56.1239 32.2774 57.3861 27.6245 57.3861 27.6245L62.7281 27.0957L65.6618 29.5006C65.8442 30.6594 65.9332 31.831 65.9279 33.004Z" fill="#F9B384"/>
<path d="M57.0682 33.1022C57.0682 33.1022 58.2459 33.0485 58.4472 30.009C60.5528 30.7134 62.0921 30.0713 63.3083 28.6684C64.3487 30.0423 67.2611 30.4729 68.2444 27.6595C68.9573 25.6272 66.9958 22.5997 64.1389 24.4333C61.3391 23.0185 57.0921 23.1157 55.8666 26.5858C55.8666 26.5858 51.6187 28.5473 56.1173 32.8574C56.2103 32.9436 57.0682 33.1022 57.0682 33.1022Z" fill="#102048"/>
<path d="M73.307 75.7558L70.0655 124.767H62.4473L64.3516 77.2081L65.5174 76.6683L73.307 75.7558Z" fill="#102048"/>
<path d="M53.4652 69.0501L48.1206 124.767H56.4211L64.3241 78.4874L73.3069 75.7584L73.7051 65.8657L53.6921 65.4111L53.4652 69.0501Z" fill="#1F3C88"/>
<path opacity="0.6" d="M54.6562 69.1712C59.1898 70.7992 69.827 68.9392 72.0358 66.6716L70.4666 63.5349L52.9702 65.8597L54.6562 69.1712Z" fill="#102048"/>
<path d="M71.6284 65.916C71.4817 65.9774 71.3316 66.0422 71.1781 66.1002C69.3426 66.8457 67.4393 67.4123 65.4949 67.7922C64.238 68.0414 62.9644 68.1976 61.6845 68.2595C59.6773 68.372 57.6642 68.209 55.7012 67.7751L58.2426 44.0805L58.553 41.1911C58.553 41.1911 61.879 45.2846 65.5461 40.7647L71.6284 65.916Z" fill="white"/>
<path opacity="0.3" d="M61.6845 68.2595C59.6773 68.372 57.6642 68.209 55.7012 67.7751L58.2426 44.0804L59.15 42.7688C61.3912 48.22 63.687 60.2942 61.6845 68.2595Z" fill="#1F3C88"/>
<path d="M58.8515 40.253C61.3784 50.9814 62.4179 62.0212 58.6954 74.2804C55.9348 75.3302 52.9286 75.3183 49.7127 74.3938L50.5083 52.1072L31.7745 64.9847L30.6377 57.9634C37.8389 51.0778 50.29 40.6794 58.8515 40.253Z" fill="#708CD5"/>
<path opacity="0.3" d="M71.1738 66.1003C69.3383 66.8458 67.4351 67.4124 65.4906 67.7922C64.3649 61.3177 64.1159 50.6813 65.0335 45.8817L71.1738 66.1003Z" fill="#1F3C88"/>
<path opacity="0.6" d="M87.1356 45.67C87.1254 45.711 87.1186 45.7485 87.1083 45.786C86.525 48.1739 86.4193 49.3474 84.4271 49.0335L82.3803 46.7002L82.3599 46.6764L82.6259 45.2777L82.6805 45.1174L82.9875 44.2236L83.0251 44.1077L87.1356 45.67Z" fill="#E28B6D"/>
<path d="M86.7812 47.8431C86.7812 47.8431 81.7495 58.5033 78.7647 58.7591C75.8711 59.0073 74.5006 56.2007 74.5006 56.2007L76.5474 71.7799C74.1424 72.9057 71.5157 73.4549 68.4729 72.9159C65.7677 64.1319 64.7452 52.7741 64.5439 40.1251C66.734 40.2615 71.0714 40.4483 72.6244 41.4469C75.4105 43.2378 78.85 49.634 78.85 49.634L82.8582 44.1759L86.7812 47.8431Z" fill="#708CD5"/>
<path d="M25.4409 32.8224C25.4409 32.8224 25.7454 27.7234 26.2647 27.9613C26.7841 28.1993 27.8245 32.6365 27.8245 32.6365L26.7116 34.4325L25.4409 32.8224Z" fill="#6F3428"/>
<path d="M40.7541 124.91L40.905 126.588C41.0327 128.011 40.5899 129.426 39.6742 130.523C38.7584 131.619 37.4446 132.307 36.0218 132.435L35.5903 132.473C34.8858 132.537 34.1758 132.461 33.5008 132.249C32.8257 132.038 32.1989 131.696 31.656 131.243C31.1131 130.79 30.6649 130.234 30.3369 129.607C30.0088 128.98 29.8075 128.295 29.7442 127.591L29.5933 125.913L40.7541 124.91Z" fill="#EE6F57"/>
<path d="M33.4482 43.6438L22.2871 44.6458L29.5832 125.916L40.7444 124.914L33.4482 43.6438Z" fill="#FBC343"/>
<path opacity="0.3" d="M29.7034 42.3364L25.7393 42.6923L32.1346 113.929L36.0987 113.573L29.7034 42.3364Z" stroke="#6F3428" stroke-width="8" stroke-miterlimit="10"/>
<path d="M40.7527 124.91L29.5945 125.913L29.3011 122.639L29.0964 120.363L28.4653 113.37L39.627 112.367L40.2547 119.36L40.4594 121.636L40.7527 124.91Z" fill="#102048"/>
<path d="M40.2649 119.356L29.1064 120.359L29.3111 122.635L40.4695 121.631L40.2649 119.356Z" fill="#FBC343"/>
<path d="M22.29 44.6424L25.3909 32.2168C25.3909 32.2168 26.4603 32.6918 27.7583 31.8902L33.4526 43.6395L22.29 44.6424Z" fill="#EE6F57"/>
<path d="M57.685 32.5878C57.6355 32.4045 56.8023 32.1529 56.619 32.1026C56.335 32.0241 56.022 31.9849 55.7491 32.1103C54.7419 32.5657 54.8767 34.0078 55.3986 34.7659C55.6924 35.2004 56.1275 35.5198 56.6301 35.6699C56.8134 35.7219 58.5455 35.7433 58.4696 35.4644L57.685 32.5878Z" fill="#F9B384"/>
<path d="M25.9754 61.5734C25.9169 61.3785 25.8198 61.1973 25.6899 61.0406C25.5599 60.884 25.3998 60.7551 25.219 60.6617C25.0382 60.5683 24.8404 60.5122 24.6375 60.4968C24.4345 60.4814 24.2306 60.5071 24.0378 60.5722C22.7679 61.0105 21.6618 61.7542 21.4904 63.0198C21.3343 64.1719 21.9108 67.8519 24.4846 68.3252L24.2748 66.4345C24.2748 66.4345 25.8508 66.0669 26.1655 65.3838C26.3864 64.9054 26.4018 62.9089 25.9754 61.5734Z" fill="#F9B384"/>
<path d="M73.7137 48.916C73.8493 49.721 73.9645 50.5286 74.0745 51.3371C74.1845 52.1456 74.28 52.9575 74.3841 53.7651L74.6484 56.1973C74.7252 57.01 74.8011 57.8177 74.8505 58.6381L74.7184 58.6534C74.5785 57.8484 74.4625 57.0407 74.3525 56.2323L74.048 53.8043C73.9628 52.9924 73.8638 52.1839 73.7922 51.3704C73.7206 50.5568 73.6387 49.7457 73.585 48.9313L73.7137 48.916Z" fill="#1F3C88"/>
<path d="M50.7739 48.7811C50.7739 49.6851 50.75 50.5891 50.7236 51.4922C50.6971 52.3954 50.6545 53.3011 50.6221 54.2042L50.4745 56.911C50.414 57.8133 50.3517 58.7147 50.2639 59.6153L50.1309 59.6085C50.1309 58.7037 50.1522 57.8005 50.1769 56.8974L50.281 54.1888C50.333 53.2866 50.3714 52.3834 50.4345 51.482C50.4976 50.5806 50.5556 49.6783 50.6391 48.7777L50.7739 48.7811Z" fill="#1F3C88"/>
<path d="M61.8259 32.5035C61.8975 32.825 61.7653 33.1286 61.53 33.1857C61.2946 33.2429 61.0447 33.0203 60.9731 32.6988C60.9014 32.3773 61.0336 32.0737 61.269 32.0165C61.5044 31.9594 61.7534 32.182 61.8259 32.5035Z" fill="#102048"/>
<path d="M65.2257 32.106C65.2112 32.4352 65.0049 32.6936 64.7635 32.6834C64.5222 32.6731 64.3371 32.3985 64.3525 32.0685C64.3678 31.7385 64.5733 31.4809 64.8138 31.4911C65.0543 31.5014 65.2394 31.776 65.2257 32.106Z" fill="#102048"/>
<path d="M63.329 32.3755C63.4459 32.6578 63.4271 32.9614 63.4996 33.1925C63.5289 33.2998 63.5856 33.3977 63.6642 33.4765C63.7616 33.5463 63.87 33.5993 63.9848 33.6334C64.1461 33.6939 64.2864 33.7996 64.3891 33.9379C64.4473 34.0179 64.4821 34.1126 64.4893 34.2113C64.4965 34.31 64.476 34.4088 64.43 34.4964C64.3468 34.6345 64.2327 34.7513 64.0966 34.8376C63.9797 34.9169 63.8672 35.0005 63.7452 35.0747L63.6599 34.974C63.7495 34.864 63.8475 34.7634 63.9414 34.6585C64.0316 34.5767 64.1065 34.4794 64.1622 34.3711C64.2339 34.2133 64.077 34.0402 63.8552 33.9515C63.7401 33.8986 63.5738 33.8526 63.4399 33.7153C63.3221 33.5911 63.2455 33.4335 63.2207 33.2641C63.1644 32.9486 63.2292 32.6782 63.1985 32.4113L63.329 32.3755Z" fill="#E28B6D"/>
<path d="M60.1973 31.6396C60.2522 31.429 60.3748 31.2424 60.5461 31.1083C60.7221 30.9669 60.9388 30.8856 61.1644 30.8763C61.3827 30.8637 61.6 30.914 61.7906 31.0212C61.9812 31.1283 62.1371 31.2879 62.2398 31.4809L62.1357 31.5662C61.8688 31.3403 61.5302 31.217 61.1806 31.2183C61.0096 31.2267 60.8429 31.2744 60.6934 31.3576C60.5439 31.4409 60.4155 31.5575 60.3184 31.6984L60.1973 31.6396Z" fill="#102048"/>
<path d="M63.7192 31.2216C63.771 31.0579 63.863 30.9098 63.987 30.7909C64.1198 30.6629 64.2891 30.5792 64.4714 30.5513C64.8373 30.4908 65.2313 30.6775 65.3754 31.0024L65.2688 31.0826C65.0522 30.9273 64.7858 30.8577 64.5209 30.8873C64.3949 30.9063 64.2739 30.9503 64.1653 31.0169C64.0468 31.0976 63.9361 31.189 63.8344 31.2898L63.7192 31.2216Z" fill="#102048"/>
<path d="M61.832 35.6793C62.429 36.6115 63.2213 36.7129 63.8344 35.7322L61.832 35.6793Z" fill="white"/>
<path opacity="0.4" d="M65.9436 32.7764C65.9394 33.5206 65.8824 34.2635 65.773 34.9997C65.5655 34.9336 65.3844 34.803 65.2562 34.6269C65.1279 34.4508 65.0592 34.2384 65.0601 34.0206C65.0609 33.5055 65.46 32.8548 65.9436 32.7764Z" fill="#FC8879"/>
<path opacity="0.4" d="M60.378 35.7305C60.9856 35.7305 61.4781 35.2379 61.4781 34.6303C61.4781 34.0228 60.9856 33.5302 60.378 33.5302C59.7704 33.5302 59.2778 34.0228 59.2778 34.6303C59.2778 35.2379 59.7704 35.7305 60.378 35.7305Z" fill="#FC8879"/>
<path d="M56.9644 33.6863C56.7685 33.538 56.5631 33.4027 56.3495 33.2812C56.2667 33.2347 56.1733 33.2106 56.0783 33.2113C55.974 33.229 55.8761 33.2736 55.7943 33.3409L55.6826 33.2693C55.7057 33.1899 55.747 33.117 55.8032 33.0564C55.8595 32.9958 55.9292 32.9493 56.0067 32.9205C56.0884 32.8961 56.1743 32.8887 56.259 32.8985C56.3437 32.9083 56.4256 32.9352 56.4996 32.9776C56.7561 33.1159 56.9577 33.3377 57.071 33.6061L56.9644 33.6863Z" fill="#E28B6D"/>
<path opacity="0.6" d="M26.1657 65.3829L24.5829 70.1937L24.2554 66.4345C25.2395 66.2204 25.7768 65.8264 26.1657 65.3829Z" fill="#6F3428"/>
<path d="M0 132.53H220.528" stroke="#102048" stroke-width="8" stroke-miterlimit="10"/>
</svg>
