<svg width="1376" height="1080" viewBox="0 0 1376 1080" fill="none" xmlns="http://www.w3.org/2000/svg">
<path d="M37.815 959.822C86.315 902.822 151.271 926.322 220.271 886.322C289.271 846.322 305.315 829.322 387.771 645.822C443.814 543.822 625.226 587.822 675.771 545.822C726.315 503.822 744.771 403.322 770.815 334.322C832.031 172.141 998.315 259.322 1069.81 120.822C1141.31 -17.6779 1375.77 0.822312 1375.77 0.822312V1080.82H1.315C1.315 1080.82 -10.685 1016.82 37.815 959.822Z" fill="#7E89C7" fill-opacity="0.34"/>
<rect x="134" y="846" width="41" height="41" rx="20.5" fill="#D3D7EC"/>
<path d="M558.42 468.022C569.752 452.814 577.263 441.939 594.235 432.096C616.85 418.981 634.835 417.787 654.725 415.471C660.053 414.851 665.91 415.386 671.665 416.52C691.882 420.504 702.827 441.608 697.01 461.375C695.956 464.957 694.76 468.549 693.409 471.994C685.152 493.048 685.168 501.809 660.03 515.88C647.344 522.98 618.901 526.808 605.138 531.004C602.014 531.957 598.6 532.841 595.061 533.655C570.843 539.222 546.704 522.256 548.809 497.497C549.719 486.797 552.408 476.091 558.42 468.022Z" fill="#D3D7EC"/>
<path d="M942.399 141.449C946.321 135.783 948.91 131.723 954.976 128.199C963.059 123.502 969.624 123.309 976.869 122.715C977.544 122.659 978.244 122.659 978.96 122.703C989.396 123.349 995.234 135.067 991.859 144.963C989.148 152.916 989.283 156.276 980.291 161.302C975.753 163.838 965.4 164.887 960.425 166.293C949.547 169.368 938.159 161.12 939.536 149.9C939.92 146.767 940.78 143.787 942.399 141.449Z" fill="#D3D7EC"/>
<path d="M192.221 816.972C187.212 766.68 257.675 721.702 295.305 755.44C306.758 765.708 290.711 789.803 282.269 805.095C266.944 832.853 244.31 855.867 210.226 844.726C194.371 839.543 193.746 832.278 192.221 816.972Z" fill="#D3D7EC"/>
<rect x="495" y="499" width="41" height="41" rx="20.5" fill="#D3D7EC"/>
<g clip-path="url(#clip0_266_29)">
<path d="M840.258 998.495L845.522 1024.04C845.522 1024.04 878.544 1032.71 871.126 1059.94H795.032L791.204 998.736H840.258V998.495Z" fill="#06262D"/>
<path d="M809.868 1053.19V1059.7H871.126C878.544 1032.47 845.522 1023.8 845.522 1023.8C822.55 1025.96 809.868 1038.98 809.868 1053.19Z" fill="#CAD9DB"/>
<path d="M794.554 1053.68L795.032 1059.94H871.126C871.605 1057.77 872.084 1055.6 872.084 1053.68H794.554Z" fill="#9FAAAA"/>
<path d="M794.314 1046.93C794.314 1046.93 807.715 1021.63 845.283 1021.63L841.215 998.736H791.204L794.314 1046.93Z" fill="black"/>
<path d="M680.652 998.495L675.388 1024.04C675.388 1024.04 642.366 1032.71 649.784 1059.94H725.878L729.706 998.736H680.652V998.495Z" fill="#06262D"/>
<path d="M711.042 1053.19V1059.7H649.784C642.366 1032.47 675.388 1023.8 675.388 1023.8C698.359 1025.96 711.042 1038.98 711.042 1053.19Z" fill="#CAD9DB"/>
<path d="M726.356 1053.68L725.877 1059.94H649.783C649.305 1057.77 648.826 1055.6 648.826 1053.68H726.356Z" fill="#9FAAAA"/>
<path d="M675.388 1024.04C675.388 1024.04 699.317 1019.22 727.313 1040.66L729.946 998.495L679.934 996.086L675.388 1024.04Z" fill="black"/>
<path d="M672.516 547.417L675.627 1011.51C675.627 1011.51 697.163 1037.29 742.867 1014.4L753.157 627.657L783.546 1011.99C783.546 1011.99 823.986 1037.77 847.676 1014.16L829.011 547.176H672.516V547.417Z" fill="#5B93BC"/>
<path d="M698.838 617.537L704.82 647.657C704.82 647.657 693.574 659.464 673.234 656.09L672.516 547.417H829.011L832.84 644.765C832.84 644.765 820.876 665.006 797.904 665.006L806.758 599.947C771.821 612.718 727.553 624.525 698.838 617.537Z" fill="black"/>
<path d="M729.945 635.127L770.864 623.079" stroke="black" stroke-miterlimit="10" stroke-linecap="round" stroke-linejoin="round"/>
<path d="M783.786 1011.99L753.157 627.657L746.935 861.871" stroke="black" stroke-miterlimit="10" stroke-linecap="round" stroke-linejoin="round"/>
<path d="M806.757 599.947L836.908 1021.63" stroke="black" stroke-miterlimit="10" stroke-linecap="round" stroke-linejoin="round"/>
<path d="M797.186 678.018L809.39 751.27C809.39 751.27 823.747 762.354 840.976 756.089L834.515 680.427L797.186 678.018Z" fill="#5B93BC"/>
<path d="M803.407 715.126L809.389 751.27C809.389 751.27 823.029 762.595 840.976 756.089" stroke="black" stroke-miterlimit="10" stroke-linecap="round" stroke-linejoin="round"/>
<path d="M695.967 586.935L689.984 1020.9" stroke="black" stroke-miterlimit="10" stroke-linecap="round" stroke-linejoin="round"/>
<path d="M673.473 680.427L667.73 767.414C667.73 767.414 685.677 774.884 701.231 762.354L714.391 675.608L673.473 680.427Z" fill="#5B93BC"/>
<path d="M671.08 715.126C671.08 715.126 698.12 715.849 712.716 675.367L673.473 680.186L671.08 715.126Z" fill="black"/>
<path d="M673.473 680.427L660.552 706.933C660.552 706.933 705.299 709.825 714.153 675.608L673.473 680.427Z" fill="#5B93BC"/>
<path d="M660.552 706.933L673.473 680.427L714.153 675.608" stroke="black" stroke-miterlimit="10" stroke-linecap="round" stroke-linejoin="round"/>
<path d="M712.238 689.102L701.231 762.354C687.591 775.607 667.73 767.414 667.73 767.414" stroke="black" stroke-miterlimit="10" stroke-linecap="round" stroke-linejoin="round"/>
<path d="M670.362 726.21L667.73 766.209" stroke="black" stroke-miterlimit="10" stroke-linecap="round" stroke-linejoin="round"/>
<path d="M836.429 703.56C836.429 703.56 817.286 712.234 800.057 693.921L798.143 680.427L836.429 703.56Z" fill="black"/>
<path d="M834.515 680.427L840.976 709.584C840.976 709.584 807.954 711.752 797.186 678.018L834.515 680.427Z" fill="#5B93BC"/>
<path d="M797.186 678.018C797.186 678.018 808.433 713.68 840.976 709.584" stroke="black" stroke-miterlimit="10" stroke-linecap="round" stroke-linejoin="round"/>
<path d="M677.781 696.813C677.063 699.463 674.909 701.15 673.234 700.668C671.559 700.186 670.841 697.536 671.798 694.885C672.516 692.234 674.67 690.548 676.345 691.03C678.02 691.512 678.738 694.162 677.781 696.813Z" fill="black"/>
<path d="M834.994 694.162C836.19 696.572 835.711 699.222 834.036 699.945C832.361 700.668 830.447 699.222 829.251 696.572C828.054 694.162 828.533 691.512 830.208 690.789C831.883 690.066 834.036 691.512 834.994 694.162Z" fill="black"/>
<path d="M691.899 718.017L689.984 754.643" stroke="black" stroke-miterlimit="10" stroke-linecap="round" stroke-linejoin="round"/>
<path d="M814.654 712.716L817.286 730.788" stroke="black" stroke-miterlimit="10" stroke-linecap="round" stroke-linejoin="round"/>
<path d="M675.627 1011.51C675.627 1011.51 695.249 1036.81 742.867 1014.4" stroke="black" stroke-miterlimit="10" stroke-linecap="round" stroke-linejoin="round"/>
<path d="M683.523 989.821C683.523 989.821 692.616 1000.66 726.117 993.917" stroke="black" stroke-miterlimit="10" stroke-linecap="round" stroke-linejoin="round"/>
<path d="M797.186 989.821C797.186 989.821 824.465 998.495 840.976 989.821" stroke="black" stroke-miterlimit="10" stroke-linecap="round" stroke-linejoin="round"/>
<path d="M709.367 1033.92C691.659 1021.39 675.388 1024.04 675.388 1024.04C675.388 1024.04 693.574 1020.66 709.367 1027.17" stroke="#CFD9DB" stroke-width="0.5" stroke-miterlimit="10" stroke-linecap="round" stroke-linejoin="round"/>
<path d="M683.523 1024.04C683.523 1024.04 653.612 1008.62 663.184 998.495C673.234 988.134 683.523 1024.04 683.523 1024.04Z" stroke="#CFD9DB" stroke-width="0.5" stroke-miterlimit="10" stroke-linecap="round" stroke-linejoin="round"/>
<path d="M683.523 1024.04C683.523 1024.04 694.291 1002.83 709.127 1001.15C724.203 998.977 699.556 1020.9 683.523 1024.04Z" stroke="#CFD9DB" stroke-width="0.5" stroke-miterlimit="10" stroke-linecap="round" stroke-linejoin="round"/>
<path d="M813.697 1033.92C821.833 1025.72 845.762 1024.04 845.762 1024.04C845.762 1024.04 829.49 1021.63 812.261 1027.41" stroke="#CFD9DB" stroke-width="0.5" stroke-miterlimit="10" stroke-linecap="round" stroke-linejoin="round"/>
<path d="M841.215 1024.04C841.215 1024.04 829.011 1002.11 818.243 1007.89C807.236 1013.19 841.215 1024.04 841.215 1024.04Z" stroke="#CFD9DB" stroke-width="0.5" stroke-miterlimit="10" stroke-linecap="round" stroke-linejoin="round"/>
<path d="M841.215 1024.04C841.215 1024.04 849.591 1000.42 838.105 995.845C826.858 991.266 841.215 1024.04 841.215 1024.04Z" stroke="#CFD9DB" stroke-width="0.5" stroke-miterlimit="10" stroke-linecap="round" stroke-linejoin="round"/>
<path d="M666.295 371.516L635.905 599.465C635.905 599.465 628.726 649.584 692.138 631.512L666.295 371.516Z" fill="#FF8A69"/>
<path d="M641.648 556.333L635.905 599.465C635.905 599.465 625.615 651.271 692.138 631.512" stroke="black" stroke-miterlimit="10" stroke-linecap="round" stroke-linejoin="round"/>
<path d="M678.259 493.201C667.73 497.779 656.723 499.707 649.066 500.43L656.723 443.804C662.705 444.768 668.448 445.732 673.952 446.937L678.259 493.201Z" fill="black"/>
<path d="M666.295 371.516L631.119 464.768C631.119 464.768 648.587 508.382 698.838 479.466L666.295 371.516Z" fill="#8FC3FF"/>
<path d="M655.048 401.154L631.119 464.768C631.119 464.768 631.837 469.105 636.384 474.165" stroke="black" stroke-miterlimit="10" stroke-linecap="round" stroke-linejoin="round"/>
<path d="M997.471 458.021C980.482 445.25 963.253 463.804 963.253 463.804L872.323 495.37L818.243 367.42L802.689 538.261L818.004 548.863C840.019 564.044 868.733 565.007 891.466 551.273L980.003 504.767C1008 511.514 1023.79 495.129 1023.79 495.129L1029.54 461.394C1030.25 457.057 1026.43 453.202 1022.12 453.925L997.471 458.021Z" fill="#FF8A69"/>
<path d="M859.162 464.286C858.683 466.214 848.155 504.526 805.322 508.382L818.004 367.42L859.162 464.286Z" fill="black"/>
<path d="M795.271 472.96C852.462 511.514 866.819 445.491 866.819 445.491L818.243 367.42L795.271 472.96Z" fill="#8FC3FF"/>
<path d="M861.315 503.321L872.323 495.37L866.819 511.514" stroke="black" stroke-miterlimit="10" stroke-linecap="round" stroke-linejoin="round"/>
<path d="M825.9 379.709L866.819 445.491" stroke="black" stroke-miterlimit="10" stroke-linecap="round" stroke-linejoin="round"/>
<path d="M985.985 471.274L1002.74 467.9L997.471 458.021C990.532 451.756 982.396 452.961 975.457 455.852C966.603 459.708 960.381 468.141 960.142 477.78C960.142 479.707 960.381 480.671 960.381 480.671" stroke="black" stroke-miterlimit="10" stroke-linecap="round" stroke-linejoin="round"/>
<path d="M1029.3 462.358L1008 469.105" stroke="black" stroke-miterlimit="10" stroke-linecap="round" stroke-linejoin="round"/>
<path d="M1008 480.912L1027.38 473.683" stroke="black" stroke-miterlimit="10" stroke-linecap="round" stroke-linejoin="round"/>
<path d="M1008 491.273L1025.71 483.804" stroke="black" stroke-miterlimit="10" stroke-linecap="round" stroke-linejoin="round"/>
<path d="M980.003 504.767L967.082 495.129L973.542 509.827L980.003 504.767Z" fill="black"/>
<path d="M980.003 504.767L896.251 547.417" stroke="black" stroke-miterlimit="10" stroke-linecap="round" stroke-linejoin="round"/>
<path d="M836.908 551.273C836.908 551.273 816.09 599.465 766.078 603.802C716.067 608.139 662.705 566.935 662.705 566.935L666.294 371.516L715.588 357.299V362.601C715.588 362.601 717.981 385.974 742.867 386.215C768.232 386.215 770.864 354.89 770.864 354.89L818.243 367.42L836.908 551.273Z" fill="#CAD9DB"/>
<path d="M716.067 330.312L715.828 362.601C715.828 362.601 718.221 385.974 743.107 386.215C767.993 386.456 770.864 354.89 770.864 354.89L759.139 320.914L716.067 330.312Z" fill="#FF8A69"/>
<path d="M764.403 336.095C764.403 336.095 749.567 362.36 715.828 357.54L716.067 330.553L759.378 321.396L764.403 336.095Z" fill="black"/>
<path d="M771.103 357.299C780.196 449.105 782.829 535.369 764.403 604.043C764.403 604.043 792.4 601.392 802.929 590.79L771.103 357.299Z" fill="black"/>
<path d="M666.295 371.516L658.159 623.32C670.841 644.524 688.309 652.476 710.563 646.693L715.827 357.299C701.709 358.263 685.916 361.878 666.295 371.516Z" fill="#8FC3FF"/>
<path d="M770.864 354.89L791.922 648.38C821.833 643.32 839.301 633.199 847.915 619.464L818.244 367.42C802.211 358.263 786.418 353.926 770.864 354.89Z" fill="#8FC3FF"/>
<path d="M664.62 423.564L658.159 623.079C658.159 623.079 673.234 655.849 710.563 646.452L713.195 501.635" stroke="black" stroke-miterlimit="10" stroke-linecap="round" stroke-linejoin="round"/>
<path d="M825.183 426.455L843.369 581.152" stroke="black" stroke-miterlimit="10" stroke-linecap="round" stroke-linejoin="round"/>
<path d="M832.122 484.768L836.908 459.708" stroke="black" stroke-miterlimit="10" stroke-linecap="round" stroke-linejoin="round"/>
<path d="M666.294 371.516C666.294 371.516 689.027 360.191 715.827 357.299L714.392 432.238" stroke="black" stroke-miterlimit="10" stroke-linecap="round" stroke-linejoin="round"/>
<path d="M722.288 377.299C722.288 377.299 727.313 385.974 743.106 385.974C758.899 385.974 767.035 374.167 771.103 357.299" stroke="black" stroke-miterlimit="10" stroke-linecap="round" stroke-linejoin="round"/>
<path d="M774.932 411.997L786.179 569.586" stroke="black" stroke-miterlimit="10" stroke-linecap="round" stroke-linejoin="round"/>
<path d="M791.921 648.38C791.921 648.38 833.318 643.801 847.915 619.464" stroke="black" stroke-miterlimit="10" stroke-linecap="round" stroke-linejoin="round"/>
<path d="M706.495 298.505C709.845 305.011 709.606 312.24 706.017 314.649C702.188 317.059 696.445 313.927 693.095 307.421C689.745 300.915 689.984 293.686 693.574 291.276C697.402 288.867 703.145 291.999 706.495 298.505Z" fill="#E55145"/>
<path d="M784.264 324.047C778.043 327.661 771.582 327.42 769.428 323.324C767.514 319.228 770.864 312.963 776.846 309.348C783.068 305.734 789.529 305.975 791.682 310.071C793.596 314.168 790.246 320.432 784.264 324.047Z" fill="#E55145"/>
<path d="M702.188 262.361C702.188 262.361 687.352 278.746 696.445 290.794C696.445 290.794 702.666 290.794 703.384 305.011L774.453 320.673C774.453 320.673 780.914 305.493 786.657 306.939C786.657 306.939 796.468 289.831 785.461 282.12C774.453 274.409 702.188 262.361 702.188 262.361Z" fill="black"/>
<path d="M736.407 346.215C707.931 343.806 697.642 298.746 704.342 275.132C711.042 251.518 734.014 237.783 755.55 244.53C777.086 251.277 789.05 275.855 782.35 299.469C775.65 323.083 764.403 348.866 736.407 346.215Z" fill="#FF8A69"/>
<path d="M738.081 307.421L746.935 309.589C746.935 309.589 745.26 315.613 740.713 314.649C736.167 313.445 738.081 307.421 738.081 307.421Z" fill="#E55145"/>
<path d="M731.142 317.3C731.142 317.3 737.842 319.951 749.089 320.432C749.089 320.432 746.935 331.276 738.081 329.589C728.988 327.661 731.142 317.3 731.142 317.3Z" fill="#B2221B"/>
<path d="M732.099 296.095C731.86 298.264 730.185 299.951 728.749 299.71C727.074 299.469 726.117 297.541 726.356 295.373C726.596 293.204 728.271 291.517 729.706 291.758C731.381 291.999 732.578 293.927 732.099 296.095Z" fill="black"/>
<path d="M760.814 303.083C760.575 305.252 758.9 306.939 757.464 306.698C755.789 306.457 754.832 304.529 755.071 302.36C755.31 300.192 756.985 298.505 758.421 298.746C759.857 298.987 761.053 300.915 760.814 303.083Z" fill="black"/>
<path d="M723.485 283.084C723.485 283.084 731.621 278.023 733.774 287.421L723.485 283.084Z" fill="#3A180C"/>
<path d="M754.832 290.553C754.832 290.553 762.489 284.288 765.839 292.24L754.832 290.553Z" fill="#3A180C"/>
<path d="M698.12 281.879C698.12 281.879 717.742 282.361 726.356 260.433C730.663 270.072 740.713 276.819 754.832 281.879L749.089 265.494C749.089 265.494 772.3 298.746 796.468 294.65C796.468 294.65 800.057 270.795 788.811 254.168C777.325 237.301 737.603 220.434 715.588 242.843C715.588 242.843 681.13 250.313 698.12 281.879Z" fill="#723A27"/>
<path d="M749.089 246.217C740.953 249.59 733.057 249.831 727.553 249.349C722.767 248.867 718.46 246.699 715.588 242.843C719.178 238.988 723.485 236.337 728.031 234.651C726.835 237.06 726.356 238.747 726.356 238.747C730.664 235.855 737.603 238.747 737.603 238.747L730.903 242.843C736.885 242.12 748.85 245.735 749.089 246.217Z" fill="#3A180C"/>
<path d="M872.323 495.37L963.253 463.804" stroke="black" stroke-miterlimit="10" stroke-linecap="round" stroke-linejoin="round"/>
<path d="M488.503 436.094L426.048 489.346L413.366 393.203L379.147 367.42C379.147 367.42 353.304 388.865 363.354 413.202L378.908 414.889L379.865 510.55C382.497 547.899 414.083 565.971 446.866 547.176L506.928 517.779L488.503 436.094Z" fill="#CC7256"/>
<path d="M419.348 497.056L426.048 489.346V504.767" stroke="black" stroke-miterlimit="10" stroke-linecap="round" stroke-linejoin="round"/>
<path d="M379.147 414.889L389.437 416.094C389.437 416.094 391.351 409.347 384.651 406.696C384.651 406.696 389.676 407.419 390.155 401.877C390.155 401.877 396.376 414.166 403.794 413.202C403.794 413.202 388.958 426.696 379.387 425.491V414.889H379.147Z" fill="black"/>
<path d="M372.926 386.938L389.915 401.877C389.676 406.214 386.805 406.937 384.412 406.696" stroke="black" stroke-miterlimit="10" stroke-linecap="round" stroke-linejoin="round"/>
<path d="M388.001 373.926C387.044 382.841 391.351 389.106 400.444 392.962L411.691 377.781L398.29 360.191L388.001 373.926Z" fill="#F4F4F4"/>
<path d="M413.366 392.962L377.712 386.215C377.712 386.215 375.319 389.106 376.515 392.962C377.233 394.889 378.669 396.576 380.583 397.299L390.155 401.636L394.223 407.419C396.615 411.275 400.923 413.443 405.469 412.72L415.998 411.034L413.366 392.962Z" fill="#CC7256"/>
<path d="M404.991 412.961C400.444 413.684 396.137 411.516 393.744 407.66L389.676 401.877L380.105 397.54C378.19 396.576 376.755 395.13 376.037 393.203C374.84 389.347 377.233 386.456 377.233 386.456L403.794 391.275" stroke="black" stroke-miterlimit="10" stroke-linecap="round" stroke-linejoin="round"/>
<path d="M437.773 377.54C434.423 383.323 429.159 386.456 426.048 384.528C425.57 384.287 425.091 383.805 424.852 383.323C422.698 381.395 420.066 379.227 413.126 377.54C421.741 372.962 425.809 365.733 425.33 355.854C430.355 360.914 433.466 362.119 436.338 363.082C436.816 363.082 437.534 363.323 438.013 363.564C440.884 365.492 440.884 371.757 437.773 377.54Z" fill="#F4F4F4"/>
<path d="M432.987 352.721C432.27 352.239 431.312 351.998 430.355 351.998C421.98 349.107 410.973 345.251 381.301 296.577L360.483 333.203L339.425 369.829C396.376 370.793 405.23 378.504 411.93 384.287C412.409 385.01 413.126 385.733 413.844 386.215C419.109 389.106 427.484 384.046 432.748 374.89C438.252 365.492 438.252 355.613 432.987 352.721Z" fill="#F4F4F4"/>
<path d="M381.78 345.492C370.294 365.733 349.954 376.094 336.554 368.384C323.154 360.673 321.718 338.023 333.204 317.782C344.69 297.059 365.029 286.939 378.43 294.65C391.83 302.36 393.266 325.011 381.78 345.492Z" fill="#B2221B"/>
<path d="M377.357 342.778C388.896 322.44 387.367 299.692 373.941 291.968C360.515 284.243 340.277 294.468 328.738 314.805C317.199 335.142 318.729 357.891 332.154 365.615C345.58 373.34 365.818 363.115 377.357 342.778Z" fill="#F4F4F4"/>
<path d="M379.865 309.589C361.201 305.734 340.861 312.963 326.743 328.625C327.94 324.529 329.615 320.673 331.768 316.577C341.818 298.987 359.287 290.071 371.012 296.818C375.558 299.469 378.669 304.047 379.865 309.589Z" fill="black"/>
<path d="M374.122 340.914C364.072 358.504 346.604 367.42 334.879 360.673C325.786 355.372 322.914 342.36 326.982 328.625C341.1 312.963 361.44 305.493 380.105 309.589C382.019 318.505 380.105 330.071 374.122 340.914Z" fill="#82B1DB"/>
<path d="M432.988 374.89C427.723 384.287 419.348 389.347 414.084 386.215C413.366 385.733 412.648 385.01 411.93 384.287C408.341 381.395 404.273 377.781 393.026 374.89C406.666 367.42 413.366 355.854 412.648 340.191C420.784 348.625 425.809 350.312 430.356 351.757C431.313 351.757 432.27 351.998 432.988 352.48C438.252 355.613 438.252 365.492 432.988 374.89Z" fill="#B2221B"/>
<path d="M411.93 384.287C411.93 384.287 401.162 371.998 365.986 371.034" stroke="black" stroke-miterlimit="10" stroke-linecap="round" stroke-linejoin="round"/>
<path d="M325.307 336.095C324.111 346.938 327.222 356.577 334.64 360.914C346.365 367.661 363.833 358.745 373.883 341.155C376.994 335.854 378.908 330.071 379.865 324.77" stroke="black" stroke-miterlimit="10" stroke-linecap="round" stroke-linejoin="round"/>
<path d="M394.223 389.588C394.223 389.588 387.283 385.974 388.001 374.167" stroke="black" stroke-miterlimit="10" stroke-linecap="round" stroke-linejoin="round"/>
<path d="M363.594 413.202L389.437 416.094C390.394 411.997 388.719 408.383 384.651 406.696L368.38 400.19" stroke="black" stroke-miterlimit="10" stroke-linecap="round" stroke-linejoin="round"/>
<path d="M379.147 414.889L379.865 492.719" stroke="black" stroke-miterlimit="10" stroke-linecap="round" stroke-linejoin="round"/>
<path d="M421.023 451.515L426.048 489.346" stroke="black" stroke-miterlimit="10" stroke-linecap="round" stroke-linejoin="round"/>
<path d="M523.439 330.553L492.57 380.432C492.57 380.432 461.224 377.299 462.659 417.54C462.659 417.54 442.08 417.54 437.055 441.154C430.116 473.201 485.87 499.707 544.736 511.514C623.223 527.177 678.738 479.466 624.898 434.166C624.898 434.166 628.248 402.6 604.319 396.094L594.747 350.071L523.439 330.553Z" fill="black"/>
<path d="M412.409 602.597C412.409 602.597 463.377 710.306 611.737 651.753L495.203 540.911L412.409 602.597Z" fill="#CAD9DB"/>
<path d="M800.057 958.014C800.057 958.014 741.431 1022.83 678.977 1017.53C616.283 1012.23 475.342 983.556 475.342 983.556L462.659 799.221L685.677 771.751L800.057 958.014Z" fill="#0A2930"/>
<path d="M451.652 612.718L496.878 1040.9C497.356 1046.21 493.767 1051.27 488.263 1051.99C476.059 1053.43 456.438 1059.7 456.438 1084.04H533.25V612.718H451.652Z" fill="#CC7256"/>
<path d="M484.674 1050.3C484.674 1050.3 502.381 1049.1 502.381 1074.4H530.139C530.139 1074.4 530.378 1064.04 537.796 1064.04V1084.04H456.677C456.677 1083.8 449.977 1056.57 484.674 1050.3Z" fill="#9FAAAA"/>
<path d="M495.681 1027.65C495.681 1027.65 501.424 1023.07 533.489 1032.71V1014.64L493.049 1002.59L495.681 1027.65Z" fill="black"/>
<path d="M537.557 1077.77V1084.04H456.677C456.677 1084.04 456.198 1081.63 456.198 1077.77H537.557Z" fill="#768483"/>
<path d="M484.674 1050.3C484.674 1050.3 502.381 1050.06 502.381 1074.4H519.371" stroke="black" stroke-miterlimit="10" stroke-linecap="round" stroke-linejoin="round"/>
<path d="M530.139 1074.4C530.139 1074.4 530.139 1065.48 537.796 1064.04" stroke="black" stroke-miterlimit="10" stroke-linecap="round" stroke-linejoin="round"/>
<path d="M488.502 612.718L674.67 1051.51C674.67 1051.51 656.484 1058.98 655.287 1084.04H718.699L577.757 576.814L488.502 612.718Z" fill="#CC7256"/>
<path d="M646.912 985.724C646.912 985.724 669.884 972.953 689.505 978.014L683.762 957.773L641.408 972.953L646.912 985.724Z" fill="black"/>
<path d="M655.287 1083.8C655.287 1083.8 653.134 1050.06 678.977 1050.06C704.82 1050.06 708.409 1074.64 708.409 1074.64H711.999C711.999 1074.64 714.87 1063.07 717.742 1063.07L718.699 1083.8H655.287Z" fill="#CAD9DB"/>
<path d="M718.699 1083.8H655.287C655.287 1083.8 655.048 1081.39 655.527 1077.53H718.699V1083.8Z" fill="#9FAAAA"/>
<path d="M718.699 1083.8H655.287C655.287 1083.8 653.851 1074.64 657.441 1066.93" stroke="black" stroke-miterlimit="10" stroke-linecap="round" stroke-linejoin="round"/>
<path d="M678.977 1050.06C678.977 1050.06 703.385 1048.37 708.41 1074.64H711.999C711.999 1074.64 713.913 1064.76 717.742 1063.07" stroke="black" stroke-miterlimit="10" stroke-linecap="round" stroke-linejoin="round"/>
<path d="M447.105 576.814L475.342 983.556C475.342 983.556 508.364 1066.93 597.14 1018.25C656.005 985.965 744.064 907.653 800.297 958.255L540.907 536.574L447.105 576.814Z" fill="#514F91"/>
<path d="M546.65 585.248L701.949 838.257L687.591 848.377H718.699L707.452 854.642L742.389 911.749" stroke="black" stroke-miterlimit="10" stroke-linecap="round" stroke-linejoin="round"/>
<path d="M611.737 651.753C611.737 651.753 492.092 594.164 449.738 615.368C449.498 615.368 447.105 576.573 447.105 576.573L540.907 536.333L611.737 651.753Z" fill="black"/>
<path d="M472.709 945.725C472.709 945.725 517.696 1020.42 570.1 992.953C622.505 965.484 733.056 892.232 775.171 917.051" stroke="black" stroke-miterlimit="10" stroke-linecap="round" stroke-linejoin="round"/>
<path d="M447.105 576.814L475.342 983.556" stroke="black" stroke-miterlimit="10" stroke-linecap="round" stroke-linejoin="round"/>
<path d="M596.901 1018.25C655.766 985.965 743.825 907.653 800.058 958.255C800.058 958.255 776.129 988.857 724.203 1010.78" stroke="black" stroke-miterlimit="10" stroke-linecap="round" stroke-linejoin="round"/>
<path d="M426.048 622.597C426.048 622.597 439.688 639.464 451.892 646.211" stroke="black" stroke-miterlimit="10" stroke-linecap="round" stroke-linejoin="round"/>
<path d="M579.911 436.093C579.911 436.093 567.707 403.805 568.665 373.444L519.61 384.046C528.703 398.986 528.225 414.648 523.678 423.082L488.503 436.093C488.503 436.093 434.423 484.286 451.891 509.105L447.105 576.814C447.105 576.814 485.152 586.212 527.267 571.513C569.382 556.815 561.725 576.814 561.725 576.814L614.13 455.852L579.911 436.093Z" fill="#CC7256"/>
<path d="M570.1 395.612C570.1 395.612 565.075 427.419 523.918 423.323C528.464 414.889 528.943 399.227 519.85 384.287L568.904 373.685C568.425 380.914 569.143 388.383 570.1 395.612Z" fill="black"/>
<path d="M579.911 556.092C605.276 583.32 614.608 612.958 611.737 651.753C611.737 651.753 541.864 609.585 486.828 590.308C451.652 578.019 412.409 602.356 412.409 602.356L445.431 530.068C445.431 530.068 434.423 508.141 443.995 485.731C453.806 463.322 488.503 436.093 488.503 436.093L523.678 423.323L501.664 492.719L579.911 436.093C593.312 438.744 604.558 445.732 614.13 455.852L579.911 556.092Z" fill="#F4F4F4"/>
<path d="M589.722 527.177L579.911 556.092C588.765 565.489 595.465 575.128 600.49 585.248" stroke="black" stroke-miterlimit="10" stroke-linecap="round" stroke-linejoin="round"/>
<path d="M523.678 423.323L501.664 492.719" stroke="black" stroke-miterlimit="10" stroke-linecap="round" stroke-linejoin="round"/>
<path d="M488.503 436.093C488.503 436.093 454.045 463.322 444.234 485.972C434.423 508.382 445.67 530.309 445.67 530.309L412.648 602.597L430.355 594.164" stroke="black" stroke-miterlimit="10" stroke-linecap="round" stroke-linejoin="round"/>
<path d="M579.912 436.093L539.95 465.009" stroke="black" stroke-miterlimit="10" stroke-linecap="round" stroke-linejoin="round"/>
<path d="M579.911 556.092L565.075 543.562" stroke="black" stroke-miterlimit="10" stroke-linecap="round" stroke-linejoin="round"/>
<path d="M561.725 522.839C549.761 546.453 507.167 530.068 507.167 530.068C478.453 519.466 467.924 529.345 467.924 529.345" stroke="black" stroke-miterlimit="10" stroke-linecap="round" stroke-linejoin="round"/>
<path d="M667.252 539.225L614.129 455.852L606.951 459.708C600.011 463.563 594.268 468.864 590.201 475.129C580.15 490.551 579.193 511.514 590.918 527.658C591.397 528.381 627.769 571.513 627.769 571.513L603.122 595.609L580.15 603.32C575.365 605.007 564.118 614.163 561.725 618.501C561.725 618.501 567.947 638.259 581.347 647.175C581.347 647.175 621.547 638.741 623.94 618.982C623.94 618.982 648.348 604.766 663.902 596.091C683.523 585.248 684.241 561.634 667.252 539.225Z" fill="#CC7256"/>
<path d="M636.862 576.092C630.401 575.61 627.769 571.272 627.769 571.272C627.769 571.272 625.854 571.513 628.965 578.983" stroke="black" stroke-miterlimit="10" stroke-linecap="round" stroke-linejoin="round"/>
<path d="M576.561 643.56L590.44 635.609" stroke="black" stroke-miterlimit="10" stroke-linecap="round" stroke-linejoin="round"/>
<path d="M569.382 635.127L583.5 626.693" stroke="black" stroke-miterlimit="10" stroke-linecap="round" stroke-linejoin="round"/>
<path d="M565.075 626.934L579.433 615.609" stroke="black" stroke-miterlimit="10" stroke-linecap="round" stroke-linejoin="round"/>
<path d="M583.979 601.874C583.979 601.874 584.697 603.561 580.15 598.019C575.604 592.477 582.065 585.248 582.065 585.248L603.361 595.368L583.979 601.874Z" fill="#CC7256"/>
<path d="M595.704 598.019L577.279 604.525" stroke="black" stroke-miterlimit="10" stroke-linecap="round" stroke-linejoin="round"/>
<path d="M582.065 585.248C581.347 586.212 575.604 593.2 580.15 598.019C584.936 602.838 583.979 601.874 583.979 601.874" stroke="black" stroke-miterlimit="10" stroke-linecap="round" stroke-linejoin="round"/>
<path d="M614.13 455.852L606.951 459.708C600.011 463.563 594.269 468.864 590.201 475.129C580.15 490.551 579.193 511.514 590.918 527.658L605.515 545.249" stroke="black" stroke-miterlimit="10" stroke-linecap="round" stroke-linejoin="round"/>
<path d="M636.862 611.754C636.862 611.754 648.348 605.007 663.902 596.332C683.284 585.489 684.241 561.634 667.012 539.225L645.955 505.972" stroke="black" stroke-miterlimit="10" stroke-linecap="round" stroke-linejoin="round"/>
<path d="M522.003 364.769C524.157 371.275 522.721 377.781 519.132 379.468C515.543 381.155 510.757 377.299 508.842 371.034C506.689 364.528 508.125 358.022 511.714 356.336C515.303 354.408 519.85 358.263 522.003 364.769Z" fill="#99413A"/>
<path d="M586.372 398.986C580.39 401.636 574.647 400.431 573.451 396.335C572.254 392.239 576.083 386.938 582.065 384.287C588.047 381.636 593.79 382.841 594.987 386.938C596.183 391.034 592.355 396.335 586.372 398.986Z" fill="#99413A"/>
<path d="M541.147 412.961C516.5 406.696 514.107 363.805 523.439 342.842C532.772 321.878 555.025 312.24 572.972 321.396C590.919 330.553 597.858 354.89 588.526 375.853C578.954 396.817 565.554 419.226 541.147 412.961Z" fill="#CC7256"/>
<path d="M571.297 310.071C571.297 310.071 527.268 299.951 514.585 334.649C514.585 334.649 518.893 352.721 549.043 354.167C549.043 354.167 548.804 344.047 555.983 342.36C551.915 348.384 555.265 356.818 561.965 358.022L571.058 359.95C568.904 356.095 570.818 352.48 572.254 348.625L573.929 352.48C576.322 358.022 580.629 362.36 585.894 365.01L599.055 371.275C599.055 371.516 611.498 326.216 571.297 310.071Z" fill="black"/>
<path d="M543.539 379.95L552.632 382.841C552.632 382.841 552.154 387.419 547.129 386.697C542.343 386.215 543.539 379.95 543.539 379.95Z" fill="#99413A"/>
<path d="M536.361 385.974C536.361 385.974 543.539 391.516 555.504 391.757C555.504 391.757 550.479 402.841 542.582 400.913C534.446 398.986 536.361 385.974 536.361 385.974Z" fill="#B2221B"/>
<path d="M530.618 358.022C530.618 358.022 544.736 351.998 543.3 364.046C540.668 361.637 536.361 358.745 530.618 358.022Z" fill="black"/>
<path d="M574.408 368.866C574.408 368.866 564.118 358.263 560.529 368.384C564.118 367.179 568.904 367.42 574.408 368.866Z" fill="black"/>
<path d="M569.383 375.131C568.426 376.335 566.99 376.335 565.793 376.094C565.554 375.131 564.836 374.408 564.118 374.167C562.683 373.926 561.008 375.131 560.529 377.299C560.05 379.227 560.768 381.395 562.204 381.636C563.64 381.877 565.315 380.673 565.793 378.504C565.793 378.263 565.793 378.263 565.793 378.022C568.904 378.022 569.383 375.131 569.383 375.131Z" fill="black"/>
<path d="M532.771 364.046C533.011 365.492 534.207 366.456 535.164 366.697C535.882 365.974 536.839 365.733 537.557 365.974C538.993 366.456 539.471 368.384 538.993 370.552C538.275 372.48 536.6 373.685 535.164 373.203C533.728 372.721 533.25 370.793 533.728 368.625C533.728 368.384 533.728 368.384 533.968 368.143C531.575 366.697 532.771 364.046 532.771 364.046Z" fill="black"/>
<path d="M999.386 464.527L1094.14 445.973L1171.91 376.094L1190.34 345.01L1193.69 345.733C1197.28 346.456 1199.91 349.589 1200.15 353.444L1198.47 365.492L1220.25 364.528C1226.23 364.528 1231.26 368.625 1232.45 374.408L1237 395.612L1186.75 421.395L1132.43 487.418C1124.53 496.816 1109.46 504.526 1097.49 507.418L1038.39 521.394L999.386 464.527Z" fill="#FFAB97"/>
<path d="M1059.45 456.575C1059.45 456.575 1093.9 478.503 1091.51 509.105L1062.08 516.815L1059.45 456.575Z" fill="black"/>
<path d="M1096.54 459.949L1094.14 445.973L1105.87 456.575" stroke="black" stroke-miterlimit="10" stroke-linecap="round" stroke-linejoin="round"/>
<path d="M1232.69 374.408H1214.27" stroke="black" stroke-miterlimit="10" stroke-linecap="round" stroke-linejoin="round"/>
<path d="M1234.13 381.636L1220.49 384.287" stroke="black" stroke-miterlimit="10" stroke-linecap="round" stroke-linejoin="round"/>
<path d="M1235.8 389.347L1220.49 395.612" stroke="black" stroke-miterlimit="10" stroke-linecap="round" stroke-linejoin="round"/>
<path d="M1186.75 421.395C1186.75 421.395 1176.22 421.395 1175.98 411.034C1175.98 411.034 1174.55 423.564 1178.85 430.551L1186.75 421.395Z" fill="black"/>
<path d="M1171.91 396.335C1165.93 392.239 1171.91 376.094 1171.91 376.094L1190.34 345.01C1190.34 345.01 1201.11 346.697 1200.15 353.444C1199.19 360.191 1198.47 365.492 1198.47 365.492L1197.28 376.817C1197.28 376.817 1209.72 390.07 1202.54 397.54" stroke="black" stroke-miterlimit="10" stroke-linecap="round" stroke-linejoin="round"/>
<path d="M855.812 552.477L773.257 660.428L671.559 689.584L635.666 687.174V694.885C635.666 698.018 637.341 701.15 639.733 702.837L657.68 710.307L646.673 731.752C639.973 741.631 644.28 755.366 655.287 759.703L675.388 767.414L707.213 720.186L800.057 713.921C812.022 711.993 823.029 706.451 831.644 698.018L894.337 636.332L855.812 552.477Z" fill="#FFAB97"/>
<path d="M809.629 612.958C809.629 612.958 807.715 669.584 839.062 691.03L845.762 684.524L823.029 595.609L809.629 612.958Z" fill="black"/>
<path d="M777.325 676.572L773.257 660.428L788.093 672.476" stroke="black" stroke-miterlimit="10" stroke-linecap="round" stroke-linejoin="round"/>
<path d="M659.594 731.752L647.151 753.438" stroke="black" stroke-miterlimit="10" stroke-linecap="round" stroke-linejoin="round"/>
<path d="M655.526 759.703L665.816 742.595" stroke="black" stroke-miterlimit="10" stroke-linecap="round" stroke-linejoin="round"/>
<path d="M665.816 763.8L680.173 742.595" stroke="black" stroke-miterlimit="10" stroke-linecap="round" stroke-linejoin="round"/>
<path d="M707.452 720.186C707.452 720.186 710.085 709.825 705.777 707.174C705.777 707.174 718.46 709.584 719.178 719.463L707.452 720.186Z" fill="black"/>
<path d="M635.666 687.174C633.991 702.114 639.734 702.837 639.734 702.837L657.68 710.307H667.491C667.491 710.307 672.755 723.077 684.481 715.126" stroke="black" stroke-miterlimit="10" stroke-linecap="round" stroke-linejoin="round"/>
<path d="M707.453 720.186L800.297 713.921" stroke="black" stroke-miterlimit="10" stroke-linecap="round" stroke-linejoin="round"/>
<path d="M985.985 986.688L942.913 1047.65L977.61 1081.39H1063.99C1063.99 1081.39 1067.34 1041.87 1038.15 1041.87C1008.96 1041.87 1014.7 1041.87 1014.7 1041.87L1037.19 1001.39L985.985 986.688Z" fill="#FFAB97"/>
<path d="M1037.43 1001.39L1018.77 1035.12C981.2 1042.59 963.971 1018.25 963.971 1018.25L986.225 986.688L1037.43 1001.39Z" fill="black"/>
<path d="M985.986 678.5L1090.08 834.401L977.132 999.7C977.132 999.7 992.925 1039.94 1040.06 1022.83L1166.17 885.244C1179.09 871.027 1191.54 855.365 1181.01 832.714L1091.75 627.175L985.986 678.5Z" fill="#5B93BC"/>
<path d="M1033.13 687.174L1115.92 827.172H1103L1120.47 836.57L1103 834.16L1114.72 845.485H1100.61L987.421 1014.64" stroke="black" stroke-miterlimit="10" stroke-linecap="round" stroke-linejoin="round"/>
<path d="M1035.04 654.645L1090.08 834.401L985.985 678.5L1035.04 654.645Z" fill="black"/>
<path d="M989.336 979.459C990.532 991.025 999.386 1012.71 1050.59 1014.4C1052.51 1014.4 1053.47 1016.81 1052.03 1018.01L1033.36 1035.84C1033.13 1036.09 1032.89 1036.08 1032.89 1036.33C1029.06 1038.01 993.643 1052.95 969.475 1004.04C969.235 1003.31 969.235 1002.59 969.714 1001.87L985.746 978.495C986.703 976.809 989.336 977.532 989.336 979.459Z" fill="#9FAAAA"/>
<path d="M1063.99 1081.39H977.61L942.913 1047.65C941.956 1037.77 947.221 1031.51 957.271 1027.41C957.271 1027.41 952.006 1053.68 983.832 1044.28L994.121 1043.31C994.121 1043.31 997.95 1030.78 1010.87 1031.99C1014.22 1032.23 1017.09 1032.95 1019.25 1034.16C1025.71 1037.05 1028.1 1042.11 1028.1 1042.11H1038.15C1067.58 1042.11 1063.99 1081.39 1063.99 1081.39Z" fill="#06262D"/>
<path d="M1063.99 1081.39H977.61L942.913 1047.65C942.674 1044.52 942.913 1041.63 943.871 1039.22L983.353 1072.71H1063.99C1063.99 1073.67 1064.23 1074.64 1064.23 1075.36C1064.23 1075.84 1064.23 1076.08 1064.23 1076.57C1064.23 1079.7 1063.99 1081.39 1063.99 1081.39Z" fill="#9FAAAA"/>
<path d="M1063.99 1072.71H1006.33C1006.33 1072.71 1003.21 1041.87 1028.34 1041.87H1038.39C1058.73 1042.11 1063.28 1061.14 1063.99 1072.71Z" fill="#9FAAAA"/>
<path d="M985.985 1027.41L1004.65 1003.31" stroke="black" stroke-miterlimit="10" stroke-linecap="round" stroke-linejoin="round"/>
<path d="M942.913 1047.89L977.849 1081.39H1063.99" stroke="black" stroke-miterlimit="10" stroke-linecap="round" stroke-linejoin="round"/>
<path d="M943.871 1039.46L983.353 1072.71H994.121" stroke="black" stroke-miterlimit="10" stroke-linecap="round" stroke-linejoin="round"/>
<path d="M1063.99 1072.71H1042.22" stroke="black" stroke-miterlimit="10" stroke-linecap="round" stroke-linejoin="round"/>
<path d="M1028.34 1042.11C1028.34 1042.11 1010.39 1042.83 1007.28 1048.86" stroke="white" stroke-width="0.5" stroke-miterlimit="10" stroke-linecap="round" stroke-linejoin="round"/>
<path d="M1002.02 1045.48C1002.02 1045.48 1007.04 1040.42 1024.99 1042.35" stroke="white" stroke-width="0.5" stroke-miterlimit="10" stroke-linecap="round" stroke-linejoin="round"/>
<path d="M1021.16 1042.11C1021.16 1042.11 1002.98 1038.74 1006.33 1030.54C1009.91 1022.35 1021.16 1042.11 1021.16 1042.11Z" stroke="white" stroke-width="0.5" stroke-miterlimit="10" stroke-linecap="round" stroke-linejoin="round"/>
<path d="M1021.16 1042.11C1021.16 1042.11 1022.84 1023.56 1031.21 1026.21C1039.59 1028.86 1021.16 1042.11 1021.16 1042.11Z" stroke="white" stroke-width="0.5" stroke-miterlimit="10" stroke-linecap="round" stroke-linejoin="round"/>
<path d="M879.023 986.688L827.336 1059.94L870.648 1081.39H957.031C957.031 1081.39 960.381 1041.87 931.188 1041.87C901.995 1041.87 907.738 1041.87 907.738 1041.87L930.231 1001.39L879.023 986.688Z" fill="#FFAB97"/>
<path d="M930.47 1001.39L911.566 1035.84C866.101 1038.49 861.794 1011.27 861.794 1011.27L879.023 986.688L930.47 1001.39Z" fill="black"/>
<path d="M925.924 658.982L982.875 834.401L878.784 986.688C878.784 986.688 885.723 1039.94 933.102 1022.83L1059.21 885.244C1072.13 871.027 1077.63 851.509 1074.04 832.714L1031.69 607.416L925.924 658.982Z" fill="#82B1DB"/>
<path d="M949.135 730.065C949.135 730.065 1006.09 718.74 1047.48 691.03L941.238 705.728L949.135 730.065Z" fill="black"/>
<path d="M886.919 1008.86L999.385 864.28L994.36 851.509L1010.15 861.389L999.385 840.907H1019.01L994.36 827.172H1003.69L967.56 710.547" stroke="black" stroke-miterlimit="10" stroke-linecap="round" stroke-linejoin="round"/>
<path d="M888.116 967.893C891.705 977.773 905.345 1004.76 945.306 1013.68C946.981 1014.16 947.46 1016.09 946.263 1017.29L926.881 1035.84C926.641 1036.09 926.402 1036.33 925.924 1036.33C920.659 1037.77 873.998 1049.34 865.144 992.471C865.144 991.989 865.144 991.266 865.623 990.784L884.048 967.17C885.484 966.207 887.398 966.447 888.116 967.893Z" fill="#CAD9DB"/>
<path d="M957.271 1081.39H870.887L827.576 1059.94C829.49 1046.45 837.387 1037.05 848.633 1030.3C849.83 1053.43 875.194 1042.11 875.194 1042.11H883.091C908.216 1015.84 918.506 1042.11 918.506 1042.11H931.667C960.621 1042.11 957.271 1081.39 957.271 1081.39Z" fill="#06262D"/>
<path d="M957.271 1081.39H870.887L827.576 1059.94C828.054 1057.29 828.533 1054.88 829.251 1052.47L872.084 1071.51H957.031C957.271 1072.71 957.271 1073.92 957.271 1074.88C957.271 1075.36 957.271 1075.84 957.271 1076.33C957.271 1079.46 957.271 1081.39 957.271 1081.39Z" fill="#CAD9DB"/>
<path d="M957.031 1071.51H886.919C886.919 1071.51 892.662 1041.87 918.266 1041.87C925.924 1041.87 932.384 1041.87 937.888 1042.59C952.245 1046.21 956.074 1061.14 957.031 1071.51Z" fill="#CAD9DB"/>
<path d="M979.524 748.86C979.524 748.86 988.857 744.041 982.157 711.993" stroke="black" stroke-miterlimit="10" stroke-linecap="round" stroke-linejoin="round"/>
<path d="M869.451 1008.86L894.577 980.664" stroke="black" stroke-miterlimit="10" stroke-linecap="round" stroke-linejoin="round"/>
<path d="M918.267 1042.11C918.267 1042.11 902.474 1040.42 892.184 1050.3" stroke="white" stroke-width="0.5" stroke-miterlimit="10" stroke-linecap="round" stroke-linejoin="round"/>
<path d="M888.355 1045.96C888.355 1045.96 893.62 1041.87 914.677 1041.87" stroke="white" stroke-width="0.5" stroke-miterlimit="10" stroke-linecap="round" stroke-linejoin="round"/>
<path d="M903.909 1043.55C903.909 1043.55 876.63 1030.06 886.92 1016.57C897.448 1003.31 903.909 1043.55 903.909 1043.55Z" stroke="white" stroke-width="0.5" stroke-miterlimit="10" stroke-linecap="round" stroke-linejoin="round"/>
<path d="M903.909 1043.55C903.909 1043.55 904.627 1025.72 917.309 1025.24C929.752 1024.52 903.909 1043.55 903.909 1043.55Z" stroke="white" stroke-width="0.5" stroke-miterlimit="10" stroke-linecap="round" stroke-linejoin="round"/>
<path d="M827.576 1059.94L870.887 1081.39H957.271" stroke="black" stroke-miterlimit="10" stroke-linecap="round" stroke-linejoin="round"/>
<path d="M829.25 1052.47L872.083 1071.51H910.13" stroke="black" stroke-miterlimit="10" stroke-linecap="round" stroke-linejoin="round"/>
<path d="M852.94 1041.87C852.94 1041.87 860.837 1047.89 874.955 1042.11" stroke="black" stroke-miterlimit="10" stroke-linecap="round" stroke-linejoin="round"/>
<path d="M957.031 1071.51H946.981" stroke="black" stroke-miterlimit="10" stroke-linecap="round" stroke-linejoin="round"/>
<path d="M999.386 464.527L952.724 474.406L945.546 448.142L892.423 445.973L904.866 488.141L855.812 552.477L926.163 705.728C926.163 705.728 1103.96 714.885 1110.42 627.657L999.386 464.527Z" fill="#FFAB97"/>
<path d="M950.331 465.973C933.581 496.816 908.695 489.346 905.106 488.141C904.866 488.141 904.627 487.9 904.627 487.9L892.184 445.732L945.306 447.901L950.331 465.973Z" fill="black"/>
<path d="M1110.42 627.416C1103.96 714.644 926.163 705.487 926.163 705.487L855.812 552.477L904.627 488.141C904.627 488.141 922.574 525.731 949.374 516.574C986.464 503.803 952.724 474.406 952.724 474.406L999.386 464.527L1110.42 627.416Z" fill="#F4F4F4"/>
<path d="M855.812 552.477L809.629 612.958C817.525 649.825 836.669 678.5 861.794 700.427L906.302 662.355L855.812 552.477Z" fill="#A3C4C9"/>
<path d="M999.385 464.527L1059.45 452.961C1059.45 452.961 1098.21 498.02 1075.48 545.249H1054.66L999.385 464.527Z" fill="#A3C4C9"/>
<path d="M879.023 602.838L926.163 705.487" stroke="black" stroke-miterlimit="10" stroke-linecap="round" stroke-linejoin="round"/>
<path d="M883.569 635.127L906.541 662.355L861.794 700.427" stroke="black" stroke-miterlimit="10" stroke-linecap="round" stroke-linejoin="round"/>
<path d="M1086.97 592.718L1029.06 508.141" stroke="black" stroke-miterlimit="10" stroke-linecap="round" stroke-linejoin="round"/>
<path d="M950.331 676.572C950.331 676.572 1062.08 688.379 1086.73 618.26" stroke="black" stroke-miterlimit="10" stroke-linecap="round" stroke-linejoin="round"/>
<path d="M1054.42 545.249L1050.11 516.574" stroke="black" stroke-miterlimit="10" stroke-linecap="round" stroke-linejoin="round"/>
<path d="M983.114 467.9L1059.21 452.961" stroke="black" stroke-miterlimit="10" stroke-linecap="round" stroke-linejoin="round"/>
<path d="M952.724 474.406C952.724 474.406 982.635 503.321 952.963 515.129" stroke="black" stroke-miterlimit="10" stroke-linecap="round" stroke-linejoin="round"/>
<path d="M921.377 509.827C911.088 503.562 904.866 488.141 904.866 488.141L809.868 612.958" stroke="black" stroke-miterlimit="10" stroke-linecap="round" stroke-linejoin="round"/>
<path d="M887.637 433.925C891.226 440.19 891.226 447.419 887.637 450.069C884.048 452.72 878.066 449.587 874.237 443.322C870.648 437.057 870.648 429.829 874.237 427.178C878.066 424.527 884.048 427.66 887.637 433.925Z" fill="#FF8A69"/>
<path d="M966.364 456.334C960.381 460.19 953.681 460.19 951.528 456.093C949.374 451.997 952.485 445.732 958.467 441.636C964.449 437.78 971.149 437.78 973.303 441.877C975.457 445.973 972.346 452.479 966.364 456.334Z" fill="#FF8A69"/>
<path d="M881.894 397.781C881.894 397.781 867.776 414.889 877.348 426.455C877.348 426.455 883.569 426.214 885.005 440.431L956.792 453.443C956.792 453.443 962.535 438.021 968.517 438.985C968.517 438.985 977.849 421.395 966.363 414.166C954.877 406.937 881.894 397.781 881.894 397.781Z" fill="#67160D"/>
<path d="M919.463 480.671C890.748 479.225 878.784 434.648 884.527 410.552C890.269 386.697 912.763 371.998 934.777 377.781C956.553 383.564 969.474 407.901 963.731 431.756C957.749 455.852 947.699 481.876 919.463 480.671Z" fill="#FFAB97"/>
<path d="M868.733 376.094C868.733 376.094 863.469 416.094 897.209 416.335C914.677 416.335 926.163 414.166 926.163 414.166L921.138 419.708C921.138 419.708 942.435 427.178 954.399 418.021C954.399 418.021 952.963 433.443 962.774 433.684C962.774 433.684 982.874 420.913 979.046 402.359C977.371 394.648 967.321 391.034 967.321 391.034C967.321 391.034 967.081 372.962 950.81 370.552C934.538 368.384 881.894 358.986 881.894 358.986C881.894 358.986 874.716 372.962 881.176 376.576L868.733 376.094Z" fill="#996352"/>
<path d="M913.959 449.828L923.052 451.515C923.052 451.515 921.616 457.78 916.831 456.816C912.045 455.852 913.959 449.828 913.959 449.828Z" fill="#FF8A69"/>
<path d="M909.412 459.708C909.412 459.708 916.352 462.117 927.598 462.117C927.598 462.117 925.923 473.201 916.83 471.756C907.737 470.31 909.412 459.708 909.412 459.708Z" fill="#B2221B"/>
<path d="M907.498 438.744C907.259 440.913 905.823 442.599 904.148 442.599C902.473 442.358 901.516 440.431 901.755 438.262C901.994 436.094 903.43 434.407 905.105 434.407C906.541 434.648 907.737 436.575 907.498 438.744Z" fill="black"/>
<path d="M936.452 444.768C936.213 446.937 934.777 448.623 933.102 448.623C931.427 448.382 930.47 446.455 930.709 444.286C930.949 442.118 932.384 440.431 934.059 440.431C935.495 440.431 936.691 442.358 936.452 444.768Z" fill="black"/>
<path d="M898.166 425.973C898.166 425.973 906.063 420.431 908.695 430.069L898.166 425.973Z" fill="#C42D0A"/>
<path d="M929.992 432.238C929.992 432.238 937.41 425.732 940.999 433.443L929.992 432.238Z" fill="#C42D0A"/>
<path d="M967.56 391.034L952.724 397.781C952.724 397.781 947.938 401.395 936.931 396.335L946.263 394.889C946.263 394.889 943.631 389.588 933.82 387.66C933.82 387.66 946.503 383.564 953.681 387.66V381.395C953.921 381.395 964.449 380.673 967.56 391.034Z" fill="#996352"/>
</g>
<defs>
<clipPath id="clip0_266_29">
<rect width="916" height="853" fill="white" transform="translate(321 232)"/>
</clipPath>
</defs>
</svg>
