<svg width="1330" height="1080" viewBox="0 0 1330 1080" fill="none" xmlns="http://www.w3.org/2000/svg">
<path d="M37.815 954.822C86.315 897.822 151.271 921.322 220.271 881.322C289.271 841.322 305.315 824.322 387.771 640.822C443.814 538.822 625.226 582.822 675.771 540.822C726.315 498.822 744.771 398.322 770.815 329.322C832.031 167.141 998.315 254.322 1069.81 115.822C1141.31 -22.6779 1375.77 -4.17769 1375.77 -4.17769V1075.82H1.315C1.315 1075.82 -10.685 1011.82 37.815 954.822Z" fill="#7E89C7" fill-opacity="0.34"/>
<rect x="134" y="841" width="41" height="41" rx="20.5" fill="#D3D7EC"/>
<path d="M558.42 463.022C569.752 447.814 577.263 436.939 594.235 427.096C616.85 413.981 634.835 412.787 654.725 410.471C660.053 409.851 665.91 410.386 671.665 411.52C691.882 415.504 702.827 436.608 697.01 456.375C695.956 459.957 694.76 463.549 693.409 466.994C685.152 488.048 685.168 496.809 660.03 510.88C647.344 517.98 618.901 521.808 605.138 526.004C602.014 526.957 598.6 527.841 595.061 528.655C570.843 534.221 546.704 517.256 548.809 492.497C549.719 481.797 552.408 471.091 558.42 463.022Z" fill="#D3D7EC"/>
<path d="M942.399 136.449C946.321 130.783 948.91 126.723 954.976 123.199C963.059 118.502 969.624 118.309 976.869 117.715C977.544 117.659 978.244 117.659 978.96 117.703C989.396 118.349 995.234 130.067 991.859 139.963C989.148 147.916 989.283 151.276 980.291 156.302C975.753 158.838 965.4 159.887 960.425 161.293C949.547 164.368 938.159 156.12 939.536 144.9C939.92 141.767 940.78 138.787 942.399 136.449Z" fill="#D3D7EC"/>
<path d="M192.221 811.972C187.212 761.68 257.675 716.702 295.305 750.44C306.758 760.708 290.711 784.803 282.269 800.095C266.944 827.853 244.31 850.867 210.226 839.726C194.371 834.543 193.746 827.278 192.221 811.972Z" fill="#D3D7EC"/>
<rect x="495" y="494" width="41" height="41" rx="20.5" fill="#D3D7EC"/>
<g clip-path="url(#clip0_266_29)">
<path d="M840.258 993.495L845.522 1019.04C845.522 1019.04 878.544 1027.71 871.126 1054.94H795.032L791.204 993.736H840.258V993.495Z" fill="#06262D"/>
<path d="M809.868 1048.19V1054.7H871.126C878.544 1027.47 845.522 1018.8 845.522 1018.8C822.55 1020.96 809.868 1033.98 809.868 1048.19Z" fill="#CAD9DB"/>
<path d="M794.554 1048.68L795.032 1054.94H871.126C871.605 1052.77 872.084 1050.6 872.084 1048.68H794.554Z" fill="#9FAAAA"/>
<path d="M794.314 1041.93C794.314 1041.93 807.715 1016.63 845.283 1016.63L841.215 993.736H791.204L794.314 1041.93Z" fill="black"/>
<path d="M680.652 993.495L675.388 1019.04C675.388 1019.04 642.366 1027.71 649.784 1054.94H725.878L729.706 993.736H680.652V993.495Z" fill="#06262D"/>
<path d="M711.042 1048.19V1054.7H649.784C642.366 1027.47 675.388 1018.8 675.388 1018.8C698.359 1020.96 711.042 1033.98 711.042 1048.19Z" fill="#CAD9DB"/>
<path d="M726.356 1048.68L725.877 1054.94H649.783C649.305 1052.77 648.826 1050.6 648.826 1048.68H726.356Z" fill="#9FAAAA"/>
<path d="M675.388 1019.04C675.388 1019.04 699.317 1014.22 727.313 1035.66L729.946 993.495L679.934 991.086L675.388 1019.04Z" fill="black"/>
<path d="M672.516 542.417L675.627 1006.51C675.627 1006.51 697.163 1032.29 742.867 1009.4L753.157 622.657L783.546 1006.99C783.546 1006.99 823.986 1032.77 847.676 1009.16L829.011 542.176H672.516V542.417Z" fill="#5B93BC"/>
<path d="M698.838 612.537L704.82 642.657C704.82 642.657 693.574 654.464 673.234 651.09L672.516 542.417H829.011L832.84 639.765C832.84 639.765 820.876 660.006 797.904 660.006L806.758 594.947C771.821 607.718 727.553 619.525 698.838 612.537Z" fill="black"/>
<path d="M729.945 630.127L770.864 618.079" stroke="black" stroke-miterlimit="10" stroke-linecap="round" stroke-linejoin="round"/>
<path d="M783.786 1006.99L753.157 622.657L746.935 856.871" stroke="black" stroke-miterlimit="10" stroke-linecap="round" stroke-linejoin="round"/>
<path d="M806.757 594.947L836.908 1016.63" stroke="black" stroke-miterlimit="10" stroke-linecap="round" stroke-linejoin="round"/>
<path d="M797.186 673.018L809.39 746.27C809.39 746.27 823.747 757.354 840.976 751.089L834.515 675.427L797.186 673.018Z" fill="#5B93BC"/>
<path d="M803.407 710.126L809.389 746.27C809.389 746.27 823.029 757.595 840.976 751.089" stroke="black" stroke-miterlimit="10" stroke-linecap="round" stroke-linejoin="round"/>
<path d="M695.967 581.935L689.984 1015.9" stroke="black" stroke-miterlimit="10" stroke-linecap="round" stroke-linejoin="round"/>
<path d="M673.473 675.427L667.73 762.414C667.73 762.414 685.677 769.884 701.231 757.354L714.391 670.608L673.473 675.427Z" fill="#5B93BC"/>
<path d="M671.08 710.126C671.08 710.126 698.12 710.849 712.716 670.367L673.473 675.186L671.08 710.126Z" fill="black"/>
<path d="M673.473 675.427L660.552 701.933C660.552 701.933 705.299 704.825 714.153 670.608L673.473 675.427Z" fill="#5B93BC"/>
<path d="M660.552 701.933L673.473 675.427L714.153 670.608" stroke="black" stroke-miterlimit="10" stroke-linecap="round" stroke-linejoin="round"/>
<path d="M712.238 684.102L701.231 757.354C687.591 770.607 667.73 762.414 667.73 762.414" stroke="black" stroke-miterlimit="10" stroke-linecap="round" stroke-linejoin="round"/>
<path d="M670.362 721.21L667.73 761.209" stroke="black" stroke-miterlimit="10" stroke-linecap="round" stroke-linejoin="round"/>
<path d="M836.429 698.56C836.429 698.56 817.286 707.234 800.057 688.921L798.143 675.427L836.429 698.56Z" fill="black"/>
<path d="M834.515 675.427L840.976 704.584C840.976 704.584 807.954 706.752 797.186 673.018L834.515 675.427Z" fill="#5B93BC"/>
<path d="M797.186 673.018C797.186 673.018 808.433 708.68 840.976 704.584" stroke="black" stroke-miterlimit="10" stroke-linecap="round" stroke-linejoin="round"/>
<path d="M677.781 691.813C677.063 694.463 674.909 696.15 673.234 695.668C671.559 695.186 670.841 692.536 671.798 689.885C672.516 687.234 674.67 685.548 676.345 686.03C678.02 686.512 678.738 689.162 677.781 691.813Z" fill="black"/>
<path d="M834.994 689.162C836.19 691.572 835.711 694.222 834.036 694.945C832.361 695.668 830.447 694.222 829.251 691.572C828.054 689.162 828.533 686.512 830.208 685.789C831.883 685.066 834.036 686.512 834.994 689.162Z" fill="black"/>
<path d="M691.899 713.017L689.984 749.643" stroke="black" stroke-miterlimit="10" stroke-linecap="round" stroke-linejoin="round"/>
<path d="M814.654 707.716L817.286 725.788" stroke="black" stroke-miterlimit="10" stroke-linecap="round" stroke-linejoin="round"/>
<path d="M675.627 1006.51C675.627 1006.51 695.249 1031.81 742.867 1009.4" stroke="black" stroke-miterlimit="10" stroke-linecap="round" stroke-linejoin="round"/>
<path d="M683.523 984.821C683.523 984.821 692.616 995.664 726.117 988.917" stroke="black" stroke-miterlimit="10" stroke-linecap="round" stroke-linejoin="round"/>
<path d="M797.186 984.821C797.186 984.821 824.465 993.495 840.976 984.821" stroke="black" stroke-miterlimit="10" stroke-linecap="round" stroke-linejoin="round"/>
<path d="M709.367 1028.92C691.659 1016.39 675.388 1019.04 675.388 1019.04C675.388 1019.04 693.574 1015.66 709.367 1022.17" stroke="#CFD9DB" stroke-width="0.5" stroke-miterlimit="10" stroke-linecap="round" stroke-linejoin="round"/>
<path d="M683.523 1019.04C683.523 1019.04 653.612 1003.62 663.184 993.495C673.234 983.134 683.523 1019.04 683.523 1019.04Z" stroke="#CFD9DB" stroke-width="0.5" stroke-miterlimit="10" stroke-linecap="round" stroke-linejoin="round"/>
<path d="M683.523 1019.04C683.523 1019.04 694.291 997.833 709.127 996.146C724.203 993.977 699.556 1015.9 683.523 1019.04Z" stroke="#CFD9DB" stroke-width="0.5" stroke-miterlimit="10" stroke-linecap="round" stroke-linejoin="round"/>
<path d="M813.697 1028.92C821.833 1020.72 845.762 1019.04 845.762 1019.04C845.762 1019.04 829.49 1016.63 812.261 1022.41" stroke="#CFD9DB" stroke-width="0.5" stroke-miterlimit="10" stroke-linecap="round" stroke-linejoin="round"/>
<path d="M841.215 1019.04C841.215 1019.04 829.011 997.11 818.243 1002.89C807.236 1008.19 841.215 1019.04 841.215 1019.04Z" stroke="#CFD9DB" stroke-width="0.5" stroke-miterlimit="10" stroke-linecap="round" stroke-linejoin="round"/>
<path d="M841.215 1019.04C841.215 1019.04 849.591 995.423 838.105 990.845C826.858 986.266 841.215 1019.04 841.215 1019.04Z" stroke="#CFD9DB" stroke-width="0.5" stroke-miterlimit="10" stroke-linecap="round" stroke-linejoin="round"/>
<path d="M666.295 366.516L635.905 594.465C635.905 594.465 628.726 644.584 692.138 626.512L666.295 366.516Z" fill="#FF8A69"/>
<path d="M641.648 551.333L635.905 594.465C635.905 594.465 625.615 646.271 692.138 626.512" stroke="black" stroke-miterlimit="10" stroke-linecap="round" stroke-linejoin="round"/>
<path d="M678.259 488.201C667.73 492.779 656.723 494.707 649.066 495.43L656.723 438.804C662.705 439.768 668.448 440.732 673.952 441.937L678.259 488.201Z" fill="black"/>
<path d="M666.295 366.516L631.119 459.768C631.119 459.768 648.587 503.382 698.838 474.466L666.295 366.516Z" fill="#8FC3FF"/>
<path d="M655.048 396.154L631.119 459.768C631.119 459.768 631.837 464.105 636.384 469.165" stroke="black" stroke-miterlimit="10" stroke-linecap="round" stroke-linejoin="round"/>
<path d="M997.471 453.021C980.482 440.25 963.253 458.804 963.253 458.804L872.323 490.37L818.243 362.42L802.689 533.261L818.004 543.863C840.019 559.044 868.733 560.007 891.466 546.273L980.003 499.767C1008 506.514 1023.79 490.129 1023.79 490.129L1029.54 456.394C1030.25 452.057 1026.43 448.202 1022.12 448.925L997.471 453.021Z" fill="#FF8A69"/>
<path d="M859.162 459.286C858.683 461.214 848.155 499.526 805.322 503.382L818.004 362.42L859.162 459.286Z" fill="black"/>
<path d="M795.271 467.96C852.462 506.514 866.819 440.491 866.819 440.491L818.243 362.42L795.271 467.96Z" fill="#8FC3FF"/>
<path d="M861.315 498.321L872.323 490.37L866.819 506.514" stroke="black" stroke-miterlimit="10" stroke-linecap="round" stroke-linejoin="round"/>
<path d="M825.9 374.709L866.819 440.491" stroke="black" stroke-miterlimit="10" stroke-linecap="round" stroke-linejoin="round"/>
<path d="M985.985 466.274L1002.74 462.9L997.471 453.021C990.532 446.756 982.396 447.961 975.457 450.852C966.603 454.708 960.381 463.141 960.142 472.78C960.142 474.707 960.381 475.671 960.381 475.671" stroke="black" stroke-miterlimit="10" stroke-linecap="round" stroke-linejoin="round"/>
<path d="M1029.3 457.358L1008 464.105" stroke="black" stroke-miterlimit="10" stroke-linecap="round" stroke-linejoin="round"/>
<path d="M1008 475.912L1027.38 468.683" stroke="black" stroke-miterlimit="10" stroke-linecap="round" stroke-linejoin="round"/>
<path d="M1008 486.273L1025.71 478.804" stroke="black" stroke-miterlimit="10" stroke-linecap="round" stroke-linejoin="round"/>
<path d="M980.003 499.767L967.082 490.129L973.542 504.827L980.003 499.767Z" fill="black"/>
<path d="M980.003 499.767L896.251 542.417" stroke="black" stroke-miterlimit="10" stroke-linecap="round" stroke-linejoin="round"/>
<path d="M836.908 546.273C836.908 546.273 816.09 594.465 766.078 598.802C716.067 603.139 662.705 561.935 662.705 561.935L666.294 366.516L715.588 352.299V357.601C715.588 357.601 717.981 380.974 742.867 381.215C768.232 381.215 770.864 349.89 770.864 349.89L818.243 362.42L836.908 546.273Z" fill="#CAD9DB"/>
<path d="M716.067 325.312L715.828 357.601C715.828 357.601 718.221 380.974 743.107 381.215C767.993 381.456 770.864 349.89 770.864 349.89L759.139 315.914L716.067 325.312Z" fill="#FF8A69"/>
<path d="M764.403 331.095C764.403 331.095 749.567 357.36 715.828 352.54L716.067 325.553L759.378 316.396L764.403 331.095Z" fill="black"/>
<path d="M771.103 352.299C780.196 444.105 782.829 530.369 764.403 599.043C764.403 599.043 792.4 596.392 802.929 585.79L771.103 352.299Z" fill="black"/>
<path d="M666.295 366.516L658.159 618.32C670.841 639.524 688.309 647.476 710.563 641.693L715.827 352.299C701.709 353.263 685.916 356.878 666.295 366.516Z" fill="#8FC3FF"/>
<path d="M770.864 349.89L791.922 643.38C821.833 638.32 839.301 628.199 847.915 614.464L818.244 362.42C802.211 353.263 786.418 348.926 770.864 349.89Z" fill="#8FC3FF"/>
<path d="M664.62 418.564L658.159 618.079C658.159 618.079 673.234 650.849 710.563 641.452L713.195 496.635" stroke="black" stroke-miterlimit="10" stroke-linecap="round" stroke-linejoin="round"/>
<path d="M825.183 421.455L843.369 576.152" stroke="black" stroke-miterlimit="10" stroke-linecap="round" stroke-linejoin="round"/>
<path d="M832.122 479.768L836.908 454.708" stroke="black" stroke-miterlimit="10" stroke-linecap="round" stroke-linejoin="round"/>
<path d="M666.294 366.516C666.294 366.516 689.027 355.191 715.827 352.299L714.392 427.238" stroke="black" stroke-miterlimit="10" stroke-linecap="round" stroke-linejoin="round"/>
<path d="M722.288 372.299C722.288 372.299 727.313 380.974 743.106 380.974C758.899 380.974 767.035 369.167 771.103 352.299" stroke="black" stroke-miterlimit="10" stroke-linecap="round" stroke-linejoin="round"/>
<path d="M774.932 406.997L786.179 564.586" stroke="black" stroke-miterlimit="10" stroke-linecap="round" stroke-linejoin="round"/>
<path d="M791.921 643.38C791.921 643.38 833.318 638.801 847.915 614.464" stroke="black" stroke-miterlimit="10" stroke-linecap="round" stroke-linejoin="round"/>
<path d="M706.495 293.505C709.845 300.011 709.606 307.24 706.017 309.649C702.188 312.059 696.445 308.927 693.095 302.421C689.745 295.915 689.984 288.686 693.574 286.276C697.402 283.867 703.145 286.999 706.495 293.505Z" fill="#E55145"/>
<path d="M784.264 319.047C778.043 322.661 771.582 322.42 769.428 318.324C767.514 314.228 770.864 307.963 776.846 304.348C783.068 300.734 789.529 300.975 791.682 305.071C793.596 309.168 790.246 315.432 784.264 319.047Z" fill="#E55145"/>
<path d="M702.188 257.361C702.188 257.361 687.352 273.746 696.445 285.794C696.445 285.794 702.666 285.794 703.384 300.011L774.453 315.673C774.453 315.673 780.914 300.493 786.657 301.939C786.657 301.939 796.468 284.831 785.461 277.12C774.453 269.409 702.188 257.361 702.188 257.361Z" fill="black"/>
<path d="M736.407 341.215C707.931 338.806 697.642 293.746 704.342 270.132C711.042 246.518 734.014 232.783 755.55 239.53C777.086 246.277 789.05 270.855 782.35 294.469C775.65 318.083 764.403 343.866 736.407 341.215Z" fill="#FF8A69"/>
<path d="M738.081 302.421L746.935 304.589C746.935 304.589 745.26 310.613 740.713 309.649C736.167 308.445 738.081 302.421 738.081 302.421Z" fill="#E55145"/>
<path d="M731.142 312.3C731.142 312.3 737.842 314.951 749.089 315.432C749.089 315.432 746.935 326.276 738.081 324.589C728.988 322.661 731.142 312.3 731.142 312.3Z" fill="#B2221B"/>
<path d="M732.099 291.095C731.86 293.264 730.185 294.951 728.749 294.71C727.074 294.469 726.117 292.541 726.356 290.373C726.596 288.204 728.271 286.517 729.706 286.758C731.381 286.999 732.578 288.927 732.099 291.095Z" fill="black"/>
<path d="M760.814 298.083C760.575 300.252 758.9 301.939 757.464 301.698C755.789 301.457 754.832 299.529 755.071 297.36C755.31 295.192 756.985 293.505 758.421 293.746C759.857 293.987 761.053 295.915 760.814 298.083Z" fill="black"/>
<path d="M723.485 278.084C723.485 278.084 731.621 273.023 733.774 282.421L723.485 278.084Z" fill="#3A180C"/>
<path d="M754.832 285.553C754.832 285.553 762.489 279.288 765.839 287.24L754.832 285.553Z" fill="#3A180C"/>
<path d="M698.12 276.879C698.12 276.879 717.742 277.361 726.356 255.433C730.663 265.072 740.713 271.819 754.832 276.879L749.089 260.494C749.089 260.494 772.3 293.746 796.468 289.65C796.468 289.65 800.057 265.795 788.811 249.168C777.325 232.301 737.603 215.434 715.588 237.843C715.588 237.843 681.13 245.313 698.12 276.879Z" fill="#723A27"/>
<path d="M749.089 241.217C740.953 244.59 733.057 244.831 727.553 244.349C722.767 243.867 718.46 241.699 715.588 237.843C719.178 233.988 723.485 231.337 728.031 229.651C726.835 232.06 726.356 233.747 726.356 233.747C730.664 230.855 737.603 233.747 737.603 233.747L730.903 237.843C736.885 237.12 748.85 240.735 749.089 241.217Z" fill="#3A180C"/>
<path d="M872.323 490.37L963.253 458.804" stroke="black" stroke-miterlimit="10" stroke-linecap="round" stroke-linejoin="round"/>
<path d="M488.503 431.094L426.048 484.346L413.366 388.203L379.147 362.42C379.147 362.42 353.304 383.865 363.354 408.202L378.908 409.889L379.865 505.55C382.497 542.899 414.083 560.971 446.866 542.176L506.928 512.779L488.503 431.094Z" fill="#CC7256"/>
<path d="M419.348 492.056L426.048 484.346V499.767" stroke="black" stroke-miterlimit="10" stroke-linecap="round" stroke-linejoin="round"/>
<path d="M379.147 409.889L389.437 411.094C389.437 411.094 391.351 404.347 384.651 401.696C384.651 401.696 389.676 402.419 390.155 396.877C390.155 396.877 396.376 409.166 403.794 408.202C403.794 408.202 388.958 421.696 379.387 420.491V409.889H379.147Z" fill="black"/>
<path d="M372.926 381.938L389.915 396.877C389.676 401.214 386.805 401.937 384.412 401.696" stroke="black" stroke-miterlimit="10" stroke-linecap="round" stroke-linejoin="round"/>
<path d="M388.001 368.926C387.044 377.841 391.351 384.106 400.444 387.962L411.691 372.781L398.29 355.191L388.001 368.926Z" fill="#F4F4F4"/>
<path d="M413.366 387.962L377.712 381.215C377.712 381.215 375.319 384.106 376.515 387.962C377.233 389.889 378.669 391.576 380.583 392.299L390.155 396.636L394.223 402.419C396.615 406.275 400.923 408.443 405.469 407.72L415.998 406.034L413.366 387.962Z" fill="#CC7256"/>
<path d="M404.991 407.961C400.444 408.684 396.137 406.516 393.744 402.66L389.676 396.877L380.105 392.54C378.19 391.576 376.755 390.13 376.037 388.203C374.84 384.347 377.233 381.456 377.233 381.456L403.794 386.275" stroke="black" stroke-miterlimit="10" stroke-linecap="round" stroke-linejoin="round"/>
<path d="M437.773 372.54C434.423 378.323 429.159 381.456 426.048 379.528C425.57 379.287 425.091 378.805 424.852 378.323C422.698 376.395 420.066 374.227 413.126 372.54C421.741 367.962 425.809 360.733 425.33 350.854C430.355 355.914 433.466 357.119 436.338 358.082C436.816 358.082 437.534 358.323 438.013 358.564C440.884 360.492 440.884 366.757 437.773 372.54Z" fill="#F4F4F4"/>
<path d="M432.987 347.721C432.27 347.239 431.312 346.998 430.355 346.998C421.98 344.107 410.973 340.251 381.301 291.577L360.483 328.203L339.425 364.829C396.376 365.793 405.23 373.504 411.93 379.287C412.409 380.01 413.126 380.733 413.844 381.215C419.109 384.106 427.484 379.046 432.748 369.89C438.252 360.492 438.252 350.613 432.987 347.721Z" fill="#F4F4F4"/>
<path d="M381.78 340.492C370.294 360.733 349.954 371.094 336.554 363.384C323.154 355.673 321.718 333.023 333.204 312.782C344.69 292.059 365.029 281.939 378.43 289.65C391.83 297.36 393.266 320.011 381.78 340.492Z" fill="#B2221B"/>
<path d="M377.357 337.778C388.896 317.44 387.367 294.692 373.941 286.968C360.515 279.243 340.277 289.468 328.738 309.805C317.199 330.142 318.729 352.891 332.154 360.615C345.58 368.34 365.818 358.115 377.357 337.778Z" fill="#F4F4F4"/>
<path d="M379.865 304.589C361.201 300.734 340.861 307.963 326.743 323.625C327.94 319.529 329.615 315.673 331.768 311.577C341.818 293.987 359.287 285.071 371.012 291.818C375.558 294.469 378.669 299.047 379.865 304.589Z" fill="black"/>
<path d="M374.122 335.914C364.072 353.504 346.604 362.42 334.879 355.673C325.786 350.372 322.914 337.36 326.982 323.625C341.1 307.963 361.44 300.493 380.105 304.589C382.019 313.505 380.105 325.071 374.122 335.914Z" fill="#82B1DB"/>
<path d="M432.988 369.89C427.723 379.287 419.348 384.347 414.084 381.215C413.366 380.733 412.648 380.01 411.93 379.287C408.341 376.395 404.273 372.781 393.026 369.89C406.666 362.42 413.366 350.854 412.648 335.191C420.784 343.625 425.809 345.312 430.356 346.757C431.313 346.757 432.27 346.998 432.988 347.48C438.252 350.613 438.252 360.492 432.988 369.89Z" fill="#B2221B"/>
<path d="M411.93 379.287C411.93 379.287 401.162 366.998 365.986 366.034" stroke="black" stroke-miterlimit="10" stroke-linecap="round" stroke-linejoin="round"/>
<path d="M325.307 331.095C324.111 341.938 327.222 351.577 334.64 355.914C346.365 362.661 363.833 353.745 373.883 336.155C376.994 330.854 378.908 325.071 379.865 319.77" stroke="black" stroke-miterlimit="10" stroke-linecap="round" stroke-linejoin="round"/>
<path d="M394.223 384.588C394.223 384.588 387.283 380.974 388.001 369.167" stroke="black" stroke-miterlimit="10" stroke-linecap="round" stroke-linejoin="round"/>
<path d="M363.594 408.202L389.437 411.094C390.394 406.997 388.719 403.383 384.651 401.696L368.38 395.19" stroke="black" stroke-miterlimit="10" stroke-linecap="round" stroke-linejoin="round"/>
<path d="M379.147 409.889L379.865 487.719" stroke="black" stroke-miterlimit="10" stroke-linecap="round" stroke-linejoin="round"/>
<path d="M421.023 446.515L426.048 484.346" stroke="black" stroke-miterlimit="10" stroke-linecap="round" stroke-linejoin="round"/>
<path d="M523.439 325.553L492.57 375.432C492.57 375.432 461.224 372.299 462.659 412.54C462.659 412.54 442.08 412.54 437.055 436.154C430.116 468.201 485.87 494.707 544.736 506.514C623.223 522.177 678.738 474.466 624.898 429.166C624.898 429.166 628.248 397.6 604.319 391.094L594.747 345.071L523.439 325.553Z" fill="black"/>
<path d="M412.409 597.597C412.409 597.597 463.377 705.306 611.737 646.753L495.203 535.911L412.409 597.597Z" fill="#CAD9DB"/>
<path d="M800.057 953.014C800.057 953.014 741.431 1017.83 678.977 1012.53C616.283 1007.23 475.342 978.556 475.342 978.556L462.659 794.221L685.677 766.751L800.057 953.014Z" fill="#0A2930"/>
<path d="M451.652 607.718L496.878 1035.9C497.356 1041.21 493.767 1046.27 488.263 1046.99C476.059 1048.43 456.438 1054.7 456.438 1079.04H533.25V607.718H451.652Z" fill="#CC7256"/>
<path d="M484.674 1045.3C484.674 1045.3 502.381 1044.1 502.381 1069.4H530.139C530.139 1069.4 530.378 1059.04 537.796 1059.04V1079.04H456.677C456.677 1078.8 449.977 1051.57 484.674 1045.3Z" fill="#9FAAAA"/>
<path d="M495.681 1022.65C495.681 1022.65 501.424 1018.07 533.489 1027.71V1009.64L493.049 997.591L495.681 1022.65Z" fill="black"/>
<path d="M537.557 1072.77V1079.04H456.677C456.677 1079.04 456.198 1076.63 456.198 1072.77H537.557Z" fill="#768483"/>
<path d="M484.674 1045.3C484.674 1045.3 502.381 1045.06 502.381 1069.4H519.371" stroke="black" stroke-miterlimit="10" stroke-linecap="round" stroke-linejoin="round"/>
<path d="M456.677 1078.8H537.557" stroke="black" stroke-miterlimit="10" stroke-linecap="round" stroke-linejoin="round"/>
<path d="M530.139 1069.4C530.139 1069.4 530.139 1060.48 537.796 1059.04" stroke="black" stroke-miterlimit="10" stroke-linecap="round" stroke-linejoin="round"/>
<path d="M488.502 607.718L674.67 1046.51C674.67 1046.51 656.484 1053.98 655.287 1079.04H718.699L577.757 571.814L488.502 607.718Z" fill="#CC7256"/>
<path d="M646.912 980.724C646.912 980.724 669.884 967.953 689.505 973.014L683.762 952.773L641.408 967.953L646.912 980.724Z" fill="black"/>
<path d="M655.287 1078.8C655.287 1078.8 653.134 1045.06 678.977 1045.06C704.82 1045.06 708.409 1069.64 708.409 1069.64H711.999C711.999 1069.64 714.87 1058.07 717.742 1058.07L718.699 1078.8H655.287Z" fill="#CAD9DB"/>
<path d="M718.699 1078.8H655.287C655.287 1078.8 655.048 1076.39 655.527 1072.53H718.699V1078.8Z" fill="#9FAAAA"/>
<path d="M718.699 1078.8H655.287C655.287 1078.8 653.851 1069.64 657.441 1061.93" stroke="black" stroke-miterlimit="10" stroke-linecap="round" stroke-linejoin="round"/>
<path d="M678.977 1045.06C678.977 1045.06 703.385 1043.37 708.41 1069.64H711.999C711.999 1069.64 713.913 1059.76 717.742 1058.07" stroke="black" stroke-miterlimit="10" stroke-linecap="round" stroke-linejoin="round"/>
<path d="M447.105 571.814L475.342 978.556C475.342 978.556 508.364 1061.93 597.14 1013.25C656.005 980.965 744.064 902.653 800.297 953.255L540.907 531.574L447.105 571.814Z" fill="#514F91"/>
<path d="M546.65 580.248L701.949 833.257L687.591 843.377H718.699L707.452 849.642L742.389 906.749" stroke="black" stroke-miterlimit="10" stroke-linecap="round" stroke-linejoin="round"/>
<path d="M611.737 646.753C611.737 646.753 492.092 589.164 449.738 610.368C449.498 610.368 447.105 571.573 447.105 571.573L540.907 531.333L611.737 646.753Z" fill="black"/>
<path d="M472.709 940.725C472.709 940.725 517.696 1015.42 570.1 987.953C622.505 960.484 733.056 887.232 775.171 912.051" stroke="black" stroke-miterlimit="10" stroke-linecap="round" stroke-linejoin="round"/>
<path d="M447.105 571.814L475.342 978.556" stroke="black" stroke-miterlimit="10" stroke-linecap="round" stroke-linejoin="round"/>
<path d="M596.901 1013.25C655.766 980.965 743.825 902.653 800.058 953.255C800.058 953.255 776.129 983.857 724.203 1005.78" stroke="black" stroke-miterlimit="10" stroke-linecap="round" stroke-linejoin="round"/>
<path d="M426.048 617.597C426.048 617.597 439.688 634.464 451.892 641.211" stroke="black" stroke-miterlimit="10" stroke-linecap="round" stroke-linejoin="round"/>
<path d="M579.911 431.093C579.911 431.093 567.707 398.805 568.665 368.444L519.61 379.046C528.703 393.986 528.225 409.648 523.678 418.082L488.503 431.093C488.503 431.093 434.423 479.286 451.891 504.105L447.105 571.814C447.105 571.814 485.152 581.212 527.267 566.513C569.382 551.815 561.725 571.814 561.725 571.814L614.13 450.852L579.911 431.093Z" fill="#CC7256"/>
<path d="M570.1 390.612C570.1 390.612 565.075 422.419 523.918 418.323C528.464 409.889 528.943 394.227 519.85 379.287L568.904 368.685C568.425 375.914 569.143 383.383 570.1 390.612Z" fill="black"/>
<path d="M579.911 551.092C605.276 578.32 614.608 607.958 611.737 646.753C611.737 646.753 541.864 604.585 486.828 585.308C451.652 573.019 412.409 597.356 412.409 597.356L445.431 525.068C445.431 525.068 434.423 503.141 443.995 480.731C453.806 458.322 488.503 431.093 488.503 431.093L523.678 418.323L501.664 487.719L579.911 431.093C593.312 433.744 604.558 440.732 614.13 450.852L579.911 551.092Z" fill="#F4F4F4"/>
<path d="M589.722 522.177L579.911 551.092C588.765 560.489 595.465 570.128 600.49 580.248" stroke="black" stroke-miterlimit="10" stroke-linecap="round" stroke-linejoin="round"/>
<path d="M523.678 418.323L501.664 487.719" stroke="black" stroke-miterlimit="10" stroke-linecap="round" stroke-linejoin="round"/>
<path d="M488.503 431.093C488.503 431.093 454.045 458.322 444.234 480.972C434.423 503.382 445.67 525.309 445.67 525.309L412.648 597.597L430.355 589.164" stroke="black" stroke-miterlimit="10" stroke-linecap="round" stroke-linejoin="round"/>
<path d="M579.912 431.093L539.95 460.009" stroke="black" stroke-miterlimit="10" stroke-linecap="round" stroke-linejoin="round"/>
<path d="M579.911 551.092L565.075 538.562" stroke="black" stroke-miterlimit="10" stroke-linecap="round" stroke-linejoin="round"/>
<path d="M561.725 517.839C549.761 541.453 507.167 525.068 507.167 525.068C478.453 514.466 467.924 524.345 467.924 524.345" stroke="black" stroke-miterlimit="10" stroke-linecap="round" stroke-linejoin="round"/>
<path d="M667.252 534.225L614.129 450.852L606.951 454.708C600.011 458.563 594.268 463.864 590.201 470.129C580.15 485.551 579.193 506.514 590.918 522.658C591.397 523.381 627.769 566.513 627.769 566.513L603.122 590.609L580.15 598.32C575.365 600.007 564.118 609.163 561.725 613.501C561.725 613.501 567.947 633.259 581.347 642.175C581.347 642.175 621.547 633.741 623.94 613.982C623.94 613.982 648.348 599.766 663.902 591.091C683.523 580.248 684.241 556.634 667.252 534.225Z" fill="#CC7256"/>
<path d="M636.862 571.092C630.401 570.61 627.769 566.272 627.769 566.272C627.769 566.272 625.854 566.513 628.965 573.983" stroke="black" stroke-miterlimit="10" stroke-linecap="round" stroke-linejoin="round"/>
<path d="M576.561 638.56L590.44 630.609" stroke="black" stroke-miterlimit="10" stroke-linecap="round" stroke-linejoin="round"/>
<path d="M569.382 630.127L583.5 621.693" stroke="black" stroke-miterlimit="10" stroke-linecap="round" stroke-linejoin="round"/>
<path d="M565.075 621.934L579.433 610.609" stroke="black" stroke-miterlimit="10" stroke-linecap="round" stroke-linejoin="round"/>
<path d="M583.979 596.874C583.979 596.874 584.697 598.561 580.15 593.019C575.604 587.477 582.065 580.248 582.065 580.248L603.361 590.368L583.979 596.874Z" fill="#CC7256"/>
<path d="M595.704 593.019L577.279 599.525" stroke="black" stroke-miterlimit="10" stroke-linecap="round" stroke-linejoin="round"/>
<path d="M582.065 580.248C581.347 581.212 575.604 588.2 580.15 593.019C584.936 597.838 583.979 596.874 583.979 596.874" stroke="black" stroke-miterlimit="10" stroke-linecap="round" stroke-linejoin="round"/>
<path d="M614.13 450.852L606.951 454.708C600.011 458.563 594.269 463.864 590.201 470.129C580.15 485.551 579.193 506.514 590.918 522.658L605.515 540.249" stroke="black" stroke-miterlimit="10" stroke-linecap="round" stroke-linejoin="round"/>
<path d="M636.862 606.754C636.862 606.754 648.348 600.007 663.902 591.332C683.284 580.489 684.241 556.634 667.012 534.225L645.955 500.972" stroke="black" stroke-miterlimit="10" stroke-linecap="round" stroke-linejoin="round"/>
<path d="M522.003 359.769C524.157 366.275 522.721 372.781 519.132 374.468C515.543 376.155 510.757 372.299 508.842 366.034C506.689 359.528 508.125 353.022 511.714 351.336C515.303 349.408 519.85 353.263 522.003 359.769Z" fill="#99413A"/>
<path d="M586.372 393.986C580.39 396.636 574.647 395.431 573.451 391.335C572.254 387.239 576.083 381.938 582.065 379.287C588.047 376.636 593.79 377.841 594.987 381.938C596.183 386.034 592.355 391.335 586.372 393.986Z" fill="#99413A"/>
<path d="M541.147 407.961C516.5 401.696 514.107 358.805 523.439 337.842C532.772 316.878 555.025 307.24 572.972 316.396C590.919 325.553 597.858 349.89 588.526 370.853C578.954 391.817 565.554 414.226 541.147 407.961Z" fill="#CC7256"/>
<path d="M571.297 305.071C571.297 305.071 527.268 294.951 514.585 329.649C514.585 329.649 518.893 347.721 549.043 349.167C549.043 349.167 548.804 339.047 555.983 337.36C551.915 343.384 555.265 351.818 561.965 353.022L571.058 354.95C568.904 351.095 570.818 347.48 572.254 343.625L573.929 347.48C576.322 353.022 580.629 357.36 585.894 360.01L599.055 366.275C599.055 366.516 611.498 321.216 571.297 305.071Z" fill="black"/>
<path d="M543.539 374.95L552.632 377.841C552.632 377.841 552.154 382.419 547.129 381.697C542.343 381.215 543.539 374.95 543.539 374.95Z" fill="#99413A"/>
<path d="M536.361 380.974C536.361 380.974 543.539 386.516 555.504 386.757C555.504 386.757 550.479 397.841 542.582 395.913C534.446 393.986 536.361 380.974 536.361 380.974Z" fill="#B2221B"/>
<path d="M530.618 353.022C530.618 353.022 544.736 346.998 543.3 359.046C540.668 356.637 536.361 353.745 530.618 353.022Z" fill="black"/>
<path d="M574.408 363.866C574.408 363.866 564.118 353.263 560.529 363.384C564.118 362.179 568.904 362.42 574.408 363.866Z" fill="black"/>
<path d="M569.383 370.131C568.426 371.335 566.99 371.335 565.793 371.094C565.554 370.131 564.836 369.408 564.118 369.167C562.683 368.926 561.008 370.131 560.529 372.299C560.05 374.227 560.768 376.395 562.204 376.636C563.64 376.877 565.315 375.673 565.793 373.504C565.793 373.263 565.793 373.263 565.793 373.022C568.904 373.022 569.383 370.131 569.383 370.131Z" fill="black"/>
<path d="M532.771 359.046C533.011 360.492 534.207 361.456 535.164 361.697C535.882 360.974 536.839 360.733 537.557 360.974C538.993 361.456 539.471 363.384 538.993 365.552C538.275 367.48 536.6 368.685 535.164 368.203C533.728 367.721 533.25 365.793 533.728 363.625C533.728 363.384 533.728 363.384 533.968 363.143C531.575 361.697 532.771 359.046 532.771 359.046Z" fill="black"/>
<path d="M999.386 459.527L1094.14 440.973L1171.91 371.094L1190.34 340.01L1193.69 340.733C1197.28 341.456 1199.91 344.589 1200.15 348.444L1198.47 360.492L1220.25 359.528C1226.23 359.528 1231.26 363.625 1232.45 369.408L1237 390.612L1186.75 416.395L1132.43 482.418C1124.53 491.816 1109.46 499.526 1097.49 502.418L1038.39 516.394L999.386 459.527Z" fill="#FFAB97"/>
<path d="M1059.45 451.575C1059.45 451.575 1093.9 473.503 1091.51 504.105L1062.08 511.815L1059.45 451.575Z" fill="black"/>
<path d="M1096.54 454.949L1094.14 440.973L1105.87 451.575" stroke="black" stroke-miterlimit="10" stroke-linecap="round" stroke-linejoin="round"/>
<path d="M1232.69 369.408H1214.27" stroke="black" stroke-miterlimit="10" stroke-linecap="round" stroke-linejoin="round"/>
<path d="M1234.13 376.636L1220.49 379.287" stroke="black" stroke-miterlimit="10" stroke-linecap="round" stroke-linejoin="round"/>
<path d="M1235.8 384.347L1220.49 390.612" stroke="black" stroke-miterlimit="10" stroke-linecap="round" stroke-linejoin="round"/>
<path d="M1186.75 416.395C1186.75 416.395 1176.22 416.395 1175.98 406.034C1175.98 406.034 1174.55 418.564 1178.85 425.551L1186.75 416.395Z" fill="black"/>
<path d="M1171.91 391.335C1165.93 387.239 1171.91 371.094 1171.91 371.094L1190.34 340.01C1190.34 340.01 1201.11 341.697 1200.15 348.444C1199.19 355.191 1198.47 360.492 1198.47 360.492L1197.28 371.817C1197.28 371.817 1209.72 385.07 1202.54 392.54" stroke="black" stroke-miterlimit="10" stroke-linecap="round" stroke-linejoin="round"/>
<path d="M855.812 547.477L773.257 655.428L671.559 684.584L635.666 682.174V689.885C635.666 693.018 637.341 696.15 639.733 697.837L657.68 705.307L646.673 726.752C639.973 736.631 644.28 750.366 655.287 754.703L675.388 762.414L707.213 715.186L800.057 708.921C812.022 706.993 823.029 701.451 831.644 693.018L894.337 631.332L855.812 547.477Z" fill="#FFAB97"/>
<path d="M809.629 607.958C809.629 607.958 807.715 664.584 839.062 686.03L845.762 679.524L823.029 590.609L809.629 607.958Z" fill="black"/>
<path d="M777.325 671.572L773.257 655.428L788.093 667.476" stroke="black" stroke-miterlimit="10" stroke-linecap="round" stroke-linejoin="round"/>
<path d="M659.594 726.752L647.151 748.438" stroke="black" stroke-miterlimit="10" stroke-linecap="round" stroke-linejoin="round"/>
<path d="M655.526 754.703L665.816 737.595" stroke="black" stroke-miterlimit="10" stroke-linecap="round" stroke-linejoin="round"/>
<path d="M665.816 758.8L680.173 737.595" stroke="black" stroke-miterlimit="10" stroke-linecap="round" stroke-linejoin="round"/>
<path d="M707.452 715.186C707.452 715.186 710.085 704.825 705.777 702.174C705.777 702.174 718.46 704.584 719.178 714.463L707.452 715.186Z" fill="black"/>
<path d="M635.666 682.174C633.991 697.114 639.734 697.837 639.734 697.837L657.68 705.307H667.491C667.491 705.307 672.755 718.077 684.481 710.126" stroke="black" stroke-miterlimit="10" stroke-linecap="round" stroke-linejoin="round"/>
<path d="M707.453 715.186L800.297 708.921" stroke="black" stroke-miterlimit="10" stroke-linecap="round" stroke-linejoin="round"/>
<path d="M985.985 981.688L942.913 1042.65L977.61 1076.39H1063.99C1063.99 1076.39 1067.34 1036.87 1038.15 1036.87C1008.96 1036.87 1014.7 1036.87 1014.7 1036.87L1037.19 996.387L985.985 981.688Z" fill="#FFAB97"/>
<path d="M1037.43 996.387L1018.77 1030.12C981.2 1037.59 963.971 1013.25 963.971 1013.25L986.225 981.688L1037.43 996.387Z" fill="black"/>
<path d="M985.986 673.5L1090.08 829.401L977.132 994.7C977.132 994.7 992.925 1034.94 1040.06 1017.83L1166.17 880.244C1179.09 866.027 1191.54 850.365 1181.01 827.714L1091.75 622.175L985.986 673.5Z" fill="#5B93BC"/>
<path d="M1033.13 682.174L1115.92 822.172H1103L1120.47 831.57L1103 829.16L1114.72 840.485H1100.61L987.421 1009.64" stroke="black" stroke-miterlimit="10" stroke-linecap="round" stroke-linejoin="round"/>
<path d="M1035.04 649.645L1090.08 829.401L985.985 673.5L1035.04 649.645Z" fill="black"/>
<path d="M989.336 974.459C990.532 986.025 999.386 1007.71 1050.59 1009.4C1052.51 1009.4 1053.47 1011.81 1052.03 1013.01L1033.36 1030.84C1033.13 1031.09 1032.89 1031.08 1032.89 1031.33C1029.06 1033.01 993.643 1047.95 969.475 999.037C969.235 998.314 969.235 997.592 969.714 996.869L985.746 973.495C986.703 971.809 989.336 972.532 989.336 974.459Z" fill="#9FAAAA"/>
<path d="M1063.99 1076.39H977.61L942.913 1042.65C941.956 1032.77 947.221 1026.51 957.271 1022.41C957.271 1022.41 952.006 1048.68 983.832 1039.28L994.121 1038.31C994.121 1038.31 997.95 1025.78 1010.87 1026.99C1014.22 1027.23 1017.09 1027.95 1019.25 1029.16C1025.71 1032.05 1028.1 1037.11 1028.1 1037.11H1038.15C1067.58 1037.11 1063.99 1076.39 1063.99 1076.39Z" fill="#06262D"/>
<path d="M1063.99 1076.39H977.61L942.913 1042.65C942.674 1039.52 942.913 1036.63 943.871 1034.22L983.353 1067.71H1063.99C1063.99 1068.67 1064.23 1069.64 1064.23 1070.36C1064.23 1070.84 1064.23 1071.08 1064.23 1071.57C1064.23 1074.7 1063.99 1076.39 1063.99 1076.39Z" fill="#9FAAAA"/>
<path d="M1063.99 1067.71H1006.33C1006.33 1067.71 1003.21 1036.87 1028.34 1036.87H1038.39C1058.73 1037.11 1063.28 1056.14 1063.99 1067.71Z" fill="#9FAAAA"/>
<path d="M985.985 1022.41L1004.65 998.314" stroke="black" stroke-miterlimit="10" stroke-linecap="round" stroke-linejoin="round"/>
<path d="M942.913 1042.89L977.849 1076.39H1063.99" stroke="black" stroke-miterlimit="10" stroke-linecap="round" stroke-linejoin="round"/>
<path d="M943.871 1034.46L983.353 1067.71H994.121" stroke="black" stroke-miterlimit="10" stroke-linecap="round" stroke-linejoin="round"/>
<path d="M1063.99 1067.71H1042.22" stroke="black" stroke-miterlimit="10" stroke-linecap="round" stroke-linejoin="round"/>
<path d="M1028.34 1037.11C1028.34 1037.11 1010.39 1037.83 1007.28 1043.86" stroke="white" stroke-width="0.5" stroke-miterlimit="10" stroke-linecap="round" stroke-linejoin="round"/>
<path d="M1002.02 1040.48C1002.02 1040.48 1007.04 1035.42 1024.99 1037.35" stroke="white" stroke-width="0.5" stroke-miterlimit="10" stroke-linecap="round" stroke-linejoin="round"/>
<path d="M1021.16 1037.11C1021.16 1037.11 1002.98 1033.74 1006.33 1025.54C1009.91 1017.35 1021.16 1037.11 1021.16 1037.11Z" stroke="white" stroke-width="0.5" stroke-miterlimit="10" stroke-linecap="round" stroke-linejoin="round"/>
<path d="M1021.16 1037.11C1021.16 1037.11 1022.84 1018.56 1031.21 1021.21C1039.59 1023.86 1021.16 1037.11 1021.16 1037.11Z" stroke="white" stroke-width="0.5" stroke-miterlimit="10" stroke-linecap="round" stroke-linejoin="round"/>
<path d="M879.023 981.688L827.336 1054.94L870.648 1076.39H957.031C957.031 1076.39 960.381 1036.87 931.188 1036.87C901.995 1036.87 907.738 1036.87 907.738 1036.87L930.231 996.387L879.023 981.688Z" fill="#FFAB97"/>
<path d="M930.47 996.387L911.566 1030.84C866.101 1033.49 861.794 1006.27 861.794 1006.27L879.023 981.688L930.47 996.387Z" fill="black"/>
<path d="M925.924 653.982L982.875 829.401L878.784 981.688C878.784 981.688 885.723 1034.94 933.102 1017.83L1059.21 880.244C1072.13 866.027 1077.63 846.509 1074.04 827.714L1031.69 602.416L925.924 653.982Z" fill="#82B1DB"/>
<path d="M949.135 725.065C949.135 725.065 1006.09 713.74 1047.48 686.03L941.238 700.728L949.135 725.065Z" fill="black"/>
<path d="M886.919 1003.86L999.385 859.28L994.36 846.509L1010.15 856.389L999.385 835.907H1019.01L994.36 822.172H1003.69L967.56 705.547" stroke="black" stroke-miterlimit="10" stroke-linecap="round" stroke-linejoin="round"/>
<path d="M888.116 962.893C891.705 972.773 905.345 999.76 945.306 1008.68C946.981 1009.16 947.46 1011.09 946.263 1012.29L926.881 1030.84C926.641 1031.09 926.402 1031.33 925.924 1031.33C920.659 1032.77 873.998 1044.34 865.144 987.471C865.144 986.989 865.144 986.266 865.623 985.784L884.048 962.17C885.484 961.207 887.398 961.447 888.116 962.893Z" fill="#CAD9DB"/>
<path d="M957.271 1076.39H870.887L827.576 1054.94C829.49 1041.45 837.387 1032.05 848.633 1025.3C849.83 1048.43 875.194 1037.11 875.194 1037.11H883.091C908.216 1010.84 918.506 1037.11 918.506 1037.11H931.667C960.621 1037.11 957.271 1076.39 957.271 1076.39Z" fill="#06262D"/>
<path d="M957.271 1076.39H870.887L827.576 1054.94C828.054 1052.29 828.533 1049.88 829.251 1047.47L872.084 1066.51H957.031C957.271 1067.71 957.271 1068.92 957.271 1069.88C957.271 1070.36 957.271 1070.84 957.271 1071.33C957.271 1074.46 957.271 1076.39 957.271 1076.39Z" fill="#CAD9DB"/>
<path d="M957.031 1066.51H886.919C886.919 1066.51 892.662 1036.87 918.266 1036.87C925.924 1036.87 932.384 1036.87 937.888 1037.59C952.245 1041.21 956.074 1056.14 957.031 1066.51Z" fill="#CAD9DB"/>
<path d="M979.524 743.86C979.524 743.86 988.857 739.041 982.157 706.993" stroke="black" stroke-miterlimit="10" stroke-linecap="round" stroke-linejoin="round"/>
<path d="M869.451 1003.86L894.577 975.664" stroke="black" stroke-miterlimit="10" stroke-linecap="round" stroke-linejoin="round"/>
<path d="M918.267 1037.11C918.267 1037.11 902.474 1035.42 892.184 1045.3" stroke="white" stroke-width="0.5" stroke-miterlimit="10" stroke-linecap="round" stroke-linejoin="round"/>
<path d="M888.355 1040.96C888.355 1040.96 893.62 1036.87 914.677 1036.87" stroke="white" stroke-width="0.5" stroke-miterlimit="10" stroke-linecap="round" stroke-linejoin="round"/>
<path d="M903.909 1038.55C903.909 1038.55 876.63 1025.06 886.92 1011.57C897.448 998.314 903.909 1038.55 903.909 1038.55Z" stroke="white" stroke-width="0.5" stroke-miterlimit="10" stroke-linecap="round" stroke-linejoin="round"/>
<path d="M903.909 1038.55C903.909 1038.55 904.627 1020.72 917.309 1020.24C929.752 1019.52 903.909 1038.55 903.909 1038.55Z" stroke="white" stroke-width="0.5" stroke-miterlimit="10" stroke-linecap="round" stroke-linejoin="round"/>
<path d="M827.576 1054.94L870.887 1076.39H957.271" stroke="black" stroke-miterlimit="10" stroke-linecap="round" stroke-linejoin="round"/>
<path d="M829.25 1047.47L872.083 1066.51H910.13" stroke="black" stroke-miterlimit="10" stroke-linecap="round" stroke-linejoin="round"/>
<path d="M852.94 1036.87C852.94 1036.87 860.837 1042.89 874.955 1037.11" stroke="black" stroke-miterlimit="10" stroke-linecap="round" stroke-linejoin="round"/>
<path d="M957.031 1066.51H946.981" stroke="black" stroke-miterlimit="10" stroke-linecap="round" stroke-linejoin="round"/>
<path d="M999.386 459.527L952.724 469.406L945.546 443.142L892.423 440.973L904.866 483.141L855.812 547.477L926.163 700.728C926.163 700.728 1103.96 709.885 1110.42 622.657L999.386 459.527Z" fill="#FFAB97"/>
<path d="M950.331 460.973C933.581 491.816 908.695 484.346 905.106 483.141C904.866 483.141 904.627 482.9 904.627 482.9L892.184 440.732L945.306 442.901L950.331 460.973Z" fill="black"/>
<path d="M1110.42 622.416C1103.96 709.644 926.163 700.487 926.163 700.487L855.812 547.477L904.627 483.141C904.627 483.141 922.574 520.731 949.374 511.574C986.464 498.803 952.724 469.406 952.724 469.406L999.386 459.527L1110.42 622.416Z" fill="#F4F4F4"/>
<path d="M855.812 547.477L809.629 607.958C817.525 644.825 836.669 673.5 861.794 695.427L906.302 657.355L855.812 547.477Z" fill="#A3C4C9"/>
<path d="M999.385 459.527L1059.45 447.961C1059.45 447.961 1098.21 493.02 1075.48 540.249H1054.66L999.385 459.527Z" fill="#A3C4C9"/>
<path d="M879.023 597.838L926.163 700.487" stroke="black" stroke-miterlimit="10" stroke-linecap="round" stroke-linejoin="round"/>
<path d="M883.569 630.127L906.541 657.355L861.794 695.427" stroke="black" stroke-miterlimit="10" stroke-linecap="round" stroke-linejoin="round"/>
<path d="M1086.97 587.718L1029.06 503.141" stroke="black" stroke-miterlimit="10" stroke-linecap="round" stroke-linejoin="round"/>
<path d="M950.331 671.572C950.331 671.572 1062.08 683.379 1086.73 613.26" stroke="black" stroke-miterlimit="10" stroke-linecap="round" stroke-linejoin="round"/>
<path d="M1054.42 540.249L1050.11 511.574" stroke="black" stroke-miterlimit="10" stroke-linecap="round" stroke-linejoin="round"/>
<path d="M983.114 462.9L1059.21 447.961" stroke="black" stroke-miterlimit="10" stroke-linecap="round" stroke-linejoin="round"/>
<path d="M952.724 469.406C952.724 469.406 982.635 498.321 952.963 510.129" stroke="black" stroke-miterlimit="10" stroke-linecap="round" stroke-linejoin="round"/>
<path d="M921.377 504.827C911.088 498.562 904.866 483.141 904.866 483.141L809.868 607.958" stroke="black" stroke-miterlimit="10" stroke-linecap="round" stroke-linejoin="round"/>
<path d="M887.637 428.925C891.226 435.19 891.226 442.419 887.637 445.069C884.048 447.72 878.066 444.587 874.237 438.322C870.648 432.057 870.648 424.829 874.237 422.178C878.066 419.527 884.048 422.66 887.637 428.925Z" fill="#FF8A69"/>
<path d="M966.364 451.334C960.381 455.19 953.681 455.19 951.528 451.093C949.374 446.997 952.485 440.732 958.467 436.636C964.449 432.78 971.149 432.78 973.303 436.877C975.457 440.973 972.346 447.479 966.364 451.334Z" fill="#FF8A69"/>
<path d="M881.894 392.781C881.894 392.781 867.776 409.889 877.348 421.455C877.348 421.455 883.569 421.214 885.005 435.431L956.792 448.443C956.792 448.443 962.535 433.021 968.517 433.985C968.517 433.985 977.849 416.395 966.363 409.166C954.877 401.937 881.894 392.781 881.894 392.781Z" fill="#67160D"/>
<path d="M919.463 475.671C890.748 474.225 878.784 429.648 884.527 405.552C890.269 381.697 912.763 366.998 934.777 372.781C956.553 378.564 969.474 402.901 963.731 426.756C957.749 450.852 947.699 476.876 919.463 475.671Z" fill="#FFAB97"/>
<path d="M868.733 371.094C868.733 371.094 863.469 411.094 897.209 411.335C914.677 411.335 926.163 409.166 926.163 409.166L921.138 414.708C921.138 414.708 942.435 422.178 954.399 413.021C954.399 413.021 952.963 428.443 962.774 428.684C962.774 428.684 982.874 415.913 979.046 397.359C977.371 389.648 967.321 386.034 967.321 386.034C967.321 386.034 967.081 367.962 950.81 365.552C934.538 363.384 881.894 353.986 881.894 353.986C881.894 353.986 874.716 367.962 881.176 371.576L868.733 371.094Z" fill="#996352"/>
<path d="M913.959 444.828L923.052 446.515C923.052 446.515 921.616 452.78 916.831 451.816C912.045 450.852 913.959 444.828 913.959 444.828Z" fill="#FF8A69"/>
<path d="M909.412 454.708C909.412 454.708 916.352 457.117 927.598 457.117C927.598 457.117 925.923 468.201 916.83 466.756C907.737 465.31 909.412 454.708 909.412 454.708Z" fill="#B2221B"/>
<path d="M907.498 433.744C907.259 435.913 905.823 437.599 904.148 437.599C902.473 437.358 901.516 435.431 901.755 433.262C901.994 431.094 903.43 429.407 905.105 429.407C906.541 429.648 907.737 431.575 907.498 433.744Z" fill="black"/>
<path d="M936.452 439.768C936.213 441.937 934.777 443.623 933.102 443.623C931.427 443.382 930.47 441.455 930.709 439.286C930.949 437.118 932.384 435.431 934.059 435.431C935.495 435.431 936.691 437.358 936.452 439.768Z" fill="black"/>
<path d="M898.166 420.973C898.166 420.973 906.063 415.431 908.695 425.069L898.166 420.973Z" fill="#C42D0A"/>
<path d="M929.992 427.238C929.992 427.238 937.41 420.732 940.999 428.443L929.992 427.238Z" fill="#C42D0A"/>
<path d="M967.56 386.034L952.724 392.781C952.724 392.781 947.938 396.395 936.931 391.335L946.263 389.889C946.263 389.889 943.631 384.588 933.82 382.66C933.82 382.66 946.503 378.564 953.681 382.66V376.395C953.921 376.395 964.449 375.673 967.56 386.034Z" fill="#996352"/>
</g>
<defs>
<clipPath id="clip0_266_29">
<rect width="916" height="853" fill="white" transform="translate(321 227)"/>
</clipPath>
</defs>
</svg>
