<svg width="1633" height="232" viewBox="0 0 1633 232" fill="none" xmlns="http://www.w3.org/2000/svg">
<g filter="url(#filter0_d_298_121)">
<g clip-path="url(#clip0_298_121)">
<g clip-path="url(#clip1_298_121)">
<path d="M1777 -428H-143V652H1777V-428Z" fill="#001220"/>
<path d="M1777 544C1640.7 540 1504.3 536.1 1405 470C1305.8 404 1243.6 275.8 1172.4 176.6C1101.3 77.3 1021.2 7.00001 958.4 -88.9C895.7 -184.9 850.4 -306.4 805 -428H1777V544Z" fill="#0C1C30"/>
<path d="M1777 422.5C1657.7 419 1538.4 415.6 1451.5 357.8C1364.7 300 1310.2 187.8 1248 101C1185.7 14.2 1115.7 -47.4 1060.8 -131.3C1005.9 -215.3 966.2 -321.6 926.5 -428H1777V422.5Z" fill="#312C4F"/>
<path d="M1777 301C1674.7 298 1572.5 295 1498 245.5C1423.6 196 1376.9 99.9 1323.6 25.4C1270.2 -49 1210.1 -101.7 1163.1 -173.7C1116 -245.7 1082 -336.8 1048 -428H1777V301Z" fill="#623965"/>
<path d="M1777 179.5C1691.8 177 1606.6 174.5 1544.5 133.3C1482.5 92 1443.6 11.9 1399.1 -50.1C1354.7 -112.2 1304.6 -156.1 1265.4 -216.1C1226.2 -276.1 1197.8 -352 1169.5 -428H1777V179.5Z" fill="#96446E"/>
<path d="M1777 58C1708.8 56 1640.7 54 1591 21C1541.4 -12 1510.3 -76.1 1474.7 -125.7C1439.1 -175.3 1399.1 -210.5 1367.7 -258.5C1336.4 -306.4 1313.7 -367.2 1291 -428H1777V58Z" fill="#C55469"/>
<path d="M-143 -320C-25 -295.3 92.9 -270.7 223.2 -232.2C353.5 -193.6 496.2 -141.2 544.3 -35.3C592.4 70.6 545.9 230 577.6 353.5C609.3 477 719.2 564.5 829 652H-143V-320Z" fill="#0C1C30"/>
<path d="M-143 -198.5C-39.8 -176.9 63.4 -155.3 177.4 -121.6C291.5 -87.9 416.3 -42.1 458.4 50.6C500.5 143.3 459.8 282.8 487.5 390.8C515.3 498.9 611.4 575.4 707.5 652H-143V-198.5Z" fill="#312C4F"/>
<path d="M-143 -77C-54.5 -58.5 33.9 -40 131.7 -11.1C229.4 17.8 336.4 57.1 372.5 136.5C408.6 216 373.7 335.5 397.5 428.1C421.2 520.7 503.6 586.4 586 652H-143V-77Z" fill="#623965"/>
<path d="M-143 44.5C-69.3 59.9 4.39999 75.3 85.9 99.4C167.3 123.5 256.5 156.2 286.6 222.4C316.6 288.6 287.6 388.3 307.4 465.4C327.2 542.6 395.8 597.3 464.5 652H-143V44.5Z" fill="#96446E"/>
<path d="M-143 166C-84 178.3 -25 190.7 40.1 209.9C105.3 229.2 176.6 255.4 200.7 308.3C224.7 361.3 201.5 441 217.3 502.8C233.2 564.5 288.1 608.2 343 652H-143V166Z" fill="#C55469"/>
</g>
<path d="M1066.67 176.608V180.974H1050.98V176.608H1066.67ZM1088.32 187.079H1078.03L1076.33 192H1070.89L1080.18 166.137H1086.21L1095.49 192H1090.02L1088.32 187.079ZM1086.91 182.935L1083.17 172.131L1079.44 182.935H1086.91ZM1110.33 171.206C1112.77 171.206 1114.74 171.983 1116.25 173.537C1117.75 175.066 1118.5 177.212 1118.5 179.975V192H1113.32V180.678C1113.32 179.05 1112.92 177.804 1112.1 176.941C1111.29 176.053 1110.18 175.609 1108.77 175.609C1107.34 175.609 1106.21 176.053 1105.37 176.941C1104.55 177.804 1104.15 179.05 1104.15 180.678V192H1098.97V171.502H1104.15V174.055C1104.84 173.167 1105.71 172.476 1106.77 171.983C1107.86 171.465 1109.04 171.206 1110.33 171.206ZM1132.53 192.333C1130.56 192.333 1128.78 191.901 1127.2 191.038C1125.62 190.15 1124.38 188.904 1123.47 187.301C1122.58 185.698 1122.13 183.848 1122.13 181.751C1122.13 179.654 1122.59 177.804 1123.5 176.201C1124.44 174.598 1125.71 173.364 1127.31 172.501C1128.92 171.613 1130.7 171.169 1132.68 171.169C1134.65 171.169 1136.44 171.613 1138.04 172.501C1139.65 173.364 1140.9 174.598 1141.82 176.201C1142.75 177.804 1143.22 179.654 1143.22 181.751C1143.22 183.848 1142.74 185.698 1141.78 187.301C1140.84 188.904 1139.56 190.15 1137.93 191.038C1136.33 191.901 1134.53 192.333 1132.53 192.333ZM1132.53 187.819C1133.47 187.819 1134.34 187.597 1135.16 187.153C1136 186.684 1136.66 185.994 1137.16 185.081C1137.65 184.168 1137.9 183.058 1137.9 181.751C1137.9 179.802 1137.38 178.31 1136.34 177.274C1135.33 176.213 1134.08 175.683 1132.6 175.683C1131.12 175.683 1129.88 176.213 1128.87 177.274C1127.88 178.31 1127.39 179.802 1127.39 181.751C1127.39 183.7 1127.87 185.204 1128.83 186.265C1129.82 187.301 1131.05 187.819 1132.53 187.819ZM1158.38 171.206C1160.82 171.206 1162.8 171.983 1164.3 173.537C1165.81 175.066 1166.56 177.212 1166.56 179.975V192H1161.38V180.678C1161.38 179.05 1160.97 177.804 1160.16 176.941C1159.34 176.053 1158.23 175.609 1156.83 175.609C1155.4 175.609 1154.26 176.053 1153.42 176.941C1152.61 177.804 1152.2 179.05 1152.2 180.678V192H1147.02V171.502H1152.2V174.055C1152.89 173.167 1153.77 172.476 1154.83 171.983C1155.92 171.465 1157.1 171.206 1158.38 171.206ZM1174.11 169.06C1173.2 169.06 1172.43 168.776 1171.82 168.209C1171.23 167.617 1170.93 166.889 1170.93 166.026C1170.93 165.163 1171.23 164.447 1171.82 163.88C1172.43 163.288 1173.2 162.992 1174.11 162.992C1175.02 162.992 1175.78 163.288 1176.37 163.88C1176.99 164.447 1177.29 165.163 1177.29 166.026C1177.29 166.889 1176.99 167.617 1176.37 168.209C1175.78 168.776 1175.02 169.06 1174.11 169.06ZM1176.66 171.502V192H1171.48V171.502H1176.66ZM1207.24 171.206C1209.75 171.206 1211.78 171.983 1213.31 173.537C1214.86 175.066 1215.64 177.212 1215.64 179.975V192H1210.46V180.678C1210.46 179.075 1210.05 177.854 1209.24 177.015C1208.42 176.152 1207.31 175.72 1205.91 175.72C1204.5 175.72 1203.38 176.152 1202.54 177.015C1201.73 177.854 1201.32 179.075 1201.32 180.678V192H1196.14V180.678C1196.14 179.075 1195.73 177.854 1194.92 177.015C1194.1 176.152 1192.99 175.72 1191.59 175.72C1190.16 175.72 1189.02 176.152 1188.18 177.015C1187.37 177.854 1186.96 179.075 1186.96 180.678V192H1181.78V171.502H1186.96V173.981C1187.63 173.118 1188.48 172.439 1189.52 171.946C1190.58 171.453 1191.74 171.206 1192.99 171.206C1194.6 171.206 1196.03 171.551 1197.29 172.242C1198.54 172.908 1199.52 173.87 1200.21 175.128C1200.87 173.944 1201.84 172.994 1203.09 172.279C1204.38 171.564 1205.76 171.206 1207.24 171.206Z" fill="white"/>
<path d="M423.051 64.498H417.575L421.571 55.174H425.16L423.051 64.498ZM430.525 64.498H425.049L429.045 55.174H432.634L430.525 64.498ZM445.642 55.174C448.355 55.174 450.735 55.7043 452.783 56.765C454.855 57.8257 456.446 59.3427 457.556 61.316C458.69 63.2647 459.258 65.534 459.258 68.124C459.258 70.714 458.69 72.9833 457.556 74.932C456.446 76.856 454.855 78.3483 452.783 79.409C450.735 80.4697 448.355 81 445.642 81H436.614V55.174H445.642ZM445.457 76.597C448.17 76.597 450.267 75.857 451.747 74.377C453.227 72.897 453.967 70.8127 453.967 68.124C453.967 65.4353 453.227 63.3387 451.747 61.834C450.267 60.3047 448.17 59.54 445.457 59.54H441.794V76.597H445.457ZM482.19 70.307C482.19 71.047 482.141 71.713 482.042 72.305H467.057C467.18 73.785 467.698 74.9443 468.611 75.783C469.524 76.6217 470.646 77.041 471.978 77.041C473.902 77.041 475.271 76.2147 476.085 74.562H481.672C481.08 76.5353 479.945 78.1633 478.268 79.446C476.591 80.704 474.531 81.333 472.089 81.333C470.116 81.333 468.34 80.9013 466.761 80.038C465.207 79.15 463.986 77.9043 463.098 76.301C462.235 74.6977 461.803 72.8477 461.803 70.751C461.803 68.6297 462.235 66.7673 463.098 65.164C463.961 63.5607 465.17 62.3273 466.724 61.464C468.278 60.6007 470.066 60.169 472.089 60.169C474.038 60.169 475.777 60.5883 477.306 61.427C478.86 62.2657 480.056 63.462 480.895 65.016C481.758 66.5453 482.19 68.309 482.19 70.307ZM476.825 68.827C476.8 67.495 476.319 66.4343 475.382 65.645C474.445 64.831 473.298 64.424 471.941 64.424C470.658 64.424 469.573 64.8187 468.685 65.608C467.822 66.3727 467.291 67.4457 467.094 68.827H476.825ZM497.33 60.206C499.772 60.206 501.745 60.983 503.25 62.537C504.755 64.0663 505.507 66.2123 505.507 68.975V81H500.327V69.678C500.327 68.05 499.92 66.8043 499.106 65.941C498.292 65.053 497.182 64.609 495.776 64.609C494.345 64.609 493.211 65.053 492.372 65.941C491.558 66.8043 491.151 68.05 491.151 69.678V81H485.971V60.502H491.151V63.055C491.842 62.167 492.717 61.4763 493.778 60.983C494.863 60.465 496.047 60.206 497.33 60.206ZM518.462 60.169C519.991 60.169 521.336 60.4773 522.495 61.094C523.654 61.686 524.567 62.463 525.233 63.425V60.502H530.45V81.148C530.45 83.0473 530.068 84.737 529.303 86.217C528.538 87.7217 527.391 88.9057 525.862 89.769C524.333 90.657 522.483 91.101 520.312 91.101C517.401 91.101 515.009 90.4227 513.134 89.066C511.284 87.7093 510.236 85.8593 509.989 83.516H515.132C515.403 84.4533 515.983 85.1933 516.871 85.736C517.784 86.3033 518.881 86.587 520.164 86.587C521.669 86.587 522.89 86.1307 523.827 85.218C524.764 84.33 525.233 82.9733 525.233 81.148V77.966C524.567 78.928 523.642 79.7297 522.458 80.371C521.299 81.0123 519.967 81.333 518.462 81.333C516.735 81.333 515.157 80.889 513.726 80.001C512.295 79.113 511.161 77.8673 510.322 76.264C509.508 74.636 509.101 72.7737 509.101 70.677C509.101 68.605 509.508 66.7673 510.322 65.164C511.161 63.5607 512.283 62.3273 513.689 61.464C515.12 60.6007 516.711 60.169 518.462 60.169ZM525.233 70.751C525.233 69.493 524.986 68.42 524.493 67.532C524 66.6193 523.334 65.9287 522.495 65.46C521.656 64.9667 520.756 64.72 519.794 64.72C518.832 64.72 517.944 64.9543 517.13 65.423C516.316 65.8917 515.65 66.5823 515.132 67.495C514.639 68.383 514.392 69.4437 514.392 70.677C514.392 71.9103 514.639 72.9957 515.132 73.933C515.65 74.8457 516.316 75.5487 517.13 76.042C517.969 76.5353 518.857 76.782 519.794 76.782C520.756 76.782 521.656 76.5477 522.495 76.079C523.334 75.5857 524 74.895 524.493 74.007C524.986 73.0943 525.233 72.009 525.233 70.751ZM534.177 70.677C534.177 68.605 534.584 66.7673 535.398 65.164C536.237 63.5607 537.359 62.3273 538.765 61.464C540.196 60.6007 541.787 60.169 543.538 60.169C545.067 60.169 546.399 60.4773 547.534 61.094C548.693 61.7107 549.618 62.4877 550.309 63.425V60.502H555.526V81H550.309V78.003C549.643 78.965 548.718 79.7667 547.534 80.408C546.375 81.0247 545.03 81.333 543.501 81.333C541.774 81.333 540.196 80.889 538.765 80.001C537.359 79.113 536.237 77.8673 535.398 76.264C534.584 74.636 534.177 72.7737 534.177 70.677ZM550.309 70.751C550.309 69.493 550.062 68.42 549.569 67.532C549.076 66.6193 548.41 65.9287 547.571 65.46C546.732 64.9667 545.832 64.72 544.87 64.72C543.908 64.72 543.02 64.9543 542.206 65.423C541.392 65.8917 540.726 66.5823 540.208 67.495C539.715 68.383 539.468 69.4437 539.468 70.677C539.468 71.9103 539.715 72.9957 540.208 73.933C540.726 74.8457 541.392 75.5487 542.206 76.042C543.045 76.5353 543.933 76.782 544.87 76.782C545.832 76.782 546.732 76.5477 547.571 76.079C548.41 75.5857 549.076 74.895 549.569 74.007C550.062 73.0943 550.309 72.009 550.309 70.751ZM571.944 60.206C574.386 60.206 576.36 60.983 577.864 62.537C579.369 64.0663 580.121 66.2123 580.121 68.975V81H574.941V69.678C574.941 68.05 574.534 66.8043 573.72 65.941C572.906 65.053 571.796 64.609 570.39 64.609C568.96 64.609 567.825 65.053 566.986 65.941C566.172 66.8043 565.765 68.05 565.765 69.678V81H560.585V60.502H565.765V63.055C566.456 62.167 567.332 61.4763 568.392 60.983C569.478 60.465 570.662 60.206 571.944 60.206ZM619.32 60.206C621.836 60.206 623.858 60.983 625.388 62.537C626.942 64.0663 627.719 66.2123 627.719 68.975V81H622.539V69.678C622.539 68.0747 622.132 66.8537 621.318 66.015C620.504 65.1517 619.394 64.72 617.988 64.72C616.582 64.72 615.459 65.1517 614.621 66.015C613.807 66.8537 613.4 68.0747 613.4 69.678V81H608.22V69.678C608.22 68.0747 607.813 66.8537 606.999 66.015C606.185 65.1517 605.075 64.72 603.669 64.72C602.238 64.72 601.103 65.1517 600.265 66.015C599.451 66.8537 599.044 68.0747 599.044 69.678V81H593.864V60.502H599.044V62.981C599.71 62.1177 600.561 61.4393 601.597 60.946C602.657 60.4527 603.817 60.206 605.075 60.206C606.678 60.206 608.109 60.5513 609.367 61.242C610.625 61.908 611.599 62.87 612.29 64.128C612.956 62.944 613.918 61.9943 615.176 61.279C616.458 60.5637 617.84 60.206 619.32 60.206ZM651.689 70.307C651.689 71.047 651.64 71.713 651.541 72.305H636.556C636.679 73.785 637.197 74.9443 638.11 75.783C639.023 76.6217 640.145 77.041 641.477 77.041C643.401 77.041 644.77 76.2147 645.584 74.562H651.171C650.579 76.5353 649.444 78.1633 647.767 79.446C646.09 80.704 644.03 81.333 641.588 81.333C639.615 81.333 637.839 80.9013 636.26 80.038C634.706 79.15 633.485 77.9043 632.597 76.301C631.734 74.6977 631.302 72.8477 631.302 70.751C631.302 68.6297 631.734 66.7673 632.597 65.164C633.46 63.5607 634.669 62.3273 636.223 61.464C637.777 60.6007 639.565 60.169 641.588 60.169C643.537 60.169 645.276 60.5883 646.805 61.427C648.359 62.2657 649.555 63.462 650.394 65.016C651.257 66.5453 651.689 68.309 651.689 70.307ZM646.324 68.827C646.299 67.495 645.818 66.4343 644.881 65.645C643.944 64.831 642.797 64.424 641.44 64.424C640.157 64.424 639.072 64.8187 638.184 65.608C637.321 66.3727 636.79 67.4457 636.593 68.827H646.324ZM680.926 60.206C683.442 60.206 685.465 60.983 686.994 62.537C688.548 64.0663 689.325 66.2123 689.325 68.975V81H684.145V69.678C684.145 68.0747 683.738 66.8537 682.924 66.015C682.11 65.1517 681 64.72 679.594 64.72C678.188 64.72 677.066 65.1517 676.227 66.015C675.413 66.8537 675.006 68.0747 675.006 69.678V81H669.826V69.678C669.826 68.0747 669.419 66.8537 668.605 66.015C667.791 65.1517 666.681 64.72 665.275 64.72C663.844 64.72 662.71 65.1517 661.871 66.015C661.057 66.8537 660.65 68.0747 660.65 69.678V81H655.47V60.502H660.65V62.981C661.316 62.1177 662.167 61.4393 663.203 60.946C664.264 60.4527 665.423 60.206 666.681 60.206C668.284 60.206 669.715 60.5513 670.973 61.242C672.231 61.908 673.205 62.87 673.896 64.128C674.562 62.944 675.524 61.9943 676.782 61.279C678.065 60.5637 679.446 60.206 680.926 60.206ZM699.421 63.499C700.087 62.5123 700.999 61.7107 702.159 61.094C703.343 60.4773 704.687 60.169 706.192 60.169C707.943 60.169 709.522 60.6007 710.928 61.464C712.358 62.3273 713.481 63.5607 714.295 65.164C715.133 66.7427 715.553 68.5803 715.553 70.677C715.553 72.7737 715.133 74.636 714.295 76.264C713.481 77.8673 712.358 79.113 710.928 80.001C709.522 80.889 707.943 81.333 706.192 81.333C704.662 81.333 703.318 81.037 702.159 80.445C701.024 79.8283 700.111 79.039 699.421 78.077V81H694.241V53.62H699.421V63.499ZM710.262 70.677C710.262 69.4437 710.003 68.383 709.485 67.495C708.991 66.5823 708.325 65.8917 707.487 65.423C706.673 64.9543 705.785 64.72 704.823 64.72C703.885 64.72 702.997 64.9667 702.159 65.46C701.345 65.9287 700.679 66.6193 700.161 67.532C699.667 68.4447 699.421 69.5177 699.421 70.751C699.421 71.9843 699.667 73.0573 700.161 73.97C700.679 74.8827 701.345 75.5857 702.159 76.079C702.997 76.5477 703.885 76.782 704.823 76.782C705.785 76.782 706.673 76.5353 707.487 76.042C708.325 75.5487 708.991 74.8457 709.485 73.933C710.003 73.0203 710.262 71.935 710.262 70.677ZM717.985 70.677C717.985 68.605 718.392 66.7673 719.206 65.164C720.044 63.5607 721.167 62.3273 722.573 61.464C724.003 60.6007 725.594 60.169 727.346 60.169C728.875 60.169 730.207 60.4773 731.342 61.094C732.501 61.7107 733.426 62.4877 734.117 63.425V60.502H739.334V81H734.117V78.003C733.451 78.965 732.526 79.7667 731.342 80.408C730.182 81.0247 728.838 81.333 727.309 81.333C725.582 81.333 724.003 80.889 722.573 80.001C721.167 79.113 720.044 77.8673 719.206 76.264C718.392 74.636 717.985 72.7737 717.985 70.677ZM734.117 70.751C734.117 69.493 733.87 68.42 733.377 67.532C732.883 66.6193 732.217 65.9287 731.379 65.46C730.54 64.9667 729.64 64.72 728.678 64.72C727.716 64.72 726.828 64.9543 726.014 65.423C725.2 65.8917 724.534 66.5823 724.016 67.495C723.522 68.383 723.276 69.4437 723.276 70.677C723.276 71.9103 723.522 72.9957 724.016 73.933C724.534 74.8457 725.2 75.5487 726.014 76.042C726.852 76.5353 727.74 76.782 728.678 76.782C729.64 76.782 730.54 76.5477 731.379 76.079C732.217 75.5857 732.883 74.895 733.377 74.007C733.87 73.0943 734.117 72.009 734.117 70.751ZM743.061 70.751C743.061 68.6297 743.493 66.7797 744.356 65.201C745.219 63.5977 746.416 62.3643 747.945 61.501C749.474 60.613 751.226 60.169 753.199 60.169C755.74 60.169 757.836 60.8103 759.489 62.093C761.166 63.351 762.289 65.127 762.856 67.421H757.269C756.973 66.533 756.467 65.8423 755.752 65.349C755.061 64.831 754.198 64.572 753.162 64.572C751.682 64.572 750.51 65.1147 749.647 66.2C748.784 67.2607 748.352 68.7777 748.352 70.751C748.352 72.6997 748.784 74.2167 749.647 75.302C750.51 76.3627 751.682 76.893 753.162 76.893C755.259 76.893 756.628 75.9557 757.269 74.081H762.856C762.289 76.301 761.166 78.0647 759.489 79.372C757.812 80.6793 755.715 81.333 753.199 81.333C751.226 81.333 749.474 80.9013 747.945 80.038C746.416 79.15 745.219 77.9167 744.356 76.338C743.493 74.7347 743.061 72.8723 743.061 70.751ZM765.319 70.677C765.319 68.605 765.726 66.7673 766.54 65.164C767.378 63.5607 768.501 62.3273 769.907 61.464C771.337 60.6007 772.928 60.169 774.68 60.169C776.209 60.169 777.541 60.4773 778.676 61.094C779.835 61.7107 780.76 62.4877 781.451 63.425V60.502H786.668V81H781.451V78.003C780.785 78.965 779.86 79.7667 778.676 80.408C777.516 81.0247 776.172 81.333 774.643 81.333C772.916 81.333 771.337 80.889 769.907 80.001C768.501 79.113 767.378 77.8673 766.54 76.264C765.726 74.636 765.319 72.7737 765.319 70.677ZM781.451 70.751C781.451 69.493 781.204 68.42 780.711 67.532C780.217 66.6193 779.551 65.9287 778.713 65.46C777.874 64.9667 776.974 64.72 776.012 64.72C775.05 64.72 774.162 64.9543 773.348 65.423C772.534 65.8917 771.868 66.5823 771.35 67.495C770.856 68.383 770.61 69.4437 770.61 70.677C770.61 71.9103 770.856 72.9957 771.35 73.933C771.868 74.8457 772.534 75.5487 773.348 76.042C774.186 76.5353 775.074 76.782 776.012 76.782C776.974 76.782 777.874 76.5477 778.713 76.079C779.551 75.5857 780.217 74.895 780.711 74.007C781.204 73.0943 781.451 72.009 781.451 70.751ZM797.388 75.561L793.059 85.958H789.729L792.134 75.561H797.388ZM822.074 81L815.118 72.268V81H809.938V53.62H815.118V69.197L822 60.502H828.734L819.706 70.788L828.808 81H822.074ZM830.213 70.677C830.213 68.605 830.62 66.7673 831.434 65.164C832.273 63.5607 833.395 62.3273 834.801 61.464C836.232 60.6007 837.823 60.169 839.574 60.169C841.104 60.169 842.436 60.4773 843.57 61.094C844.73 61.7107 845.655 62.4877 846.345 63.425V60.502H851.562V81H846.345V78.003C845.679 78.965 844.754 79.7667 843.57 80.408C842.411 81.0247 841.067 81.333 839.537 81.333C837.811 81.333 836.232 80.889 834.801 80.001C833.395 79.113 832.273 77.8673 831.434 76.264C830.62 74.636 830.213 72.7737 830.213 70.677ZM846.345 70.751C846.345 69.493 846.099 68.42 845.605 67.532C845.112 66.6193 844.446 65.9287 843.607 65.46C842.769 64.9667 841.868 64.72 840.906 64.72C839.944 64.72 839.056 64.9543 838.242 65.423C837.428 65.8917 836.762 66.5823 836.244 67.495C835.751 68.383 835.504 69.4437 835.504 70.677C835.504 71.9103 835.751 72.9957 836.244 73.933C836.762 74.8457 837.428 75.5487 838.242 76.042C839.081 76.5353 839.969 76.782 840.906 76.782C841.868 76.782 842.769 76.5477 843.607 76.079C844.446 75.5857 845.112 74.895 845.605 74.007C846.099 73.0943 846.345 72.009 846.345 70.751ZM882.077 60.206C884.593 60.206 886.616 60.983 888.145 62.537C889.699 64.0663 890.476 66.2123 890.476 68.975V81H885.296V69.678C885.296 68.0747 884.889 66.8537 884.075 66.015C883.261 65.1517 882.151 64.72 880.745 64.72C879.339 64.72 878.217 65.1517 877.378 66.015C876.564 66.8537 876.157 68.0747 876.157 69.678V81H870.977V69.678C870.977 68.0747 870.57 66.8537 869.756 66.015C868.942 65.1517 867.832 64.72 866.426 64.72C864.996 64.72 863.861 65.1517 863.022 66.015C862.208 66.8537 861.801 68.0747 861.801 69.678V81H856.621V60.502H861.801V62.981C862.467 62.1177 863.318 61.4393 864.354 60.946C865.415 60.4527 866.574 60.206 867.832 60.206C869.436 60.206 870.866 60.5513 872.124 61.242C873.382 61.908 874.357 62.87 875.047 64.128C875.713 62.944 876.675 61.9943 877.933 61.279C879.216 60.5637 880.597 60.206 882.077 60.206ZM914.743 60.502V81H909.526V78.41C908.86 79.298 907.984 80.001 906.899 80.519C905.838 81.0123 904.679 81.259 903.421 81.259C901.818 81.259 900.399 80.926 899.166 80.26C897.933 79.5693 896.958 78.5703 896.243 77.263C895.552 75.931 895.207 74.3523 895.207 72.527V60.502H900.387V71.787C900.387 73.415 900.794 74.673 901.608 75.561C902.422 76.4243 903.532 76.856 904.938 76.856C906.369 76.856 907.491 76.4243 908.305 75.561C909.119 74.673 909.526 73.415 909.526 71.787V60.502H914.743ZM927.338 70.677C927.338 68.605 927.745 66.7673 928.559 65.164C929.398 63.5607 930.533 62.3273 931.963 61.464C933.394 60.6007 934.985 60.169 936.736 60.169C938.068 60.169 939.339 60.465 940.547 61.057C941.756 61.6243 942.718 62.389 943.433 63.351V53.62H948.687V81H943.433V77.966C942.792 78.9773 941.892 79.7913 940.732 80.408C939.573 81.0247 938.229 81.333 936.699 81.333C934.973 81.333 933.394 80.889 931.963 80.001C930.533 79.113 929.398 77.8673 928.559 76.264C927.745 74.636 927.338 72.7737 927.338 70.677ZM943.47 70.751C943.47 69.493 943.224 68.42 942.73 67.532C942.237 66.6193 941.571 65.9287 940.732 65.46C939.894 64.9667 938.993 64.72 938.031 64.72C937.069 64.72 936.181 64.9543 935.367 65.423C934.553 65.8917 933.887 66.5823 933.369 67.495C932.876 68.383 932.629 69.4437 932.629 70.677C932.629 71.9103 932.876 72.9957 933.369 73.933C933.887 74.8457 934.553 75.5487 935.367 76.042C936.206 76.5353 937.094 76.782 938.031 76.782C938.993 76.782 939.894 76.5477 940.732 76.079C941.571 75.5857 942.237 74.895 942.73 74.007C943.224 73.0943 943.47 72.009 943.47 70.751ZM956.373 58.06C955.461 58.06 954.696 57.7763 954.079 57.209C953.487 56.617 953.191 55.8893 953.191 55.026C953.191 54.1627 953.487 53.4473 954.079 52.88C954.696 52.288 955.461 51.992 956.373 51.992C957.286 51.992 958.038 52.288 958.63 52.88C959.247 53.4473 959.555 54.1627 959.555 55.026C959.555 55.8893 959.247 56.617 958.63 57.209C958.038 57.7763 957.286 58.06 956.373 58.06ZM958.926 60.502V81H953.746V60.502H958.926ZM976.18 81L969.224 72.268V81H964.044V53.62H969.224V69.197L976.106 60.502H982.84L973.812 70.788L982.914 81H976.18ZM1004.71 70.307C1004.71 71.047 1004.66 71.713 1004.56 72.305H989.574C989.697 73.785 990.215 74.9443 991.128 75.783C992.04 76.6217 993.163 77.041 994.495 77.041C996.419 77.041 997.788 76.2147 998.602 74.562H1004.19C1003.6 76.5353 1002.46 78.1633 1000.78 79.446C999.107 80.704 997.048 81.333 994.606 81.333C992.632 81.333 990.856 80.9013 989.278 80.038C987.724 79.15 986.503 77.9043 985.615 76.301C984.751 74.6977 984.32 72.8477 984.32 70.751C984.32 68.6297 984.751 66.7673 985.615 65.164C986.478 63.5607 987.687 62.3273 989.241 61.464C990.795 60.6007 992.583 60.169 994.606 60.169C996.554 60.169 998.293 60.5883 999.823 61.427C1001.38 62.2657 1002.57 63.462 1003.41 65.016C1004.27 66.5453 1004.71 68.309 1004.71 70.307ZM999.342 68.827C999.317 67.495 998.836 66.4343 997.899 65.645C996.961 64.831 995.814 64.424 994.458 64.424C993.175 64.424 992.09 64.8187 991.202 65.608C990.338 66.3727 989.808 67.4457 989.611 68.827H999.342ZM1019.85 60.206C1022.29 60.206 1024.26 60.983 1025.77 62.537C1027.27 64.0663 1028.02 66.2123 1028.02 68.975V81H1022.84V69.678C1022.84 68.05 1022.44 66.8043 1021.62 65.941C1020.81 65.053 1019.7 64.609 1018.29 64.609C1016.86 64.609 1015.73 65.053 1014.89 65.941C1014.07 66.8043 1013.67 68.05 1013.67 69.678V81H1008.49V60.502H1013.67V63.055C1014.36 62.167 1015.23 61.4763 1016.29 60.983C1017.38 60.465 1018.56 60.206 1019.85 60.206ZM1031.62 70.677C1031.62 68.605 1032.02 66.7673 1032.84 65.164C1033.68 63.5607 1034.8 62.3273 1036.21 61.464C1037.64 60.6007 1039.23 60.169 1040.98 60.169C1042.51 60.169 1043.84 60.4773 1044.97 61.094C1046.13 61.7107 1047.06 62.4877 1047.75 63.425V60.502H1052.97V81H1047.75V78.003C1047.08 78.965 1046.16 79.7667 1044.97 80.408C1043.82 81.0247 1042.47 81.333 1040.94 81.333C1039.21 81.333 1037.64 80.889 1036.21 80.001C1034.8 79.113 1033.68 77.8673 1032.84 76.264C1032.02 74.636 1031.62 72.7737 1031.62 70.677ZM1047.75 70.751C1047.75 69.493 1047.5 68.42 1047.01 67.532C1046.52 66.6193 1045.85 65.9287 1045.01 65.46C1044.17 64.9667 1043.27 64.72 1042.31 64.72C1041.35 64.72 1040.46 64.9543 1039.65 65.423C1038.83 65.8917 1038.17 66.5823 1037.65 67.495C1037.16 68.383 1036.91 69.4437 1036.91 70.677C1036.91 71.9103 1037.16 72.9957 1037.65 73.933C1038.17 74.8457 1038.83 75.5487 1039.65 76.042C1040.49 76.5353 1041.37 76.782 1042.31 76.782C1043.27 76.782 1044.17 76.5477 1045.01 76.079C1045.85 75.5857 1046.52 74.895 1047.01 74.007C1047.5 73.0943 1047.75 72.009 1047.75 70.751ZM1063.21 53.62V81H1058.03V53.62H1063.21ZM1075.81 70.677C1075.81 68.605 1076.21 66.7673 1077.03 65.164C1077.87 63.5607 1079 62.3273 1080.43 61.464C1081.86 60.6007 1083.45 60.169 1085.21 60.169C1086.54 60.169 1087.81 60.465 1089.02 61.057C1090.23 61.6243 1091.19 62.389 1091.9 63.351V53.62H1097.16V81H1091.9V77.966C1091.26 78.9773 1090.36 79.7913 1089.2 80.408C1088.04 81.0247 1086.7 81.333 1085.17 81.333C1083.44 81.333 1081.86 80.889 1080.43 80.001C1079 79.113 1077.87 77.8673 1077.03 76.264C1076.21 74.636 1075.81 72.7737 1075.81 70.677ZM1091.94 70.751C1091.94 69.493 1091.69 68.42 1091.2 67.532C1090.71 66.6193 1090.04 65.9287 1089.2 65.46C1088.36 64.9667 1087.46 64.72 1086.5 64.72C1085.54 64.72 1084.65 64.9543 1083.84 65.423C1083.02 65.8917 1082.36 66.5823 1081.84 67.495C1081.35 68.383 1081.1 69.4437 1081.1 70.677C1081.1 71.9103 1081.35 72.9957 1081.84 73.933C1082.36 74.8457 1083.02 75.5487 1083.84 76.042C1084.68 76.5353 1085.56 76.782 1086.5 76.782C1087.46 76.782 1088.36 76.5477 1089.2 76.079C1090.04 75.5857 1090.71 74.895 1091.2 74.007C1091.69 73.0943 1091.94 72.009 1091.94 70.751ZM1121.57 60.502V81H1116.35V78.41C1115.68 79.298 1114.81 80.001 1113.72 80.519C1112.66 81.0123 1111.5 81.259 1110.25 81.259C1108.64 81.259 1107.22 80.926 1105.99 80.26C1104.76 79.5693 1103.78 78.5703 1103.07 77.263C1102.38 75.931 1102.03 74.3523 1102.03 72.527V60.502H1107.21V71.787C1107.21 73.415 1107.62 74.673 1108.43 75.561C1109.25 76.4243 1110.36 76.856 1111.76 76.856C1113.19 76.856 1114.32 76.4243 1115.13 75.561C1115.94 74.673 1116.35 73.415 1116.35 71.787V60.502H1121.57ZM1138.04 60.206C1140.48 60.206 1142.45 60.983 1143.96 62.537C1145.46 64.0663 1146.21 66.2123 1146.21 68.975V81H1141.03V69.678C1141.03 68.05 1140.63 66.8043 1139.81 65.941C1139 65.053 1137.89 64.609 1136.48 64.609C1135.05 64.609 1133.92 65.053 1133.08 65.941C1132.27 66.8043 1131.86 68.05 1131.86 69.678V81H1126.68V60.502H1131.86V63.055C1132.55 62.167 1133.42 61.4763 1134.49 60.983C1135.57 60.465 1136.75 60.206 1138.04 60.206ZM1153.77 58.06C1152.85 58.06 1152.09 57.7763 1151.47 57.209C1150.88 56.617 1150.58 55.8893 1150.58 55.026C1150.58 54.1627 1150.88 53.4473 1151.47 52.88C1152.09 52.288 1152.85 51.992 1153.77 51.992C1154.68 51.992 1155.43 52.288 1156.02 52.88C1156.64 53.4473 1156.95 54.1627 1156.95 55.026C1156.95 55.8893 1156.64 56.617 1156.02 57.209C1155.43 57.7763 1154.68 58.06 1153.77 58.06ZM1156.32 60.502V81H1151.14V60.502H1156.32ZM1160.11 70.677C1160.11 68.605 1160.51 66.7673 1161.33 65.164C1162.17 63.5607 1163.29 62.3273 1164.69 61.464C1166.12 60.6007 1167.72 60.169 1169.47 60.169C1171 60.169 1172.33 60.4773 1173.46 61.094C1174.62 61.7107 1175.55 62.4877 1176.24 63.425V60.502H1181.45V81H1176.24V78.003C1175.57 78.965 1174.65 79.7667 1173.46 80.408C1172.3 81.0247 1170.96 81.333 1169.43 81.333C1167.7 81.333 1166.12 80.889 1164.69 80.001C1163.29 79.113 1162.17 77.8673 1161.33 76.264C1160.51 74.636 1160.11 72.7737 1160.11 70.677ZM1176.24 70.751C1176.24 69.493 1175.99 68.42 1175.5 67.532C1175 66.6193 1174.34 65.9287 1173.5 65.46C1172.66 64.9667 1171.76 64.72 1170.8 64.72C1169.84 64.72 1168.95 64.9543 1168.13 65.423C1167.32 65.8917 1166.65 66.5823 1166.14 67.495C1165.64 68.383 1165.4 69.4437 1165.4 70.677C1165.4 71.9103 1165.64 72.9957 1166.14 73.933C1166.65 74.8457 1167.32 75.5487 1168.13 76.042C1168.97 76.5353 1169.86 76.782 1170.8 76.782C1171.76 76.782 1172.66 76.5477 1173.5 76.079C1174.34 75.5857 1175 74.895 1175.5 74.007C1175.99 73.0943 1176.24 72.009 1176.24 70.751ZM1188.81 81.259C1187.87 81.259 1187.09 80.9753 1186.48 80.408C1185.88 79.816 1185.59 79.0883 1185.59 78.225C1185.59 77.3617 1185.88 76.6463 1186.48 76.079C1187.09 75.487 1187.87 75.191 1188.81 75.191C1189.72 75.191 1190.47 75.487 1191.06 76.079C1191.66 76.6463 1191.95 77.3617 1191.95 78.225C1191.95 79.0883 1191.66 79.816 1191.06 80.408C1190.47 80.9753 1189.72 81.259 1188.81 81.259ZM451.296 111.174C454.01 111.174 456.39 111.704 458.437 112.765C460.509 113.826 462.1 115.343 463.21 117.316C464.345 119.265 464.912 121.534 464.912 124.124C464.912 126.714 464.345 128.983 463.21 130.932C462.1 132.856 460.509 134.348 458.437 135.409C456.39 136.47 454.01 137 451.296 137H442.268V111.174H451.296ZM451.111 132.597C453.825 132.597 455.921 131.857 457.401 130.377C458.881 128.897 459.621 126.813 459.621 124.124C459.621 121.435 458.881 119.339 457.401 117.834C455.921 116.305 453.825 115.54 451.111 115.54H447.448V132.597H451.111ZM487.845 126.307C487.845 127.047 487.795 127.713 487.697 128.305H472.712C472.835 129.785 473.353 130.944 474.266 131.783C475.178 132.622 476.301 133.041 477.633 133.041C479.557 133.041 480.926 132.215 481.74 130.562H487.327C486.735 132.535 485.6 134.163 483.923 135.446C482.245 136.704 480.186 137.333 477.744 137.333C475.77 137.333 473.994 136.901 472.416 136.038C470.862 135.15 469.641 133.904 468.753 132.301C467.889 130.698 467.458 128.848 467.458 126.751C467.458 124.63 467.889 122.767 468.753 121.164C469.616 119.561 470.825 118.327 472.379 117.464C473.933 116.601 475.721 116.169 477.744 116.169C479.692 116.169 481.431 116.588 482.961 117.427C484.515 118.266 485.711 119.462 486.55 121.016C487.413 122.545 487.845 124.309 487.845 126.307ZM482.48 124.827C482.455 123.495 481.974 122.434 481.037 121.645C480.099 120.831 478.952 120.424 477.596 120.424C476.313 120.424 475.228 120.819 474.34 121.608C473.476 122.373 472.946 123.446 472.749 124.827H482.48ZM502.985 116.206C505.427 116.206 507.4 116.983 508.905 118.537C510.409 120.066 511.162 122.212 511.162 124.975V137H505.982V125.678C505.982 124.05 505.575 122.804 504.761 121.941C503.947 121.053 502.837 120.609 501.431 120.609C500 120.609 498.865 121.053 498.027 121.941C497.213 122.804 496.806 124.05 496.806 125.678V137H491.626V116.502H496.806V119.055C497.496 118.167 498.372 117.476 499.433 116.983C500.518 116.465 501.702 116.206 502.985 116.206ZM524.117 116.169C525.646 116.169 526.99 116.477 528.15 117.094C529.309 117.686 530.222 118.463 530.888 119.425V116.502H536.105V137.148C536.105 139.047 535.722 140.737 534.958 142.217C534.193 143.722 533.046 144.906 531.517 145.769C529.987 146.657 528.137 147.101 525.967 147.101C523.056 147.101 520.663 146.423 518.789 145.066C516.939 143.709 515.89 141.859 515.644 139.516H520.787C521.058 140.453 521.638 141.193 522.526 141.736C523.438 142.303 524.536 142.587 525.819 142.587C527.323 142.587 528.544 142.131 529.482 141.218C530.419 140.33 530.888 138.973 530.888 137.148V133.966C530.222 134.928 529.297 135.73 528.113 136.371C526.953 137.012 525.621 137.333 524.117 137.333C522.39 137.333 520.811 136.889 519.381 136.001C517.95 135.113 516.815 133.867 515.977 132.264C515.163 130.636 514.756 128.774 514.756 126.677C514.756 124.605 515.163 122.767 515.977 121.164C516.815 119.561 517.938 118.327 519.344 117.464C520.774 116.601 522.365 116.169 524.117 116.169ZM530.888 126.751C530.888 125.493 530.641 124.42 530.148 123.532C529.654 122.619 528.988 121.929 528.15 121.46C527.311 120.967 526.411 120.72 525.449 120.72C524.487 120.72 523.599 120.954 522.785 121.423C521.971 121.892 521.305 122.582 520.787 123.495C520.293 124.383 520.047 125.444 520.047 126.677C520.047 127.91 520.293 128.996 520.787 129.933C521.305 130.846 521.971 131.549 522.785 132.042C523.623 132.535 524.511 132.782 525.449 132.782C526.411 132.782 527.311 132.548 528.15 132.079C528.988 131.586 529.654 130.895 530.148 130.007C530.641 129.094 530.888 128.009 530.888 126.751ZM539.832 126.677C539.832 124.605 540.239 122.767 541.053 121.164C541.892 119.561 543.014 118.327 544.42 117.464C545.851 116.601 547.442 116.169 549.193 116.169C550.722 116.169 552.054 116.477 553.189 117.094C554.348 117.711 555.273 118.488 555.964 119.425V116.502H561.181V137H555.964V134.003C555.298 134.965 554.373 135.767 553.189 136.408C552.03 137.025 550.685 137.333 549.156 137.333C547.429 137.333 545.851 136.889 544.42 136.001C543.014 135.113 541.892 133.867 541.053 132.264C540.239 130.636 539.832 128.774 539.832 126.677ZM555.964 126.751C555.964 125.493 555.717 124.42 555.224 123.532C554.731 122.619 554.065 121.929 553.226 121.46C552.387 120.967 551.487 120.72 550.525 120.72C549.563 120.72 548.675 120.954 547.861 121.423C547.047 121.892 546.381 122.582 545.863 123.495C545.37 124.383 545.123 125.444 545.123 126.677C545.123 127.91 545.37 128.996 545.863 129.933C546.381 130.846 547.047 131.549 547.861 132.042C548.7 132.535 549.588 132.782 550.525 132.782C551.487 132.782 552.387 132.548 553.226 132.079C554.065 131.586 554.731 130.895 555.224 130.007C555.717 129.094 555.964 128.009 555.964 126.751ZM577.599 116.206C580.041 116.206 582.014 116.983 583.519 118.537C585.024 120.066 585.776 122.212 585.776 124.975V137H580.596V125.678C580.596 124.05 580.189 122.804 579.375 121.941C578.561 121.053 577.451 120.609 576.045 120.609C574.614 120.609 573.48 121.053 572.641 121.941C571.827 122.804 571.42 124.05 571.42 125.678V137H566.24V116.502H571.42V119.055C572.111 118.167 572.986 117.476 574.047 116.983C575.132 116.465 576.316 116.206 577.599 116.206ZM624.974 116.206C627.49 116.206 629.513 116.983 631.042 118.537C632.596 120.066 633.373 122.212 633.373 124.975V137H628.193V125.678C628.193 124.075 627.786 122.854 626.972 122.015C626.158 121.152 625.048 120.72 623.642 120.72C622.236 120.72 621.114 121.152 620.275 122.015C619.461 122.854 619.054 124.075 619.054 125.678V137H613.874V125.678C613.874 124.075 613.467 122.854 612.653 122.015C611.839 121.152 610.729 120.72 609.323 120.72C607.893 120.72 606.758 121.152 605.919 122.015C605.105 122.854 604.698 124.075 604.698 125.678V137H599.518V116.502H604.698V118.981C605.364 118.118 606.215 117.439 607.251 116.946C608.312 116.453 609.471 116.206 610.729 116.206C612.333 116.206 613.763 116.551 615.021 117.242C616.279 117.908 617.254 118.87 617.944 120.128C618.61 118.944 619.572 117.994 620.83 117.279C622.113 116.564 623.494 116.206 624.974 116.206ZM657.344 126.307C657.344 127.047 657.295 127.713 657.196 128.305H642.211C642.334 129.785 642.852 130.944 643.765 131.783C644.678 132.622 645.8 133.041 647.132 133.041C649.056 133.041 650.425 132.215 651.239 130.562H656.826C656.234 132.535 655.099 134.163 653.422 135.446C651.745 136.704 649.685 137.333 647.243 137.333C645.27 137.333 643.494 136.901 641.915 136.038C640.361 135.15 639.14 133.904 638.252 132.301C637.389 130.698 636.957 128.848 636.957 126.751C636.957 124.63 637.389 122.767 638.252 121.164C639.115 119.561 640.324 118.327 641.878 117.464C643.432 116.601 645.22 116.169 647.243 116.169C649.192 116.169 650.931 116.588 652.46 117.427C654.014 118.266 655.21 119.462 656.049 121.016C656.912 122.545 657.344 124.309 657.344 126.307ZM651.979 124.827C651.954 123.495 651.473 122.434 650.536 121.645C649.599 120.831 648.452 120.424 647.095 120.424C645.812 120.424 644.727 120.819 643.839 121.608C642.976 122.373 642.445 123.446 642.248 124.827H651.979ZM672.484 116.206C674.926 116.206 676.899 116.983 678.404 118.537C679.908 120.066 680.661 122.212 680.661 124.975V137H675.481V125.678C675.481 124.05 675.074 122.804 674.26 121.941C673.446 121.053 672.336 120.609 670.93 120.609C669.499 120.609 668.364 121.053 667.526 121.941C666.712 122.804 666.305 124.05 666.305 125.678V137H661.125V116.502H666.305V119.055C666.995 118.167 667.871 117.476 668.932 116.983C670.017 116.465 671.201 116.206 672.484 116.206ZM704.938 116.502V137H699.721V134.41C699.055 135.298 698.179 136.001 697.094 136.519C696.033 137.012 694.874 137.259 693.616 137.259C692.012 137.259 690.594 136.926 689.361 136.26C688.127 135.569 687.153 134.57 686.438 133.263C685.747 131.931 685.402 130.352 685.402 128.527V116.502H690.582V127.787C690.582 129.415 690.989 130.673 691.803 131.561C692.617 132.424 693.727 132.856 695.133 132.856C696.563 132.856 697.686 132.424 698.5 131.561C699.314 130.673 699.721 129.415 699.721 127.787V116.502H704.938ZM715.229 109.62V137H710.049V109.62H715.229ZM722.973 114.06C722.061 114.06 721.296 113.776 720.679 113.209C720.087 112.617 719.791 111.889 719.791 111.026C719.791 110.163 720.087 109.447 720.679 108.88C721.296 108.288 722.061 107.992 722.973 107.992C723.886 107.992 724.638 108.288 725.23 108.88C725.847 109.447 726.155 110.163 726.155 111.026C726.155 111.889 725.847 112.617 725.23 113.209C724.638 113.776 723.886 114.06 722.973 114.06ZM725.526 116.502V137H720.346V116.502H725.526ZM738.488 137.333C736.811 137.333 735.306 137.037 733.974 136.445C732.642 135.828 731.582 135.002 730.792 133.966C730.028 132.93 729.608 131.783 729.534 130.525H734.751C734.85 131.314 735.232 131.968 735.898 132.486C736.589 133.004 737.44 133.263 738.451 133.263C739.438 133.263 740.203 133.066 740.745 132.671C741.313 132.276 741.596 131.771 741.596 131.154C741.596 130.488 741.251 129.995 740.56 129.674C739.894 129.329 738.821 128.959 737.341 128.564C735.812 128.194 734.554 127.812 733.567 127.417C732.605 127.022 731.767 126.418 731.051 125.604C730.361 124.79 730.015 123.692 730.015 122.311C730.015 121.176 730.336 120.14 730.977 119.203C731.643 118.266 732.581 117.526 733.789 116.983C735.023 116.44 736.466 116.169 738.118 116.169C740.56 116.169 742.509 116.786 743.964 118.019C745.42 119.228 746.221 120.868 746.369 122.94H741.411C741.337 122.126 740.992 121.485 740.375 121.016C739.783 120.523 738.982 120.276 737.97 120.276C737.033 120.276 736.305 120.449 735.787 120.794C735.294 121.139 735.047 121.62 735.047 122.237C735.047 122.928 735.393 123.458 736.083 123.828C736.774 124.173 737.847 124.531 739.302 124.901C740.782 125.271 742.003 125.653 742.965 126.048C743.927 126.443 744.754 127.059 745.444 127.898C746.16 128.712 746.53 129.797 746.554 131.154C746.554 132.338 746.221 133.399 745.555 134.336C744.914 135.273 743.977 136.013 742.743 136.556C741.535 137.074 740.116 137.333 738.488 137.333ZM756.467 131.561L752.138 141.958H748.808L751.213 131.561H756.467ZM781.153 137L774.197 128.268V137H769.017V109.62H774.197V125.197L781.079 116.502H787.813L778.785 126.788L787.887 137H781.153ZM789.293 126.677C789.293 124.605 789.7 122.767 790.514 121.164C791.352 119.561 792.475 118.327 793.881 117.464C795.311 116.601 796.902 116.169 798.654 116.169C800.183 116.169 801.515 116.477 802.65 117.094C803.809 117.711 804.734 118.488 805.425 119.425V116.502H810.642V137H805.425V134.003C804.759 134.965 803.834 135.767 802.65 136.408C801.49 137.025 800.146 137.333 798.617 137.333C796.89 137.333 795.311 136.889 793.881 136.001C792.475 135.113 791.352 133.867 790.514 132.264C789.7 130.636 789.293 128.774 789.293 126.677ZM805.425 126.751C805.425 125.493 805.178 124.42 804.685 123.532C804.191 122.619 803.525 121.929 802.687 121.46C801.848 120.967 800.948 120.72 799.986 120.72C799.024 120.72 798.136 120.954 797.322 121.423C796.508 121.892 795.842 122.582 795.324 123.495C794.83 124.383 794.584 125.444 794.584 126.677C794.584 127.91 794.83 128.996 795.324 129.933C795.842 130.846 796.508 131.549 797.322 132.042C798.16 132.535 799.048 132.782 799.986 132.782C800.948 132.782 801.848 132.548 802.687 132.079C803.525 131.586 804.191 130.895 804.685 130.007C805.178 129.094 805.425 128.009 805.425 126.751ZM841.157 116.206C843.673 116.206 845.696 116.983 847.225 118.537C848.779 120.066 849.556 122.212 849.556 124.975V137H844.376V125.678C844.376 124.075 843.969 122.854 843.155 122.015C842.341 121.152 841.231 120.72 839.825 120.72C838.419 120.72 837.297 121.152 836.458 122.015C835.644 122.854 835.237 124.075 835.237 125.678V137H830.057V125.678C830.057 124.075 829.65 122.854 828.836 122.015C828.022 121.152 826.912 120.72 825.506 120.72C824.075 120.72 822.941 121.152 822.102 122.015C821.288 122.854 820.881 124.075 820.881 125.678V137H815.701V116.502H820.881V118.981C821.547 118.118 822.398 117.439 823.434 116.946C824.495 116.453 825.654 116.206 826.912 116.206C828.515 116.206 829.946 116.551 831.204 117.242C832.462 117.908 833.436 118.87 834.127 120.128C834.793 118.944 835.755 117.994 837.013 117.279C838.296 116.564 839.677 116.206 841.157 116.206ZM873.822 116.502V137H868.605V134.41C867.939 135.298 867.064 136.001 865.978 136.519C864.918 137.012 863.758 137.259 862.5 137.259C860.897 137.259 859.479 136.926 858.245 136.26C857.012 135.569 856.038 134.57 855.322 133.263C854.632 131.931 854.286 130.352 854.286 128.527V116.502H859.466V127.787C859.466 129.415 859.873 130.673 860.687 131.561C861.501 132.424 862.611 132.856 864.017 132.856C865.448 132.856 866.57 132.424 867.384 131.561C868.198 130.673 868.605 129.415 868.605 127.787V116.502H873.822ZM886.418 126.677C886.418 124.605 886.825 122.767 887.639 121.164C888.477 119.561 889.612 118.327 891.043 117.464C892.473 116.601 894.064 116.169 895.816 116.169C897.148 116.169 898.418 116.465 899.627 117.057C900.835 117.624 901.797 118.389 902.513 119.351V109.62H907.767V137H902.513V133.966C901.871 134.977 900.971 135.791 899.812 136.408C898.652 137.025 897.308 137.333 895.779 137.333C894.052 137.333 892.473 136.889 891.043 136.001C889.612 135.113 888.477 133.867 887.639 132.264C886.825 130.636 886.418 128.774 886.418 126.677ZM902.55 126.751C902.55 125.493 902.303 124.42 901.81 123.532C901.316 122.619 900.65 121.929 899.812 121.46C898.973 120.967 898.073 120.72 897.111 120.72C896.149 120.72 895.261 120.954 894.447 121.423C893.633 121.892 892.967 122.582 892.449 123.495C891.955 124.383 891.709 125.444 891.709 126.677C891.709 127.91 891.955 128.996 892.449 129.933C892.967 130.846 893.633 131.549 894.447 132.042C895.285 132.535 896.173 132.782 897.111 132.782C898.073 132.782 898.973 132.548 899.812 132.079C900.65 131.586 901.316 130.895 901.81 130.007C902.303 129.094 902.55 128.009 902.55 126.751ZM915.453 114.06C914.54 114.06 913.776 113.776 913.159 113.209C912.567 112.617 912.271 111.889 912.271 111.026C912.271 110.163 912.567 109.447 913.159 108.88C913.776 108.288 914.54 107.992 915.453 107.992C916.366 107.992 917.118 108.288 917.71 108.88C918.327 109.447 918.635 110.163 918.635 111.026C918.635 111.889 918.327 112.617 917.71 113.209C917.118 113.776 916.366 114.06 915.453 114.06ZM918.006 116.502V137H912.826V116.502H918.006ZM935.26 137L928.304 128.268V137H923.124V109.62H928.304V125.197L935.186 116.502H941.92L932.892 126.788L941.994 137H935.26ZM963.786 126.307C963.786 127.047 963.737 127.713 963.638 128.305H948.653C948.777 129.785 949.295 130.944 950.207 131.783C951.12 132.622 952.242 133.041 953.574 133.041C955.498 133.041 956.867 132.215 957.681 130.562H963.268C962.676 132.535 961.542 134.163 959.864 135.446C958.187 136.704 956.127 137.333 953.685 137.333C951.712 137.333 949.936 136.901 948.357 136.038C946.803 135.15 945.582 133.904 944.694 132.301C943.831 130.698 943.399 128.848 943.399 126.751C943.399 124.63 943.831 122.767 944.694 121.164C945.558 119.561 946.766 118.327 948.32 117.464C949.874 116.601 951.663 116.169 953.685 116.169C955.634 116.169 957.373 116.588 958.902 117.427C960.456 118.266 961.653 119.462 962.491 121.016C963.355 122.545 963.786 124.309 963.786 126.307ZM958.421 124.827C958.397 123.495 957.916 122.434 956.978 121.645C956.041 120.831 954.894 120.424 953.537 120.424C952.255 120.424 951.169 120.819 950.281 121.608C949.418 122.373 948.888 123.446 948.69 124.827H958.421ZM978.926 116.206C981.368 116.206 983.341 116.983 984.846 118.537C986.351 120.066 987.103 122.212 987.103 124.975V137H981.923V125.678C981.923 124.05 981.516 122.804 980.702 121.941C979.888 121.053 978.778 120.609 977.372 120.609C975.941 120.609 974.807 121.053 973.968 121.941C973.154 122.804 972.747 124.05 972.747 125.678V137H967.567V116.502H972.747V119.055C973.438 118.167 974.313 117.476 975.374 116.983C976.459 116.465 977.643 116.206 978.926 116.206ZM990.697 126.677C990.697 124.605 991.104 122.767 991.918 121.164C992.757 119.561 993.879 118.327 995.285 117.464C996.716 116.601 998.307 116.169 1000.06 116.169C1001.59 116.169 1002.92 116.477 1004.05 117.094C1005.21 117.711 1006.14 118.488 1006.83 119.425V116.502H1012.05V137H1006.83V134.003C1006.16 134.965 1005.24 135.767 1004.05 136.408C1002.89 137.025 1001.55 137.333 1000.02 137.333C998.294 137.333 996.716 136.889 995.285 136.001C993.879 135.113 992.757 133.867 991.918 132.264C991.104 130.636 990.697 128.774 990.697 126.677ZM1006.83 126.751C1006.83 125.493 1006.58 124.42 1006.09 123.532C1005.6 122.619 1004.93 121.929 1004.09 121.46C1003.25 120.967 1002.35 120.72 1001.39 120.72C1000.43 120.72 999.54 120.954 998.726 121.423C997.912 121.892 997.246 122.582 996.728 123.495C996.235 124.383 995.988 125.444 995.988 126.677C995.988 127.91 996.235 128.996 996.728 129.933C997.246 130.846 997.912 131.549 998.726 132.042C999.565 132.535 1000.45 132.782 1001.39 132.782C1002.35 132.782 1003.25 132.548 1004.09 132.079C1004.93 131.586 1005.6 130.895 1006.09 130.007C1006.58 129.094 1006.83 128.009 1006.83 126.751ZM1022.29 109.62V137H1017.11V109.62H1022.29ZM1034.89 126.677C1034.89 124.605 1035.29 122.767 1036.11 121.164C1036.95 119.561 1038.08 118.327 1039.51 117.464C1040.94 116.601 1042.53 116.169 1044.29 116.169C1045.62 116.169 1046.89 116.465 1048.1 117.057C1049.31 117.624 1050.27 118.389 1050.98 119.351V109.62H1056.24V137H1050.98V133.966C1050.34 134.977 1049.44 135.791 1048.28 136.408C1047.12 137.025 1045.78 137.333 1044.25 137.333C1042.52 137.333 1040.94 136.889 1039.51 136.001C1038.08 135.113 1036.95 133.867 1036.11 132.264C1035.29 130.636 1034.89 128.774 1034.89 126.677ZM1051.02 126.751C1051.02 125.493 1050.77 124.42 1050.28 123.532C1049.79 122.619 1049.12 121.929 1048.28 121.46C1047.44 120.967 1046.54 120.72 1045.58 120.72C1044.62 120.72 1043.73 120.954 1042.92 121.423C1042.1 121.892 1041.44 122.582 1040.92 123.495C1040.43 124.383 1040.18 125.444 1040.18 126.677C1040.18 127.91 1040.43 128.996 1040.92 129.933C1041.44 130.846 1042.1 131.549 1042.92 132.042C1043.76 132.535 1044.64 132.782 1045.58 132.782C1046.54 132.782 1047.44 132.548 1048.28 132.079C1049.12 131.586 1049.79 130.895 1050.28 130.007C1050.77 129.094 1051.02 128.009 1051.02 126.751ZM1080.65 116.502V137H1075.43V134.41C1074.76 135.298 1073.89 136.001 1072.8 136.519C1071.74 137.012 1070.58 137.259 1069.32 137.259C1067.72 137.259 1066.3 136.926 1065.07 136.26C1063.84 135.569 1062.86 134.57 1062.15 133.263C1061.46 131.931 1061.11 130.352 1061.11 128.527V116.502H1066.29V127.787C1066.29 129.415 1066.7 130.673 1067.51 131.561C1068.33 132.424 1069.44 132.856 1070.84 132.856C1072.27 132.856 1073.39 132.424 1074.21 131.561C1075.02 130.673 1075.43 129.415 1075.43 127.787V116.502H1080.65ZM1097.12 116.206C1099.56 116.206 1101.53 116.983 1103.04 118.537C1104.54 120.066 1105.29 122.212 1105.29 124.975V137H1100.11V125.678C1100.11 124.05 1099.71 122.804 1098.89 121.941C1098.08 121.053 1096.97 120.609 1095.56 120.609C1094.13 120.609 1093 121.053 1092.16 121.941C1091.34 122.804 1090.94 124.05 1090.94 125.678V137H1085.76V116.502H1090.94V119.055C1091.63 118.167 1092.5 117.476 1093.56 116.983C1094.65 116.465 1095.83 116.206 1097.12 116.206ZM1112.85 114.06C1111.93 114.06 1111.17 113.776 1110.55 113.209C1109.96 112.617 1109.66 111.889 1109.66 111.026C1109.66 110.163 1109.96 109.447 1110.55 108.88C1111.17 108.288 1111.93 107.992 1112.85 107.992C1113.76 107.992 1114.51 108.288 1115.1 108.88C1115.72 109.447 1116.03 110.163 1116.03 111.026C1116.03 111.889 1115.72 112.617 1115.1 113.209C1114.51 113.776 1113.76 114.06 1112.85 114.06ZM1115.4 116.502V137H1110.22V116.502H1115.4ZM1119.19 126.677C1119.19 124.605 1119.59 122.767 1120.41 121.164C1121.25 119.561 1122.37 118.327 1123.77 117.464C1125.2 116.601 1126.8 116.169 1128.55 116.169C1130.08 116.169 1131.41 116.477 1132.54 117.094C1133.7 117.711 1134.63 118.488 1135.32 119.425V116.502H1140.53V137H1135.32V134.003C1134.65 134.965 1133.73 135.767 1132.54 136.408C1131.38 137.025 1130.04 137.333 1128.51 137.333C1126.78 137.333 1125.2 136.889 1123.77 136.001C1122.37 135.113 1121.25 133.867 1120.41 132.264C1119.59 130.636 1119.19 128.774 1119.19 126.677ZM1135.32 126.751C1135.32 125.493 1135.07 124.42 1134.58 123.532C1134.08 122.619 1133.42 121.929 1132.58 121.46C1131.74 120.967 1130.84 120.72 1129.88 120.72C1128.92 120.72 1128.03 120.954 1127.21 121.423C1126.4 121.892 1125.73 122.582 1125.22 123.495C1124.72 124.383 1124.48 125.444 1124.48 126.677C1124.48 127.91 1124.72 128.996 1125.22 129.933C1125.73 130.846 1126.4 131.549 1127.21 132.042C1128.05 132.535 1128.94 132.782 1129.88 132.782C1130.84 132.782 1131.74 132.548 1132.58 132.079C1133.42 131.586 1134.08 130.895 1134.58 130.007C1135.07 129.094 1135.32 128.009 1135.32 126.751ZM1147.89 137.259C1146.95 137.259 1146.17 136.975 1145.56 136.408C1144.96 135.816 1144.67 135.088 1144.67 134.225C1144.67 133.362 1144.96 132.646 1145.56 132.079C1146.17 131.487 1146.95 131.191 1147.89 131.191C1148.8 131.191 1149.55 131.487 1150.14 132.079C1150.74 132.646 1151.03 133.362 1151.03 134.225C1151.03 135.088 1150.74 135.816 1150.14 136.408C1149.55 136.975 1148.8 137.259 1147.89 137.259ZM1156.24 111.174H1161.68L1157.68 120.498H1154.13L1156.24 111.174ZM1163.71 111.174H1169.15L1165.16 120.498H1161.61L1163.71 111.174Z" fill="white"/>
</g>
</g>
<defs>
<filter id="filter0_d_298_121" x="0" y="0" width="1633" height="232" filterUnits="userSpaceOnUse" color-interpolation-filters="sRGB">
<feFlood flood-opacity="0" result="BackgroundImageFix"/>
<feColorMatrix in="SourceAlpha" type="matrix" values="0 0 0 0 0 0 0 0 0 0 0 0 0 0 0 0 0 0 127 0" result="hardAlpha"/>
<feOffset dy="4"/>
<feGaussianBlur stdDeviation="2"/>
<feComposite in2="hardAlpha" operator="out"/>
<feColorMatrix type="matrix" values="0 0 0 0 0 0 0 0 0 0 0 0 0 0 0 0 0 0 0.25 0"/>
<feBlend mode="normal" in2="BackgroundImageFix" result="effect1_dropShadow_298_121"/>
<feBlend mode="normal" in="SourceGraphic" in2="effect1_dropShadow_298_121" result="shape"/>
</filter>
<clipPath id="clip0_298_121">
<rect x="4" width="1625" height="224" rx="10" fill="white"/>
</clipPath>
<clipPath id="clip1_298_121">
<rect width="1920" height="1080" fill="white" transform="translate(-143 -428)"/>
</clipPath>
</defs>
</svg>
