<svg width="1633" height="232" viewBox="0 0 1633 232" fill="none" xmlns="http://www.w3.org/2000/svg">
<g filter="url(#filter0_d_1438_22)">
<g clip-path="url(#clip0_1438_22)">
<g clip-path="url(#clip1_1438_22)">
<path d="M1630.01 -174H-21.2437V366H1630.01V-174Z" fill="#C9F7D6"/>
<path d="M1630.01 312C1466.78 305 1303.55 298 1212.04 246.9C1120.53 195.8 1100.75 100.5 1043.13 23C985.334 -54.5 889.699 -114.3 794.064 -174H1630.01V312Z" fill="#B1E4C4"/>
<path d="M1630.01 190.5C1507.54 185.3 1385.08 180 1316.62 141.7C1247.99 103.3 1233.2 31.9 1189.85 -26.2C1146.5 -84.4 1074.78 -129.2 1003.05 -174H1630.01V190.5Z" fill="#82BFA3"/>
<path d="M1630.01 69C1548.31 65.5 1466.78 62 1421.03 36.4C1375.27 10.9 1365.47 -36.7 1336.57 -75.5C1307.67 -114.3 1259.86 -144.1 1212.04 -174H1630.01V69Z" fill="#539B84"/>
<path d="M-21.2437 -120C112.749 -95.8 246.741 -71.6 376.09 -34.1C505.438 3.39999 630.314 54.1 702.729 123C774.971 191.9 794.924 278.9 814.705 366H-21.2437V-120Z" fill="#B1E4C4"/>
<path d="M-21.2437 1.5C79.2078 19.7 179.659 37.8 276.67 65.9C373.854 94 467.425 132.1 521.779 183.7C575.961 235.4 590.925 300.7 605.718 366H-21.2437V1.5Z" fill="#82BFA3"/>
<path d="M-21.2437 123C45.6666 135.1 112.749 147.2 177.423 165.9C242.097 184.7 304.535 210.1 340.657 244.5C376.95 278.9 386.754 322.5 396.731 366H-21.2437V123Z" fill="#539B84"/>
</g>
<path d="M1066.67 176.608V180.974H1050.98V176.608H1066.67ZM1088.32 187.079H1078.03L1076.33 192H1070.89L1080.18 166.137H1086.21L1095.49 192H1090.02L1088.32 187.079ZM1086.91 182.935L1083.17 172.131L1079.44 182.935H1086.91ZM1110.33 171.206C1112.77 171.206 1114.74 171.983 1116.25 173.537C1117.75 175.066 1118.5 177.212 1118.5 179.975V192H1113.32V180.678C1113.32 179.05 1112.92 177.804 1112.1 176.941C1111.29 176.053 1110.18 175.609 1108.77 175.609C1107.34 175.609 1106.21 176.053 1105.37 176.941C1104.55 177.804 1104.15 179.05 1104.15 180.678V192H1098.97V171.502H1104.15V174.055C1104.84 173.167 1105.71 172.476 1106.77 171.983C1107.86 171.465 1109.04 171.206 1110.33 171.206ZM1132.53 192.333C1130.56 192.333 1128.78 191.901 1127.2 191.038C1125.62 190.15 1124.38 188.904 1123.47 187.301C1122.58 185.698 1122.13 183.848 1122.13 181.751C1122.13 179.654 1122.59 177.804 1123.5 176.201C1124.44 174.598 1125.71 173.364 1127.31 172.501C1128.92 171.613 1130.7 171.169 1132.68 171.169C1134.65 171.169 1136.44 171.613 1138.04 172.501C1139.65 173.364 1140.9 174.598 1141.82 176.201C1142.75 177.804 1143.22 179.654 1143.22 181.751C1143.22 183.848 1142.74 185.698 1141.78 187.301C1140.84 188.904 1139.56 190.15 1137.93 191.038C1136.33 191.901 1134.53 192.333 1132.53 192.333ZM1132.53 187.819C1133.47 187.819 1134.34 187.597 1135.16 187.153C1136 186.684 1136.66 185.994 1137.16 185.081C1137.65 184.168 1137.9 183.058 1137.9 181.751C1137.9 179.802 1137.38 178.31 1136.34 177.274C1135.33 176.213 1134.08 175.683 1132.6 175.683C1131.12 175.683 1129.88 176.213 1128.87 177.274C1127.88 178.31 1127.39 179.802 1127.39 181.751C1127.39 183.7 1127.87 185.204 1128.83 186.265C1129.82 187.301 1131.05 187.819 1132.53 187.819ZM1158.38 171.206C1160.82 171.206 1162.8 171.983 1164.3 173.537C1165.81 175.066 1166.56 177.212 1166.56 179.975V192H1161.38V180.678C1161.38 179.05 1160.97 177.804 1160.16 176.941C1159.34 176.053 1158.23 175.609 1156.83 175.609C1155.4 175.609 1154.26 176.053 1153.42 176.941C1152.61 177.804 1152.2 179.05 1152.2 180.678V192H1147.02V171.502H1152.2V174.055C1152.89 173.167 1153.77 172.476 1154.83 171.983C1155.92 171.465 1157.1 171.206 1158.38 171.206ZM1174.11 169.06C1173.2 169.06 1172.43 168.776 1171.82 168.209C1171.23 167.617 1170.93 166.889 1170.93 166.026C1170.93 165.163 1171.23 164.447 1171.82 163.88C1172.43 163.288 1173.2 162.992 1174.11 162.992C1175.02 162.992 1175.78 163.288 1176.37 163.88C1176.99 164.447 1177.29 165.163 1177.29 166.026C1177.29 166.889 1176.99 167.617 1176.37 168.209C1175.78 168.776 1175.02 169.06 1174.11 169.06ZM1176.66 171.502V192H1171.48V171.502H1176.66ZM1207.24 171.206C1209.75 171.206 1211.78 171.983 1213.31 173.537C1214.86 175.066 1215.64 177.212 1215.64 179.975V192H1210.46V180.678C1210.46 179.075 1210.05 177.854 1209.24 177.015C1208.42 176.152 1207.31 175.72 1205.91 175.72C1204.5 175.72 1203.38 176.152 1202.54 177.015C1201.73 177.854 1201.32 179.075 1201.32 180.678V192H1196.14V180.678C1196.14 179.075 1195.73 177.854 1194.92 177.015C1194.1 176.152 1192.99 175.72 1191.59 175.72C1190.16 175.72 1189.02 176.152 1188.18 177.015C1187.37 177.854 1186.96 179.075 1186.96 180.678V192H1181.78V171.502H1186.96V173.981C1187.63 173.118 1188.48 172.439 1189.52 171.946C1190.58 171.453 1191.74 171.206 1192.99 171.206C1194.6 171.206 1196.03 171.551 1197.29 172.242C1198.54 172.908 1199.52 173.87 1200.21 175.128C1200.87 173.944 1201.84 172.994 1203.09 172.279C1204.38 171.564 1205.76 171.206 1207.24 171.206Z" fill="#3E3E3E"/>
<path d="M413.245 79.498H407.769L411.765 70.174H415.354L413.245 79.498ZM420.719 79.498H415.243L419.239 70.174H422.828L420.719 79.498ZM435.835 70.174C438.549 70.174 440.929 70.7043 442.976 71.765C445.048 72.8257 446.639 74.3427 447.749 76.316C448.884 78.2647 449.451 80.534 449.451 83.124C449.451 85.714 448.884 87.9833 447.749 89.932C446.639 91.856 445.048 93.3483 442.976 94.409C440.929 95.4697 438.549 96 435.835 96H426.807V70.174H435.835ZM435.65 91.597C438.364 91.597 440.46 90.857 441.94 89.377C443.42 87.897 444.16 85.8127 444.16 83.124C444.16 80.4353 443.42 78.3387 441.94 76.834C440.46 75.3047 438.364 74.54 435.65 74.54H431.987V91.597H435.65ZM455.956 73.06C455.043 73.06 454.279 72.7763 453.662 72.209C453.07 71.617 452.774 70.8893 452.774 70.026C452.774 69.1627 453.07 68.4473 453.662 67.88C454.279 67.288 455.043 66.992 455.956 66.992C456.869 66.992 457.621 67.288 458.213 67.88C458.83 68.4473 459.138 69.1627 459.138 70.026C459.138 70.8893 458.83 71.617 458.213 72.209C457.621 72.7763 456.869 73.06 455.956 73.06ZM458.509 75.502V96H453.329V75.502H458.509ZM477.623 78.499C478.289 77.5123 479.202 76.7107 480.361 76.094C481.545 75.4773 482.889 75.169 484.394 75.169C486.145 75.169 487.724 75.6007 489.13 76.464C490.561 77.3273 491.683 78.5607 492.497 80.164C493.336 81.7427 493.755 83.5803 493.755 85.677C493.755 87.7737 493.336 89.636 492.497 91.264C491.683 92.8673 490.561 94.113 489.13 95.001C487.724 95.889 486.145 96.333 484.394 96.333C482.865 96.333 481.52 96.037 480.361 95.445C479.226 94.8283 478.314 94.039 477.623 93.077V96H472.443V68.62H477.623V78.499ZM488.464 85.677C488.464 84.4437 488.205 83.383 487.687 82.495C487.194 81.5823 486.528 80.8917 485.689 80.423C484.875 79.9543 483.987 79.72 483.025 79.72C482.088 79.72 481.2 79.9667 480.361 80.46C479.547 80.9287 478.881 81.6193 478.363 82.532C477.87 83.4447 477.623 84.5177 477.623 85.751C477.623 86.9843 477.87 88.0573 478.363 88.97C478.881 89.8827 479.547 90.5857 480.361 91.079C481.2 91.5477 482.088 91.782 483.025 91.782C483.987 91.782 484.875 91.5353 485.689 91.042C486.528 90.5487 487.194 89.8457 487.687 88.933C488.205 88.0203 488.464 86.935 488.464 85.677ZM496.187 85.677C496.187 83.605 496.594 81.7673 497.408 80.164C498.247 78.5607 499.369 77.3273 500.775 76.464C502.206 75.6007 503.797 75.169 505.548 75.169C507.078 75.169 508.41 75.4773 509.544 76.094C510.704 76.7107 511.629 77.4877 512.319 78.425V75.502H517.536V96H512.319V93.003C511.653 93.965 510.728 94.7667 509.544 95.408C508.385 96.0247 507.041 96.333 505.511 96.333C503.785 96.333 502.206 95.889 500.775 95.001C499.369 94.113 498.247 92.8673 497.408 91.264C496.594 89.636 496.187 87.7737 496.187 85.677ZM512.319 85.751C512.319 84.493 512.073 83.42 511.579 82.532C511.086 81.6193 510.42 80.9287 509.581 80.46C508.743 79.9667 507.842 79.72 506.88 79.72C505.918 79.72 505.03 79.9543 504.216 80.423C503.402 80.8917 502.736 81.5823 502.218 82.495C501.725 83.383 501.478 84.4437 501.478 85.677C501.478 86.9103 501.725 87.9957 502.218 88.933C502.736 89.8457 503.402 90.5487 504.216 91.042C505.055 91.5353 505.943 91.782 506.88 91.782C507.842 91.782 508.743 91.5477 509.581 91.079C510.42 90.5857 511.086 89.895 511.579 89.007C512.073 88.0943 512.319 87.009 512.319 85.751ZM527.775 68.62V96H522.595V68.62H527.775ZM535.52 73.06C534.608 73.06 533.843 72.7763 533.226 72.209C532.634 71.617 532.338 70.8893 532.338 70.026C532.338 69.1627 532.634 68.4473 533.226 67.88C533.843 67.288 534.608 66.992 535.52 66.992C536.433 66.992 537.185 67.288 537.777 67.88C538.394 68.4473 538.702 69.1627 538.702 70.026C538.702 70.8893 538.394 71.617 537.777 72.209C537.185 72.7763 536.433 73.06 535.52 73.06ZM538.073 75.502V96H532.893V75.502H538.073ZM555.327 96L548.371 87.268V96H543.191V68.62H548.371V84.197L555.253 75.502H561.987L552.959 85.788L562.061 96H555.327ZM578.795 68.62V96H573.615V68.62H578.795ZM602.968 85.307C602.968 86.047 602.919 86.713 602.82 87.305H587.835C587.958 88.785 588.476 89.9443 589.389 90.783C590.302 91.6217 591.424 92.041 592.756 92.041C594.68 92.041 596.049 91.2147 596.863 89.562H602.45C601.858 91.5353 600.723 93.1633 599.046 94.446C597.369 95.704 595.309 96.333 592.867 96.333C590.894 96.333 589.118 95.9013 587.539 95.038C585.985 94.15 584.764 92.9043 583.876 91.301C583.013 89.6977 582.581 87.8477 582.581 85.751C582.581 83.6297 583.013 81.7673 583.876 80.164C584.739 78.5607 585.948 77.3273 587.502 76.464C589.056 75.6007 590.844 75.169 592.867 75.169C594.816 75.169 596.555 75.5883 598.084 76.427C599.638 77.2657 600.834 78.462 601.673 80.016C602.536 81.5453 602.968 83.309 602.968 85.307ZM597.603 83.827C597.578 82.495 597.097 81.4343 596.16 80.645C595.223 79.831 594.076 79.424 592.719 79.424C591.436 79.424 590.351 79.8187 589.463 80.608C588.6 81.3727 588.069 82.4457 587.872 83.827H597.603ZM632.205 75.206C634.721 75.206 636.743 75.983 638.273 77.537C639.827 79.0663 640.604 81.2123 640.604 83.975V96H635.424V84.678C635.424 83.0747 635.017 81.8537 634.203 81.015C633.389 80.1517 632.279 79.72 630.873 79.72C629.467 79.72 628.344 80.1517 627.506 81.015C626.692 81.8537 626.285 83.0747 626.285 84.678V96H621.105V84.678C621.105 83.0747 620.698 81.8537 619.884 81.015C619.07 80.1517 617.96 79.72 616.554 79.72C615.123 79.72 613.988 80.1517 613.15 81.015C612.336 81.8537 611.929 83.0747 611.929 84.678V96H606.749V75.502H611.929V77.981C612.595 77.1177 613.446 76.4393 614.482 75.946C615.542 75.4527 616.702 75.206 617.96 75.206C619.563 75.206 620.994 75.5513 622.252 76.242C623.51 76.908 624.484 77.87 625.175 79.128C625.841 77.944 626.803 76.9943 628.061 76.279C629.343 75.5637 630.725 75.206 632.205 75.206ZM650.699 78.499C651.365 77.5123 652.278 76.7107 653.437 76.094C654.621 75.4773 655.966 75.169 657.47 75.169C659.222 75.169 660.8 75.6007 662.206 76.464C663.637 77.3273 664.759 78.5607 665.573 80.164C666.412 81.7427 666.831 83.5803 666.831 85.677C666.831 87.7737 666.412 89.636 665.573 91.264C664.759 92.8673 663.637 94.113 662.206 95.001C660.8 95.889 659.222 96.333 657.47 96.333C655.941 96.333 654.597 96.037 653.437 95.445C652.303 94.8283 651.39 94.039 650.699 93.077V96H645.519V68.62H650.699V78.499ZM661.54 85.677C661.54 84.4437 661.281 83.383 660.763 82.495C660.27 81.5823 659.604 80.8917 658.765 80.423C657.951 79.9543 657.063 79.72 656.101 79.72C655.164 79.72 654.276 79.9667 653.437 80.46C652.623 80.9287 651.957 81.6193 651.439 82.532C650.946 83.4447 650.699 84.5177 650.699 85.751C650.699 86.9843 650.946 88.0573 651.439 88.97C651.957 89.8827 652.623 90.5857 653.437 91.079C654.276 91.5477 655.164 91.782 656.101 91.782C657.063 91.782 657.951 91.5353 658.765 91.042C659.604 90.5487 660.27 89.8457 660.763 88.933C661.281 88.0203 661.54 86.935 661.54 85.677ZM669.263 85.677C669.263 83.605 669.67 81.7673 670.484 80.164C671.323 78.5607 672.445 77.3273 673.851 76.464C675.282 75.6007 676.873 75.169 678.624 75.169C680.154 75.169 681.486 75.4773 682.62 76.094C683.78 76.7107 684.705 77.4877 685.395 78.425V75.502H690.612V96H685.395V93.003C684.729 93.965 683.804 94.7667 682.62 95.408C681.461 96.0247 680.117 96.333 678.587 96.333C676.861 96.333 675.282 95.889 673.851 95.001C672.445 94.113 671.323 92.8673 670.484 91.264C669.67 89.636 669.263 87.7737 669.263 85.677ZM685.395 85.751C685.395 84.493 685.149 83.42 684.655 82.532C684.162 81.6193 683.496 80.9287 682.657 80.46C681.819 79.9667 680.918 79.72 679.956 79.72C678.994 79.72 678.106 79.9543 677.292 80.423C676.478 80.8917 675.812 81.5823 675.294 82.495C674.801 83.383 674.554 84.4437 674.554 85.677C674.554 86.9103 674.801 87.9957 675.294 88.933C675.812 89.8457 676.478 90.5487 677.292 91.042C678.131 91.5353 679.019 91.782 679.956 91.782C680.918 91.782 681.819 91.5477 682.657 91.079C683.496 90.5857 684.162 89.895 684.655 89.007C685.149 88.0943 685.395 87.009 685.395 85.751ZM700.852 78.684C701.518 77.5987 702.381 76.7477 703.442 76.131C704.527 75.5143 705.76 75.206 707.142 75.206V80.645H705.773C704.145 80.645 702.911 81.0273 702.073 81.792C701.259 82.5567 700.852 83.8887 700.852 85.788V96H695.672V75.502H700.852V78.684ZM709.299 85.677C709.299 83.605 709.706 81.7673 710.52 80.164C711.358 78.5607 712.481 77.3273 713.887 76.464C715.317 75.6007 716.908 75.169 718.66 75.169C720.189 75.169 721.521 75.4773 722.656 76.094C723.815 76.7107 724.74 77.4877 725.431 78.425V75.502H730.648V96H725.431V93.003C724.765 93.965 723.84 94.7667 722.656 95.408C721.496 96.0247 720.152 96.333 718.623 96.333C716.896 96.333 715.317 95.889 713.887 95.001C712.481 94.113 711.358 92.8673 710.52 91.264C709.706 89.636 709.299 87.7737 709.299 85.677ZM725.431 85.751C725.431 84.493 725.184 83.42 724.691 82.532C724.197 81.6193 723.531 80.9287 722.693 80.46C721.854 79.9667 720.954 79.72 719.992 79.72C719.03 79.72 718.142 79.9543 717.328 80.423C716.514 80.8917 715.848 81.5823 715.33 82.495C714.836 83.383 714.59 84.4437 714.59 85.677C714.59 86.9103 714.836 87.9957 715.33 88.933C715.848 89.8457 716.514 90.5487 717.328 91.042C718.166 91.5353 719.054 91.782 719.992 91.782C720.954 91.782 721.854 91.5477 722.693 91.079C723.531 90.5857 724.197 89.895 724.691 89.007C725.184 88.0943 725.431 87.009 725.431 85.751ZM747.066 75.206C749.508 75.206 751.481 75.983 752.986 77.537C754.49 79.0663 755.243 81.2123 755.243 83.975V96H750.063V84.678C750.063 83.05 749.656 81.8043 748.842 80.941C748.028 80.053 746.918 79.609 745.512 79.609C744.081 79.609 742.946 80.053 742.108 80.941C741.294 81.8043 740.887 83.05 740.887 84.678V96H735.707V75.502H740.887V78.055C741.577 77.167 742.453 76.4763 743.514 75.983C744.599 75.465 745.783 75.206 747.066 75.206ZM781.121 96L774.165 87.268V96H768.985V68.62H774.165V84.197L781.047 75.502H787.781L778.753 85.788L787.855 96H781.121ZM809.648 85.307C809.648 86.047 809.598 86.713 809.5 87.305H794.515C794.638 88.785 795.156 89.9443 796.069 90.783C796.981 91.6217 798.104 92.041 799.436 92.041C801.36 92.041 802.729 91.2147 803.543 89.562H809.13C808.538 91.5353 807.403 93.1633 805.726 94.446C804.048 95.704 801.989 96.333 799.547 96.333C797.573 96.333 795.797 95.9013 794.219 95.038C792.665 94.15 791.444 92.9043 790.556 91.301C789.692 89.6977 789.261 87.8477 789.261 85.751C789.261 83.6297 789.692 81.7673 790.556 80.164C791.419 78.5607 792.628 77.3273 794.182 76.464C795.736 75.6007 797.524 75.169 799.547 75.169C801.495 75.169 803.234 75.5883 804.764 76.427C806.318 77.2657 807.514 78.462 808.353 80.016C809.216 81.5453 809.648 83.309 809.648 85.307ZM804.283 83.827C804.258 82.495 803.777 81.4343 802.84 80.645C801.902 79.831 800.755 79.424 799.399 79.424C798.116 79.424 797.031 79.8187 796.143 80.608C795.279 81.3727 794.749 82.4457 794.552 83.827H804.283ZM818.608 78.684C819.274 77.5987 820.138 76.7477 821.198 76.131C822.284 75.5143 823.517 75.206 824.898 75.206V80.645H823.529C821.901 80.645 820.668 81.0273 819.829 81.792C819.015 82.5567 818.608 83.8887 818.608 85.788V96H813.428V75.502H818.608V78.684ZM834.418 79.757V89.673C834.418 90.3637 834.579 90.8693 834.899 91.19C835.245 91.486 835.812 91.634 836.601 91.634H839.006V96H835.75C831.384 96 829.201 93.8787 829.201 89.636V79.757H826.759V75.502H829.201V70.433H834.418V75.502H839.006V79.757H834.418ZM841.4 85.677C841.4 83.605 841.807 81.7673 842.621 80.164C843.46 78.5607 844.582 77.3273 845.988 76.464C847.419 75.6007 849.01 75.169 850.761 75.169C852.291 75.169 853.623 75.4773 854.757 76.094C855.917 76.7107 856.842 77.4877 857.532 78.425V75.502H862.749V96H857.532V93.003C856.866 93.965 855.941 94.7667 854.757 95.408C853.598 96.0247 852.254 96.333 850.724 96.333C848.998 96.333 847.419 95.889 845.988 95.001C844.582 94.113 843.46 92.8673 842.621 91.264C841.807 89.636 841.4 87.7737 841.4 85.677ZM857.532 85.751C857.532 84.493 857.286 83.42 856.792 82.532C856.299 81.6193 855.633 80.9287 854.794 80.46C853.956 79.9667 853.055 79.72 852.093 79.72C851.131 79.72 850.243 79.9543 849.429 80.423C848.615 80.8917 847.949 81.5823 847.431 82.495C846.938 83.383 846.691 84.4437 846.691 85.677C846.691 86.9103 846.938 87.9957 847.431 88.933C847.949 89.8457 848.615 90.5487 849.429 91.042C850.268 91.5353 851.156 91.782 852.093 91.782C853.055 91.782 853.956 91.5477 854.794 91.079C855.633 90.5857 856.299 89.895 856.792 89.007C857.286 88.0943 857.532 87.009 857.532 85.751ZM875.652 96.333C873.975 96.333 872.47 96.037 871.138 95.445C869.806 94.8283 868.746 94.002 867.956 92.966C867.192 91.93 866.772 90.783 866.698 89.525H871.915C872.014 90.3143 872.396 90.968 873.062 91.486C873.753 92.004 874.604 92.263 875.615 92.263C876.602 92.263 877.367 92.0657 877.909 91.671C878.477 91.2763 878.76 90.7707 878.76 90.154C878.76 89.488 878.415 88.9947 877.724 88.674C877.058 88.3287 875.985 87.9587 874.505 87.564C872.976 87.194 871.718 86.8117 870.731 86.417C869.769 86.0223 868.931 85.418 868.215 84.604C867.525 83.79 867.179 82.6923 867.179 81.311C867.179 80.1763 867.5 79.1403 868.141 78.203C868.807 77.2657 869.745 76.5257 870.953 75.983C872.187 75.4403 873.63 75.169 875.282 75.169C877.724 75.169 879.673 75.7857 881.128 77.019C882.584 78.2277 883.385 79.868 883.533 81.94H878.575C878.501 81.126 878.156 80.4847 877.539 80.016C876.947 79.5227 876.146 79.276 875.134 79.276C874.197 79.276 873.469 79.4487 872.951 79.794C872.458 80.1393 872.211 80.6203 872.211 81.237C872.211 81.9277 872.557 82.458 873.247 82.828C873.938 83.1733 875.011 83.531 876.466 83.901C877.946 84.271 879.167 84.6533 880.129 85.048C881.091 85.4427 881.918 86.0593 882.608 86.898C883.324 87.712 883.694 88.7973 883.718 90.154C883.718 91.338 883.385 92.3987 882.719 93.336C882.078 94.2733 881.141 95.0133 879.907 95.556C878.699 96.074 877.28 96.333 875.652 96.333ZM893.631 90.561L889.302 100.958H885.972L888.377 90.561H893.631ZM912.212 79.757V89.673C912.212 90.3637 912.373 90.8693 912.693 91.19C913.039 91.486 913.606 91.634 914.395 91.634H916.8V96H913.544C909.178 96 906.995 93.8787 906.995 89.636V79.757H904.553V75.502H906.995V70.433H912.212V75.502H916.8V79.757H912.212ZM939.581 85.307C939.581 86.047 939.532 86.713 939.433 87.305H924.448C924.571 88.785 925.089 89.9443 926.002 90.783C926.915 91.6217 928.037 92.041 929.369 92.041C931.293 92.041 932.662 91.2147 933.476 89.562H939.063C938.471 91.5353 937.336 93.1633 935.659 94.446C933.982 95.704 931.922 96.333 929.48 96.333C927.507 96.333 925.731 95.9013 924.152 95.038C922.598 94.15 921.377 92.9043 920.489 91.301C919.626 89.6977 919.194 87.8477 919.194 85.751C919.194 83.6297 919.626 81.7673 920.489 80.164C921.352 78.5607 922.561 77.3273 924.115 76.464C925.669 75.6007 927.457 75.169 929.48 75.169C931.429 75.169 933.168 75.5883 934.697 76.427C936.251 77.2657 937.447 78.462 938.286 80.016C939.149 81.5453 939.581 83.309 939.581 85.307ZM934.216 83.827C934.191 82.495 933.71 81.4343 932.773 80.645C931.836 79.831 930.689 79.424 929.332 79.424C928.049 79.424 926.964 79.8187 926.076 80.608C925.213 81.3727 924.682 82.4457 924.485 83.827H934.216ZM948.542 78.684C949.208 77.5987 950.071 76.7477 951.132 76.131C952.217 75.5143 953.451 75.206 954.832 75.206V80.645H953.463C951.835 80.645 950.602 81.0273 949.763 81.792C948.949 82.5567 948.542 83.8887 948.542 85.788V96H943.362V75.502H948.542V78.684ZM969.865 75.206C971.419 75.206 972.8 75.5513 974.009 76.242C975.218 76.908 976.155 77.907 976.821 79.239C977.512 80.5463 977.857 82.125 977.857 83.975V96H972.677V84.678C972.677 83.05 972.27 81.8043 971.456 80.941C970.642 80.053 969.532 79.609 968.126 79.609C966.695 79.609 965.561 80.053 964.722 80.941C963.908 81.8043 963.501 83.05 963.501 84.678V96H958.321V68.62H963.501V78.055C964.167 77.167 965.055 76.4763 966.165 75.983C967.275 75.465 968.508 75.206 969.865 75.206ZM981.451 85.677C981.451 83.605 981.858 81.7673 982.672 80.164C983.511 78.5607 984.633 77.3273 986.039 76.464C987.47 75.6007 989.061 75.169 990.812 75.169C992.341 75.169 993.673 75.4773 994.808 76.094C995.967 76.7107 996.892 77.4877 997.583 78.425V75.502H1002.8V96H997.583V93.003C996.917 93.965 995.992 94.7667 994.808 95.408C993.649 96.0247 992.304 96.333 990.775 96.333C989.048 96.333 987.47 95.889 986.039 95.001C984.633 94.113 983.511 92.8673 982.672 91.264C981.858 89.636 981.451 87.7737 981.451 85.677ZM997.583 85.751C997.583 84.493 997.336 83.42 996.843 82.532C996.35 81.6193 995.684 80.9287 994.845 80.46C994.006 79.9667 993.106 79.72 992.144 79.72C991.182 79.72 990.294 79.9543 989.48 80.423C988.666 80.8917 988 81.5823 987.482 82.495C986.989 83.383 986.742 84.4437 986.742 85.677C986.742 86.9103 986.989 87.9957 987.482 88.933C988 89.8457 988.666 90.5487 989.48 91.042C990.319 91.5353 991.207 91.782 992.144 91.782C993.106 91.782 994.006 91.5477 994.845 91.079C995.684 90.5857 996.35 89.895 996.843 89.007C997.336 88.0943 997.583 87.009 997.583 85.751ZM1033.32 75.206C1035.83 75.206 1037.85 75.983 1039.38 77.537C1040.94 79.0663 1041.71 81.2123 1041.71 83.975V96H1036.53V84.678C1036.53 83.0747 1036.13 81.8537 1035.31 81.015C1034.5 80.1517 1033.39 79.72 1031.98 79.72C1030.58 79.72 1029.45 80.1517 1028.62 81.015C1027.8 81.8537 1027.4 83.0747 1027.4 84.678V96H1022.22V84.678C1022.22 83.0747 1021.81 81.8537 1020.99 81.015C1020.18 80.1517 1019.07 79.72 1017.66 79.72C1016.23 79.72 1015.1 80.1517 1014.26 81.015C1013.45 81.8537 1013.04 83.0747 1013.04 84.678V96H1007.86V75.502H1013.04V77.981C1013.71 77.1177 1014.56 76.4393 1015.59 75.946C1016.65 75.4527 1017.81 75.206 1019.07 75.206C1020.67 75.206 1022.1 75.5513 1023.36 76.242C1024.62 76.908 1025.59 77.87 1026.29 79.128C1026.95 77.944 1027.91 76.9943 1029.17 76.279C1030.45 75.5637 1031.84 75.206 1033.32 75.206ZM1051.81 78.462C1052.48 77.5247 1053.39 76.7477 1054.55 76.131C1055.73 75.4897 1057.08 75.169 1058.58 75.169C1060.33 75.169 1061.91 75.6007 1063.32 76.464C1064.75 77.3273 1065.87 78.5607 1066.68 80.164C1067.52 81.7427 1067.94 83.5803 1067.94 85.677C1067.94 87.7737 1067.52 89.636 1066.68 91.264C1065.87 92.8673 1064.75 94.113 1063.32 95.001C1061.91 95.889 1060.33 96.333 1058.58 96.333C1057.08 96.333 1055.74 96.0247 1054.58 95.408C1053.45 94.7913 1052.52 94.0143 1051.81 93.077V105.768H1046.63V75.502H1051.81V78.462ZM1062.65 85.677C1062.65 84.4437 1062.39 83.383 1061.87 82.495C1061.38 81.5823 1060.71 80.8917 1059.88 80.423C1059.06 79.9543 1058.17 79.72 1057.21 79.72C1056.27 79.72 1055.39 79.9667 1054.55 80.46C1053.73 80.9287 1053.07 81.6193 1052.55 82.532C1052.06 83.4447 1051.81 84.5177 1051.81 85.751C1051.81 86.9843 1052.06 88.0573 1052.55 88.97C1053.07 89.8827 1053.73 90.5857 1054.55 91.079C1055.39 91.5477 1056.27 91.782 1057.21 91.782C1058.17 91.782 1059.06 91.5353 1059.88 91.042C1060.71 90.5487 1061.38 89.8457 1061.87 88.933C1062.39 88.0203 1062.65 86.935 1062.65 85.677ZM1070.37 85.677C1070.37 83.605 1070.78 81.7673 1071.59 80.164C1072.43 78.5607 1073.56 77.3273 1074.96 76.464C1076.39 75.6007 1077.98 75.169 1079.73 75.169C1081.26 75.169 1082.6 75.4773 1083.73 76.094C1084.89 76.7107 1085.82 77.4877 1086.51 78.425V75.502H1091.72V96H1086.51V93.003C1085.84 93.965 1084.91 94.7667 1083.73 95.408C1082.57 96.0247 1081.23 96.333 1079.7 96.333C1077.97 96.333 1076.39 95.889 1074.96 95.001C1073.56 94.113 1072.43 92.8673 1071.59 91.264C1070.78 89.636 1070.37 87.7737 1070.37 85.677ZM1086.51 85.751C1086.51 84.493 1086.26 83.42 1085.77 82.532C1085.27 81.6193 1084.61 80.9287 1083.77 80.46C1082.93 79.9667 1082.03 79.72 1081.07 79.72C1080.1 79.72 1079.22 79.9543 1078.4 80.423C1077.59 80.8917 1076.92 81.5823 1076.4 82.495C1075.91 83.383 1075.66 84.4437 1075.66 85.677C1075.66 86.9103 1075.91 87.9957 1076.4 88.933C1076.92 89.8457 1077.59 90.5487 1078.4 91.042C1079.24 91.5353 1080.13 91.782 1081.07 91.782C1082.03 91.782 1082.93 91.5477 1083.77 91.079C1084.61 90.5857 1085.27 89.895 1085.77 89.007C1086.26 88.0943 1086.51 87.009 1086.51 85.751ZM1101.96 78.684C1102.63 77.5987 1103.49 76.7477 1104.55 76.131C1105.64 75.5143 1106.87 75.206 1108.25 75.206V80.645H1106.88C1105.26 80.645 1104.02 81.0273 1103.18 81.792C1102.37 82.5567 1101.96 83.8887 1101.96 85.788V96H1096.78V75.502H1101.96V78.684ZM1119.23 85.677C1119.23 83.605 1119.63 81.7673 1120.45 80.164C1121.29 78.5607 1122.42 77.3273 1123.85 76.464C1125.28 75.6007 1126.87 75.169 1128.62 75.169C1129.96 75.169 1131.23 75.465 1132.43 76.057C1133.64 76.6243 1134.61 77.389 1135.32 78.351V68.62H1140.57V96H1135.32V92.966C1134.68 93.9773 1133.78 94.7913 1132.62 95.408C1131.46 96.0247 1130.12 96.333 1128.59 96.333C1126.86 96.333 1125.28 95.889 1123.85 95.001C1122.42 94.113 1121.29 92.8673 1120.45 91.264C1119.63 89.636 1119.23 87.7737 1119.23 85.677ZM1135.36 85.751C1135.36 84.493 1135.11 83.42 1134.62 82.532C1134.12 81.6193 1133.46 80.9287 1132.62 80.46C1131.78 79.9667 1130.88 79.72 1129.92 79.72C1128.96 79.72 1128.07 79.9543 1127.25 80.423C1126.44 80.8917 1125.77 81.5823 1125.26 82.495C1124.76 83.383 1124.52 84.4437 1124.52 85.677C1124.52 86.9103 1124.76 87.9957 1125.26 88.933C1125.77 89.8457 1126.44 90.5487 1127.25 91.042C1128.09 91.5353 1128.98 91.782 1129.92 91.782C1130.88 91.782 1131.78 91.5477 1132.62 91.079C1133.46 90.5857 1134.12 89.895 1134.62 89.007C1135.11 88.0943 1135.36 87.009 1135.36 85.751ZM1164.98 75.502V96H1159.77V93.41C1159.1 94.298 1158.23 95.001 1157.14 95.519C1156.08 96.0123 1154.92 96.259 1153.66 96.259C1152.06 96.259 1150.64 95.926 1149.41 95.26C1148.17 94.5693 1147.2 93.5703 1146.48 92.263C1145.79 90.931 1145.45 89.3523 1145.45 87.527V75.502H1150.63V86.787C1150.63 88.415 1151.04 89.673 1151.85 90.561C1152.66 91.4243 1153.77 91.856 1155.18 91.856C1156.61 91.856 1157.73 91.4243 1158.55 90.561C1159.36 89.673 1159.77 88.415 1159.77 86.787V75.502H1164.98ZM1181.45 75.206C1183.9 75.206 1185.87 75.983 1187.37 77.537C1188.88 79.0663 1189.63 81.2123 1189.63 83.975V96H1184.45V84.678C1184.45 83.05 1184.04 81.8043 1183.23 80.941C1182.42 80.053 1181.31 79.609 1179.9 79.609C1178.47 79.609 1177.34 80.053 1176.5 80.941C1175.68 81.8043 1175.28 83.05 1175.28 84.678V96H1170.1V75.502H1175.28V78.055C1175.97 77.167 1176.84 76.4763 1177.9 75.983C1178.99 75.465 1180.17 75.206 1181.45 75.206ZM1197.18 73.06C1196.27 73.06 1195.51 72.7763 1194.89 72.209C1194.3 71.617 1194 70.8893 1194 70.026C1194 69.1627 1194.3 68.4473 1194.89 67.88C1195.51 67.288 1196.27 66.992 1197.18 66.992C1198.1 66.992 1198.85 67.288 1199.44 67.88C1200.06 68.4473 1200.37 69.1627 1200.37 70.026C1200.37 70.8893 1200.06 71.617 1199.44 72.209C1198.85 72.7763 1198.1 73.06 1197.18 73.06ZM1199.74 75.502V96H1194.56V75.502H1199.74ZM1203.52 85.677C1203.52 83.605 1203.93 81.7673 1204.74 80.164C1205.58 78.5607 1206.71 77.3273 1208.11 76.464C1209.54 75.6007 1211.13 75.169 1212.88 75.169C1214.41 75.169 1215.75 75.4773 1216.88 76.094C1218.04 76.7107 1218.96 77.4877 1219.66 78.425V75.502H1224.87V96H1219.66V93.003C1218.99 93.965 1218.06 94.7667 1216.88 95.408C1215.72 96.0247 1214.38 96.333 1212.85 96.333C1211.12 96.333 1209.54 95.889 1208.11 95.001C1206.71 94.113 1205.58 92.8673 1204.74 91.264C1203.93 89.636 1203.52 87.7737 1203.52 85.677ZM1219.66 85.751C1219.66 84.493 1219.41 83.42 1218.92 82.532C1218.42 81.6193 1217.76 80.9287 1216.92 80.46C1216.08 79.9667 1215.18 79.72 1214.22 79.72C1213.25 79.72 1212.37 79.9543 1211.55 80.423C1210.74 80.8917 1210.07 81.5823 1209.55 82.495C1209.06 83.383 1208.81 84.4437 1208.81 85.677C1208.81 86.9103 1209.06 87.9957 1209.55 88.933C1210.07 89.8457 1210.74 90.5487 1211.55 91.042C1212.39 91.5353 1213.28 91.782 1214.22 91.782C1215.18 91.782 1216.08 91.5477 1216.92 91.079C1217.76 90.5857 1218.42 89.895 1218.92 89.007C1219.41 88.0943 1219.66 87.009 1219.66 85.751ZM656.765 131.502L644.074 161.694H638.561L643.001 151.482L634.787 131.502H640.596L645.887 145.821L651.252 131.502H656.765ZM658.225 141.677C658.225 139.605 658.632 137.767 659.446 136.164C660.285 134.561 661.407 133.327 662.813 132.464C664.244 131.601 665.835 131.169 667.586 131.169C669.115 131.169 670.447 131.477 671.582 132.094C672.741 132.711 673.666 133.488 674.357 134.425V131.502H679.574V152H674.357V149.003C673.691 149.965 672.766 150.767 671.582 151.408C670.423 152.025 669.078 152.333 667.549 152.333C665.822 152.333 664.244 151.889 662.813 151.001C661.407 150.113 660.285 148.867 659.446 147.264C658.632 145.636 658.225 143.774 658.225 141.677ZM674.357 141.751C674.357 140.493 674.11 139.42 673.617 138.532C673.124 137.619 672.458 136.929 671.619 136.46C670.78 135.967 669.88 135.72 668.918 135.72C667.956 135.72 667.068 135.954 666.254 136.423C665.44 136.892 664.774 137.582 664.256 138.495C663.763 139.383 663.516 140.444 663.516 141.677C663.516 142.91 663.763 143.996 664.256 144.933C664.774 145.846 665.44 146.549 666.254 147.042C667.093 147.535 667.981 147.782 668.918 147.782C669.88 147.782 670.78 147.548 671.619 147.079C672.458 146.586 673.124 145.895 673.617 145.007C674.11 144.094 674.357 143.009 674.357 141.751ZM695.992 131.206C698.434 131.206 700.407 131.983 701.912 133.537C703.417 135.066 704.169 137.212 704.169 139.975V152H698.989V140.678C698.989 139.05 698.582 137.804 697.768 136.941C696.954 136.053 695.844 135.609 694.438 135.609C693.007 135.609 691.873 136.053 691.034 136.941C690.22 137.804 689.813 139.05 689.813 140.678V152H684.633V131.502H689.813V134.055C690.504 133.167 691.379 132.476 692.44 131.983C693.525 131.465 694.709 131.206 695.992 131.206ZM717.124 131.169C718.653 131.169 719.998 131.477 721.157 132.094C722.316 132.686 723.229 133.463 723.895 134.425V131.502H729.112V152.148C729.112 154.047 728.73 155.737 727.965 157.217C727.2 158.722 726.053 159.906 724.524 160.769C722.995 161.657 721.145 162.101 718.974 162.101C716.063 162.101 713.671 161.423 711.796 160.066C709.946 158.709 708.898 156.859 708.651 154.516H713.794C714.065 155.453 714.645 156.193 715.533 156.736C716.446 157.303 717.543 157.587 718.826 157.587C720.331 157.587 721.552 157.131 722.489 156.218C723.426 155.33 723.895 153.973 723.895 152.148V148.966C723.229 149.928 722.304 150.73 721.12 151.371C719.961 152.012 718.629 152.333 717.124 152.333C715.397 152.333 713.819 151.889 712.388 151.001C710.957 150.113 709.823 148.867 708.984 147.264C708.17 145.636 707.763 143.774 707.763 141.677C707.763 139.605 708.17 137.767 708.984 136.164C709.823 134.561 710.945 133.327 712.351 132.464C713.782 131.601 715.373 131.169 717.124 131.169ZM723.895 141.751C723.895 140.493 723.648 139.42 723.155 138.532C722.662 137.619 721.996 136.929 721.157 136.46C720.318 135.967 719.418 135.72 718.456 135.72C717.494 135.72 716.606 135.954 715.792 136.423C714.978 136.892 714.312 137.582 713.794 138.495C713.301 139.383 713.054 140.444 713.054 141.677C713.054 142.91 713.301 143.996 713.794 144.933C714.312 145.846 714.978 146.549 715.792 147.042C716.631 147.535 717.519 147.782 718.456 147.782C719.418 147.782 720.318 147.548 721.157 147.079C721.996 146.586 722.662 145.895 723.155 145.007C723.648 144.094 723.895 143.009 723.895 141.751ZM749.019 135.757V145.673C749.019 146.364 749.179 146.869 749.5 147.19C749.845 147.486 750.412 147.634 751.202 147.634H753.607V152H750.351C745.985 152 743.802 149.879 743.802 145.636V135.757H741.36V131.502H743.802V126.433H749.019V131.502H753.607V135.757H749.019ZM756 141.677C756 139.605 756.407 137.767 757.221 136.164C758.06 134.561 759.182 133.327 760.588 132.464C762.019 131.601 763.61 131.169 765.361 131.169C766.891 131.169 768.223 131.477 769.357 132.094C770.517 132.711 771.442 133.488 772.132 134.425V131.502H777.349V152H772.132V149.003C771.466 149.965 770.541 150.767 769.357 151.408C768.198 152.025 766.854 152.333 765.324 152.333C763.598 152.333 762.019 151.889 760.588 151.001C759.182 150.113 758.06 148.867 757.221 147.264C756.407 145.636 756 143.774 756 141.677ZM772.132 141.751C772.132 140.493 771.886 139.42 771.392 138.532C770.899 137.619 770.233 136.929 769.394 136.46C768.556 135.967 767.655 135.72 766.693 135.72C765.731 135.72 764.843 135.954 764.029 136.423C763.215 136.892 762.549 137.582 762.031 138.495C761.538 139.383 761.291 140.444 761.291 141.677C761.291 142.91 761.538 143.996 762.031 144.933C762.549 145.846 763.215 146.549 764.029 147.042C764.868 147.535 765.756 147.782 766.693 147.782C767.655 147.782 768.556 147.548 769.394 147.079C770.233 146.586 770.899 145.895 771.392 145.007C771.886 144.094 772.132 143.009 772.132 141.751ZM794.544 152L787.588 143.268V152H782.408V124.62H787.588V140.197L794.47 131.502H801.204L792.176 141.788L801.278 152H794.544ZM818.863 135.757V145.673C818.863 146.364 819.024 146.869 819.344 147.19C819.69 147.486 820.257 147.634 821.046 147.634H823.451V152H820.195C815.829 152 813.646 149.879 813.646 145.636V135.757H811.204V131.502H813.646V126.433H818.863V131.502H823.451V135.757H818.863ZM846.232 141.307C846.232 142.047 846.183 142.713 846.084 143.305H831.099C831.222 144.785 831.74 145.944 832.653 146.783C833.566 147.622 834.688 148.041 836.02 148.041C837.944 148.041 839.313 147.215 840.127 145.562H845.714C845.122 147.535 843.987 149.163 842.31 150.446C840.633 151.704 838.573 152.333 836.131 152.333C834.158 152.333 832.382 151.901 830.803 151.038C829.249 150.15 828.028 148.904 827.14 147.301C826.277 145.698 825.845 143.848 825.845 141.751C825.845 139.63 826.277 137.767 827.14 136.164C828.003 134.561 829.212 133.327 830.766 132.464C832.32 131.601 834.108 131.169 836.131 131.169C838.08 131.169 839.819 131.588 841.348 132.427C842.902 133.266 844.098 134.462 844.937 136.016C845.8 137.545 846.232 139.309 846.232 141.307ZM840.867 139.827C840.842 138.495 840.361 137.434 839.424 136.645C838.487 135.831 837.34 135.424 835.983 135.424C834.7 135.424 833.615 135.819 832.727 136.608C831.864 137.373 831.333 138.446 831.136 139.827H840.867ZM855.193 134.684C855.859 133.599 856.722 132.748 857.783 132.131C858.868 131.514 860.102 131.206 861.483 131.206V136.645H860.114C858.486 136.645 857.253 137.027 856.414 137.792C855.6 138.557 855.193 139.889 855.193 141.788V152H850.013V131.502H855.193V134.684ZM870.152 134.499C870.818 133.512 871.731 132.711 872.89 132.094C874.074 131.477 875.418 131.169 876.923 131.169C878.674 131.169 880.253 131.601 881.659 132.464C883.09 133.327 884.212 134.561 885.026 136.164C885.865 137.743 886.284 139.58 886.284 141.677C886.284 143.774 885.865 145.636 885.026 147.264C884.212 148.867 883.09 150.113 881.659 151.001C880.253 151.889 878.674 152.333 876.923 152.333C875.394 152.333 874.049 152.037 872.89 151.445C871.755 150.828 870.843 150.039 870.152 149.077V152H864.972V124.62H870.152V134.499ZM880.993 141.677C880.993 140.444 880.734 139.383 880.216 138.495C879.723 137.582 879.057 136.892 878.218 136.423C877.404 135.954 876.516 135.72 875.554 135.72C874.617 135.72 873.729 135.967 872.89 136.46C872.076 136.929 871.41 137.619 870.892 138.532C870.399 139.445 870.152 140.518 870.152 141.751C870.152 142.984 870.399 144.057 870.892 144.97C871.41 145.883 872.076 146.586 872.89 147.079C873.729 147.548 874.617 147.782 875.554 147.782C876.516 147.782 877.404 147.535 878.218 147.042C879.057 146.549 879.723 145.846 880.216 144.933C880.734 144.02 880.993 142.935 880.993 141.677ZM888.716 141.677C888.716 139.605 889.123 137.767 889.937 136.164C890.776 134.561 891.898 133.327 893.304 132.464C894.735 131.601 896.326 131.169 898.077 131.169C899.606 131.169 900.938 131.477 902.073 132.094C903.232 132.711 904.157 133.488 904.848 134.425V131.502H910.065V152H904.848V149.003C904.182 149.965 903.257 150.767 902.073 151.408C900.914 152.025 899.569 152.333 898.04 152.333C896.313 152.333 894.735 151.889 893.304 151.001C891.898 150.113 890.776 148.867 889.937 147.264C889.123 145.636 888.716 143.774 888.716 141.677ZM904.848 141.751C904.848 140.493 904.601 139.42 904.108 138.532C903.615 137.619 902.949 136.929 902.11 136.46C901.271 135.967 900.371 135.72 899.409 135.72C898.447 135.72 897.559 135.954 896.745 136.423C895.931 136.892 895.265 137.582 894.747 138.495C894.254 139.383 894.007 140.444 894.007 141.677C894.007 142.91 894.254 143.996 894.747 144.933C895.265 145.846 895.931 146.549 896.745 147.042C897.584 147.535 898.472 147.782 899.409 147.782C900.371 147.782 901.271 147.548 902.11 147.079C902.949 146.586 903.615 145.895 904.108 145.007C904.601 144.094 904.848 143.009 904.848 141.751ZM921.155 135.757V145.673C921.155 146.364 921.316 146.869 921.636 147.19C921.982 147.486 922.549 147.634 923.338 147.634H925.743V152H922.487C918.121 152 915.938 149.879 915.938 145.636V135.757H913.496V131.502H915.938V126.433H921.155V131.502H925.743V135.757H921.155ZM928.137 141.677C928.137 139.605 928.544 137.767 929.358 136.164C930.197 134.561 931.319 133.327 932.725 132.464C934.156 131.601 935.747 131.169 937.498 131.169C939.027 131.169 940.359 131.477 941.494 132.094C942.653 132.711 943.578 133.488 944.269 134.425V131.502H949.486V152H944.269V149.003C943.603 149.965 942.678 150.767 941.494 151.408C940.335 152.025 938.99 152.333 937.461 152.333C935.734 152.333 934.156 151.889 932.725 151.001C931.319 150.113 930.197 148.867 929.358 147.264C928.544 145.636 928.137 143.774 928.137 141.677ZM944.269 141.751C944.269 140.493 944.022 139.42 943.529 138.532C943.036 137.619 942.37 136.929 941.531 136.46C940.692 135.967 939.792 135.72 938.83 135.72C937.868 135.72 936.98 135.954 936.166 136.423C935.352 136.892 934.686 137.582 934.168 138.495C933.675 139.383 933.428 140.444 933.428 141.677C933.428 142.91 933.675 143.996 934.168 144.933C934.686 145.846 935.352 146.549 936.166 147.042C937.005 147.535 937.893 147.782 938.83 147.782C939.792 147.782 940.692 147.548 941.531 147.079C942.37 146.586 943.036 145.895 943.529 145.007C944.022 144.094 944.269 143.009 944.269 141.751ZM962.389 152.333C960.712 152.333 959.207 152.037 957.875 151.445C956.543 150.828 955.483 150.002 954.693 148.966C953.929 147.93 953.509 146.783 953.435 145.525H958.652C958.751 146.314 959.133 146.968 959.799 147.486C960.49 148.004 961.341 148.263 962.352 148.263C963.339 148.263 964.104 148.066 964.646 147.671C965.214 147.276 965.497 146.771 965.497 146.154C965.497 145.488 965.152 144.995 964.461 144.674C963.795 144.329 962.722 143.959 961.242 143.564C959.713 143.194 958.455 142.812 957.468 142.417C956.506 142.022 955.668 141.418 954.952 140.604C954.262 139.79 953.916 138.692 953.916 137.311C953.916 136.176 954.237 135.14 954.878 134.203C955.544 133.266 956.482 132.526 957.69 131.983C958.924 131.44 960.367 131.169 962.019 131.169C964.461 131.169 966.41 131.786 967.865 133.019C969.321 134.228 970.122 135.868 970.27 137.94H965.312C965.238 137.126 964.893 136.485 964.276 136.016C963.684 135.523 962.883 135.276 961.871 135.276C960.934 135.276 960.206 135.449 959.688 135.794C959.195 136.139 958.948 136.62 958.948 137.237C958.948 137.928 959.294 138.458 959.984 138.828C960.675 139.173 961.748 139.531 963.203 139.901C964.683 140.271 965.904 140.653 966.866 141.048C967.828 141.443 968.655 142.059 969.345 142.898C970.061 143.712 970.431 144.797 970.455 146.154C970.455 147.338 970.122 148.399 969.456 149.336C968.815 150.273 967.878 151.013 966.644 151.556C965.436 152.074 964.017 152.333 962.389 152.333ZM977.001 152.259C976.064 152.259 975.287 151.975 974.67 151.408C974.078 150.816 973.782 150.088 973.782 149.225C973.782 148.362 974.078 147.646 974.67 147.079C975.287 146.487 976.064 146.191 977.001 146.191C977.914 146.191 978.666 146.487 979.258 147.079C979.85 147.646 980.146 148.362 980.146 149.225C980.146 150.088 979.85 150.816 979.258 151.408C978.666 151.975 977.914 152.259 977.001 152.259ZM985.355 126.174H990.794L986.798 135.498H983.246L985.355 126.174ZM992.829 126.174H998.268L994.272 135.498H990.72L992.829 126.174Z" fill="#3E3E3E"/>
</g>
</g>
<defs>
<filter id="filter0_d_1438_22" x="0" y="0" width="1633" height="232" filterUnits="userSpaceOnUse" color-interpolation-filters="sRGB">
<feFlood flood-opacity="0" result="BackgroundImageFix"/>
<feColorMatrix in="SourceAlpha" type="matrix" values="0 0 0 0 0 0 0 0 0 0 0 0 0 0 0 0 0 0 127 0" result="hardAlpha"/>
<feOffset dy="4"/>
<feGaussianBlur stdDeviation="2"/>
<feComposite in2="hardAlpha" operator="out"/>
<feColorMatrix type="matrix" values="0 0 0 0 0 0 0 0 0 0 0 0 0 0 0 0 0 0 0.25 0"/>
<feBlend mode="normal" in2="BackgroundImageFix" result="effect1_dropShadow_1438_22"/>
<feBlend mode="normal" in="SourceGraphic" in2="effect1_dropShadow_1438_22" result="shape"/>
</filter>
<clipPath id="clip0_1438_22">
<rect x="4" width="1625" height="224" rx="10" fill="white"/>
</clipPath>
<clipPath id="clip1_1438_22">
<rect width="1651.26" height="540" fill="white" transform="translate(-21.2437 -174)"/>
</clipPath>
</defs>
</svg>
