<svg width="1633" height="232" viewBox="0 0 1633 232" fill="none" xmlns="http://www.w3.org/2000/svg">
<g filter="url(#filter0_d_1442_57)">
<g clip-path="url(#clip0_1442_57)">
<g clip-path="url(#clip1_1442_57)">
<path d="M1630.01 -174H-21.2437V366H1630.01V-174Z" fill="#C9F7D6"/>
<path d="M1630.01 312C1466.78 305 1303.55 298 1212.04 246.9C1120.53 195.8 1100.75 100.5 1043.13 23C985.334 -54.5 889.699 -114.3 794.064 -174H1630.01V312Z" fill="#B1E4C4"/>
<path d="M1630.01 190.5C1507.54 185.3 1385.08 180 1316.62 141.7C1247.99 103.3 1233.2 31.9 1189.85 -26.2C1146.5 -84.4 1074.78 -129.2 1003.05 -174H1630.01V190.5Z" fill="#82BFA3"/>
<path d="M1630.01 69C1548.31 65.5 1466.78 62 1421.03 36.4C1375.27 10.9 1365.47 -36.7 1336.57 -75.5C1307.67 -114.3 1259.86 -144.1 1212.04 -174H1630.01V69Z" fill="#539B84"/>
<path d="M-21.2437 -120C112.749 -95.8 246.741 -71.6 376.09 -34.1C505.438 3.39999 630.314 54.1 702.729 123C774.971 191.9 794.924 278.9 814.705 366H-21.2437V-120Z" fill="#B1E4C4"/>
<path d="M-21.2437 1.5C79.2078 19.7 179.659 37.8 276.67 65.9C373.854 94 467.425 132.1 521.779 183.7C575.961 235.4 590.925 300.7 605.718 366H-21.2437V1.5Z" fill="#82BFA3"/>
<path d="M-21.2437 123C45.6666 135.1 112.749 147.2 177.423 165.9C242.097 184.7 304.535 210.1 340.657 244.5C376.95 278.9 386.754 322.5 396.731 366H-21.2437V123Z" fill="#539B84"/>
<g clip-path="url(#clip2_1442_57)">
<path d="M1630 -174H-21V366H1630V-174Z" fill="#080024"/>
<path d="M1630 312C1518.56 265.2 1407.11 218.3 1274.86 183.7C1142.61 149 989.721 126.6 906.14 69C822.558 11.4 808.455 -81.3 794.181 -174H1630V312Z" fill="#131E41"/>
<path d="M1630 190.5C1546.42 155.4 1462.84 120.2 1363.6 94.3C1264.54 68.3 1149.83 51.4 1087.06 8.3C1024.46 -34.9 1013.8 -104.5 1003.14 -174H1630V190.5Z" fill="#235083"/>
<path d="M1630 69C1574.28 45.6 1518.56 22.2 1452.52 4.8C1386.31 -12.5 1309.95 -23.7 1268.16 -52.5C1226.36 -81.3 1219.14 -127.6 1212.09 -174H1630V69Z" fill="#1E8AC8"/>
<path d="M-21 -120C141.348 -112.7 303.869 -105.5 396.909 -54.9C489.95 -4.3 513.683 89.6 571.812 167C629.941 244.4 722.294 305.2 814.819 366H-21V-120Z" fill="#131E41"/>
<path d="M-21 1.5C100.761 6.9 222.694 12.4 292.346 50.3C362.17 88.3 380.055 158.7 423.566 216.7C467.077 274.8 536.556 320.4 605.864 366H-21V1.5Z" fill="#235083"/>
<path d="M-21 123C60.1742 126.6 141.348 130.3 187.955 155.6C234.561 180.9 246.256 227.8 275.32 266.5C304.385 305.2 350.647 335.6 396.909 366H-21V123Z" fill="#1E8AC8"/>
</g>
</g>
<path d="M1066.67 176.608V180.974H1050.98V176.608H1066.67ZM1088.32 187.079H1078.03L1076.33 192H1070.89L1080.18 166.137H1086.21L1095.49 192H1090.02L1088.32 187.079ZM1086.91 182.935L1083.17 172.131L1079.44 182.935H1086.91ZM1110.33 171.206C1112.77 171.206 1114.74 171.983 1116.25 173.537C1117.75 175.066 1118.5 177.212 1118.5 179.975V192H1113.32V180.678C1113.32 179.05 1112.92 177.804 1112.1 176.941C1111.29 176.053 1110.18 175.609 1108.77 175.609C1107.34 175.609 1106.21 176.053 1105.37 176.941C1104.55 177.804 1104.15 179.05 1104.15 180.678V192H1098.97V171.502H1104.15V174.055C1104.84 173.167 1105.71 172.476 1106.77 171.983C1107.86 171.465 1109.04 171.206 1110.33 171.206ZM1132.53 192.333C1130.56 192.333 1128.78 191.901 1127.2 191.038C1125.62 190.15 1124.38 188.904 1123.47 187.301C1122.58 185.698 1122.13 183.848 1122.13 181.751C1122.13 179.654 1122.59 177.804 1123.5 176.201C1124.44 174.598 1125.71 173.364 1127.31 172.501C1128.92 171.613 1130.7 171.169 1132.68 171.169C1134.65 171.169 1136.44 171.613 1138.04 172.501C1139.65 173.364 1140.9 174.598 1141.82 176.201C1142.75 177.804 1143.22 179.654 1143.22 181.751C1143.22 183.848 1142.74 185.698 1141.78 187.301C1140.84 188.904 1139.56 190.15 1137.93 191.038C1136.33 191.901 1134.53 192.333 1132.53 192.333ZM1132.53 187.819C1133.47 187.819 1134.34 187.597 1135.16 187.153C1136 186.684 1136.66 185.994 1137.16 185.081C1137.65 184.168 1137.9 183.058 1137.9 181.751C1137.9 179.802 1137.38 178.31 1136.34 177.274C1135.33 176.213 1134.08 175.683 1132.6 175.683C1131.12 175.683 1129.88 176.213 1128.87 177.274C1127.88 178.31 1127.39 179.802 1127.39 181.751C1127.39 183.7 1127.87 185.204 1128.83 186.265C1129.82 187.301 1131.05 187.819 1132.53 187.819ZM1158.38 171.206C1160.82 171.206 1162.8 171.983 1164.3 173.537C1165.81 175.066 1166.56 177.212 1166.56 179.975V192H1161.38V180.678C1161.38 179.05 1160.97 177.804 1160.16 176.941C1159.34 176.053 1158.23 175.609 1156.83 175.609C1155.4 175.609 1154.26 176.053 1153.42 176.941C1152.61 177.804 1152.2 179.05 1152.2 180.678V192H1147.02V171.502H1152.2V174.055C1152.89 173.167 1153.77 172.476 1154.83 171.983C1155.92 171.465 1157.1 171.206 1158.38 171.206ZM1174.11 169.06C1173.2 169.06 1172.43 168.776 1171.82 168.209C1171.23 167.617 1170.93 166.889 1170.93 166.026C1170.93 165.163 1171.23 164.447 1171.82 163.88C1172.43 163.288 1173.2 162.992 1174.11 162.992C1175.02 162.992 1175.78 163.288 1176.37 163.88C1176.99 164.447 1177.29 165.163 1177.29 166.026C1177.29 166.889 1176.99 167.617 1176.37 168.209C1175.78 168.776 1175.02 169.06 1174.11 169.06ZM1176.66 171.502V192H1171.48V171.502H1176.66ZM1207.24 171.206C1209.75 171.206 1211.78 171.983 1213.31 173.537C1214.86 175.066 1215.64 177.212 1215.64 179.975V192H1210.46V180.678C1210.46 179.075 1210.05 177.854 1209.24 177.015C1208.42 176.152 1207.31 175.72 1205.91 175.72C1204.5 175.72 1203.38 176.152 1202.54 177.015C1201.73 177.854 1201.32 179.075 1201.32 180.678V192H1196.14V180.678C1196.14 179.075 1195.73 177.854 1194.92 177.015C1194.1 176.152 1192.99 175.72 1191.59 175.72C1190.16 175.72 1189.02 176.152 1188.18 177.015C1187.37 177.854 1186.96 179.075 1186.96 180.678V192H1181.78V171.502H1186.96V173.981C1187.63 173.118 1188.48 172.439 1189.52 171.946C1190.58 171.453 1191.74 171.206 1192.99 171.206C1194.6 171.206 1196.03 171.551 1197.29 172.242C1198.54 172.908 1199.52 173.87 1200.21 175.128C1200.87 173.944 1201.84 172.994 1203.09 172.279C1204.38 171.564 1205.76 171.206 1207.24 171.206Z" fill="white"/>
<path d="M467.01 79.498H461.534L465.53 70.174H469.119L467.01 79.498ZM474.484 79.498H469.008L473.004 70.174H476.593L474.484 79.498ZM495.225 82.754C496.68 83.0253 497.877 83.753 498.814 84.937C499.751 86.121 500.22 87.4777 500.22 89.007C500.22 90.3883 499.875 91.6093 499.184 92.67C498.518 93.706 497.544 94.52 496.261 95.112C494.978 95.704 493.461 96 491.71 96H480.573V70.174H491.229C492.98 70.174 494.485 70.4577 495.743 71.025C497.026 71.5923 497.988 72.3817 498.629 73.393C499.295 74.4043 499.628 75.5513 499.628 76.834C499.628 78.3387 499.221 79.5967 498.407 80.608C497.618 81.6193 496.557 82.3347 495.225 82.754ZM485.753 80.83H490.489C491.722 80.83 492.672 80.5587 493.338 80.016C494.004 79.4487 494.337 78.647 494.337 77.611C494.337 76.575 494.004 75.7733 493.338 75.206C492.672 74.6387 491.722 74.355 490.489 74.355H485.753V80.83ZM490.97 91.782C492.228 91.782 493.202 91.486 493.893 90.894C494.608 90.302 494.966 89.4633 494.966 88.378C494.966 87.268 494.596 86.4047 493.856 85.788C493.116 85.1467 492.117 84.826 490.859 84.826H485.753V91.782H490.97ZM523.403 85.307C523.403 86.047 523.354 86.713 523.255 87.305H508.27C508.394 88.785 508.912 89.9443 509.824 90.783C510.737 91.6217 511.859 92.041 513.191 92.041C515.115 92.041 516.484 91.2147 517.298 89.562H522.885C522.293 91.5353 521.159 93.1633 519.481 94.446C517.804 95.704 515.744 96.333 513.302 96.333C511.329 96.333 509.553 95.9013 507.974 95.038C506.42 94.15 505.199 92.9043 504.311 91.301C503.448 89.6977 503.016 87.8477 503.016 85.751C503.016 83.6297 503.448 81.7673 504.311 80.164C505.175 78.5607 506.383 77.3273 507.937 76.464C509.491 75.6007 511.28 75.169 513.302 75.169C515.251 75.169 516.99 75.5883 518.519 76.427C520.073 77.2657 521.27 78.462 522.108 80.016C522.972 81.5453 523.403 83.309 523.403 85.307ZM518.038 83.827C518.014 82.495 517.533 81.4343 516.595 80.645C515.658 79.831 514.511 79.424 513.154 79.424C511.872 79.424 510.786 79.8187 509.898 80.608C509.035 81.3727 508.505 82.4457 508.307 83.827H518.038ZM538.543 75.206C540.985 75.206 542.959 75.983 544.463 77.537C545.968 79.0663 546.72 81.2123 546.72 83.975V96H541.54V84.678C541.54 83.05 541.133 81.8043 540.319 80.941C539.505 80.053 538.395 79.609 536.989 79.609C535.559 79.609 534.424 80.053 533.585 80.941C532.771 81.8043 532.364 83.05 532.364 84.678V96H527.184V75.502H532.364V78.055C533.055 77.167 533.931 76.4763 534.991 75.983C536.077 75.465 537.261 75.206 538.543 75.206ZM554.273 73.06C553.361 73.06 552.596 72.7763 551.979 72.209C551.387 71.617 551.091 70.8893 551.091 70.026C551.091 69.1627 551.387 68.4473 551.979 67.88C552.596 67.288 553.361 66.992 554.273 66.992C555.186 66.992 555.938 67.288 556.53 67.88C557.147 68.4473 557.455 69.1627 557.455 70.026C557.455 70.8893 557.147 71.617 556.53 72.209C555.938 72.7763 555.186 73.06 554.273 73.06ZM556.826 75.502V96H551.646V75.502H556.826ZM573.488 75.206C575.042 75.206 576.423 75.5513 577.632 76.242C578.841 76.908 579.778 77.907 580.444 79.239C581.135 80.5463 581.48 82.125 581.48 83.975V96H576.3V84.678C576.3 83.05 575.893 81.8043 575.079 80.941C574.265 80.053 573.155 79.609 571.749 79.609C570.318 79.609 569.184 80.053 568.345 80.941C567.531 81.8043 567.124 83.05 567.124 84.678V96H561.944V68.62H567.124V78.055C567.79 77.167 568.678 76.4763 569.788 75.983C570.898 75.465 572.131 75.206 573.488 75.206ZM600.402 78.462C601.068 77.5247 601.981 76.7477 603.14 76.131C604.324 75.4897 605.669 75.169 607.173 75.169C608.925 75.169 610.503 75.6007 611.909 76.464C613.34 77.3273 614.462 78.5607 615.276 80.164C616.115 81.7427 616.534 83.5803 616.534 85.677C616.534 87.7737 616.115 89.636 615.276 91.264C614.462 92.8673 613.34 94.113 611.909 95.001C610.503 95.889 608.925 96.333 607.173 96.333C605.669 96.333 604.337 96.0247 603.177 95.408C602.043 94.7913 601.118 94.0143 600.402 93.077V105.768H595.222V75.502H600.402V78.462ZM611.243 85.677C611.243 84.4437 610.984 83.383 610.466 82.495C609.973 81.5823 609.307 80.8917 608.468 80.423C607.654 79.9543 606.766 79.72 605.804 79.72C604.867 79.72 603.979 79.9667 603.14 80.46C602.326 80.9287 601.66 81.6193 601.142 82.532C600.649 83.4447 600.402 84.5177 600.402 85.751C600.402 86.9843 600.649 88.0573 601.142 88.97C601.66 89.8827 602.326 90.5857 603.14 91.079C603.979 91.5477 604.867 91.782 605.804 91.782C606.766 91.782 607.654 91.5353 608.468 91.042C609.307 90.5487 609.973 89.8457 610.466 88.933C610.984 88.0203 611.243 86.935 611.243 85.677ZM639.354 85.307C639.354 86.047 639.304 86.713 639.206 87.305H624.221C624.344 88.785 624.862 89.9443 625.775 90.783C626.687 91.6217 627.81 92.041 629.142 92.041C631.066 92.041 632.435 91.2147 633.249 89.562H638.836C638.244 91.5353 637.109 93.1633 635.432 94.446C633.754 95.704 631.695 96.333 629.253 96.333C627.279 96.333 625.503 95.9013 623.925 95.038C622.371 94.15 621.15 92.9043 620.262 91.301C619.398 89.6977 618.967 87.8477 618.967 85.751C618.967 83.6297 619.398 81.7673 620.262 80.164C621.125 78.5607 622.334 77.3273 623.888 76.464C625.442 75.6007 627.23 75.169 629.253 75.169C631.201 75.169 632.94 75.5883 634.47 76.427C636.024 77.2657 637.22 78.462 638.059 80.016C638.922 81.5453 639.354 83.309 639.354 85.307ZM633.989 83.827C633.964 82.495 633.483 81.4343 632.546 80.645C631.608 79.831 630.461 79.424 629.105 79.424C627.822 79.424 626.737 79.8187 625.849 80.608C624.985 81.3727 624.455 82.4457 624.258 83.827H633.989ZM654.494 75.206C656.936 75.206 658.909 75.983 660.414 77.537C661.918 79.0663 662.671 81.2123 662.671 83.975V96H657.491V84.678C657.491 83.05 657.084 81.8043 656.27 80.941C655.456 80.053 654.346 79.609 652.94 79.609C651.509 79.609 650.374 80.053 649.536 80.941C648.722 81.8043 648.315 83.05 648.315 84.678V96H643.135V75.502H648.315V78.055C649.005 77.167 649.881 76.4763 650.942 75.983C652.027 75.465 653.211 75.206 654.494 75.206ZM675.625 75.169C677.155 75.169 678.499 75.4773 679.658 76.094C680.818 76.686 681.73 77.463 682.396 78.425V75.502H687.613V96.148C687.613 98.0473 687.231 99.737 686.466 101.217C685.702 102.722 684.555 103.906 683.025 104.769C681.496 105.657 679.646 106.101 677.475 106.101C674.565 106.101 672.172 105.423 670.297 104.066C668.447 102.709 667.399 100.859 667.152 98.516H672.295C672.567 99.4533 673.146 100.193 674.034 100.736C674.947 101.303 676.045 101.587 677.327 101.587C678.832 101.587 680.053 101.131 680.99 100.218C681.928 99.33 682.396 97.9733 682.396 96.148V92.966C681.73 93.928 680.805 94.7297 679.621 95.371C678.462 96.0123 677.13 96.333 675.625 96.333C673.899 96.333 672.32 95.889 670.889 95.001C669.459 94.113 668.324 92.8673 667.485 91.264C666.671 89.636 666.264 87.7737 666.264 85.677C666.264 83.605 666.671 81.7673 667.485 80.164C668.324 78.5607 669.446 77.3273 670.852 76.464C672.283 75.6007 673.874 75.169 675.625 75.169ZM682.396 85.751C682.396 84.493 682.15 83.42 681.656 82.532C681.163 81.6193 680.497 80.9287 679.658 80.46C678.82 79.9667 677.919 79.72 676.957 79.72C675.995 79.72 675.107 79.9543 674.293 80.423C673.479 80.8917 672.813 81.5823 672.295 82.495C671.802 83.383 671.555 84.4437 671.555 85.677C671.555 86.9103 671.802 87.9957 672.295 88.933C672.813 89.8457 673.479 90.5487 674.293 91.042C675.132 91.5353 676.02 91.782 676.957 91.782C677.919 91.782 678.82 91.5477 679.658 91.079C680.497 90.5857 681.163 89.895 681.656 89.007C682.15 88.0943 682.396 87.009 682.396 85.751ZM711.728 85.307C711.728 86.047 711.678 86.713 711.58 87.305H696.595C696.718 88.785 697.236 89.9443 698.149 90.783C699.061 91.6217 700.184 92.041 701.516 92.041C703.44 92.041 704.809 91.2147 705.623 89.562H711.21C710.618 91.5353 709.483 93.1633 707.806 94.446C706.128 95.704 704.069 96.333 701.627 96.333C699.653 96.333 697.877 95.9013 696.299 95.038C694.745 94.15 693.524 92.9043 692.636 91.301C691.772 89.6977 691.341 87.8477 691.341 85.751C691.341 83.6297 691.772 81.7673 692.636 80.164C693.499 78.5607 694.708 77.3273 696.262 76.464C697.816 75.6007 699.604 75.169 701.627 75.169C703.575 75.169 705.314 75.5883 706.844 76.427C708.398 77.2657 709.594 78.462 710.433 80.016C711.296 81.5453 711.728 83.309 711.728 85.307ZM706.363 83.827C706.338 82.495 705.857 81.4343 704.92 80.645C703.982 79.831 702.835 79.424 701.479 79.424C700.196 79.424 699.111 79.8187 698.223 80.608C697.359 81.3727 696.829 82.4457 696.632 83.827H706.363ZM721.54 79.757V89.673C721.54 90.3637 721.7 90.8693 722.021 91.19C722.366 91.486 722.933 91.634 723.723 91.634H726.128V96H722.872C718.506 96 716.323 93.8787 716.323 89.636V79.757H713.881V75.502H716.323V70.433H721.54V75.502H726.128V79.757H721.54ZM728.521 85.677C728.521 83.605 728.928 81.7673 729.742 80.164C730.581 78.5607 731.703 77.3273 733.109 76.464C734.54 75.6007 736.131 75.169 737.882 75.169C739.412 75.169 740.744 75.4773 741.878 76.094C743.038 76.7107 743.963 77.4877 744.653 78.425V75.502H749.87V96H744.653V93.003C743.987 93.965 743.062 94.7667 741.878 95.408C740.719 96.0247 739.375 96.333 737.845 96.333C736.119 96.333 734.54 95.889 733.109 95.001C731.703 94.113 730.581 92.8673 729.742 91.264C728.928 89.636 728.521 87.7737 728.521 85.677ZM744.653 85.751C744.653 84.493 744.407 83.42 743.913 82.532C743.42 81.6193 742.754 80.9287 741.915 80.46C741.077 79.9667 740.176 79.72 739.214 79.72C738.252 79.72 737.364 79.9543 736.55 80.423C735.736 80.8917 735.07 81.5823 734.552 82.495C734.059 83.383 733.812 84.4437 733.812 85.677C733.812 86.9103 734.059 87.9957 734.552 88.933C735.07 89.8457 735.736 90.5487 736.55 91.042C737.389 91.5353 738.277 91.782 739.214 91.782C740.176 91.782 741.077 91.5477 741.915 91.079C742.754 90.5857 743.42 89.895 743.913 89.007C744.407 88.0943 744.653 87.009 744.653 85.751ZM766.473 75.206C768.027 75.206 769.409 75.5513 770.617 76.242C771.826 76.908 772.763 77.907 773.429 79.239C774.12 80.5463 774.465 82.125 774.465 83.975V96H769.285V84.678C769.285 83.05 768.878 81.8043 768.064 80.941C767.25 80.053 766.14 79.609 764.734 79.609C763.304 79.609 762.169 80.053 761.33 80.941C760.516 81.8043 760.109 83.05 760.109 84.678V96H754.929V68.62H760.109V78.055C760.775 77.167 761.663 76.4763 762.773 75.983C763.883 75.465 765.117 75.206 766.473 75.206ZM798.742 75.502V96H793.525V93.41C792.859 94.298 791.984 95.001 790.898 95.519C789.838 96.0123 788.678 96.259 787.42 96.259C785.817 96.259 784.399 95.926 783.165 95.26C781.932 94.5693 780.958 93.5703 780.242 92.263C779.552 90.931 779.206 89.3523 779.206 87.527V75.502H784.386V86.787C784.386 88.415 784.793 89.673 785.607 90.561C786.421 91.4243 787.531 91.856 788.937 91.856C790.368 91.856 791.49 91.4243 792.304 90.561C793.118 89.673 793.525 88.415 793.525 86.787V75.502H798.742ZM802.521 85.677C802.521 83.605 802.928 81.7673 803.742 80.164C804.581 78.5607 805.703 77.3273 807.109 76.464C808.54 75.6007 810.131 75.169 811.882 75.169C813.412 75.169 814.744 75.4773 815.878 76.094C817.038 76.7107 817.963 77.4877 818.653 78.425V75.502H823.87V96H818.653V93.003C817.987 93.965 817.062 94.7667 815.878 95.408C814.719 96.0247 813.375 96.333 811.845 96.333C810.119 96.333 808.54 95.889 807.109 95.001C805.703 94.113 804.581 92.8673 803.742 91.264C802.928 89.636 802.521 87.7737 802.521 85.677ZM818.653 85.751C818.653 84.493 818.407 83.42 817.913 82.532C817.42 81.6193 816.754 80.9287 815.915 80.46C815.077 79.9667 814.176 79.72 813.214 79.72C812.252 79.72 811.364 79.9543 810.55 80.423C809.736 80.8917 809.07 81.5823 808.552 82.495C808.059 83.383 807.812 84.4437 807.812 85.677C807.812 86.9103 808.059 87.9957 808.552 88.933C809.07 89.8457 809.736 90.5487 810.55 91.042C811.389 91.5353 812.277 91.782 813.214 91.782C814.176 91.782 815.077 91.5477 815.915 91.079C816.754 90.5857 817.42 89.895 817.913 89.007C818.407 88.0943 818.653 87.009 818.653 85.751ZM840.288 75.206C842.73 75.206 844.704 75.983 846.208 77.537C847.713 79.0663 848.465 81.2123 848.465 83.975V96H843.285V84.678C843.285 83.05 842.878 81.8043 842.064 80.941C841.25 80.053 840.14 79.609 838.734 79.609C837.304 79.609 836.169 80.053 835.33 80.941C834.516 81.8043 834.109 83.05 834.109 84.678V96H828.929V75.502H834.109V78.055C834.8 77.167 835.676 76.4763 836.736 75.983C837.822 75.465 839.006 75.206 840.288 75.206ZM860.876 85.677C860.876 83.605 861.283 81.7673 862.097 80.164C862.935 78.5607 864.07 77.3273 865.501 76.464C866.931 75.6007 868.522 75.169 870.274 75.169C871.606 75.169 872.876 75.465 874.085 76.057C875.293 76.6243 876.255 77.389 876.971 78.351V68.62H882.225V96H876.971V92.966C876.329 93.9773 875.429 94.7913 874.27 95.408C873.11 96.0247 871.766 96.333 870.237 96.333C868.51 96.333 866.931 95.889 865.501 95.001C864.07 94.113 862.935 92.8673 862.097 91.264C861.283 89.636 860.876 87.7737 860.876 85.677ZM877.008 85.751C877.008 84.493 876.761 83.42 876.268 82.532C875.774 81.6193 875.108 80.9287 874.27 80.46C873.431 79.9667 872.531 79.72 871.569 79.72C870.607 79.72 869.719 79.9543 868.905 80.423C868.091 80.8917 867.425 81.5823 866.907 82.495C866.413 83.383 866.167 84.4437 866.167 85.677C866.167 86.9103 866.413 87.9957 866.907 88.933C867.425 89.8457 868.091 90.5487 868.905 91.042C869.743 91.5353 870.631 91.782 871.569 91.782C872.531 91.782 873.431 91.5477 874.27 91.079C875.108 90.5857 875.774 89.895 876.268 89.007C876.761 88.0943 877.008 87.009 877.008 85.751ZM889.911 73.06C888.998 73.06 888.234 72.7763 887.617 72.209C887.025 71.617 886.729 70.8893 886.729 70.026C886.729 69.1627 887.025 68.4473 887.617 67.88C888.234 67.288 888.998 66.992 889.911 66.992C890.824 66.992 891.576 67.288 892.168 67.88C892.785 68.4473 893.093 69.1627 893.093 70.026C893.093 70.8893 892.785 71.617 892.168 72.209C891.576 72.7763 890.824 73.06 889.911 73.06ZM892.464 75.502V96H887.284V75.502H892.464ZM903.613 79.757V89.673C903.613 90.3637 903.773 90.8693 904.094 91.19C904.439 91.486 905.006 91.634 905.796 91.634H908.201V96H904.945C900.579 96 898.396 93.8787 898.396 89.636V79.757H895.954V75.502H898.396V70.433H903.613V75.502H908.201V79.757H903.613ZM910.595 85.677C910.595 83.605 911.002 81.7673 911.816 80.164C912.654 78.5607 913.777 77.3273 915.183 76.464C916.613 75.6007 918.204 75.169 919.956 75.169C921.485 75.169 922.817 75.4773 923.952 76.094C925.111 76.7107 926.036 77.4877 926.727 78.425V75.502H931.944V96H926.727V93.003C926.061 93.965 925.136 94.7667 923.952 95.408C922.792 96.0247 921.448 96.333 919.919 96.333C918.192 96.333 916.613 95.889 915.183 95.001C913.777 94.113 912.654 92.8673 911.816 91.264C911.002 89.636 910.595 87.7737 910.595 85.677ZM926.727 85.751C926.727 84.493 926.48 83.42 925.987 82.532C925.493 81.6193 924.827 80.9287 923.989 80.46C923.15 79.9667 922.25 79.72 921.288 79.72C920.326 79.72 919.438 79.9543 918.624 80.423C917.81 80.8917 917.144 81.5823 916.626 82.495C916.132 83.383 915.886 84.4437 915.886 85.677C915.886 86.9103 916.132 87.9957 916.626 88.933C917.144 89.8457 917.81 90.5487 918.624 91.042C919.462 91.5353 920.35 91.782 921.288 91.782C922.25 91.782 923.15 91.5477 923.989 91.079C924.827 90.5857 925.493 89.895 925.987 89.007C926.48 88.0943 926.727 87.009 926.727 85.751ZM948.362 75.206C950.804 75.206 952.777 75.983 954.282 77.537C955.786 79.0663 956.539 81.2123 956.539 83.975V96H951.359V84.678C951.359 83.05 950.952 81.8043 950.138 80.941C949.324 80.053 948.214 79.609 946.808 79.609C945.377 79.609 944.242 80.053 943.404 80.941C942.59 81.8043 942.183 83.05 942.183 84.678V96H937.003V75.502H942.183V78.055C942.873 77.167 943.749 76.4763 944.81 75.983C945.895 75.465 947.079 75.206 948.362 75.206ZM960.133 85.677C960.133 83.605 960.54 81.7673 961.354 80.164C962.192 78.5607 963.315 77.3273 964.721 76.464C966.151 75.6007 967.742 75.169 969.494 75.169C971.023 75.169 972.355 75.4773 973.49 76.094C974.649 76.7107 975.574 77.4877 976.265 78.425V75.502H981.482V96H976.265V93.003C975.599 93.965 974.674 94.7667 973.49 95.408C972.33 96.0247 970.986 96.333 969.457 96.333C967.73 96.333 966.151 95.889 964.721 95.001C963.315 94.113 962.192 92.8673 961.354 91.264C960.54 89.636 960.133 87.7737 960.133 85.677ZM976.265 85.751C976.265 84.493 976.018 83.42 975.525 82.532C975.031 81.6193 974.365 80.9287 973.527 80.46C972.688 79.9667 971.788 79.72 970.826 79.72C969.864 79.72 968.976 79.9543 968.162 80.423C967.348 80.8917 966.682 81.5823 966.164 82.495C965.67 83.383 965.424 84.4437 965.424 85.677C965.424 86.9103 965.67 87.9957 966.164 88.933C966.682 89.8457 967.348 90.5487 968.162 91.042C969 91.5353 969.888 91.782 970.826 91.782C971.788 91.782 972.688 91.5477 973.527 91.079C974.365 90.5857 975.031 89.895 975.525 89.007C976.018 88.0943 976.265 87.009 976.265 85.751ZM1012 75.206C1014.51 75.206 1016.54 75.983 1018.06 77.537C1019.62 79.0663 1020.4 81.2123 1020.4 83.975V96H1015.22V84.678C1015.22 83.0747 1014.81 81.8537 1013.99 81.015C1013.18 80.1517 1012.07 79.72 1010.66 79.72C1009.26 79.72 1008.14 80.1517 1007.3 81.015C1006.48 81.8537 1006.08 83.0747 1006.08 84.678V96H1000.9V84.678C1000.9 83.0747 1000.49 81.8537 999.676 81.015C998.862 80.1517 997.752 79.72 996.346 79.72C994.915 79.72 993.78 80.1517 992.942 81.015C992.128 81.8537 991.721 83.0747 991.721 84.678V96H986.541V75.502H991.721V77.981C992.387 77.1177 993.238 76.4393 994.274 75.946C995.334 75.4527 996.494 75.206 997.752 75.206C999.355 75.206 1000.79 75.5513 1002.04 76.242C1003.3 76.908 1004.28 77.87 1004.97 79.128C1005.63 77.944 1006.59 76.9943 1007.85 76.279C1009.14 75.5637 1010.52 75.206 1012 75.206ZM1059.58 75.206C1062.1 75.206 1064.12 75.983 1065.65 77.537C1067.21 79.0663 1067.98 81.2123 1067.98 83.975V96H1062.8V84.678C1062.8 83.0747 1062.4 81.8537 1061.58 81.015C1060.77 80.1517 1059.66 79.72 1058.25 79.72C1056.85 79.72 1055.72 80.1517 1054.88 81.015C1054.07 81.8537 1053.66 83.0747 1053.66 84.678V96H1048.48V84.678C1048.48 83.0747 1048.08 81.8537 1047.26 81.015C1046.45 80.1517 1045.34 79.72 1043.93 79.72C1042.5 79.72 1041.37 80.1517 1040.53 81.015C1039.71 81.8537 1039.31 83.0747 1039.31 84.678V96H1034.13V75.502H1039.31V77.981C1039.97 77.1177 1040.82 76.4393 1041.86 75.946C1042.92 75.4527 1044.08 75.206 1045.34 75.206C1046.94 75.206 1048.37 75.5513 1049.63 76.242C1050.89 76.908 1051.86 77.87 1052.55 79.128C1053.22 77.944 1054.18 76.9943 1055.44 76.279C1056.72 75.5637 1058.1 75.206 1059.58 75.206ZM1091.95 85.307C1091.95 86.047 1091.9 86.713 1091.81 87.305H1076.82C1076.94 88.785 1077.46 89.9443 1078.37 90.783C1079.29 91.6217 1080.41 92.041 1081.74 92.041C1083.67 92.041 1085.03 91.2147 1085.85 89.562H1091.44C1090.84 91.5353 1089.71 93.1633 1088.03 94.446C1086.35 95.704 1084.29 96.333 1081.85 96.333C1079.88 96.333 1078.1 95.9013 1076.52 95.038C1074.97 94.15 1073.75 92.9043 1072.86 91.301C1072 89.6977 1071.57 87.8477 1071.57 85.751C1071.57 83.6297 1072 81.7673 1072.86 80.164C1073.72 78.5607 1074.93 77.3273 1076.49 76.464C1078.04 75.6007 1079.83 75.169 1081.85 75.169C1083.8 75.169 1085.54 75.5883 1087.07 76.427C1088.62 77.2657 1089.82 78.462 1090.66 80.016C1091.52 81.5453 1091.95 83.309 1091.95 85.307ZM1086.59 83.827C1086.56 82.495 1086.08 81.4343 1085.15 80.645C1084.21 79.831 1083.06 79.424 1081.7 79.424C1080.42 79.424 1079.34 79.8187 1078.45 80.608C1077.58 81.3727 1077.05 82.4457 1076.86 83.827H1086.59ZM1100.91 68.62V96H1095.73V68.62H1100.91ZM1104.7 85.677C1104.7 83.605 1105.11 81.7673 1105.92 80.164C1106.76 78.5607 1107.88 77.3273 1109.29 76.464C1110.72 75.6007 1112.31 75.169 1114.06 75.169C1115.59 75.169 1116.92 75.4773 1118.06 76.094C1119.22 76.7107 1120.14 77.4877 1120.83 78.425V75.502H1126.05V96H1120.83V93.003C1120.17 93.965 1119.24 94.7667 1118.06 95.408C1116.9 96.0247 1115.55 96.333 1114.02 96.333C1112.3 96.333 1110.72 95.889 1109.29 95.001C1107.88 94.113 1106.76 92.8673 1105.92 91.264C1105.11 89.636 1104.7 87.7737 1104.7 85.677ZM1120.83 85.751C1120.83 84.493 1120.59 83.42 1120.09 82.532C1119.6 81.6193 1118.93 80.9287 1118.09 80.46C1117.26 79.9667 1116.36 79.72 1115.39 79.72C1114.43 79.72 1113.54 79.9543 1112.73 80.423C1111.92 80.8917 1111.25 81.5823 1110.73 82.495C1110.24 83.383 1109.99 84.4437 1109.99 85.677C1109.99 86.9103 1110.24 87.9957 1110.73 88.933C1111.25 89.8457 1111.92 90.5487 1112.73 91.042C1113.57 91.5353 1114.46 91.782 1115.39 91.782C1116.36 91.782 1117.26 91.5477 1118.09 91.079C1118.93 90.5857 1119.6 89.895 1120.09 89.007C1120.59 88.0943 1120.83 87.009 1120.83 85.751ZM1136.29 68.62V96H1131.11V68.62H1136.29ZM1160.76 75.502V96H1155.54V93.41C1154.87 94.298 1154 95.001 1152.91 95.519C1151.85 96.0123 1150.69 96.259 1149.44 96.259C1147.83 96.259 1146.41 95.926 1145.18 95.26C1143.95 94.5693 1142.97 93.5703 1142.26 92.263C1141.57 90.931 1141.22 89.3523 1141.22 87.527V75.502H1146.4V86.787C1146.4 88.415 1146.81 89.673 1147.62 90.561C1148.44 91.4243 1149.55 91.856 1150.95 91.856C1152.38 91.856 1153.51 91.4243 1154.32 90.561C1155.13 89.673 1155.54 88.415 1155.54 86.787V75.502H1160.76ZM1168.49 73.06C1167.58 73.06 1166.82 72.7763 1166.2 72.209C1165.61 71.617 1165.31 70.8893 1165.31 70.026C1165.31 69.1627 1165.61 68.4473 1166.2 67.88C1166.82 67.288 1167.58 66.992 1168.49 66.992C1169.41 66.992 1170.16 67.288 1170.75 67.88C1171.37 68.4473 1171.68 69.1627 1171.68 70.026C1171.68 70.8893 1171.37 71.617 1170.75 72.209C1170.16 72.7763 1169.41 73.06 1168.49 73.06ZM1171.05 75.502V96H1165.87V75.502H1171.05ZM614.698 131.206C616.252 131.206 617.633 131.551 618.842 132.242C620.05 132.908 620.988 133.907 621.654 135.239C622.344 136.546 622.69 138.125 622.69 139.975V152H617.51V140.678C617.51 139.05 617.103 137.804 616.289 136.941C615.475 136.053 614.365 135.609 612.959 135.609C611.528 135.609 610.393 136.053 609.555 136.941C608.741 137.804 608.334 139.05 608.334 140.678V152H603.154V124.62H608.334V134.055C609 133.167 609.888 132.476 610.998 131.983C612.108 131.465 613.341 131.206 614.698 131.206ZM626.283 141.677C626.283 139.605 626.69 137.767 627.504 136.164C628.343 134.561 629.466 133.327 630.872 132.464C632.302 131.601 633.893 131.169 635.645 131.169C637.174 131.169 638.506 131.477 639.641 132.094C640.8 132.711 641.725 133.488 642.416 134.425V131.502H647.633V152H642.416V149.003C641.75 149.965 640.825 150.767 639.641 151.408C638.481 152.025 637.137 152.333 635.608 152.333C633.881 152.333 632.302 151.889 630.872 151.001C629.466 150.113 628.343 148.867 627.504 147.264C626.69 145.636 626.283 143.774 626.283 141.677ZM642.416 141.751C642.416 140.493 642.169 139.42 641.676 138.532C641.182 137.619 640.516 136.929 639.678 136.46C638.839 135.967 637.939 135.72 636.977 135.72C636.015 135.72 635.127 135.954 634.312 136.423C633.499 136.892 632.833 137.582 632.315 138.495C631.821 139.383 631.575 140.444 631.575 141.677C631.575 142.91 631.821 143.996 632.315 144.933C632.833 145.846 633.499 146.549 634.312 147.042C635.151 147.535 636.039 147.782 636.977 147.782C637.939 147.782 638.839 147.548 639.678 147.079C640.516 146.586 641.182 145.895 641.676 145.007C642.169 144.094 642.416 143.009 642.416 141.751ZM678.148 131.206C680.664 131.206 682.686 131.983 684.216 133.537C685.77 135.066 686.547 137.212 686.547 139.975V152H681.367V140.678C681.367 139.075 680.96 137.854 680.146 137.015C679.332 136.152 678.222 135.72 676.816 135.72C675.41 135.72 674.287 136.152 673.449 137.015C672.635 137.854 672.228 139.075 672.228 140.678V152H667.048V140.678C667.048 139.075 666.641 137.854 665.827 137.015C665.013 136.152 663.903 135.72 662.497 135.72C661.066 135.72 659.931 136.152 659.093 137.015C658.279 137.854 657.872 139.075 657.872 140.678V152H652.692V131.502H657.872V133.981C658.538 133.118 659.389 132.439 660.425 131.946C661.485 131.453 662.645 131.206 663.903 131.206C665.506 131.206 666.937 131.551 668.195 132.242C669.453 132.908 670.427 133.87 671.118 135.128C671.784 133.944 672.746 132.994 674.004 132.279C675.286 131.564 676.668 131.206 678.148 131.206ZM696.642 134.462C697.308 133.525 698.221 132.748 699.38 132.131C700.564 131.49 701.909 131.169 703.413 131.169C705.165 131.169 706.743 131.601 708.149 132.464C709.58 133.327 710.702 134.561 711.516 136.164C712.355 137.743 712.774 139.58 712.774 141.677C712.774 143.774 712.355 145.636 711.516 147.264C710.702 148.867 709.58 150.113 708.149 151.001C706.743 151.889 705.165 152.333 703.413 152.333C701.909 152.333 700.577 152.025 699.417 151.408C698.283 150.791 697.358 150.014 696.642 149.077V161.768H691.462V131.502H696.642V134.462ZM707.483 141.677C707.483 140.444 707.224 139.383 706.706 138.495C706.213 137.582 705.547 136.892 704.708 136.423C703.894 135.954 703.006 135.72 702.044 135.72C701.107 135.72 700.219 135.967 699.38 136.46C698.566 136.929 697.9 137.619 697.382 138.532C696.889 139.445 696.642 140.518 696.642 141.751C696.642 142.984 696.889 144.057 697.382 144.97C697.9 145.883 698.566 146.586 699.38 147.079C700.219 147.548 701.107 147.782 702.044 147.782C703.006 147.782 703.894 147.535 704.708 147.042C705.547 146.549 706.213 145.846 706.706 144.933C707.224 144.02 707.483 142.935 707.483 141.677ZM715.206 141.677C715.206 139.605 715.613 137.767 716.427 136.164C717.266 134.561 718.388 133.327 719.794 132.464C721.225 131.601 722.816 131.169 724.567 131.169C726.097 131.169 727.429 131.477 728.563 132.094C729.723 132.711 730.648 133.488 731.338 134.425V131.502H736.555V152H731.338V149.003C730.672 149.965 729.747 150.767 728.563 151.408C727.404 152.025 726.06 152.333 724.53 152.333C722.804 152.333 721.225 151.889 719.794 151.001C718.388 150.113 717.266 148.867 716.427 147.264C715.613 145.636 715.206 143.774 715.206 141.677ZM731.338 141.751C731.338 140.493 731.092 139.42 730.598 138.532C730.105 137.619 729.439 136.929 728.6 136.46C727.762 135.967 726.861 135.72 725.899 135.72C724.937 135.72 724.049 135.954 723.235 136.423C722.421 136.892 721.755 137.582 721.237 138.495C720.744 139.383 720.497 140.444 720.497 141.677C720.497 142.91 720.744 143.996 721.237 144.933C721.755 145.846 722.421 146.549 723.235 147.042C724.074 147.535 724.962 147.782 725.899 147.782C726.861 147.782 727.762 147.548 728.6 147.079C729.439 146.586 730.105 145.895 730.598 145.007C731.092 144.094 731.338 143.009 731.338 141.751ZM746.795 134.684C747.461 133.599 748.324 132.748 749.385 132.131C750.47 131.514 751.703 131.206 753.085 131.206V136.645H751.716C750.088 136.645 748.854 137.027 748.016 137.792C747.202 138.557 746.795 139.889 746.795 141.788V152H741.615V131.502H746.795V134.684ZM755.242 141.677C755.242 139.605 755.649 137.767 756.463 136.164C757.301 134.561 758.424 133.327 759.83 132.464C761.26 131.601 762.851 131.169 764.603 131.169C766.132 131.169 767.464 131.477 768.599 132.094C769.758 132.711 770.683 133.488 771.374 134.425V131.502H776.591V152H771.374V149.003C770.708 149.965 769.783 150.767 768.599 151.408C767.439 152.025 766.095 152.333 764.566 152.333C762.839 152.333 761.26 151.889 759.83 151.001C758.424 150.113 757.301 148.867 756.463 147.264C755.649 145.636 755.242 143.774 755.242 141.677ZM771.374 141.751C771.374 140.493 771.127 139.42 770.634 138.532C770.14 137.619 769.474 136.929 768.636 136.46C767.797 135.967 766.897 135.72 765.935 135.72C764.973 135.72 764.085 135.954 763.271 136.423C762.457 136.892 761.791 137.582 761.273 138.495C760.779 139.383 760.533 140.444 760.533 141.677C760.533 142.91 760.779 143.996 761.273 144.933C761.791 145.846 762.457 146.549 763.271 147.042C764.109 147.535 764.997 147.782 765.935 147.782C766.897 147.782 767.797 147.548 768.636 147.079C769.474 146.586 770.14 145.895 770.634 145.007C771.127 144.094 771.374 143.009 771.374 141.751ZM793.009 131.206C795.451 131.206 797.424 131.983 798.929 133.537C800.433 135.066 801.186 137.212 801.186 139.975V152H796.006V140.678C796.006 139.05 795.599 137.804 794.785 136.941C793.971 136.053 792.861 135.609 791.455 135.609C790.024 135.609 788.889 136.053 788.051 136.941C787.237 137.804 786.83 139.05 786.83 140.678V152H781.65V131.502H786.83V134.055C787.52 133.167 788.396 132.476 789.457 131.983C790.542 131.465 791.726 131.206 793.009 131.206ZM827.064 152L820.108 143.268V152H814.928V124.62H820.108V140.197L826.99 131.502H833.724L824.696 141.788L833.798 152H827.064ZM835.203 141.677C835.203 139.605 835.61 137.767 836.424 136.164C837.263 134.561 838.385 133.327 839.791 132.464C841.222 131.601 842.813 131.169 844.564 131.169C846.094 131.169 847.426 131.477 848.56 132.094C849.72 132.711 850.645 133.488 851.335 134.425V131.502H856.552V152H851.335V149.003C850.669 149.965 849.744 150.767 848.56 151.408C847.401 152.025 846.057 152.333 844.527 152.333C842.801 152.333 841.222 151.889 839.791 151.001C838.385 150.113 837.263 148.867 836.424 147.264C835.61 145.636 835.203 143.774 835.203 141.677ZM851.335 141.751C851.335 140.493 851.089 139.42 850.595 138.532C850.102 137.619 849.436 136.929 848.597 136.46C847.759 135.967 846.858 135.72 845.896 135.72C844.934 135.72 844.046 135.954 843.232 136.423C842.418 136.892 841.752 137.582 841.234 138.495C840.741 139.383 840.494 140.444 840.494 141.677C840.494 142.91 840.741 143.996 841.234 144.933C841.752 145.846 842.418 146.549 843.232 147.042C844.071 147.535 844.959 147.782 845.896 147.782C846.858 147.782 847.759 147.548 848.597 147.079C849.436 146.586 850.102 145.895 850.595 145.007C851.089 144.094 851.335 143.009 851.335 141.751ZM867.643 135.757V145.673C867.643 146.364 867.803 146.869 868.124 147.19C868.469 147.486 869.036 147.634 869.826 147.634H872.231V152H868.975C864.609 152 862.426 149.879 862.426 145.636V135.757H859.984V131.502H862.426V126.433H867.643V131.502H872.231V135.757H867.643ZM874.624 141.677C874.624 139.605 875.031 137.767 875.845 136.164C876.684 134.561 877.806 133.327 879.212 132.464C880.643 131.601 882.234 131.169 883.985 131.169C885.515 131.169 886.847 131.477 887.981 132.094C889.141 132.711 890.066 133.488 890.756 134.425V131.502H895.973V152H890.756V149.003C890.09 149.965 889.165 150.767 887.981 151.408C886.822 152.025 885.478 152.333 883.948 152.333C882.222 152.333 880.643 151.889 879.212 151.001C877.806 150.113 876.684 148.867 875.845 147.264C875.031 145.636 874.624 143.774 874.624 141.677ZM890.756 141.751C890.756 140.493 890.51 139.42 890.016 138.532C889.523 137.619 888.857 136.929 888.018 136.46C887.18 135.967 886.279 135.72 885.317 135.72C884.355 135.72 883.467 135.954 882.653 136.423C881.839 136.892 881.173 137.582 880.655 138.495C880.162 139.383 879.915 140.444 879.915 141.677C879.915 142.91 880.162 143.996 880.655 144.933C881.173 145.846 881.839 146.549 882.653 147.042C883.492 147.535 884.38 147.782 885.317 147.782C886.279 147.782 887.18 147.548 888.018 147.079C888.857 146.586 889.523 145.895 890.016 145.007C890.51 144.094 890.756 143.009 890.756 141.751ZM916.794 136.608V140.974H901.106V136.608H916.794ZM934.74 152L927.784 143.268V152H922.604V124.62H927.784V140.197L934.666 131.502H941.4L932.372 141.788L941.474 152H934.74ZM942.879 141.677C942.879 139.605 943.286 137.767 944.1 136.164C944.939 134.561 946.061 133.327 947.467 132.464C948.898 131.601 950.489 131.169 952.24 131.169C953.77 131.169 955.102 131.477 956.236 132.094C957.396 132.711 958.321 133.488 959.011 134.425V131.502H964.228V152H959.011V149.003C958.345 149.965 957.42 150.767 956.236 151.408C955.077 152.025 953.733 152.333 952.203 152.333C950.477 152.333 948.898 151.889 947.467 151.001C946.061 150.113 944.939 148.867 944.1 147.264C943.286 145.636 942.879 143.774 942.879 141.677ZM959.011 141.751C959.011 140.493 958.765 139.42 958.271 138.532C957.778 137.619 957.112 136.929 956.273 136.46C955.435 135.967 954.534 135.72 953.572 135.72C952.61 135.72 951.722 135.954 950.908 136.423C950.094 136.892 949.428 137.582 948.91 138.495C948.417 139.383 948.17 140.444 948.17 141.677C948.17 142.91 948.417 143.996 948.91 144.933C949.428 145.846 950.094 146.549 950.908 147.042C951.747 147.535 952.635 147.782 953.572 147.782C954.534 147.782 955.435 147.548 956.273 147.079C957.112 146.586 957.778 145.895 958.271 145.007C958.765 144.094 959.011 143.009 959.011 141.751ZM975.318 135.757V145.673C975.318 146.364 975.479 146.869 975.799 147.19C976.145 147.486 976.712 147.634 977.501 147.634H979.906V152H976.65C972.284 152 970.101 149.879 970.101 145.636V135.757H967.659V131.502H970.101V126.433H975.318V131.502H979.906V135.757H975.318ZM982.3 141.677C982.3 139.605 982.707 137.767 983.521 136.164C984.36 134.561 985.482 133.327 986.888 132.464C988.319 131.601 989.91 131.169 991.661 131.169C993.19 131.169 994.522 131.477 995.657 132.094C996.816 132.711 997.741 133.488 998.432 134.425V131.502H1003.65V152H998.432V149.003C997.766 149.965 996.841 150.767 995.657 151.408C994.498 152.025 993.153 152.333 991.624 152.333C989.897 152.333 988.319 151.889 986.888 151.001C985.482 150.113 984.36 148.867 983.521 147.264C982.707 145.636 982.3 143.774 982.3 141.677ZM998.432 141.751C998.432 140.493 998.185 139.42 997.692 138.532C997.199 137.619 996.533 136.929 995.694 136.46C994.855 135.967 993.955 135.72 992.993 135.72C992.031 135.72 991.143 135.954 990.329 136.423C989.515 136.892 988.849 137.582 988.331 138.495C987.838 139.383 987.591 140.444 987.591 141.677C987.591 142.91 987.838 143.996 988.331 144.933C988.849 145.846 989.515 146.549 990.329 147.042C991.168 147.535 992.056 147.782 992.993 147.782C993.955 147.782 994.855 147.548 995.694 147.079C996.533 146.586 997.199 145.895 997.692 145.007C998.185 144.094 998.432 143.009 998.432 141.751ZM1011 152.259C1010.06 152.259 1009.29 151.975 1008.67 151.408C1008.08 150.816 1007.78 150.088 1007.78 149.225C1007.78 148.362 1008.08 147.646 1008.67 147.079C1009.29 146.487 1010.06 146.191 1011 146.191C1011.91 146.191 1012.67 146.487 1013.26 147.079C1013.85 147.646 1014.15 148.362 1014.15 149.225C1014.15 150.088 1013.85 150.816 1013.26 151.408C1012.67 151.975 1011.91 152.259 1011 152.259ZM1019.36 126.174H1024.79L1020.8 135.498H1017.25L1019.36 126.174ZM1026.83 126.174H1032.27L1028.27 135.498H1024.72L1026.83 126.174Z" fill="white"/>
</g>
</g>
<defs>
<filter id="filter0_d_1442_57" x="0" y="0" width="1633" height="232" filterUnits="userSpaceOnUse" color-interpolation-filters="sRGB">
<feFlood flood-opacity="0" result="BackgroundImageFix"/>
<feColorMatrix in="SourceAlpha" type="matrix" values="0 0 0 0 0 0 0 0 0 0 0 0 0 0 0 0 0 0 127 0" result="hardAlpha"/>
<feOffset dy="4"/>
<feGaussianBlur stdDeviation="2"/>
<feComposite in2="hardAlpha" operator="out"/>
<feColorMatrix type="matrix" values="0 0 0 0 0 0 0 0 0 0 0 0 0 0 0 0 0 0 0.25 0"/>
<feBlend mode="normal" in2="BackgroundImageFix" result="effect1_dropShadow_1442_57"/>
<feBlend mode="normal" in="SourceGraphic" in2="effect1_dropShadow_1442_57" result="shape"/>
</filter>
<clipPath id="clip0_1442_57">
<rect x="4" width="1625" height="224" rx="10" fill="white"/>
</clipPath>
<clipPath id="clip1_1442_57">
<rect width="1651.26" height="540" fill="white" transform="translate(-21.2437 -174)"/>
</clipPath>
<clipPath id="clip2_1442_57">
<rect width="1651" height="540" fill="white" transform="translate(-21 -174)"/>
</clipPath>
</defs>
</svg>
