<svg width="186" height="125" viewBox="0 0 186 125" fill="none" xmlns="http://www.w3.org/2000/svg">
<path d="M37.9432 124.939H16.342C15.9625 124.939 15.6548 124.631 15.6548 124.251V123.874C15.6548 123.494 15.9625 123.187 16.342 123.187H37.9428C38.3223 123.187 38.63 123.494 38.63 123.874V124.251C38.6304 124.631 38.3226 124.939 37.9432 124.939Z" fill="#ADBEC4"/>
<path d="M174.819 124.939H168.909C168.529 124.939 168.222 124.631 168.222 124.251V123.874C168.222 123.494 168.529 123.187 168.909 123.187H174.819C175.198 123.187 175.506 123.494 175.506 123.874V124.251C175.506 124.631 175.198 124.939 174.819 124.939Z" fill="#ADBEC4"/>
<path d="M78.5936 124.939H56.9924C56.6129 124.939 56.3052 124.631 56.3052 124.251V123.874C56.3052 123.494 56.6129 123.187 56.9924 123.187H78.5936C78.973 123.187 79.2808 123.494 79.2808 123.874V124.251C79.2808 124.631 78.9734 124.939 78.5936 124.939Z" fill="#ADBEC4"/>
<path d="M110.311 124.939H88.7107C88.3312 124.939 88.0234 124.631 88.0234 124.251V123.874C88.0234 123.494 88.3312 123.187 88.7107 123.187H110.311C110.691 123.187 110.999 123.494 110.999 123.874V124.251C110.999 124.631 110.691 124.939 110.311 124.939Z" fill="#ADBEC4"/>
<path d="M149.156 124.939H119.71C119.331 124.939 119.023 124.631 119.023 124.251V123.874C119.023 123.494 119.331 123.187 119.71 123.187H149.156C149.536 123.187 149.844 123.494 149.844 123.874V124.251C149.844 124.631 149.536 124.939 149.156 124.939Z" fill="#ADBEC4"/>
<path d="M45.1841 26.8262C45.1841 26.8262 42.9026 25.2741 39.5657 26.4694C36.2288 27.6651 35.4793 32.1588 36.3013 35.8058C37.1234 39.4528 32.5293 51.9042 32.5293 51.9042C32.5293 51.9042 34.9171 55.2622 43.2621 53.9772C43.2621 53.9772 49.4846 42.6689 49.0228 34.5506C48.561 26.4322 45.1841 26.8262 45.1841 26.8262Z" fill="#0E3944"/>
<path d="M47.8184 40.8543C50.9545 39.8515 52.8739 42.4627 54.6709 47.323C56.4679 52.1833 57.0724 52.6706 57.0724 52.6706L64.0085 57.1271L63.4318 59.7246C63.4318 59.7246 56.8305 57.14 55.2346 55.4959C53.6387 53.8521 49.0473 45.5244 49.0473 45.5244L47.8184 40.8543Z" fill="#EF6E4B"/>
<path d="M32.5325 72.2532C32.5325 72.2532 31.1718 79.1446 31.396 89.5179C31.396 89.5179 26.034 97.4249 30.4591 119.985H32.7802C32.7802 119.985 34.6765 100.79 36.1273 95.5895C37.5782 90.3885 42.9356 88.7926 43.2257 72.9785L32.5325 72.2532Z" fill="#FF8B66"/>
<path d="M21.9239 92.5168C20.575 88.0717 17.1083 80.6268 8.21534 70.5354C8.21534 70.5354 7.68494 70.2621 6.96793 70.7004C6.21094 71.163 6.21094 71.7063 6.21094 71.7063C6.21094 71.7063 10.6702 81.4246 13.5139 88.5448C14.4712 90.9421 16.7873 92.5168 19.3684 92.5168H21.9239Z" fill="#FF8B66"/>
<path d="M38.1147 101.112C38.1147 101.112 38.1453 104.428 35.9692 104.485C32.8965 104.568 32.7832 101.22 29.3013 101.329C25.8193 101.438 18.6379 102.309 16.3528 96.8682C15.1732 94.0566 16.788 90.4485 12.9799 87.7282C9.17137 85.008 11.0213 81.9612 12.9799 80.3292C14.9384 78.7016 12.1354 76.9171 14.1767 76.0856C14.664 75.8896 15.143 75.9115 15.5868 76.0593C15.8479 76.1507 16.0917 76.2769 16.3265 76.4337C17.4058 77.1519 18.1632 78.4009 18.1632 78.4009C23.9302 62.6059 34.1976 60.5212 34.1976 60.5212L44.3518 64.0251C44.5952 88.5989 38.1147 101.112 38.1147 101.112Z" fill="#164353"/>
<path d="M47.8182 40.8543C47.8182 40.8543 45.4492 41.6536 42.0794 41.1421C38.7096 40.6305 37.6143 38.5147 35.2457 39.8766C31.6897 41.921 33.3538 48.9574 34.2468 52.6161C34.5797 53.9804 35.0015 57.5642 34.1986 60.522C34.1986 60.522 38.9335 64.2062 44.3528 64.0232L47.3094 57.5928C47.3094 57.5928 53.7389 49.899 47.8182 40.8543Z" fill="#CFD8DC"/>
<path d="M41.8012 34.952C41.8012 34.952 42.1952 38.2806 40.9639 41.309C40.9639 41.309 42.7221 43.9046 44.3999 42.1966C44.3999 42.1966 44.5532 39.1458 46.4381 35.6945C47.7 33.3831 41.8012 34.952 41.8012 34.952Z" fill="#EF6E4B"/>
<path d="M39.1071 35.0653C39.1071 35.0653 37.6241 34.1272 37.7915 35.5745C37.9855 37.2516 39.6215 37.5785 39.7955 36.9921C39.9696 36.406 39.1071 35.0653 39.1071 35.0653Z" fill="#FF8B66"/>
<path d="M47.6147 33.2498C47.6147 33.2498 48.556 31.7688 49.0221 33.1495C49.5619 34.7493 48.2216 35.7423 47.8139 35.2864C47.4065 34.8304 47.6147 33.2498 47.6147 33.2498Z" fill="#FF8B66"/>
<path d="M44.5525 40.0781C41.8628 40.6802 39.9513 39.2635 38.7713 33.9939C38.1625 31.2756 39.1724 29.2987 42.185 28.6244C45.1981 27.9497 46.8399 29.3328 47.4487 32.0511C48.7165 37.713 47.3311 39.456 44.5525 40.0781Z" fill="#FF8B66"/>
<path d="M46.9787 34.1295C47.0865 34.3894 46.9105 34.7093 46.5855 34.8438C46.2605 34.9782 45.9096 34.8771 45.8022 34.6172C45.6944 34.3573 45.8704 34.0374 46.1954 33.9029C46.52 33.7684 46.8709 33.87 46.9787 34.1295Z" fill="#DB614D"/>
<path d="M41.4787 35.5157C41.5222 35.7937 41.2756 36.063 40.9283 36.1171C40.581 36.1716 40.2638 35.9905 40.2203 35.7125C40.1768 35.4346 40.4234 35.1652 40.7707 35.1111C41.1184 35.0567 41.4352 35.2378 41.4787 35.5157Z" fill="#DB614D"/>
<path d="M45.1058 31.6743C45.0795 31.6743 45.0532 31.6668 45.0293 31.6512C44.5695 31.3442 43.9179 31.5073 43.9109 31.5089C43.836 31.5285 43.7619 31.4834 43.7431 31.4097C43.7243 31.336 43.7686 31.2607 43.8423 31.2419C43.874 31.234 44.6212 31.0471 45.1826 31.4222C45.2461 31.4646 45.263 31.55 45.2206 31.6131C45.194 31.6527 45.1505 31.6743 45.1058 31.6743Z" fill="#0E3944"/>
<path d="M40.0411 32.8084C40.0172 32.8084 39.9925 32.8021 39.9705 32.7888C39.9055 32.7496 39.8843 32.6653 39.9235 32.5998C40.2712 32.0216 41.027 31.8715 41.0592 31.8652C41.1325 31.8534 41.2058 31.8997 41.2199 31.9746C41.234 32.0491 41.1854 32.1212 41.1105 32.1357C41.1039 32.1373 40.4429 32.2701 40.1591 32.7417C40.1336 32.7845 40.0878 32.8084 40.0411 32.8084Z" fill="#0E3944"/>
<path d="M45.2236 33.1503C45.2981 33.4843 45.2083 33.7889 45.0229 33.83C44.8375 33.8716 44.6262 33.6344 44.5513 33.3004C44.4764 32.9664 44.5662 32.6618 44.752 32.6202C44.9375 32.5791 45.1488 32.8159 45.2236 33.1503Z" fill="#1A4850"/>
<path d="M41.4863 33.9543C41.5612 34.2883 41.4714 34.5929 41.2856 34.634C41.1002 34.6756 40.8889 34.4384 40.814 34.1044C40.7391 33.7704 40.8289 33.4658 41.0147 33.4243C41.2005 33.3831 41.4114 33.6203 41.4863 33.9543Z" fill="#1A4850"/>
<path d="M42.6948 37.1179C42.6948 37.1179 44.4225 36.9772 45.1838 36.3343C45.1838 36.3343 44.974 37.684 44.0344 37.7773C43.0943 37.8714 42.6948 37.1179 42.6948 37.1179Z" fill="#1A4850"/>
<path d="M44.2821 33.1867C44.2821 33.1867 44.3428 32.309 44.6792 32.2956C45.0155 32.2823 45.4185 32.9323 45.4185 32.9323L45.8392 32.5724L45.3758 32.7418C45.3758 32.7418 44.9626 32.0624 44.6427 32.1326C44.1876 32.2321 44.2821 33.1867 44.2821 33.1867Z" fill="#1A4850"/>
<path d="M41.6928 33.8723C41.6928 33.8723 41.2635 33.1044 40.9534 33.2357C40.6433 33.367 40.5563 34.1268 40.5563 34.1268L40.022 33.9809L40.5136 33.9362C40.5136 33.9362 40.5979 33.1455 40.917 33.0726C41.3717 32.9683 41.6928 33.8723 41.6928 33.8723Z" fill="#1A4850"/>
<path d="M43.5663 35.5597L43.4279 35.297C43.6517 35.179 43.6709 35.0195 43.6474 34.9073C43.6145 34.7482 43.4851 34.622 43.3914 34.6145C43.3377 34.6118 43.2915 34.6576 43.2554 34.7533L42.9771 34.6494C43.0962 34.3291 43.3216 34.3115 43.4142 34.3181C43.6505 34.3362 43.8807 34.5683 43.9391 34.8466C43.9991 35.1383 43.8599 35.4048 43.5663 35.5597Z" fill="#DB614D"/>
<path d="M39.3196 36.014C39.3196 36.014 38.49 32.9617 38.9824 30.8032C38.9824 30.8032 41.3224 27.5447 45.8393 29.156C45.8393 29.156 47.1784 31.3129 47.8421 34.3314C47.8421 34.3314 48.0107 33.2471 47.5614 30.8322C47.1122 28.4174 44.9698 26.9171 42.0316 27.4001C39.0938 27.8831 35.9497 30.806 39.3196 36.014Z" fill="#0E3944"/>
<path d="M44.0555 28.4781C44.0555 28.4781 44.2347 29.2747 43.4597 31.3262C43.4597 31.3262 42.9022 30.7436 42.2495 31.3262C41.5968 31.9087 40.271 31.7143 39.8186 32.0291C39.3662 32.3439 39.3662 33.0636 39.3662 33.0636C39.3662 33.0636 38.9746 32.1675 39.3662 31.0925C39.3662 31.0925 38.4853 32.2122 38.6021 33.5948C38.6021 33.5948 37.4076 33.4019 37.4617 31.4309C37.5162 29.4602 40.3172 26.2718 43.4597 26.4788C46.6021 26.6854 47.3501 31.661 47.3501 31.661C47.3501 31.661 47.0635 31.4356 46.6151 31.5359C46.6151 31.5359 46.5457 30.4822 45.8392 29.1548C45.8392 29.1548 46.1646 30.1129 45.8392 31.1466C45.8392 31.1466 44.9639 30.6876 44.2739 30.8311C44.2739 30.8318 44.7 29.9984 44.0555 28.4781Z" fill="#0E3944"/>
<path d="M34.448 40.505C35.9773 39.2991 37.1682 40.8331 37.4599 42.9539C37.7519 45.0752 34.9862 57.5881 32.8536 57.1271C32.0304 56.9491 31.6948 53.6714 31.6948 53.6714C31.6948 53.6714 32.529 50.153 33.0689 44.8576C33.317 42.4239 33.6506 41.1338 34.448 40.505Z" fill="#FF8B66"/>
<path d="M29.9978 55.3586C27.939 53.3962 24.2473 46.8867 23.3096 43.5705L24.8722 42.9421C24.8722 42.9421 29.5772 49.6732 31.722 51.3702C33.8667 53.0677 34.621 54.9576 33.6632 56.5763C32.7055 58.1949 30.4314 55.7714 29.9978 55.3586Z" fill="#FF8B66"/>
<path d="M23.9515 39.2281C23.8436 41.3568 25.5783 41.8613 24.8088 43.4953C24.65 43.8324 24.4082 44.0116 24.1569 44.1006C23.6802 44.2691 23.1506 44.11 22.795 43.7505C21.9702 42.917 20.6953 42.0338 20.0167 41.6465C19.2452 41.2012 19.6823 41.08 19.6823 41.08C19.6075 41.0448 19.5349 41.0154 19.462 40.986C18.9116 40.7554 18.4714 40.6684 18.8705 40.4234C19.3197 40.1443 20.9121 40.726 20.9121 40.726C18.8395 39.3453 18.2769 39.6821 18.6552 39.3889C19.1715 38.9874 21.1422 39.9106 21.201 39.9385C20.1057 38.9031 19.3119 38.6683 19.7462 38.5123C20.1865 38.3539 22.3532 39.9232 23.1439 40.512C23.3223 40.6441 23.4312 40.7292 23.4312 40.7292C23.4046 38.9898 23.9515 39.2281 23.9515 39.2281Z" fill="#FF8B66"/>
<path d="M23.1448 40.5128C23.3232 40.6449 23.4321 40.73 23.4321 40.73C23.4321 40.73 23.0613 41.3541 23.5415 42.1624C23.5415 42.1624 22.6595 41.583 23.1448 40.5128Z" fill="#EF6E4B"/>
<path d="M21.3272 41.7351C21.1437 41.6343 20.0982 41.0455 19.6822 41.0804C19.6074 41.0451 19.5348 41.0157 19.4619 40.9863C19.7414 40.6174 21.1194 41.5842 21.3272 41.7351Z" fill="#EF6E4B"/>
<path d="M29.5456 73.3223C29.5456 73.5536 29.3582 73.7406 29.1273 73.7406C28.8964 73.7406 28.709 73.5532 28.709 73.3223C28.709 73.0914 28.8964 72.904 29.1273 72.904C29.3582 72.904 29.5456 73.091 29.5456 73.3223Z" fill="#6097B2"/>
<path d="M37.0094 76.2017C37.0094 76.433 36.822 76.6199 36.5911 76.6199C36.3602 76.6199 36.1729 76.4326 36.1729 76.2017C36.1729 75.9708 36.3602 75.7834 36.5911 75.7834C36.822 75.7834 37.0094 75.9708 37.0094 76.2017Z" fill="#6097B2"/>
<path d="M43.3698 77.7459C43.3698 77.9768 43.1824 78.1642 42.9515 78.1642C42.7206 78.1642 42.5332 77.9768 42.5332 77.7459C42.5332 77.515 42.7206 77.3276 42.9515 77.3276C43.1824 77.3276 43.3698 77.515 43.3698 77.7459Z" fill="#6097B2"/>
<path d="M33.5973 67.859C33.5973 68.0903 33.4099 68.2773 33.179 68.2773C32.9481 68.2773 32.7607 68.0899 32.7607 67.859C32.7607 67.6281 32.9481 67.4408 33.179 67.4408C33.4099 67.4408 33.5973 67.6281 33.5973 67.859Z" fill="#6097B2"/>
<path d="M34.5877 72.2533C34.8187 72.2533 35.006 72.066 35.006 71.835C35.006 71.604 34.8187 71.4167 34.5877 71.4167C34.3567 71.4167 34.1694 71.604 34.1694 71.835C34.1694 72.066 34.3567 72.2533 34.5877 72.2533Z" fill="#6097B2"/>
<path d="M41.6251 74.1008C41.6251 74.3321 41.4378 74.5191 41.2069 74.5191C40.976 74.5191 40.7886 74.3317 40.7886 74.1008C40.7886 73.8699 40.976 73.6826 41.2069 73.6826C41.4378 73.6826 41.6251 73.8695 41.6251 74.1008Z" fill="#6097B2"/>
<path d="M42.5329 67.2428C42.5329 67.4737 42.3455 67.6611 42.1146 67.6611C41.8837 67.6611 41.6963 67.4737 41.6963 67.2428C41.6963 67.0115 41.8837 66.8245 42.1146 66.8245C42.3455 66.8245 42.5329 67.0119 42.5329 67.2428Z" fill="#6097B2"/>
<path d="M37.7782 66.2341C38.0092 66.2341 38.1964 66.0468 38.1964 65.8158C38.1964 65.5848 38.0092 65.3976 37.7782 65.3976C37.5471 65.3976 37.3599 65.5848 37.3599 65.8158C37.3599 66.0468 37.5471 66.2341 37.7782 66.2341Z" fill="#6097B2"/>
<path d="M25.8429 81.4837C25.8429 81.715 25.6555 81.902 25.4246 81.902C25.1937 81.902 25.0063 81.7146 25.0063 81.4837C25.0063 81.2528 25.1937 81.0655 25.4246 81.0655C25.6555 81.0655 25.8429 81.2528 25.8429 81.4837Z" fill="#6097B2"/>
<path d="M19.881 79.7048C19.881 79.9357 19.6936 80.1231 19.4627 80.1231C19.2318 80.1231 19.0444 79.9357 19.0444 79.7048C19.0444 79.4735 19.2318 79.2865 19.4627 79.2865C19.6936 79.2865 19.881 79.4739 19.881 79.7048Z" fill="#6097B2"/>
<path d="M16.326 76.4337C16.2519 76.547 16.1214 76.6207 15.9736 76.6207C15.743 76.6207 15.5557 76.4337 15.5557 76.2028C15.5557 76.1507 15.5643 76.1029 15.5862 76.0594C15.8473 76.1507 16.0912 76.2769 16.326 76.4337Z" fill="#6097B2"/>
<path d="M27.5609 87.3586C27.7919 87.3586 27.9792 87.1714 27.9792 86.9404C27.9792 86.7093 27.7919 86.5221 27.5609 86.5221C27.3299 86.5221 27.1426 86.7093 27.1426 86.9404C27.1426 87.1714 27.3299 87.3586 27.5609 87.3586Z" fill="#6097B2"/>
<path d="M17.2775 92.8708C17.2775 93.1021 17.0901 93.2891 16.8592 93.2891C16.6283 93.2891 16.4409 93.1017 16.4409 92.8708C16.4409 92.6399 16.6283 92.4525 16.8592 92.4525C17.0901 92.4525 17.2775 92.6395 17.2775 92.8708Z" fill="#6097B2"/>
<path d="M21.2313 89.6942C21.4623 89.6942 21.6496 89.507 21.6496 89.276C21.6496 89.0449 21.4623 88.8577 21.2313 88.8577C21.0003 88.8577 20.813 89.0449 20.813 89.276C20.813 89.507 21.0003 89.6942 21.2313 89.6942Z" fill="#6097B2"/>
<path d="M14.7205 86.5138C14.9515 86.5138 15.1388 86.3266 15.1388 86.0955C15.1388 85.8645 14.9515 85.6772 14.7205 85.6772C14.4895 85.6772 14.3022 85.8645 14.3022 86.0955C14.3022 86.3266 14.4895 86.5138 14.7205 86.5138Z" fill="#6097B2"/>
<path d="M20.3947 98.6194C20.3947 98.8503 20.2073 99.0377 19.9764 99.0377C19.7455 99.0377 19.5581 98.8503 19.5581 98.6194C19.5581 98.3881 19.7455 98.2011 19.9764 98.2011C20.2073 98.2011 20.3947 98.3885 20.3947 98.6194Z" fill="#6097B2"/>
<path d="M24.3786 76.6203C24.3786 76.8516 24.1912 77.0386 23.9603 77.0386C23.729 77.0386 23.542 76.8512 23.542 76.6203C23.542 76.3894 23.7294 76.202 23.9603 76.202C24.1912 76.2016 24.3786 76.389 24.3786 76.6203Z" fill="#6097B2"/>
<path d="M28.3981 69.5738C28.3981 69.8051 28.2107 69.9921 27.9798 69.9921C27.7489 69.9921 27.5615 69.8047 27.5615 69.5738C27.5615 69.3429 27.7489 69.1555 27.9798 69.1555C28.2107 69.1555 28.3981 69.3429 28.3981 69.5738Z" fill="#6097B2"/>
<path d="M32.9474 63.7095C32.9474 63.9404 32.76 64.1278 32.5291 64.1278C32.2978 64.1278 32.1108 63.9404 32.1108 63.7095C32.1108 63.4782 32.2982 63.2912 32.5291 63.2912C32.76 63.2908 32.9474 63.4782 32.9474 63.7095Z" fill="#6097B2"/>
<path d="M23.7282 72.2532C23.7282 72.4845 23.5408 72.6715 23.3099 72.6715C23.079 72.6715 22.8916 72.4841 22.8916 72.2532C22.8916 72.0223 23.079 71.8349 23.3099 71.8349C23.5408 71.8349 23.7282 72.0219 23.7282 72.2532Z" fill="#6097B2"/>
<path d="M28.8166 65.3972C28.8166 65.6281 28.6292 65.8155 28.3983 65.8155C28.1674 65.8155 27.98 65.6281 27.98 65.3972C27.98 65.1659 28.1674 64.9789 28.3983 64.9789C28.6292 64.9789 28.8166 65.1663 28.8166 65.3972Z" fill="#6097B2"/>
<path d="M20.8131 84.2369C20.8131 84.4682 20.6258 84.6552 20.3948 84.6552C20.1636 84.6552 19.9766 84.4678 19.9766 84.2369C19.9766 84.006 20.1639 83.8186 20.3948 83.8186C20.6258 83.8186 20.8131 84.006 20.8131 84.2369Z" fill="#6097B2"/>
<path d="M15.5568 80.5417C15.5568 80.773 15.3694 80.96 15.1385 80.96C14.9076 80.96 14.7202 80.7726 14.7202 80.5417C14.7202 80.3108 14.9076 80.1234 15.1385 80.1234C15.3694 80.1234 15.5568 80.3108 15.5568 80.5417Z" fill="#6097B2"/>
<path d="M30.3826 79.7047C30.6137 79.7047 30.8009 79.5175 30.8009 79.2864C30.8009 79.0554 30.6137 78.8682 30.3826 78.8682C30.1516 78.8682 29.9644 79.0554 29.9644 79.2864C29.9644 79.5175 30.1516 79.7047 30.3826 79.7047Z" fill="#6097B2"/>
<path d="M39.033 81.902C39.264 81.902 39.4513 81.7148 39.4513 81.4837C39.4513 81.2527 39.264 81.0655 39.033 81.0655C38.802 81.0655 38.6147 81.2527 38.6147 81.4837C38.6147 81.7148 38.802 81.902 39.033 81.902Z" fill="#6097B2"/>
<path d="M39.0329 69.5738C39.0329 69.8051 38.8455 69.9921 38.6146 69.9921C38.3837 69.9921 38.1963 69.8047 38.1963 69.5738C38.1963 69.3429 38.3837 69.1555 38.6146 69.1555C38.8455 69.1555 39.0329 69.3429 39.0329 69.5738Z" fill="#6097B2"/>
<path d="M44.0622 70.4511C44.0622 70.6824 43.8748 70.8694 43.6439 70.8694C43.413 70.8694 43.2256 70.682 43.2256 70.4511C43.2256 70.2202 43.413 70.0328 43.6439 70.0328C43.8748 70.0328 44.0622 70.2202 44.0622 70.4511Z" fill="#6097B2"/>
<path d="M34.0153 84.6556C34.0153 84.8869 33.8279 85.0739 33.597 85.0739C33.3661 85.0739 33.1787 84.8865 33.1787 84.6556C33.1787 84.4247 33.3661 84.2373 33.597 84.2373C33.8279 84.2373 34.0153 84.4243 34.0153 84.6556Z" fill="#6097B2"/>
<path d="M29.9642 92.5164C30.1952 92.5164 30.3825 92.3291 30.3825 92.0981C30.3825 91.8671 30.1952 91.6798 29.9642 91.6798C29.7332 91.6798 29.5459 91.8671 29.5459 92.0981C29.5459 92.3291 29.7332 92.5164 29.9642 92.5164Z" fill="#6097B2"/>
<path d="M23.5413 93.7074C23.7723 93.7074 23.9596 93.5202 23.9596 93.2891C23.9596 93.0581 23.7723 92.8708 23.5413 92.8708C23.3103 92.8708 23.123 93.0581 23.123 93.2891C23.123 93.5202 23.3103 93.7074 23.5413 93.7074Z" fill="#6097B2"/>
<path d="M41.2069 87.3586C41.4379 87.3586 41.6251 87.1714 41.6251 86.9404C41.6251 86.7093 41.4379 86.5221 41.2069 86.5221C40.9758 86.5221 40.7886 86.7093 40.7886 86.9404C40.7886 87.1714 40.9758 87.3586 41.2069 87.3586Z" fill="#6097B2"/>
<path d="M35.8429 90.113C35.8429 90.3443 35.6555 90.5313 35.4246 90.5313C35.1937 90.5313 35.0063 90.3439 35.0063 90.113C35.0063 89.8821 35.1937 89.6947 35.4246 89.6947C35.6555 89.6947 35.8429 89.8817 35.8429 90.113Z" fill="#6097B2"/>
<path d="M27.1427 99.4563C27.1427 99.6872 26.9553 99.8746 26.7244 99.8746C26.4931 99.8746 26.3062 99.6872 26.3062 99.4563C26.3062 99.2251 26.4935 99.0381 26.7244 99.0381C26.9553 99.0381 27.1427 99.2251 27.1427 99.4563Z" fill="#6097B2"/>
<path d="M33.179 97.6958C33.41 97.6958 33.5973 97.5085 33.5973 97.2775C33.5973 97.0465 33.41 96.8592 33.179 96.8592C32.948 96.8592 32.7607 97.0465 32.7607 97.2775C32.7607 97.5085 32.948 97.6958 33.179 97.6958Z" fill="#6097B2"/>
<path d="M39.3968 95.2308C39.6278 95.2308 39.8151 95.0435 39.8151 94.8125C39.8151 94.5815 39.6278 94.3942 39.3968 94.3942C39.1658 94.3942 38.9785 94.5815 38.9785 94.8125C38.9785 95.0435 39.1658 95.2308 39.3968 95.2308Z" fill="#6097B2"/>
<path d="M37.0094 102.011C37.0094 102.242 36.822 102.429 36.5911 102.429C36.3602 102.429 36.1729 102.242 36.1729 102.011C36.1729 101.78 36.3602 101.593 36.5911 101.593C36.822 101.593 37.0094 101.78 37.0094 102.011Z" fill="#6097B2"/>
<path d="M36.5526 124.045H29.6801C29.2316 122.766 30.0588 121.482 29.9196 120.354C29.6801 118.448 30.7899 119.501 30.7899 119.501C30.9859 117.451 33.8672 117.064 33.8367 117.978C33.7888 119.323 34.0499 120.154 34.4329 120.711C35.2076 121.829 36.4785 121.821 36.6961 122.622C36.718 122.7 36.7353 122.779 36.7482 122.848C36.9615 123.849 36.5526 124.045 36.5526 124.045Z" fill="#164353"/>
<path d="M36.7478 122.848C35.3243 123.179 32.0427 122.748 31.9122 121.921C31.7859 121.12 33.5532 120.746 34.4321 120.711C35.2067 121.829 36.4777 121.821 36.6952 122.622C36.7176 122.7 36.7348 122.779 36.7478 122.848Z" fill="#205260"/>
<path d="M8.30027 70.8102C7.56915 70.1442 6.38093 71.2453 6.38093 71.2453C6.38093 71.2453 7.02071 72.194 6.60713 72.577C6.19355 72.96 5.71489 72.0851 4.90105 72.4681C4.83558 72.4986 4.7662 72.5378 4.70073 72.5814C4.06526 72.9601 3.40353 73.7566 2.86842 74.3615C2.75944 74.4834 2.65516 74.5967 2.55951 74.6967C1.93698 75.3494 0.331257 75.7324 0.0305768 73.9915C-0.269712 72.2505 1.68883 70.2092 3.83907 68.3334C5.9893 66.4576 7.37745 67.5717 7.37745 67.5717C7.37745 67.5717 7.86473 68.3597 7.86473 68.8513C7.86473 69.3386 8.29988 69.5824 8.54371 70.0481C8.78794 70.5099 8.30027 70.8102 8.30027 70.8102Z" fill="#164353"/>
<path d="M4.70096 72.5818C4.06549 72.9604 3.40376 73.757 2.86865 74.3619C2.06344 74.5532 1.34094 74.4968 1.22765 73.7394C0.953232 71.9114 4.6006 69.5871 4.30933 70.871C4.16154 71.5155 4.414 72.129 4.70096 72.5818Z" fill="#205260"/>
<path d="M131.964 121.073C131.625 120.895 131.313 120.504 131.032 120.009C131.032 120.009 130.791 118.546 131.032 117.009C131.273 115.471 130.604 114.216 128.428 113.744C126.312 113.286 125.057 114.305 125.545 118.559L125.546 118.56C125.224 120.327 125.157 122.345 125.891 124.045H132.404C132.404 124.045 133.431 121.844 131.964 121.073Z" fill="#CFD8DC"/>
<path d="M137.677 98.1482C137.677 98.1482 137.677 102.392 135.283 106.744C132.845 111.176 129.832 117.259 129.832 117.259C129.832 117.259 127.824 119.218 126.548 115.973C126.548 115.973 127.449 104.677 129.516 100.542C131.583 96.4073 137.677 98.1482 137.677 98.1482Z" fill="#FF8B66"/>
<path d="M168.906 84.3291C168.906 84.3291 172.785 100.641 175.252 104.944C175.252 104.944 174.685 106.744 172.013 107.288C172.013 107.288 163.574 94.8839 163.03 89.661C162.486 84.4377 168.906 84.3291 168.906 84.3291Z" fill="#FF8B66"/>
<path d="M170.782 88.1634C169.75 90.6485 161.781 90.7837 161.781 90.7837L161.172 89.8871L161.01 89.6523L159.766 87.8157C159.766 87.8157 146.56 74.8629 143.988 75.9508H143.984C143.91 75.9857 143.836 76.0249 143.766 76.077C141.999 77.3393 141.833 84.2554 139.744 95.8631C139.544 96.9643 139.1 98.2482 138.765 99.1361C138.726 99.2318 138.691 99.3235 138.656 99.4105C138.465 99.9025 138.33 100.216 138.33 100.216C130.269 103.48 127.609 97.0298 127.609 97.0298C127.609 97.0298 127.705 96.8428 127.844 96.5425C127.875 96.477 127.91 96.4033 127.944 96.3249C128.366 95.3935 129.041 93.7788 129.032 92.9257C129.024 91.99 129.015 91.0891 129.011 90.2227C129.011 90.1443 129.011 90.0702 129.007 89.9965C128.994 87.2065 128.998 84.7823 129.015 82.6759V82.454C129.024 81.5355 129.037 80.6782 129.054 79.8773V79.6511C129.124 75.9822 129.241 73.5316 129.368 71.8992C129.372 71.8252 129.381 71.7467 129.385 71.6774C129.607 68.9309 129.842 68.6612 129.842 68.6612L128.228 57.436H145.846C145.846 57.436 148.492 60.0865 151.926 63.586C152.001 63.6558 152.07 63.7252 152.14 63.7993C153.384 65.0659 154.729 66.4411 156.079 67.8383C156.135 67.8947 156.187 67.9469 156.236 67.9994C156.767 68.5479 157.298 69.0963 157.824 69.6404C157.89 69.7055 157.95 69.7753 158.016 69.8407C159.783 71.673 161.498 73.4795 162.965 75.0593C163.017 75.1115 163.065 75.164 163.113 75.2161C165.119 77.3879 166.647 79.1246 167.174 79.9341C168.571 82.071 169.659 84.8524 170.26 86.5714C170.26 86.5714 170.26 86.5714 170.26 86.5757C170.29 86.6542 170.316 86.7239 170.342 86.7976C170.625 87.6326 170.782 88.1634 170.782 88.1634Z" fill="#8B383E"/>
<path d="M132.48 70.3401C131.761 71.1889 130.717 71.711 129.368 71.8984C129.372 71.8243 129.381 71.7459 129.385 71.6765C130.656 71.4938 131.64 70.9976 132.315 70.1967C133.524 68.7689 133.329 66.8409 133.324 66.8237L133.542 66.7974C133.55 66.8801 133.75 68.8387 132.48 70.3401Z" fill="#662C33"/>
<path d="M152.141 63.7985C152.071 63.8028 152.006 63.8071 151.936 63.8071C149.977 63.8071 147.932 61.6659 147.827 61.5569L147.984 61.4044C148.01 61.435 150.047 63.5676 151.927 63.5848C152.001 63.655 152.071 63.7244 152.141 63.7985Z" fill="#662C33"/>
<path d="M138.765 99.1361C138.726 99.2318 138.691 99.3235 138.656 99.4105C137.35 99.8892 136.153 100.085 135.061 100.085C131.579 100.085 129.167 98.0698 127.844 96.5421C127.875 96.4766 127.91 96.4029 127.944 96.3245C129.638 98.3089 133.255 101.238 138.765 99.1361Z" fill="#662C33"/>
<path d="M143.496 71.907C143.788 73.156 143.975 74.5187 143.984 75.9504C143.909 75.9852 143.836 76.0244 143.766 76.0766C143.757 69.5043 139.953 64.3771 139.91 64.3206L140.084 64.1901C140.119 64.2336 142.373 67.2804 143.439 71.6808C143.883 71.3892 144.184 70.9713 144.31 70.4319C144.858 68.1252 142.364 64.3559 142.343 64.3167L142.521 64.1948C142.625 64.3559 145.089 68.0817 144.523 70.4797C144.376 71.1061 144.027 71.5805 143.496 71.907Z" fill="#662C33"/>
<path d="M163.112 75.2149C162.464 75.9202 161.854 76.5208 161.798 76.5729L161.68 76.6905L161.624 76.5337C160.771 74.3007 155.287 69.4609 155.23 69.413L155.165 69.3519L156.079 67.8371C156.135 67.8935 156.187 67.9457 156.236 67.9982L155.47 69.2692C156.536 69.6392 157.293 69.7043 157.824 69.6392C157.89 69.7043 157.95 69.7741 158.016 69.8395C157.837 69.8701 157.646 69.8874 157.446 69.8874C156.954 69.8874 156.392 69.7874 155.761 69.5957C157.006 70.7185 160.876 74.3051 161.763 76.3028C162.107 75.9633 162.542 75.5152 162.965 75.0581C163.017 75.1107 163.065 75.1628 163.112 75.2149Z" fill="#662C33"/>
<path d="M133.02 90.1831L132.933 90.2003C132.85 90.2223 131.862 90.4265 130.726 90.4265C130.156 90.4265 129.555 90.3744 129.012 90.2219C129.012 90.1435 129.012 90.0694 129.007 89.9957C130.444 90.4093 132.363 90.0914 132.798 90.0087L132.433 80.9514C132.228 81.4477 131.824 82.1267 131.066 82.5007C130.705 82.6833 130.3 82.7704 129.856 82.7704C129.591 82.7704 129.312 82.7398 129.016 82.6747V82.4528C129.769 82.6269 130.422 82.5791 130.966 82.3046C131.889 81.8475 132.254 80.8683 132.368 80.481C131.641 80.5895 130.174 80.2199 129.056 79.8761V79.6499C130.261 80.0156 131.893 80.4378 132.481 80.2332L132.62 80.1854L133.02 90.1831Z" fill="#662C33"/>
<path d="M170.341 86.7968C169.075 88.0458 166.481 89.9565 162.49 89.9565C162.067 89.9565 161.628 89.935 161.171 89.8867L161.01 89.6519C165.863 90.209 168.905 87.9325 170.259 86.5746C170.289 86.6534 170.316 86.7227 170.341 86.7968Z" fill="#662C33"/>
<path d="M149.102 9.71177C149.102 9.71177 148.618 8.59686 146.572 8.59647C144.996 8.59607 144.393 9.46675 144.393 9.46675C143.449 12.2234 142.436 22.7778 142.073 23.1534C141.889 23.3439 130.196 31.2188 130.196 31.2188C136.542 31.3376 140.501 39.1592 140.501 39.1592C140.706 36.5892 147.872 26.4044 147.949 25.4961C148.094 23.7834 151.126 16.1319 149.102 9.71177Z" fill="#CE364C"/>
<path d="M128.803 64.8986C128.803 64.8986 128.745 67.1006 129.457 67.2456C130.169 67.3907 135.972 69.1058 142.646 66.0723C149.32 63.0385 150.481 60.7898 148.522 59.1214C146.563 57.4529 128.803 64.8986 128.803 64.8986Z" fill="#CE364C"/>
<path d="M126.129 32.743C126.129 32.743 120.057 32.0237 116.575 33.5306C116.575 33.5306 115.604 37.8397 120.388 47.4827C125.171 57.126 124.062 63.1996 129.457 65.4859C134.239 67.513 148.34 61.481 148.783 59.4805C149.898 54.4446 141.275 45.6064 140.731 40.4851C140.187 35.3641 135.182 27.6644 126.129 32.743Z" fill="#F24052"/>
<path d="M116.575 33.5306C112.331 35.0375 107.557 39.8021 107.551 42.0986C107.544 44.3951 111.533 45.2806 111.533 45.2806L118.072 42.0986C118.072 42.0986 119.942 40.7928 118.752 36.9862C117.561 33.1801 116.575 33.5306 116.575 33.5306Z" fill="#CE364C"/>
<path d="M134.011 37.7769C132.743 37.7769 131.171 37.3202 130.193 36.6236C129.655 36.2398 129.334 35.807 129.264 35.3715C129.024 33.8642 130.492 33.0978 130.555 33.066L130.753 33.4533C130.702 33.4796 129.505 34.1107 129.694 35.3029C129.745 35.6204 130.005 35.9544 130.446 36.2688C131.54 37.0489 133.432 37.5064 134.664 37.2893C135.219 37.1912 135.583 36.9913 135.744 36.6957C135.941 36.3339 135.773 35.9246 135.771 35.9203L136.171 35.7482C136.181 35.7725 136.425 36.3488 136.129 36.898C135.902 37.3187 135.435 37.5942 134.74 37.717C134.515 37.7577 134.269 37.7769 134.011 37.7769Z" fill="#CFD8DC"/>
<path d="M128.63 42.3695C127.691 42.3695 126.132 41.9779 125.914 40.4365C125.802 39.652 125.874 38.9977 125.937 38.4207C126.03 37.5708 126.104 36.8993 125.609 36.0948C124.791 34.7671 123.677 34.6777 123.63 34.6745L123.657 34.2402C123.712 34.2433 125.037 34.337 125.979 35.8667C126.552 36.7985 126.464 37.6096 126.369 38.4681C126.306 39.0467 126.241 39.645 126.344 40.3753C126.58 42.0387 128.7 41.9344 128.79 41.9297L128.816 42.364C128.757 42.3676 128.695 42.3695 128.63 42.3695Z" fill="#CFD8DC"/>
<path d="M129.952 34.5581C129.952 34.5581 133.162 32.3718 132.4 30.0051C131.638 27.6385 121.301 27.8016 118.635 30.6308C115.969 33.46 124.402 35.3378 124.402 35.3378C125.055 34.0222 129.226 33.8771 129.952 34.5581Z" fill="#CE364C"/>
<path d="M124.18 34.1876C122.657 33.6705 121.754 32.5713 122.081 31.3015C122.407 30.0321 128.955 29.9984 130.197 31.0126C131.439 32.0271 129.689 36.0579 124.18 34.1876Z" fill="#A02E44"/>
<path d="M123.456 30.6198C123.456 30.6198 124.803 32.9218 124.18 34.1876C124.18 34.1876 128.803 35.7836 128.803 33.197C128.803 33.197 127.932 31.2585 128.26 30.0052L123.456 30.6198Z" fill="#EF6E4B"/>
<path d="M121.914 28.6091C121.914 28.6091 119.643 24.9715 119.853 21.4966C119.959 19.7592 120.852 19.0787 120.852 19.0787C120.852 19.0787 120.131 18.0759 120.904 16.5435C120.904 16.5435 121.974 17.7815 125.728 17.391C129.349 17.0147 129.71 19.5957 129.71 19.5957C132.298 19.9803 130.552 27.809 128.746 28.6095L121.914 28.6091Z" fill="#FFB878"/>
<path d="M120.95 25.2503C120.95 25.2503 119.645 23.9476 119.484 25.4706C119.298 27.2351 120.901 27.9458 121.214 27.3844C121.527 26.8231 120.95 25.2503 120.95 25.2503Z" fill="#FF8B66"/>
<path d="M130.092 25.3419C130.092 25.3419 131.397 24.0393 131.558 25.5623C131.744 27.3268 130.142 28.0375 129.829 27.4761C129.515 26.9151 130.092 25.3419 130.092 25.3419Z" fill="#FF8B66"/>
<path d="M125.383 31.6413C122.486 31.6413 120.852 29.7491 120.852 24.0745C120.852 21.1473 122.341 19.3519 125.586 19.3519C128.83 19.3519 130.197 21.1473 130.197 24.0745C130.197 30.172 128.376 31.6413 125.383 31.6413Z" fill="#FF8B66"/>
<path d="M129.238 26.0982C129.289 26.3895 129.035 26.6768 128.671 26.7404C128.307 26.8039 127.97 26.6192 127.92 26.3283C127.869 26.0371 128.123 25.7497 128.487 25.6862C128.851 25.6227 129.187 25.8073 129.238 26.0982Z" fill="#DB614D"/>
<path d="M123.279 26.257C123.26 26.5518 122.945 26.7713 122.576 26.7474C122.208 26.7235 121.924 26.4648 121.943 26.17C121.963 25.8752 122.277 25.6552 122.646 25.6795C123.015 25.7035 123.298 25.9618 123.279 26.257Z" fill="#DB614D"/>
<path d="M127.962 23.0557C127.923 23.0616 127.884 23.0526 127.851 23.0275C127.39 22.6731 126.698 22.7986 126.688 22.8001C126.611 22.8127 126.534 22.7633 126.519 22.6845C126.504 22.6057 126.556 22.5304 126.635 22.5155C126.665 22.5088 127.465 22.3654 128.028 22.7982C128.091 22.8468 128.103 22.9377 128.054 23.0012C128.031 23.0318 127.997 23.0502 127.962 23.0557Z" fill="#FFB878"/>
<path d="M122.418 23.0757C122.382 23.0714 122.348 23.0537 122.324 23.0239C122.273 22.962 122.282 22.8707 122.344 22.8201C122.893 22.3704 123.696 22.4896 123.727 22.4951C123.806 22.5076 123.86 22.5813 123.848 22.6601C123.836 22.7393 123.759 22.7919 123.683 22.7813C123.678 22.7793 122.973 22.679 122.528 23.0443C122.495 23.0702 122.455 23.0804 122.418 23.0757Z" fill="#FFB878"/>
<path d="M127.663 24.6908C127.663 25.0503 127.501 25.3424 127.301 25.342C127.101 25.342 126.939 25.0503 126.939 24.6908C126.939 24.3309 127.101 24.0393 127.301 24.0393C127.501 24.0393 127.663 24.3309 127.663 24.6908Z" fill="#1A4850"/>
<path d="M123.794 24.6908C123.794 25.0503 123.633 25.3424 123.433 25.342C123.233 25.342 123.071 25.0503 123.071 24.6908C123.071 24.3309 123.233 24.0393 123.433 24.0393C123.633 24.0393 123.794 24.3309 123.794 24.6908Z" fill="#1A4850"/>
<path d="M121.741 19.9803C121.741 19.9803 124.828 21.1105 129.254 20.7926C129.254 20.7926 130.197 21.9687 130.083 26.119C130.083 26.119 132.674 18.6432 125.109 18.6432C117.544 18.6432 120.952 25.9532 120.952 25.9532C120.952 25.9532 120.334 21.381 121.741 19.9803Z" fill="#FFB878"/>
<path d="M125.567 26.6251L125.35 26.4067L125.923 25.8375C125.368 25.0519 125.37 23.2341 125.371 23.1529L125.679 23.1545C125.679 23.1741 125.676 25.1299 126.243 25.7446L126.344 25.8536L125.567 26.6251Z" fill="#DB614D"/>
<path d="M123.644 27.5726C123.644 27.5726 126.495 27.6929 127.934 27.3123C127.934 27.3123 128.189 29.3857 125.979 29.4884C123.644 29.597 123.644 27.5726 123.644 27.5726Z" fill="#1A4850"/>
<path d="M135.827 35.4107C136.372 35.3096 136.317 36.7334 135.827 36.3206C135.338 35.9082 135.283 35.5119 135.827 35.4107Z" fill="#CFD8DC"/>
<path d="M129.266 42.3099C129.183 42.8571 127.856 42.3389 128.406 42.0115C128.956 41.6842 129.349 41.7626 129.266 42.3099Z" fill="#CFD8DC"/>
<path d="M123.426 45.2806C123.426 45.2806 122.562 47.496 122.611 48.7477C122.661 49.9994 123.07 49.8359 123.07 49.8359C123.07 49.8359 122.415 50.0939 122.291 50.8152C122.167 51.5365 123.988 52.0665 124.113 52.0665C124.238 52.0665 125.524 51.5769 125.524 51.5769L125.793 47.483L124.655 46.7684L123.426 45.2806Z" fill="#EF6E4B"/>
<path d="M124.113 44.9941C124.113 44.9941 125.686 45.9733 126.295 46.572C126.904 47.1706 126.557 51.7949 126.295 52.0124C126.034 52.23 124.029 52.6789 123.644 52.4272C123.259 52.1755 123.794 50.8156 123.794 50.8156C123.794 50.8156 124.801 50.598 124.655 50.9787C124.51 51.3597 124.655 51.6859 124.655 51.6859L125.069 51.5228C125.069 51.5228 124.866 50.489 125.069 49.7273C125.272 48.9656 123.651 48.1624 123.455 46.7688C123.259 45.3747 124.113 44.9941 124.113 44.9941Z" fill="#FF8B66"/>
<path d="M107.812 42.7407C107.308 40.5662 109.467 39.7966 112.469 40.1675C115.951 40.5975 123.102 41.5082 124.656 45.2806C124.656 45.2806 125.164 46.7683 123.85 47.483C120.177 49.4807 108.757 46.8252 107.812 42.7407Z" fill="#CE364C"/>
<path d="M118.704 41.3001C118.704 41.3001 114.555 39.5763 112.487 39.4015C110.42 39.227 115.346 41.0335 118.704 41.3001Z" fill="#A02E44"/>
<path d="M149.811 3.93961C149.498 4.29635 148.98 5.68489 148.98 5.68489C148.762 6.85115 148.636 7.49563 148.227 8.03074C147.822 8.56624 148.035 9.51062 148.035 9.51062C148.035 9.51062 146.451 10.3245 145.119 9.31892C145.119 9.31892 145.258 8.38317 145.119 8.11777C144.845 7.58697 143.965 7.30393 143.665 6.23332C143.365 5.1584 142.464 3.96117 142.464 3.96117C142.464 3.96117 142.721 3.40411 143.191 3.7436C143.665 4.0874 143.965 4.94475 144.222 5.03178C144.274 5.04903 144.327 5.06236 144.379 5.06667C144.379 5.06667 144.383 5.06667 144.392 5.07098C144.588 5.09725 144.788 5.05373 144.91 4.93613C144.918 4.93181 144.932 4.92319 144.94 4.90986C145.371 4.40925 145.471 2.93799 145.454 2.28096C145.428 1.36716 145.462 0.104853 146.019 0.318113C146.577 0.531373 146.067 1.04061 146.498 3.05599L146.707 3.08226C146.746 3.22574 147.129 1.85915 147.221 0.575278C147.286 -0.308338 147.865 0.0182165 147.991 0.296552C148.122 0.575279 147.926 1.45419 147.887 2.09397C147.856 2.51618 147.821 2.95563 147.8 3.21711L148.044 3.35197C148.923 1.81995 148.623 1.18448 149.136 1.1539C149.645 1.12332 149.463 2.41621 149.188 2.90781C149.071 3.12107 148.958 3.56483 148.866 4.00037C149.767 2.95994 149.667 2.41621 150.08 2.48129C150.507 2.55107 150.124 3.58248 149.811 3.93961Z" fill="#FF8B66"/>
<path d="M145.92 6.3376C145.616 5.4975 144.527 5.1145 144.393 5.07098C144.589 5.09725 144.789 5.05373 144.91 4.93613C145.977 5.41478 145.92 6.3376 145.92 6.3376Z" fill="#EF6E4B"/>
<path d="M127.013 117.661C127.013 117.661 126.411 116.432 126.948 115.904C127.484 115.376 128.117 116.355 129.034 116.138C129.951 115.92 130.164 115.268 130.402 116.156C130.641 117.044 130.35 119.837 127.013 117.661Z" fill="#CFD8DC"/>
<path d="M130.466 117.607C130.466 117.607 128.003 118.479 126.726 117.607L127.051 118.673C127.051 118.673 129.728 118.956 130.097 118.282L130.466 117.607Z" fill="#ADBEC4"/>
<path d="M130.433 118.932C130.433 118.932 128.178 118.619 127.089 119.179V119.707C127.089 119.707 130.03 119.021 130.981 119.707L130.433 118.932Z" fill="#ADBEC4"/>
<path d="M126.981 120.805C126.981 120.805 127.418 119.739 128.791 119.663C130.163 119.586 131.089 120.342 131.089 120.342C131.089 120.342 128.912 119.445 126.981 120.805Z" fill="#ADBEC4"/>
<path d="M185.036 105.995C180.705 111.775 174.812 112.885 174.812 112.885C173.102 111.518 173.058 109.899 173.058 109.899C173.058 109.899 171.409 108.428 171.191 107.723C170.974 107.018 172.606 104.894 173.585 105.112C174.259 105.26 174.651 105.8 174.829 106.118C174.02 104.294 174.668 103.658 175.817 103.815C177.014 103.976 175.883 104.259 176.74 105.221C176.801 105.291 176.871 105.347 176.945 105.399C177.102 105.508 177.289 105.582 177.502 105.621C177.689 105.656 177.898 105.665 178.115 105.652C178.229 105.648 178.346 105.635 178.464 105.617C178.685 105.582 178.912 105.526 179.147 105.452C179.508 105.338 179.882 105.178 180.248 104.977C181.745 104.159 182.376 103.88 183.517 104.172C184.653 104.459 184.635 105.321 184.635 105.321L185.036 105.995Z" fill="#CFD8DC"/>
<path d="M185.036 105.995C180.705 111.775 174.812 112.885 174.812 112.885C177.82 111.593 180.583 109.899 182.472 107.814C184.357 105.73 185.036 105.995 185.036 105.995Z" fill="#ADBEC4"/>
<path d="M176.945 105.399C177.102 105.508 177.289 105.582 177.502 105.621C176.357 105.851 176.274 106.875 176.274 106.875L175.787 106.718C175.891 105.49 176.862 105.403 176.945 105.399Z" fill="#ADBEC4"/>
<path d="M177.715 106.997L177.206 107.014C177.014 106.291 177.262 105.86 177.501 105.621C177.688 105.656 177.897 105.664 178.115 105.652C177.51 106.248 177.715 106.997 177.715 106.997Z" fill="#ADBEC4"/>
<path d="M178.973 106.718L178.468 106.783C178.272 106.269 178.329 105.886 178.464 105.617C178.685 105.582 178.912 105.525 179.147 105.451C178.729 106.074 178.973 106.718 178.973 106.718Z" fill="#ADBEC4"/>
<path d="M130.51 53.0461C130.51 53.0461 131.628 59.0778 129.368 61.4813C127.108 63.8848 128.603 61.9098 129.277 58.8108C129.951 55.7119 129.438 52.4475 130.51 53.0461Z" fill="#CE364C"/>
<path d="M140.941 50.3541C140.941 50.3541 144.504 51.5247 146.368 54.8153C146.368 54.8153 143.879 49.4576 140.941 50.3541Z" fill="#CE364C"/>
<path d="M48.4047 5.54144C48.8794 5.54889 50.2562 6.09694 50.2562 6.09694C51.2668 6.71868 51.829 7.05778 52.5005 7.11384C53.1689 7.17343 53.4433 8.32166 53.4433 8.32166C53.4433 8.32166 56.0797 8.89832 56.2287 7.23615C56.2287 7.23615 54.755 5.15021 54.6516 4.86873C54.4422 4.30893 54.8225 3.46765 54.2309 2.52601C53.6358 1.58163 53.3536 0.110377 53.3536 0.110377C53.3536 0.110377 52.7683 -0.0730891 52.7044 0.503183C52.6409 1.08573 53.0744 1.88388 52.9666 2.13281C52.9443 2.18299 52.9192 2.23082 52.8875 2.27238C52.8875 2.27238 52.8847 2.27551 52.882 2.28492C52.7698 2.44761 52.6032 2.56678 52.4343 2.57815C52.4253 2.58168 52.41 2.5856 52.3943 2.58325C51.7341 2.56678 50.5765 1.65298 50.1014 1.19902C49.4416 0.565907 48.4827 -0.255378 48.2667 0.300508C48.0507 0.856787 48.7701 0.82111 49.9743 2.49308L49.8536 2.66557C49.9336 2.79102 48.6638 2.15751 47.6508 1.36328C46.9522 0.818368 46.8056 1.46677 46.9272 1.74707C47.0459 2.03089 47.8292 2.47583 48.3294 2.87648C48.6626 3.13718 49.0119 3.40649 49.2201 3.56604L49.1566 3.83732C47.4309 3.4602 47.1616 2.81101 46.7943 3.17128C46.4297 3.52802 47.5105 4.26071 48.0593 4.38772C48.2961 4.44378 48.7014 4.65782 49.0852 4.88245C47.7092 4.85188 47.3733 4.41242 47.1443 4.7625C46.9083 5.12551 47.93 5.53399 48.4047 5.54144Z" fill="#FF8B66"/>
<path d="M52.7945 4.26776C52.3766 3.47784 52.8231 2.41428 52.8815 2.28531C52.7694 2.448 52.6028 2.56717 52.4338 2.57854C52.0724 3.68992 52.7945 4.26776 52.7945 4.26776Z" fill="#EF6E4B"/>
<path d="M125.968 5.54147C125.494 5.54892 124.117 6.09697 124.117 6.09697C123.106 6.71871 122.544 7.05781 121.873 7.11387C121.204 7.17346 120.93 8.32169 120.93 8.32169C120.93 8.32169 118.293 8.89835 118.145 7.23618C118.145 7.23618 119.619 5.15024 119.722 4.86876C119.931 4.30896 119.551 3.46768 120.142 2.52604C120.737 1.58166 121.02 0.110408 121.02 0.110408C121.02 0.110408 121.605 -0.0730586 121.669 0.503213C121.732 1.08576 121.299 1.88391 121.407 2.13285C121.429 2.18302 121.454 2.23085 121.486 2.27241C121.486 2.27241 121.489 2.27554 121.492 2.28495C121.604 2.44764 121.77 2.56681 121.939 2.57818C121.948 2.58171 121.964 2.58563 121.979 2.58328C122.639 2.56681 123.797 1.65301 124.273 1.19905C124.932 0.565937 125.891 -0.255348 126.107 0.300539C126.323 0.856817 125.604 0.821141 124.4 2.49311L124.52 2.6656C124.44 2.79105 125.71 2.15754 126.723 1.36331C127.422 0.818398 127.568 1.4668 127.447 1.7471C127.328 2.03092 126.545 2.47587 126.045 2.87651C125.711 3.13721 125.362 3.40652 125.154 3.56608L125.217 3.83735C126.943 3.46023 127.212 2.81104 127.58 3.17131C127.944 3.52805 126.863 4.26074 126.315 4.38775C126.078 4.44381 125.673 4.65786 125.289 4.88248C126.664 4.85191 127.001 4.41245 127.23 4.76253C127.465 5.12554 126.443 5.53402 125.968 5.54147Z" fill="#FF8B66"/>
<path d="M121.579 4.26779C121.997 3.47787 121.55 2.41431 121.492 2.28534C121.604 2.44803 121.77 2.5672 121.939 2.57857C122.301 3.68995 121.579 4.26779 121.579 4.26779Z" fill="#EF6E4B"/>
<path d="M102.801 85.4534L97.7362 54.0952L87.5953 55.2278L77.4545 54.0952L72.39 85.4534L69.9575 115.867C69.9575 115.867 70.731 118.387 75.7896 116.646C75.7896 116.646 79.5428 88.4367 80.123 87.8154C80.7032 87.194 86.6631 68.7686 86.6631 68.7686H88.5272C88.5272 68.7686 94.4867 87.194 95.0673 87.8154C95.6475 88.4367 99.4007 116.646 99.4007 116.646C104.46 118.387 105.233 115.867 105.233 115.867L102.801 85.4534Z" fill="#0E3944"/>
<path d="M84.4002 23.7285C85.0408 24.3518 88.1922 25.4765 89.8563 23.7285L90.9846 24.8368C90.9846 24.8368 89.698 27.8624 87.4403 27.9682C85.1823 28.0741 83.5503 25.2762 83.5503 25.2762L84.4002 23.7285Z" fill="#0C476B"/>
<path d="M93.3252 23.3867C97.0972 21.7626 109.284 17.446 109.284 17.446C109.284 17.446 117.476 7.18212 119.147 5.65872C119.147 5.65872 120.961 5.98527 121.492 8.24293C121.492 8.24293 116.216 19.5386 113.349 22.7724C110.481 26.0062 95.958 33.0003 95.958 33.0003L93.3252 23.3867Z" fill="#0C476B"/>
<path d="M80.1224 23.1538C81.2448 22.4443 86.8785 26.2132 86.8785 26.2132C86.8785 26.2132 94.203 22.3235 95.922 23.077C95.922 23.077 97.4713 25.15 98.0934 30.4791C98.716 35.8083 98.7571 57.7387 98.7571 57.7387C98.7571 57.7387 93.8326 59.4809 87.1717 59.4809C79.5783 59.4809 75.493 57.3032 75.493 57.3032C75.493 57.3032 74.1378 26.9388 80.1224 23.1538Z" fill="#FFB878"/>
<path d="M84.6978 22.5842C84.6978 22.5842 85.5088 25.1358 84.6978 26.119C84.6978 26.119 85.5402 27.8866 87.0546 27.9651C88.8042 28.0552 89.411 26.119 89.411 26.119C89.411 26.119 88.4859 23.6544 89.411 22.7884L84.6978 22.5842Z" fill="#EF6E4B"/>
<path d="M82.6758 20.0725C82.6758 20.0725 80.9686 16.7865 81.3065 13.2748C81.6444 9.76348 86.9355 8.95827 90.501 10.6836C90.501 10.6836 89.4425 9.64862 89.8569 9.36088C90.2712 9.07353 90.9851 10.9137 90.9851 10.9137C90.9851 10.9137 92.1114 10.5687 92.2839 10.9137C92.4564 11.259 91.1302 11.4476 91.1302 11.4476C91.1302 11.4476 93.4309 12.7236 91.2815 19.5146L82.6758 20.0725Z" fill="#8B383E"/>
<path d="M82.4184 17.9916C82.4184 17.9916 81.1456 16.7215 80.9887 18.2065C80.8072 19.9271 82.3698 20.6201 82.6752 20.0729C82.9806 19.5252 82.4184 17.9916 82.4184 17.9916Z" fill="#FF8B66"/>
<path d="M91.3325 18.0814C91.3325 18.0814 92.6054 16.8108 92.7622 18.2962C92.9437 20.0168 91.3811 20.7099 91.0757 20.1626C90.7704 19.615 91.3325 18.0814 91.3325 18.0814Z" fill="#FF8B66"/>
<path d="M86.7412 24.2232C83.9167 24.2232 82.3228 22.3783 82.3228 16.8449C82.3228 13.9906 83.7748 12.2399 86.9388 12.2399C90.1024 12.2399 91.4349 13.9906 91.4349 16.8449C91.4349 22.7907 89.659 24.2232 86.7412 24.2232Z" fill="#FF8B66"/>
<path d="M90.4998 18.8184C90.5496 19.1022 90.3018 19.3825 89.9467 19.4444C89.5915 19.5064 89.2638 19.3264 89.2144 19.0426C89.1646 18.7588 89.4123 18.4785 89.7675 18.4166C90.1223 18.3546 90.4504 18.5346 90.4998 18.8184Z" fill="#DB614D"/>
<path d="M84.6899 18.9732C84.6711 19.261 84.3645 19.475 84.0047 19.4515C83.6452 19.428 83.3688 19.1759 83.3876 18.8882C83.4064 18.6008 83.713 18.3864 84.0729 18.4099C84.4324 18.4334 84.7087 18.6855 84.6899 18.9732Z" fill="#DB614D"/>
<path d="M89.2076 15.9472C89.1703 15.9472 89.1335 15.9327 89.1056 15.9037C88.714 15.4933 88.0288 15.5109 88.0186 15.5109C87.9421 15.5113 87.8755 15.4521 87.8731 15.3741C87.8704 15.2961 87.9315 15.231 88.0096 15.2287C88.0397 15.2267 88.8324 15.2083 89.3095 15.7089C89.3632 15.7653 89.3612 15.8547 89.3052 15.9084C89.2777 15.9347 89.2425 15.9472 89.2076 15.9472Z" fill="#8B383E"/>
<path d="M83.8895 15.9473C83.8546 15.9473 83.8197 15.9347 83.7923 15.9084C83.7358 15.8547 83.7339 15.7654 83.7872 15.7089C84.2647 15.2079 85.0562 15.2271 85.0871 15.2287C85.1652 15.2314 85.2259 15.2965 85.2236 15.3741C85.2212 15.4521 85.153 15.5121 85.0781 15.5109C85.073 15.5098 84.3788 15.4968 83.9918 15.9037C83.9636 15.9327 83.9268 15.9473 83.8895 15.9473Z" fill="#8B383E"/>
<path d="M88.9635 17.4459C88.9635 17.7968 88.8055 18.081 88.6106 18.081C88.4158 18.081 88.2578 17.7964 88.2578 17.4459C88.2578 17.0951 88.4158 16.8109 88.6106 16.8109C88.8059 16.8109 88.9635 17.0951 88.9635 17.4459Z" fill="#1A4850"/>
<path d="M85.1915 17.4459C85.1915 17.7968 85.0335 18.081 84.8387 18.081C84.6438 18.081 84.4858 17.7968 84.4858 17.4459C84.4858 17.0951 84.6438 16.8109 84.8387 16.8109C85.0335 16.8109 85.1915 17.0955 85.1915 17.4459Z" fill="#1A4850"/>
<path d="M85.1919 21.1987C85.1919 21.1987 87.6828 21.5194 88.9639 20.9043C88.9639 20.9043 88.2395 22.6002 86.8792 22.4481C85.5184 22.2964 85.1919 21.1987 85.1919 21.1987Z" fill="#1A4850"/>
<path d="M91.1406 18.7082C91.1406 18.7082 91.0524 15.6363 89.8564 13.2752C89.8564 13.2752 87.7481 14.2498 87.2839 14.0196C86.8198 13.7895 87.7261 13.2752 87.7261 13.2752C87.7261 13.2752 84.2473 14.4222 84.0384 14.1921C83.8294 13.962 85.1913 13.2752 85.1913 13.2752L83.0242 14.0196C83.0242 14.0196 82.3562 16.7834 82.6326 18.7086C82.6326 18.7086 81.7015 17.1017 81.5863 15.9919C81.471 14.8821 81.9591 11.7193 85.2231 11.4891C88.4874 11.259 90.3205 11.9999 91.1293 13.4986C91.9384 14.9969 91.838 16.8406 91.1406 18.7082Z" fill="#8B383E"/>
<path d="M87.2336 20.3112C86.9592 20.3116 86.6805 20.2402 86.5962 20.2167L86.6762 19.9278C86.9725 20.0097 87.4375 20.0583 87.539 19.9388C87.5739 19.8972 87.5602 19.8008 87.5002 19.6741C87.0921 18.8058 87.007 16.6078 87.0035 16.5149L87.3038 16.5039C87.3046 16.5262 87.3896 18.7337 87.7719 19.5464C87.8887 19.7941 87.8871 19.9913 87.7683 20.1324C87.6523 20.2696 87.4441 20.3112 87.2336 20.3112Z" fill="#DB614D"/>
<path d="M90.3589 24.5369C90.3589 24.5369 95.4708 40.4059 95.9577 53.3179C95.9577 53.3179 97.803 53.8256 99.8803 50.9967C101.958 48.1675 100.722 25.7588 96.7422 22.0275C96.7422 22.0275 94.9361 21.6159 90.3589 24.5369Z" fill="#105E99"/>
<path d="M91.1916 27.312C91.1916 27.312 92.1065 25.1861 91.7 23.7281C91.2935 22.2702 89.856 23.7281 89.856 23.7281C89.856 23.7281 90.4369 26.1152 91.1916 27.312Z" fill="#0C476B"/>
<path d="M80.9317 23.3866C77.1596 21.7625 64.9729 17.4459 64.9729 17.4459C64.9729 17.4459 56.7596 6.88253 55.0888 5.35953C55.0888 5.35953 53.0213 6.52932 52.8813 8.95044C52.8813 8.95044 58.0407 19.5389 60.9084 22.7727C63.776 26.0065 78.2992 33.0006 78.2992 33.0006L80.9317 23.3866Z" fill="#0C476B"/>
<path d="M83.8984 24.5369C83.8984 24.5369 78.7865 40.4059 78.2996 53.3179C78.2996 53.3179 76.4543 53.8256 74.377 50.9967C72.2997 48.1675 73.5353 25.7588 77.5151 22.0275C77.5151 22.0275 79.3208 21.6159 83.8984 24.5369Z" fill="#105E99"/>
<path d="M83.0642 27.312C83.0642 27.312 82.1493 25.1861 82.5558 23.7281C82.9623 22.2702 84.3999 23.7281 84.3999 23.7281C84.3999 23.7281 83.8193 26.1152 83.0642 27.312Z" fill="#0C476B"/>
<path d="M109.743 124.045H99.5927C98.8831 120.011 100.015 115.972 100.015 115.972L104.654 115.175C105.077 117.725 105.586 118.731 106.291 119.249C106.295 119.249 106.295 119.249 106.295 119.249C106.809 119.623 107.423 119.745 108.189 120.011C109.064 120.315 109.525 120.868 109.756 121.469C110.213 122.661 109.743 124.045 109.743 124.045Z" fill="#662C33"/>
<path d="M109.756 121.469C107.253 121.782 101.756 122.317 102.091 120.868C102.37 119.658 104.689 119.332 106.291 119.249C106.295 119.249 106.295 119.249 106.295 119.249C106.809 119.623 107.422 119.745 108.189 120.011C109.063 120.315 109.525 120.868 109.756 121.469Z" fill="#8B383E"/>
<path d="M75.7496 124.045H65.5997C65.5997 124.045 65.2775 123.097 65.4257 122.091C65.5476 121.273 65.9827 120.415 67.1537 120.011C68.033 119.706 68.7077 119.593 69.2604 119.075C69.861 118.509 70.3095 117.464 70.6882 115.175L75.3278 115.972C75.3278 115.972 76.4548 120.011 75.7496 124.045Z" fill="#662C33"/>
<path d="M65.4258 122.091C65.5477 121.273 65.9828 120.415 67.1538 120.011C68.0331 119.706 68.7078 119.593 69.2605 119.075C70.5444 119.471 72.3422 120.198 72.8993 121.299C73.6739 122.809 67.7415 122.57 65.4258 122.091Z" fill="#8B383E"/>
<path d="M148.619 123.318C148.619 123.745 148.575 124.045 148.575 124.045H136.245C136.245 123.801 136.249 123.558 136.262 123.318C136.402 120.093 137.42 117.295 137.42 117.295L140.502 115.971C140.767 117.56 141.45 118.574 142.308 119.236C142.534 119.414 142.77 119.562 143.013 119.689C143.127 119.75 143.24 119.806 143.357 119.858C143.614 119.976 143.879 120.072 144.145 120.15C145.233 120.481 146.335 120.55 147.105 120.668C148.419 120.872 148.619 122.391 148.619 123.318Z" fill="#164353"/>
<path d="M148.619 123.318C148.619 123.745 148.575 124.045 148.575 124.045H136.245C136.245 123.801 136.249 123.558 136.262 123.318H148.619Z" fill="#225866"/>
<path d="M143.013 119.688L141.302 120.237L140.941 119.61L142.308 119.236C142.534 119.414 142.769 119.562 143.013 119.688Z" fill="#225866"/>
<path d="M144.144 120.15L142.991 120.916L142.281 120.637L143.356 119.858C143.613 119.976 143.879 120.071 144.144 120.15Z" fill="#225866"/>
<path d="M101.508 123.318C101.477 123.736 101.368 124.045 101.368 124.045H93.1556C93.0513 123.806 92.9772 123.567 92.9247 123.318C92.1152 119.388 97.5729 114.579 97.5729 114.579L99.3052 116.89C99.3052 116.89 99.1049 120.59 100.572 121.36C101.451 121.821 101.564 122.692 101.508 123.318Z" fill="#164353"/>
<path d="M92.9248 123.318H101.508C101.477 123.736 101.369 124.045 101.369 124.045H93.1557C93.051 123.806 92.9769 123.566 92.9248 123.318Z" fill="#225866"/>
<path d="M100.197 121.065C100.197 121.065 96.7362 120.276 95.1587 121.297V120.726C95.1587 120.726 98.0691 119.312 100.197 121.065Z" fill="#225866"/>
<path d="M99.5108 120.187C99.5108 120.187 97.3014 119.177 95.1582 120.187L95.4028 119.611C95.4028 119.611 97.9627 118.643 99.5108 120.187Z" fill="#225866"/>
<path d="M144.897 88.3767C144.902 91.6803 141.968 118.613 141.968 118.613C139.035 118.905 136.685 118.317 136.685 118.317C135.879 104.668 135.801 92.9296 135.801 92.9296L121.743 82.3925L121.708 82.3662C121.708 82.3662 121.656 82.6058 121.56 83.0323C120.863 86.1226 117.917 99.0667 116.689 102.031C115.292 105.408 100.016 119.611 100.016 119.611C97.1778 119.22 94.77 117.164 94.77 117.164C100.254 108.068 107.731 98.9452 107.731 98.9452C108.315 95.6679 108.733 88.3775 108.981 82.9284C108.985 82.8457 108.989 82.7587 108.994 82.6759C109.159 78.9851 109.242 76.1993 109.242 76.1993L106.665 70.9153L123.035 64.9001L126.704 69.5965C126.704 69.5965 127.544 70.3755 128.867 71.6205C128.928 71.677 128.989 71.7338 129.05 71.7903C133.964 76.4252 144.897 86.8968 144.897 88.3767Z" fill="#8BBDDB"/>
<path d="M108.981 82.9276C108.986 82.8449 108.99 82.7578 108.994 82.6751C112.441 80.8036 111.863 77.8176 111.854 77.7874L112.067 77.7439C112.076 77.7741 112.694 80.982 108.981 82.9276Z" fill="#6097B2"/>
<path d="M121.49 80.2811C121.608 80.9338 121.695 81.639 121.743 82.3921L121.708 82.3659C121.708 82.3659 121.655 82.6054 121.559 83.0319C121.407 77.9133 119.296 74.8884 119.27 74.8536L119.448 74.7273C119.47 74.7536 120.802 76.6772 121.446 80.0329C123.936 77.8219 121.498 73.2909 121.472 73.2474L121.664 73.1432C121.69 73.191 124.271 77.9874 121.49 80.2811Z" fill="#6097B2"/>
<path d="M129.051 71.7895C129.046 71.7938 129.038 71.7938 129.033 71.7981C128.933 71.8373 128.816 71.8546 128.694 71.8546C127.488 71.8546 125.464 70.1658 125.369 70.083L125.512 69.9176C126.17 70.4747 128.002 71.8111 128.868 71.6194C128.929 71.6766 128.99 71.7331 129.051 71.7895Z" fill="#6097B2"/>
<path d="M107.812 42.7407C107.812 42.7407 112.791 41.9394 115.286 43.5298C117.781 45.1203 121.057 49.2714 121.057 49.2714C121.057 49.2714 117.168 49.7849 116.727 52.4268C116.727 52.4268 113.902 45.6989 107.812 42.7407Z" fill="#ADBEC4"/>
<path d="M100.321 45.3378C98.2142 46.4767 94.6935 50.7517 94.5343 53.3805C94.3791 55.9448 96.2788 58.3032 97.5592 60.308C101.555 66.5642 105.762 72.0921 107.55 79.43C107.562 79.4766 116.69 83.0989 127.404 70.221C127.404 70.221 121.35 62.076 119.259 55.1415C118.408 52.319 117.541 49.3204 115.906 46.8326C114.105 44.0924 111.02 42.4804 107.812 42.7403C105.096 42.961 102.396 44.2159 100.321 45.3378Z" fill="#CFD8DC"/>
<path d="M99.437 42.7137C99.437 42.7137 100.784 45.0156 100.162 46.2815C100.162 46.2815 104.785 47.8774 104.785 45.2908C104.785 45.2908 103.914 43.3523 104.242 42.099L99.437 42.7137Z" fill="#EF6E4B"/>
<path d="M109.709 58.4765C109.709 58.4765 107.138 59.2068 106.489 60.1171C105.84 61.0274 105.263 63.0694 105.263 63.0694H109.709L110.546 61.5311L111.524 59.4809L109.709 58.4765Z" fill="#EF6E4B"/>
<path d="M105.458 40.1467C105.458 40.1467 107.264 39.3893 106.096 33.9595C105.322 30.3615 104.207 29.8252 103.487 29.7934C103.487 29.7934 102.606 28.4657 99.5491 29.1011C97.4557 29.5367 95.7853 30.808 95.0499 33.1605C94.2823 35.6161 95.8175 40.8798 97.8391 41.4035L105.458 40.1467Z" fill="#164353"/>
<path d="M105.886 36.4774C105.886 36.4774 107.023 34.8937 107.453 36.4547C107.951 38.2631 106.401 39.2804 105.978 38.7488C105.555 38.2172 105.886 36.4774 105.886 36.4774Z" fill="#FF8B66"/>
<path d="M96.3653 38.1463C96.3653 38.1463 94.7792 37.0121 94.8737 38.6285C94.9831 40.5007 96.7769 40.9665 97.0071 40.3271C97.2376 39.6877 96.3653 38.1463 96.3653 38.1463Z" fill="#FF8B66"/>
<path d="M102.361 43.9066C105.383 43.4079 106.763 41.153 105.786 35.2335C105.282 32.1801 103.42 30.5634 100.036 31.122C96.6512 31.6802 95.5347 33.7881 96.0385 36.842C97.0875 43.2025 99.2397 44.4217 102.361 43.9066Z" fill="#FF8B66"/>
<path d="M97.3867 38.788C97.384 39.1004 97.6984 39.3568 98.0892 39.3603C98.4801 39.3639 98.7992 39.1134 98.8019 38.8009C98.8047 38.4885 98.4903 38.2321 98.0994 38.2286C97.709 38.2254 97.3899 38.4755 97.3867 38.788Z" fill="#DB614D"/>
<path d="M103.629 37.9283C103.7 38.2325 104.066 38.4073 104.447 38.3191C104.827 38.2305 105.078 37.9122 105.008 37.6076C104.937 37.3034 104.571 37.1282 104.19 37.2168C103.81 37.3054 103.558 37.6237 103.629 37.9283Z" fill="#DB614D"/>
<path d="M98.2376 35.4907C98.2078 35.4907 98.1776 35.4821 98.1513 35.464C98.0815 35.4166 98.0635 35.3213 98.1109 35.2516C98.5335 34.6318 99.3815 34.513 99.4176 34.5079C99.5065 34.4981 99.5779 34.5561 99.5893 34.6392C99.6002 34.7231 99.5418 34.7999 99.4579 34.8113C99.4501 34.8121 98.708 34.9183 98.3642 35.4236C98.3344 35.4676 98.2862 35.4907 98.2376 35.4907Z" fill="#1A4850"/>
<path d="M103.926 34.5522C103.894 34.5522 103.862 34.5424 103.834 34.5212C103.345 34.1519 102.61 34.2911 102.603 34.2926C102.519 34.3111 102.44 34.2554 102.423 34.1723C102.406 34.0896 102.46 34.0088 102.543 33.9923C102.579 33.9857 103.42 33.825 104.018 34.2766C104.086 34.3275 104.099 34.4236 104.049 34.491C104.018 34.531 103.973 34.5522 103.926 34.5522Z" fill="#1A4850"/>
<path d="M98.7879 37.0486C98.8498 37.4238 99.069 37.7005 99.2775 37.666C99.4861 37.6315 99.6049 37.2995 99.5429 36.9243C99.481 36.5492 99.2619 36.2728 99.0533 36.3073C98.8447 36.3414 98.726 36.6734 98.7879 37.0486Z" fill="#1A4850"/>
<path d="M102.823 36.3829C102.885 36.7581 103.104 37.0345 103.312 37C103.521 36.9655 103.64 36.6334 103.578 36.2583C103.516 35.8831 103.297 35.6067 103.088 35.6412C102.879 35.6757 102.761 36.0078 102.823 36.3829Z" fill="#1A4850"/>
<path d="M103.955 39.79C103.955 39.79 101.334 40.4933 99.8804 40.2138C99.8804 40.2138 100.885 41.4792 102.32 41.1143C103.754 40.7497 103.955 39.79 103.955 39.79Z" fill="#1A4850"/>
<path d="M104.08 32.4866C104.08 32.4866 100.669 34.956 96.3884 35.1441L96.5096 38.955C96.5096 38.955 92.5196 31.603 100.411 30.3011C108.303 28.9992 106.006 37.2109 106.006 37.2109C106.006 37.2109 105.761 33.6689 104.08 32.4866Z" fill="#0E3944"/>
<path d="M101.29 38.766L101.268 38.4367C101.273 38.4363 101.728 38.401 101.846 38.1192C101.895 38.0031 101.701 37.6331 101.53 37.3069C101.293 36.8533 100.997 36.2892 100.871 35.6624L101.195 35.5973C101.311 36.1779 101.594 36.7189 101.822 37.1536C102.076 37.6378 102.259 37.9874 102.15 38.247C101.953 38.7178 101.317 38.7644 101.29 38.766Z" fill="#DB614D"/>
<path d="M105.93 32.496C100.194 30.0063 94.779 35.1684 94.779 35.1684C94.779 35.1684 94.1478 30.9856 95.2533 30.0063C95.5407 29.7495 95.8496 29.5233 96.1718 29.323C98.7051 27.7255 102.074 27.7561 103.619 28.3045C103.936 28.4178 104.18 28.5527 104.32 28.6962C105.233 29.6448 105.93 32.496 105.93 32.496Z" fill="#CE364C"/>
<path d="M105.233 31.5642C105.233 31.5642 100.415 30.6112 95.9232 33.5839C95.9232 33.5839 95.6358 30.8852 96.1713 29.323C98.7046 27.7255 102.073 27.7561 103.618 28.3045C104.519 29.3316 105.233 31.5642 105.233 31.5642Z" fill="#CFD8DC"/>
<path d="M95.2529 34.6765C95.2529 34.6765 96.017 31.4325 97.046 30.5187C98.7576 28.9989 103.568 28.4767 106.096 29.3905C108.624 30.3043 106.096 33.0665 106.096 33.0665C106.096 33.0665 102.066 30.1804 95.2529 34.6765Z" fill="#A02E44"/>
<path d="M102.693 56.2325C102.693 56.2325 104.662 59.2824 108.015 61.0767C108.015 61.0767 112.211 57.4352 117.65 57.763C117.65 57.763 113.142 65.8966 109.27 66.7975C107.236 67.2707 99.8804 62.3998 99.8804 62.3998C99.8804 62.3998 101.349 57.2228 102.693 56.2325Z" fill="#FF8B66"/>
<path d="M95.4417 50.7031C97.2438 47.7696 101.401 52.1061 102.816 55.2031C104.23 58.3004 105.263 58.9571 105.263 58.9571C105.263 58.9571 101.109 60.6922 101.139 63.8056C101.139 63.8056 91.5093 57.1044 95.4417 50.7031Z" fill="#ADBEC4"/>
<path d="M108.016 59.7368C108.016 59.7368 110.546 57.2546 118.865 54.0149L117.791 50.6357C118.745 49.3796 120.5 49.3796 120.5 49.3796C120.5 49.3796 124.762 55.3987 124.028 57.1965C123.57 58.3197 114.68 59.4981 108.016 59.7368Z" fill="#EF6E4B"/>
<path d="M117.127 54.8255C117.127 54.8255 117.192 54.47 117.5 54.036C117.808 53.602 117.724 52.8121 117.835 52.5671C117.945 52.3225 118.599 51.3216 119.034 51.1272C119.468 50.9324 120.038 50.614 120.159 51.1656C120.28 51.7168 119.381 51.5608 118.977 52.3538C118.977 52.3538 119.861 52.068 120.562 52.2339C121.263 52.3997 121.461 53.0403 120.595 53.0191C119.904 53.0022 119.015 53.4946 119.015 53.4946C119.015 53.4946 119.915 53.6299 119.77 54.045C119.568 54.6185 118.471 54.2653 117.127 54.8255Z" fill="#FF8B66"/>
<path d="M55.5963 66.1577C56.34 68.0618 59.3864 71.3261 59.3864 71.3261C59.3864 71.3261 66.8285 66.8649 70.2619 68.7419C73.6952 70.6189 76.4236 71.764 78.6503 70.9466C80.877 70.1293 71.3289 52.7647 71.3289 52.7647L58.9497 48.0408C58.9497 48.0408 58.6796 51.1719 57.2652 51.7282C55.8508 52.2845 54.3426 57.4529 54.4438 58.4321C54.5445 59.4114 55.5963 66.1577 55.5963 66.1577Z" fill="#3E6575"/>
<path d="M69.5251 71.4394C69.5251 71.4394 66.3328 77.6969 59.7426 85.7106C59.7426 85.7106 59.0671 95.2402 41.6394 110.234L39.8149 108.799C39.8149 108.799 50.1937 92.5412 52.2695 87.5566C54.3456 82.5721 51.122 78.005 60.6724 65.3972L69.5251 71.4394Z" fill="#EF6E4B"/>
<path d="M59.3648 60.3668C56.6171 65.6305 55.6947 72.3599 55.6947 72.3599L54.4434 75.5168C54.4434 75.5168 58.8818 77.9105 64.0071 78.7812L66.0625 73.3407L59.3648 60.3668Z" fill="#662C33"/>
<path d="M73.6966 70.9467C73.6966 70.9467 75.0573 77.838 74.8331 88.2113C74.8331 88.2113 80.1951 96.1184 75.77 118.678H73.4488C73.4488 118.678 71.5526 99.4842 70.1017 94.2829C68.6509 89.082 63.2935 87.486 63.0034 71.6719L73.6966 70.9467Z" fill="#FF8B66"/>
<path d="M75.0573 78.3445C75.0573 78.3445 70.6918 79.1282 63.0011 78.7667L62.8792 77.9008L62.8486 77.6789L62.052 72.073C62.052 72.073 61.3123 71.1588 60.5506 69.6703C60.4592 69.4962 60.3722 69.3178 60.2852 69.1305C59.2491 66.9238 58.331 63.7159 59.3624 60.3692L60.9857 60.4433L61.2119 60.4562L66.6438 60.7043L66.8743 60.7173L68.6588 60.8L68.9371 60.8129L70.0947 60.8651C70.0947 60.8651 75.9794 66.1621 74.9303 75.9552L75.0044 77.3174L75.013 77.5393L75.0573 78.3445Z" fill="#8B383E"/>
<path d="M61.2125 60.4558C61.06 60.9043 60.0329 64.2294 60.5507 69.6699C60.4594 69.4958 60.3724 69.3175 60.2853 69.1301C59.898 64.1553 60.7903 61.0521 60.9859 60.4425C61.0121 60.3684 61.0251 60.3339 61.0251 60.3292L61.2297 60.4033C61.2297 60.408 61.2211 60.4256 61.2125 60.4558Z" fill="#662C33"/>
<path d="M75.0138 77.5394C73.4689 77.9353 70.8486 78.0443 68.3589 78.0443C66.1259 78.0443 64.0063 77.9529 62.8792 77.9008L62.8486 77.6789C64.8029 77.7746 69.9474 77.9749 73.2639 77.6135L73.0506 74.1096C73.1027 70.0227 71.8667 66.5322 70.6742 64.1209C67.6536 63.5724 66.8222 61.3352 66.6438 60.704C66.6175 60.604 66.6046 60.5429 66.6046 60.5386L66.8178 60.5037C66.8178 60.508 66.8351 60.5864 66.8743 60.7169C67.0703 61.3697 67.8798 63.3153 70.5479 63.8723C69.7427 62.3011 68.981 61.2262 68.6592 60.7997C68.5635 60.6691 68.5024 60.595 68.4981 60.5907L68.6635 60.4515C68.6721 60.4602 68.7725 60.5821 68.9375 60.8126C69.9474 62.1835 73.3552 67.3413 73.2682 74.1006L73.4814 77.5868C74.0604 77.517 74.5783 77.43 75.0048 77.3171L75.0138 77.5394Z" fill="#662C33"/>
<path d="M63.8933 36.7534C62.161 35.7992 49.6778 40.6948 49.6778 40.6948C49.6778 40.6948 47.831 43.9889 48.9824 45.2807C50.1338 46.5724 54.2182 46.0028 55.4696 45.2807C56.7209 44.5585 60.0354 44.0121 60.0354 44.0121L63.8933 36.7534Z" fill="#8BBDDB"/>
<path d="M74.9329 26.3613C74.9329 26.3613 77.5116 27.3566 78.4548 30.3274C79.398 33.2981 76.5782 40.8194 77.5528 44.2767C78.5274 47.7339 78.376 54.2626 75.3324 55.641C72.2887 57.0193 66.0466 54.5527 64.7066 50.7807C63.3663 47.0087 63.9449 32.7179 66.5209 27.858C69.0973 22.9973 74.3127 25.4451 74.9329 26.3613Z" fill="#F24052"/>
<path d="M71.9693 39.1788C72.6495 39.9118 74.3979 38.6052 74.3979 38.6052C74.3979 38.6052 74.3622 45.0881 72.4782 45.5852C70.5941 46.0823 65.7922 40.4783 65.9898 38.9553C66.1874 37.4315 70.4612 37.5527 71.9693 39.1788Z" fill="#8BBDDB"/>
<path d="M64.7066 37.5574C64.7066 37.5574 66.6126 39.1757 69.9327 39.9452C73.2531 40.7147 75.0525 39.1537 76.7503 41.2945C79.2989 44.5079 75.1524 50.4318 72.9708 53.5017C72.1574 54.646 70.4411 57.8206 70.0942 60.8658C70.0942 60.8658 64.333 62.5394 59.3649 60.3668L58.9941 53.299C58.9941 53.299 55.8626 43.7741 64.7066 37.5574Z" fill="#0E3944"/>
<path d="M70.6626 44.4335C70.6626 44.4335 73.295 38.16 74.0575 37.7593C74.82 37.3587 76.753 38.3203 77.1411 39.1785C77.5292 40.0366 77.1411 41.9085 77.1411 41.9085C77.1411 41.9085 75.065 39.5391 70.6626 44.4335Z" fill="#8BBDDB"/>
<path d="M83.271 70.9451C82.0741 73.3956 79.1359 74.1005 79.1359 74.1005C79.1359 74.1005 78.914 73.761 78.5397 73.1518C78.5005 73.091 78.4569 73.0212 78.4177 72.9515C76.1064 69.2041 69.0425 57.213 69.1817 50.9759C69.3428 43.5244 74.2043 39.4332 74.2043 39.4332C76.6721 40.0209 77.4514 40.6955 77.4514 40.6955C77.4514 40.6955 78.2829 44.9349 77.5212 50.0358C76.7595 55.1325 75.3753 56.4819 76.0719 56.8649C76.7638 57.2435 76.0719 58.0052 76.0719 58.0052C76.0719 58.0052 80.1673 63.7111 80.9337 65.487C81.43 66.6446 82.2744 68.6122 82.8009 69.8396C82.8358 69.9266 82.8707 70.0137 82.9052 70.0921C83.1271 70.6103 83.271 70.9451 83.271 70.9451Z" fill="#6097B2"/>
<path d="M76.157 40.6947C76.157 40.6947 73.2246 42.8685 74.9331 46.1897L83.0613 54.6044C78.6 59.3581 78.1578 61.3099 74.9331 63.5013L76.157 65.3972C76.157 65.3972 87.4511 56.717 87.468 54.6044C87.475 53.7 80.5692 42.7595 76.157 40.6947Z" fill="#FF8B66"/>
<path d="M74.7544 63.5021C74.7544 63.5021 73.2052 63.6738 72.2294 63.9181C71.2537 64.1619 69.953 64.4057 69.9122 64.6092C69.8714 64.8123 72.0667 64.6092 72.0667 64.6092C72.0667 64.6092 70.2779 65.3438 70.2376 65.6269C70.1972 65.9099 72.514 65.4222 72.514 65.4222C72.514 65.4222 71.0506 66.3164 71.1318 66.5603C71.2129 66.8041 73.0158 66.1945 73.0158 66.1945C73.0158 66.1945 72.6806 67.048 72.3329 67.4545C72.3329 67.4545 72.6822 67.6462 73.3906 66.8594C74.099 66.0722 75.2303 66.3251 76.1261 65.6269C77.0215 64.9283 75.5698 63.3971 74.7544 63.5021Z" fill="#FF8B66"/>
<path d="M66.4487 38.6014C66.4487 38.6014 64.2178 40.0428 62.8088 43.5248C61.3999 47.0067 56.954 53.559 55.9124 55.2521C54.8708 56.9448 55.5964 66.1577 55.5964 66.1577C55.5964 66.1577 54.2906 60.5722 53.7104 58.3957C53.1302 56.2196 55.5843 50.8419 55.9532 50.5565C56.322 50.2711 58.2081 50.7932 57.8454 48.6101C57.4828 46.4269 62.543 37.0184 63.8939 36.7534C63.8939 36.7534 66.0575 37.1599 66.4487 38.6014Z" fill="#6097B2"/>
<path d="M59.5504 39.0722C59.5112 39.1463 59.4677 39.2204 59.4156 39.2898C58.9106 40.0166 57.9706 40.5956 57.9706 40.5956C57.9706 40.5956 56.2688 42.9806 56.2516 43.2551C56.2343 43.4903 53.2961 45.6229 51.9907 45.5794H51.9864C51.808 45.575 51.6598 45.5272 51.5555 45.4312C50.7809 44.7 54.1931 38.563 54.9461 37.2399C54.994 37.1529 55.0332 37.0874 55.0594 37.0439C55.0767 37.009 55.09 36.9874 55.09 36.9874C55.09 36.9874 54.4894 34.7502 56.9964 35.168C59.0812 35.5118 59.4948 37.1701 59.7123 38.2799C59.7637 38.5457 59.6896 38.8154 59.5504 39.0722Z" fill="#6097B2"/>
<path d="M50.796 41.3914C52.5182 39.1275 58.578 34.7368 61.7699 33.4373L62.5676 34.9207C62.5676 34.9207 56.4 40.3431 54.9511 42.6627C53.5021 44.9823 51.7071 45.9416 49.9924 45.1693C48.2773 44.3966 50.4338 41.8681 50.796 41.3914Z" fill="#FF8B66"/>
<path d="M58.9494 38.6069L58.6228 38.9812L58.4574 39.1725L57.9176 39.7908C57.9176 39.7908 56.5596 41.4361 56.6117 42.0974C56.6509 42.5718 54.035 44.6957 51.9894 45.5794C51.1579 45.9404 50.4182 46.0972 49.9874 45.8491C48.5075 44.996 48.8383 42.4326 49.6784 40.6959C50.4096 39.1812 53.6433 37.2269 54.4748 36.7483C54.5791 36.6828 54.6446 36.644 54.6661 36.635C54.6704 36.6307 54.6704 36.6307 54.6704 36.6307L54.9794 35.4295C54.9794 35.4295 56.1068 34.7505 56.9947 35.1684C56.9947 35.1684 55.0362 35.2512 55.3584 36.0129C55.6893 36.7785 58.4052 38.5806 58.9494 38.6069Z" fill="#8BBDDB"/>
<path d="M66.0613 32.3262C64.0898 33.1357 64.3725 34.9202 62.5664 34.9202C61.448 34.9202 61.2998 33.6407 61.2998 33.6407C61.8047 32.5481 62.1266 30.6852 62.1964 29.7973C62.2705 28.9094 62.5664 29.2532 62.5664 29.2532C62.5664 29.1704 62.5621 29.092 62.5578 29.0136C62.5315 28.4174 62.4229 27.9822 62.8146 28.239C63.2583 28.5264 63.4108 30.2152 63.4108 30.2152C63.7766 27.7517 63.2325 27.386 63.659 27.6035C64.2423 27.8995 64.2466 30.0756 64.2466 30.1411C64.7167 28.709 64.5904 27.8909 64.917 28.2174C65.2478 28.5483 64.7516 31.1772 64.5559 32.1435C64.5124 32.3611 64.4818 32.496 64.4818 32.496C66.044 31.7296 66.0613 32.3262 66.0613 32.3262Z" fill="#FF8B66"/>
<path d="M64.555 32.1431C64.5115 32.3607 64.4809 32.4956 64.4809 32.4956C64.4809 32.4956 63.7584 32.4258 63.2319 33.2051C63.2319 33.2051 63.3797 32.1608 64.555 32.1431Z" fill="#EF6E4B"/>
<path d="M62.6748 31.0203C62.6878 30.8114 62.7748 29.6146 62.5662 29.2531C62.5662 29.1704 62.5619 29.092 62.5576 29.0136C63.01 29.1096 62.723 30.7679 62.6748 31.0203Z" fill="#EF6E4B"/>
<path d="M63.8979 41.4039C63.8979 41.4039 65.2304 37.7926 65.6542 36.9866C66.0784 36.1803 68.2858 36.3186 69.9566 36.6303C71.6274 36.942 71.9689 39.1788 71.9689 39.1788C71.9689 39.1788 66.8859 36.7801 63.8979 41.4039Z" fill="#8BBDDB"/>
<path d="M72.4782 34.2965C72.4782 34.2965 70.8819 37.2441 70.907 40.5128C70.907 40.5128 68.3141 42.275 67.3862 40.0679C67.3862 40.0679 68.371 37.1763 67.8951 33.273C67.5767 30.659 72.4782 34.2965 72.4782 34.2965Z" fill="#EF6E4B"/>
<path d="M67.3864 30.2067C67.3864 30.2067 66.912 28.5171 66.0676 29.7049C65.0895 31.0809 66.0864 32.4185 66.6082 32.0994C67.13 31.7803 67.3864 30.2067 67.3864 30.2067Z" fill="#FF8B66"/>
<path d="M74.9234 34.551C74.9234 34.551 76.6142 34.0806 76.0363 35.4182C75.3668 36.9679 73.7061 36.8091 73.7085 36.1975C73.7109 35.5864 74.9234 34.551 74.9234 34.551Z" fill="#FF8B66"/>
<path d="M68.0779 37.5759C65.676 36.2234 65.204 33.8913 67.8537 29.1858C69.2203 26.7588 71.2937 25.9654 73.9837 27.4801C76.6742 28.9953 76.9686 31.1216 75.602 33.549C72.7547 38.6049 70.559 38.973 68.0779 37.5759Z" fill="#FF8B66"/>
<path d="M73.8617 34.7792C73.768 35.0442 73.423 35.1641 73.0913 35.0469C72.7597 34.9297 72.5672 34.6196 72.6609 34.3542C72.7546 34.0892 73.0996 33.9693 73.4312 34.0869C73.7629 34.2041 73.9554 34.5142 73.8617 34.7792Z" fill="#DB614D"/>
<path d="M68.8479 32.1292C68.6942 32.3648 68.3308 32.4 68.0364 32.2079C67.742 32.0159 67.6275 31.6689 67.7812 31.4337C67.9349 31.1981 68.2983 31.1628 68.5927 31.3549C68.8875 31.5466 69.0015 31.8936 68.8479 32.1292Z" fill="#DB614D"/>
<path d="M74.2059 31.7371C74.1444 31.7371 74.0883 31.6956 74.0726 31.6332C73.9366 31.0973 73.3427 30.7818 73.3368 30.779C73.2694 30.7437 73.2431 30.6606 73.2784 30.5932C73.3133 30.5258 73.396 30.4995 73.4642 30.5348C73.4932 30.5497 74.1738 30.9119 74.3396 31.5658C74.3584 31.6395 74.3137 31.7144 74.24 31.7332C74.2283 31.7355 74.2169 31.7371 74.2059 31.7371Z" fill="#1A4850"/>
<path d="M70.907 29.3904C70.8827 29.3904 70.8583 29.3842 70.836 29.3708C70.8301 29.3673 70.2515 29.0235 69.7234 29.1846C69.6501 29.207 69.5737 29.1658 69.5513 29.0929C69.5294 29.0204 69.5702 28.9431 69.6431 28.9208C70.2891 28.7228 70.9509 29.118 70.9787 29.1348C71.0438 29.174 71.0645 29.2587 71.025 29.3238C70.9991 29.3669 70.9536 29.3904 70.907 29.3904Z" fill="#1A4850"/>
<path d="M73.2131 32.8771C73.0449 33.1755 72.7744 33.3417 72.609 33.248C72.4432 33.1547 72.4451 32.8372 72.6129 32.5388C72.7807 32.2405 73.0516 32.0743 73.217 32.1676C73.3828 32.2613 73.3813 32.5784 73.2131 32.8771Z" fill="#1A4850"/>
<path d="M69.8454 31.0707C69.6776 31.369 69.4071 31.5352 69.2413 31.4415C69.0755 31.3482 69.0775 31.0311 69.2452 30.7327C69.413 30.4344 69.6835 30.2682 69.8493 30.3615C70.0152 30.4548 70.0132 30.7723 69.8454 31.0707Z" fill="#1A4850"/>
<path d="M68.6786 34.1331C68.6786 34.1331 70.0566 35.1845 71.0523 35.2167C71.0523 35.2167 69.9935 36.0791 69.2322 35.5197C68.4713 34.9603 68.6786 34.1331 68.6786 34.1331Z" fill="#1A4850"/>
<path d="M72.4888 32.2741C72.4888 32.2741 73.1211 31.6626 73.3802 31.8778C73.639 32.093 73.5037 32.8457 73.5037 32.8457L74.0572 32.8598L73.5998 32.6756C73.5998 32.6756 73.7472 31.8943 73.4625 31.7324C73.0572 31.5015 72.4888 32.2741 72.4888 32.2741Z" fill="#1A4850"/>
<path d="M70.1065 31.0507C70.1065 31.0507 70.3014 30.1929 69.9831 30.0831C69.6647 29.9734 69.0916 30.4795 69.0916 30.4795L68.7925 30.0134L69.1876 30.3093C69.1876 30.3093 69.7792 29.7782 70.0654 29.9373C70.4727 30.1643 70.1065 31.0507 70.1065 31.0507Z" fill="#1A4850"/>
<path d="M74.6219 28.4861C74.6219 28.4861 73.7615 27.2904 72.5732 28.2399C71.385 29.1894 68.7048 30.7089 67.3864 30.2067C66.0676 29.7049 70.2709 24.0872 73.9202 25.7321C77.5696 27.3775 77.241 32.7325 75.7231 34.435C74.2052 36.1376 74.9234 34.5515 74.9234 34.5515C74.9234 34.5515 75.0249 32.1358 75.5318 30.5352C76.0391 28.9342 74.6219 28.4861 74.6219 28.4861Z" fill="#F24052"/>
<path d="M70.5773 33.5855C70.5107 33.5855 70.4409 33.5764 70.3691 33.5584L70.4424 33.2703C70.6879 33.3326 70.8086 33.2271 70.8662 33.128C70.9482 32.9876 70.9368 32.8069 70.8717 32.7391C70.8337 32.6995 70.769 32.7038 70.6781 32.7512L70.5405 32.4878C70.8427 32.3294 71.0234 32.467 71.0869 32.5341C71.2504 32.7058 71.2665 33.0323 71.123 33.2777C71.0062 33.4773 70.8102 33.5855 70.5773 33.5855Z" fill="#DB614D"/>
<path d="M88.1674 54.2712C88.024 56.3823 82.8011 63.2548 81.9304 63.4983C81.7042 63.559 81.4733 63.6852 81.2557 63.8334C81.1644 63.8989 81.073 63.9683 80.986 64.0381C80.4897 64.4383 80.1157 64.8997 80.1157 64.8997C78.5923 64.7998 74.3138 62.8193 75.6894 62.3841C75.7721 62.3579 75.8635 62.31 75.9634 62.2406C76.0199 62.2014 76.081 62.1579 76.1418 62.1015C77.7608 60.7435 80.9119 55.2333 80.9339 54.8154C80.9511 54.3583 81.4952 54.2712 81.4952 54.2712C81.4952 54.2712 78.5225 49.9057 76.7988 49.3792C75.0751 48.8527 74.2048 46.768 74.2048 46.768C72.5031 39.5646 77.4519 40.6963 77.4519 40.6963C81.0993 42.8677 88.3109 52.1559 88.1674 54.2712Z" fill="#8BBDDB"/>
<path d="M81.2557 63.8335C81.1643 63.8989 81.073 63.9683 80.986 64.0381C78.6487 63.877 76.6902 62.728 75.9634 62.2407C76.0198 62.2015 76.081 62.158 76.1417 62.1015C76.9207 62.6103 78.9141 63.7464 81.2557 63.8335Z" fill="#3E6575"/>
<path d="M59.5497 39.0721C59.5105 39.1462 59.467 39.2203 59.4149 39.2897C59.0797 39.2768 58.7622 39.2376 58.4572 39.1721C56.9122 38.8589 55.724 37.9925 54.9446 37.2394C54.7663 37.0654 54.6095 36.8999 54.4746 36.7475C54.5789 36.682 54.6444 36.6432 54.6659 36.6342C54.7792 36.7604 54.9098 36.8996 55.0576 37.0434C55.8322 37.8051 57.038 38.6931 58.6222 38.9804C58.9186 39.0376 59.2275 39.0678 59.5497 39.0721Z" fill="#3E6575"/>
<path d="M82.9049 70.092C82.1868 71.3065 80.8594 72.773 78.5394 73.1517C78.5002 73.091 78.4567 73.0212 78.4175 72.9514C80.7982 72.5943 82.117 71.0493 82.8003 69.8395C82.8352 69.927 82.8701 70.0136 82.9049 70.092Z" fill="#3E6575"/>
<path d="M43.2939 109.695C43.2939 109.695 42.7498 110.231 42.1841 111.214C41.6184 112.198 42.2406 113.103 39.5031 115.384C39.5031 115.384 33.9799 112.15 31.4858 107.993C31.4858 107.993 31.5294 106.805 32.7348 106.527C33.3832 106.378 35.1677 107.214 36.8828 107.536C37.1266 107.58 37.3701 107.619 37.6096 107.636C37.9099 107.663 38.2059 107.667 38.4889 107.632C38.75 107.606 38.9981 107.549 39.2287 107.454H39.233C39.8163 107.214 40.2777 106.74 40.5168 105.909C40.5168 105.909 41.9834 106.744 41.0041 108.159C41.0041 108.159 42.7455 107.397 43.2939 109.695Z" fill="#CFD8DC"/>
<path d="M39.5026 115.384C39.5026 115.384 33.9794 112.15 31.4854 107.993C31.4854 107.993 32.4125 107.797 33.1785 109.173C33.9445 110.553 39.9511 113.682 39.5026 115.384Z" fill="#ADBEC4"/>
<path d="M39.5245 108.846C39.0764 109.556 39.085 108.245 38.4888 107.632C38.7499 107.605 38.998 107.549 39.2285 107.453H39.2328C39.4982 107.741 39.8769 108.293 39.5245 108.846Z" fill="#ADBEC4"/>
<path d="M37.7875 108.885C37.3132 109.334 37.1607 108.163 36.8823 107.536C37.1262 107.579 37.3696 107.619 37.6091 107.636C37.8875 108.015 38.1489 108.541 37.7875 108.885Z" fill="#ADBEC4"/>
<path d="M77.2727 124.045H69.4601C69.4601 124.045 69.1335 122.957 69.4601 121.76C69.5992 121.242 70.4088 120.759 71.1618 120.084C71.3708 119.897 71.5711 119.701 71.7581 119.479C71.9063 119.305 72.0411 119.114 72.154 118.909C72.2975 118.661 72.4108 118.391 72.4763 118.095C72.6025 117.504 72.5547 116.807 72.2152 115.971C72.2152 115.971 74.8747 115.414 75.8234 116.864C75.8234 116.864 75.9147 116.193 76.7591 116.642C76.7591 116.642 76.6372 117.987 76.8026 119.114C76.9681 120.237 78.0171 120.563 77.2727 124.045Z" fill="#CFD8DC"/>
<path d="M75.2398 119.34C75.17 119.419 75.0744 119.458 74.9787 119.458C74.896 119.458 74.8176 119.432 74.7478 119.379C74.3433 119.057 73.451 118.557 72.1538 118.909C72.2973 118.661 72.4106 118.391 72.4761 118.096C72.9982 117.904 73.9818 117.791 75.1963 118.827C75.3531 118.957 75.375 119.188 75.2398 119.34Z" fill="#ADBEC4"/>
<path d="M74.5829 120.637L74.5394 120.702C74.4351 120.864 74.2261 120.916 74.0607 120.82C73.5295 120.507 72.337 119.915 71.1621 120.085C71.3711 119.898 71.5714 119.702 71.7584 119.48C72.3374 119.345 73.4296 119.271 74.5049 120.163C74.644 120.28 74.6829 120.485 74.5829 120.637Z" fill="#ADBEC4"/>
</svg>
