<svg width="425" height="500" viewBox="0 0 423 590" fill="none" xmlns="http://www.w3.org/2000/svg">
<path d="M197.609 520.804C197.399 514.191 197.183 507.575 196.884 500.959C196.282 487.584 195.348 474.206 193.47 460.94C190.325 438.732 182.049 418.97 176.261 397.529C173.976 389.027 172.147 380.408 170.782 371.71C168.216 355.499 167.195 339.199 167.331 322.838C167.471 306.79 168.631 290.589 174.266 275.415C177.328 267.17 180.726 256.83 187.429 250.776C188.489 249.819 190.371 248.781 191.249 247.87C191.249 247.87 191.249 247.87 191.249 247.847C191.581 247.591 191.914 247.332 192.213 247.053C192.442 245.57 192.718 244.09 192.941 242.591C192.961 242.478 192.974 242.362 192.991 242.258C189.527 241.979 185.703 244.483 182.658 245.803C175.4 248.961 167.95 251.657 160.715 254.885C157.391 256.372 154.009 257.928 150.741 259.507C147.566 261.053 145.089 263.649 141.884 265.202C138.32 266.937 134.75 268.656 131.126 270.275C128.386 271.505 125.637 272.719 122.907 273.972C124.862 279.242 127.395 284.279 130.461 288.99C130.364 289.322 130.268 289.655 130.162 290.007C127.472 298.561 122.226 305.949 118.645 314.107C117.767 316.102 117.029 318.154 116.318 320.185C117.957 321.076 118.023 323.077 118.582 324.803C123.203 339.122 115.626 347.394 113.545 360.792C111.883 371.517 115.872 381.219 115.443 391.695C115.154 398.454 111.404 404.242 109.665 410.622C108.905 413.484 108.328 416.391 107.936 419.326C104.053 447.283 97.763 475.097 92.2906 502.831C90.9608 509.48 89.8404 516.652 88.1282 523.67C89.8936 545.121 90.123 567.063 89.9567 588.743H197.482C197.955 579.055 198.307 569.357 198.337 559.656C198.377 546.593 198.024 533.817 197.609 520.804ZM173.871 483.266C172.318 479.798 174.36 475.167 178.392 474.884C180.247 474.754 181.385 474.821 182.95 476.031C186.275 478.624 184.875 482.867 182.555 485.616C180.234 488.366 175.104 486.005 173.871 483.266ZM186.345 548.026C184.041 550.756 178.884 548.415 177.661 545.676C176.108 542.205 178.15 537.577 182.176 537.294C184.034 537.165 185.185 537.231 186.737 538.441C190.065 541.035 188.659 545.277 186.345 548.026Z" fill="#190482"/>
<path d="M117.066 99.2954C117.303 99.4458 117.501 99.6499 117.644 99.891C117.788 100.132 117.872 100.404 117.891 100.684C117.911 100.964 117.864 101.244 117.754 101.503C117.645 101.761 117.476 101.99 117.262 102.171C116.195 103.039 114.971 103.169 113.675 102.992C111.886 102.746 110.017 102.63 108.235 102.54C106.121 102.437 103.997 102.424 101.879 102.354C100.343 102.298 97.6298 102.587 96.3964 101.463C94.8272 100.027 96.167 98.6272 97.8193 98.2847C99.3254 97.9789 100.891 98.2847 102.384 98.3546C103.471 98.3978 104.582 98.451 105.682 98.4909C108.033 98.5707 110.386 98.5308 112.737 98.554C114.177 98.574 115.796 98.4942 117.066 99.2954Z" fill="#FFBC3B"/>
<path d="M102.367 65.2077C104.362 65.334 104.223 67.535 103.003 68.5324C102.833 69.1973 101.782 69.3868 101.244 69.7891C100.439 70.3908 96.034 73.8019 95.3492 74.5333C94.7341 75.1983 93.9994 75.5307 93.2679 76.0427C92.3104 76.7276 89.1288 79.1546 88.1081 77.2695C87.8056 76.711 88.015 75.9796 88.3142 75.4809C88.9792 74.3804 90.2126 73.5858 91.3064 72.9974C92.3437 72.4488 93.5106 71.6974 94.2487 70.7765C94.9868 69.8556 99.4252 66.7869 100.28 66.122C100.878 65.6266 101.576 65.1512 102.367 65.2077Z" fill="#FFBC3B"/>
<path d="M102.364 135.581C102.427 135.854 102.424 136.139 102.356 136.411C102.288 136.683 102.157 136.936 101.974 137.148C101.79 137.36 101.559 137.527 101.3 137.633C101.04 137.74 100.759 137.784 100.479 137.761C99.1094 137.629 98.1519 136.861 97.3506 135.82C96.2535 134.39 95.0234 132.997 93.8065 131.674C92.3769 130.108 90.8775 128.609 89.428 127.066C88.3708 125.942 86.2397 124.247 86.1566 122.575C86.0468 120.45 87.9884 120.4 89.4014 121.321C90.688 122.156 91.579 123.485 92.5964 124.579C93.3411 125.381 94.0925 126.195 94.8439 127C96.4596 128.708 98.1685 130.324 99.8109 132.01C100.825 133.031 102.022 134.124 102.364 135.581Z" fill="#FFBC3B"/>
<path d="M80.0791 101.855C80.5679 104.917 77.0404 104.811 74.8096 104.681C75.4468 103.34 76.3454 102.14 77.4527 101.15C78.5498 100.2 79.8098 100.16 80.0791 101.855Z" fill="#FFBC3B"/>
<path d="M74.5405 142.499C74.5405 142.592 74.2246 142.453 74.0517 142.393C73.7193 142.29 73.3868 142.163 73.0543 142.034C72.386 141.736 71.6944 141.494 70.9864 141.309C67.3592 140.451 63.7487 139.154 60.2013 138.024H60.1015C60.1015 137.027 60.1514 135.979 60.1015 134.979C60.0583 134.337 59.8189 133.609 59.7957 132.921H59.8489C59.8489 133.253 66.3751 135.484 66.9869 135.67C69.3607 136.382 71.7777 136.851 73.9986 137.978C74.2812 138.121 74.6635 138.49 74.9361 138.393H75.0591C75.0689 139.78 74.9633 141.166 74.7433 142.536L74.5405 142.499Z" fill="#DEDEDE"/>
<path d="M74.0516 142.393C74.2245 142.452 74.5403 142.592 74.5403 142.499L74.7365 142.532C74.6799 142.891 74.6068 143.247 74.5237 143.599C74.261 144.673 74.0981 145.724 73.5529 146.695C73.3989 146.966 73.2302 147.229 73.0476 147.483L73.011 147.459C72.0502 147.074 71.0727 146.519 70.0587 146.186C66.9003 145.152 63.7086 143.766 60.6499 142.466H60.3175C60.3397 141.543 60.3052 140.619 60.2144 139.7C60.1448 139.143 60.1104 138.582 60.1113 138.021H60.2111C63.7585 139.151 67.3691 140.448 70.9962 141.306C71.7042 141.49 72.3958 141.733 73.0642 142.03C73.37 142.163 73.7258 142.29 74.0516 142.393Z" fill="#DEDEDE"/>
<path d="M64.2604 131.239H64.2139C63.9612 127.581 62.8176 124.071 62.2623 120.447C61.5708 115.899 61.1519 111.068 59.566 106.723C59.3091 106.028 59.0172 105.347 58.6917 104.681L59.4331 104.638C60.3264 104.539 61.2015 104.315 62.0329 103.973C62.9326 103.603 63.7506 103.06 64.44 102.374C65.1049 101.772 65.9394 101.207 66.4348 100.452L66.5977 100.193C67.7721 101.943 69.4787 103.268 71.465 103.973C72.2949 104.316 73.169 104.54 74.0615 104.638L74.8029 104.681C74.4743 105.345 74.1834 106.026 73.9318 106.723C72.3393 111.068 71.9371 115.899 71.2289 120.447C70.7302 123.725 69.5666 127.076 69.5267 130.404C69.5267 130.71 69.5732 131.022 69.5766 131.328C67.8012 131.342 66.0125 131.288 64.2604 131.239Z" fill="#FFBC3B"/>
<path d="M73.0111 147.446L73.0477 147.47C72.6316 148.057 72.1372 148.585 71.5782 149.039C70.2151 150.143 68.0408 150.295 66.3785 150.079C65.3895 149.932 64.4448 149.57 63.6103 149.02C62.7759 148.469 62.0719 147.742 61.5478 146.891C60.994 146.026 60.6167 145.06 60.4373 144.048C60.3574 143.521 60.3174 142.989 60.3176 142.456H60.6501C63.7088 143.756 66.9004 145.142 70.0588 146.176C71.0729 146.519 72.0403 147.074 73.0111 147.446Z" fill="#DEDEDE"/>
<path d="M67.8179 94.8169C67.8578 96.6455 67.5553 98.617 66.6044 100.206C65.7487 98.9362 65.1678 97.5014 64.8989 95.9938C64.6761 94.7737 64.6761 92.5329 65.9694 91.8181C67.2627 91.1033 67.8079 94.1287 67.8179 94.8169Z" fill="#FFBC3B"/>
<path d="M67.6052 51.663C68.0241 52.2083 67.5254 53.1492 67.5088 53.8207C67.4888 54.8181 67.4589 60.3969 67.6119 61.3876C67.7515 62.2786 67.5587 63.05 67.5221 63.9576C67.4689 65.1345 67.419 69.1307 65.3046 68.7783C64.6795 68.6753 64.2307 68.0569 64.0246 67.5149C63.5624 66.3147 63.6921 64.8552 63.9215 63.6151C64.1276 62.4615 64.254 61.0751 63.9847 59.9314C63.7287 58.8376 64.0445 53.3952 64.0279 52.3047C64.0279 51.55 64.0711 50.7089 64.5997 50.1171C65.9362 48.621 67.572 50.0938 67.6052 51.663Z" fill="#FFBC3B"/>
<path d="M64.2606 131.239C64.2606 131.285 64.2606 131.312 64.2207 131.358C64.2207 131.318 64.2207 131.278 64.2207 131.239H64.2606Z" fill="#8CC295"/>
<path d="M60.7795 131.155L60.3872 131.351L60.2908 131.056C59.8212 129.726 59.1998 128.456 58.439 127.269C56.5173 124.323 53.3057 122.947 50.6892 120.816C44.389 115.652 40.4759 107.5 40.0504 99.3118C39.3688 86.0698 49.4724 73.5525 63.0536 73.2466C68.9848 73.1103 75.6407 74.3836 80.4615 77.931C85.2305 81.3646 88.7441 86.2653 90.4654 91.8841C92.1866 97.5029 92.0208 103.531 89.9932 109.046C88.9896 111.848 87.5574 114.477 85.7476 116.839C83.806 119.379 80.9236 120.922 78.9388 123.339C77.1368 125.527 74.6167 127.734 74.3707 130.743L74.3374 131.076L74.1579 131.149C72.6552 131.282 71.1258 131.332 69.5832 131.341C69.5832 131.036 69.5333 130.723 69.5333 130.417C69.5599 127.093 70.7369 123.738 71.2356 120.46C71.9304 115.912 72.346 111.081 73.9385 106.736C74.1901 106.039 74.4809 105.358 74.8096 104.694C77.0404 104.824 80.5678 104.93 80.0791 101.868C79.8098 100.173 78.5498 100.206 77.4526 101.164C76.3454 102.153 75.4468 103.353 74.8096 104.694L74.0681 104.651C73.1757 104.553 72.3015 104.329 71.4716 103.986C69.4854 103.282 67.7788 101.956 66.6043 100.206C67.5552 98.617 67.8577 96.6455 67.8178 94.8169C67.8178 94.1287 67.2825 91.1 65.9693 91.8247C64.6561 92.5495 64.676 94.7803 64.8988 96.0005C65.1677 97.5081 65.7487 98.9428 66.6043 100.213L66.4414 100.472C65.9394 101.227 65.1115 101.802 64.4466 102.394C63.7572 103.08 62.9392 103.623 62.0396 103.993C61.2082 104.335 60.3331 104.559 59.4397 104.658L58.6983 104.701C58.0559 103.359 57.1516 102.158 56.0386 101.17C54.9415 100.219 53.6847 100.173 53.4121 101.875C52.9267 104.937 56.4508 104.831 58.685 104.701C59.0106 105.366 59.3024 106.048 59.5594 106.742C61.1453 111.088 61.5542 115.918 62.2557 120.467C62.8109 124.09 63.9546 127.615 64.2072 131.258C63.0636 131.205 61.8999 131.155 60.7795 131.155Z" fill="#FFBC3B"/>
<path d="M59.842 132.917H59.7888C59.757 132.626 59.7946 132.332 59.8987 132.058C60.0027 131.784 60.1701 131.538 60.3872 131.342L60.7795 131.145C61.8999 131.165 63.0503 131.202 64.2139 131.235C64.2139 131.275 64.2139 131.315 64.2139 131.355C64.2604 131.308 64.2405 131.282 64.2538 131.235C66.0059 131.285 67.7945 131.338 69.5732 131.325C71.1159 131.325 72.6452 131.265 74.1479 131.132L74.3275 131.059C75.0157 131.501 75.0522 132.509 75.0522 133.24C75.0522 134.237 74.9957 135.235 75.0157 136.232C75.0356 136.95 75.0456 137.675 75.0423 138.393H74.9192C74.64 138.49 74.2543 138.121 73.9817 137.978C71.7608 136.851 69.3272 136.382 66.97 135.67C66.3682 135.477 59.842 133.253 59.842 132.917Z" fill="#DEDEDE"/>
<path d="M56.0455 101.15C57.1585 102.138 58.0628 103.339 58.7052 104.681C56.471 104.811 52.9469 104.917 53.4323 101.855C53.6916 100.16 54.9483 100.2 56.0455 101.15Z" fill="#FFBC3B"/>
<path d="M41.8791 121.321C43.2954 120.4 45.2336 120.45 45.1273 122.575C45.0441 124.237 42.913 125.942 41.8558 127.066C40.4029 128.609 38.9068 130.108 37.4739 131.674C36.2671 133.004 35.027 134.39 33.9298 135.82C33.1319 136.861 32.1711 137.629 30.8047 137.761C30.5248 137.783 30.2437 137.739 29.984 137.633C29.7243 137.526 29.4933 137.36 29.3096 137.148C29.1258 136.936 28.9945 136.683 28.9262 136.411C28.8579 136.139 28.8545 135.854 28.9163 135.581C29.2487 134.124 30.4589 133.031 31.4729 132.01C33.1353 130.348 34.8242 128.708 36.44 127C37.1913 126.195 37.946 125.381 38.6874 124.579C39.7014 123.485 40.5958 122.156 41.8791 121.321Z" fill="#FFBC3B"/>
<path d="M38.8936 76.8042C40.0573 78.0243 40.3565 79.9427 38.2553 80.2253C36.593 80.4414 34.535 78.6594 33.2417 77.8282C31.4597 76.6812 29.711 75.4843 27.9223 74.3606C26.3996 73.4097 24.8038 72.4489 23.198 71.6344C22.031 71.0359 21.1001 70.228 20.7145 68.9082C20.6435 68.6383 20.6365 68.3556 20.6939 68.0825C20.7514 67.8094 20.8717 67.5534 21.0453 67.335C21.2189 67.1165 21.4411 66.9415 21.6941 66.8239C21.9472 66.7063 22.2242 66.6493 22.5031 66.6574C23.9992 66.7239 25.2958 67.7046 26.4927 68.5159C28.4409 69.8457 30.3493 71.2088 32.3274 72.4822C33.2517 73.0806 34.1926 73.6691 35.1135 74.2509C36.3669 75.0588 37.8364 75.6938 38.8936 76.8042Z" fill="#FFBC3B"/>
<path d="M33.4743 98.2847C35.1366 98.6172 36.4665 100.027 34.8973 101.463C33.6638 102.587 30.9542 102.298 29.4182 102.354C27.3004 102.424 25.176 102.437 23.0582 102.54C21.2662 102.63 19.4011 102.746 17.6224 102.992C16.3258 103.169 15.099 103.039 14.0284 102.171C13.8156 101.989 13.6484 101.76 13.5401 101.501C13.4318 101.243 13.3856 100.963 13.4049 100.683C13.4243 100.404 13.5088 100.133 13.6518 99.8916C13.7947 99.6506 13.992 99.4464 14.2279 99.2954C15.4979 98.4941 17.1204 98.5673 18.55 98.554C20.9005 98.5307 23.2543 98.5706 25.6049 98.4908C26.7053 98.4509 27.8091 98.3977 28.9029 98.3545C30.3924 98.2913 31.9583 97.9788 33.4743 98.2847Z" fill="#FFBC3B"/>
<path d="M224.881 226.985V226.769C234.589 226.436 245.926 220.784 254.271 214.308L254.444 214.527C254.091 217.333 254.257 220.419 254.048 222.935C253.636 227.873 253.383 232.976 253.755 237.95C247.987 238.282 242.408 239.778 236.441 239.299C229.584 238.691 222.848 237.115 216.433 234.618C210.947 232.484 206.07 228.943 201.402 225.422C198.224 223.015 195.717 220.149 192.991 217.264C192.505 216.752 191.993 216.073 191.451 215.382C194.62 217.161 197.848 218.849 201.129 220.568C205.152 222.676 209.458 224.072 213.85 225.269C217.447 226.268 221.149 226.844 224.881 226.985Z" fill="#E39476"/>
<path d="M182.95 476.031C186.275 478.624 184.875 482.866 182.555 485.616C180.234 488.365 175.094 486.005 173.871 483.265C172.318 479.798 174.359 475.167 178.392 474.884C180.247 474.754 181.394 474.821 182.95 476.031Z" fill="#37628F"/>
<path d="M351.663 588.727H263.699C263.822 575.248 263.998 561.674 262.798 548.312C261.801 537.075 261.186 525.788 261.488 514.504C261.738 505.235 261.003 495.836 261.315 486.5C261.648 476.054 263.909 465.668 264.338 455.179C264.67 447.356 266 439.789 267.662 432.142C269.561 423.369 269.441 414.329 271.838 405.578C274.265 396.742 276.825 387.958 278.587 378.905C280.183 370.673 281.164 362.371 282.849 354.179C286.676 335.611 286.769 316.824 283.737 298.119C282.853 292.66 282.474 287.228 281.12 281.828C278.461 271.269 273.657 260.976 265.411 253.639C262.363 250.926 258.187 249.613 255.211 247.089C254.932 245.613 254.61 244.147 254.34 242.651C254.316 242.538 254.296 242.427 254.281 242.318C257.732 241.929 261.635 244.313 264.72 245.537C272.074 248.462 279.608 250.919 286.939 253.918C290.313 255.294 293.737 256.744 297.039 258.22C300.26 259.663 302.834 262.183 306.069 263.633C309.686 265.255 313.313 266.858 316.983 268.364C324.793 271.569 332.689 274.66 340.01 278.906C349.724 284.558 358.857 290.177 366.607 298.521C373.832 306.331 379.573 316.637 384.58 325.97C390.119 336.296 394.295 347.843 398.038 358.927C398.943 361.613 400.272 364.32 400.798 367.102C401.795 372.342 402.128 377.808 402.925 383.107C403.823 389.091 404.642 395.094 405.382 401.113C406.895 413.338 408.125 425.599 409.186 437.871C410.539 453.52 410.369 469.265 412.048 484.891C413.687 500.185 419.658 513.929 422.238 528.946C423.901 538.687 421.962 548.458 421.327 558.203C420.995 563.449 422.913 568.509 422.85 573.739C422.79 578.766 421.444 583.68 421.304 588.723L351.663 588.727Z" fill="#190482"/>
<path d="M66.6013 308.658C66.076 306.175 65.7535 303.671 65.2714 301.141C64.7794 298.482 64.1776 295.822 63.5758 293.162C61.069 282.094 59.1807 271.788 62.6715 260.684C65.8067 250.71 71.2425 241.594 73.6229 231.38C75.2553 224.379 74.8663 217.344 74.6403 210.206C74.3543 201.458 74.8098 192.681 74.863 183.941C74.8996 177.817 74.1981 168.917 80.2556 165.2C81.9778 164.146 83.025 164.126 84.8636 164.957C90.1132 167.328 91.1006 175.091 91.3267 180.061C91.9617 193.981 91.4397 207.855 91.3832 221.789C91.3832 222.543 91.5228 223.009 91.5527 223.697C93.462 223.614 95.3718 223.848 97.2046 224.389C105.327 226.835 110.836 234.05 115.823 240.57C116.956 235.809 119.596 230.047 124.573 228.371C126.086 227.863 127.382 227.507 128.895 228.059C131.183 228.9 133.284 230.32 134.374 232.557C136.728 237.368 134.294 243.366 133.234 248.206C132.502 251.548 131.608 254.826 131.628 258.307C131.628 262.1 132.273 265.854 132.366 269.644C132.443 272.722 132.426 275.827 132.197 278.913C131.951 282.671 131.275 286.389 130.182 289.994C127.492 298.548 122.246 305.936 118.665 314.094C117.788 316.089 117.049 318.14 116.338 320.172C114.224 326.053 112.162 331.785 106.786 335.901C99.7114 341.333 90.2428 339.558 83.0516 335.329C79.1208 333.019 75.6577 329.994 72.8416 326.409C71.2757 324.414 70.7438 323.004 70.2949 320.597C69.7098 317.449 68.1838 314.44 67.2861 311.371C67.018 310.471 66.7897 309.567 66.6013 308.658Z" fill="#F5B49B"/>
<path d="M243.978 170.875C245.64 174.981 242.023 179.595 239.323 182.382C234.825 187.003 228.947 189.696 222.408 188.838C218.727 188.359 215.798 187.538 212.666 185.48C209.83 183.615 207.154 181.384 205.129 178.645C203.547 176.5 202.293 172.6 204.072 170.193C205.545 168.199 208.371 167.507 210.721 167.753C212.906 167.976 215.147 168.009 217.338 168.169C219.382 168.277 221.431 168.267 223.475 168.139C226.154 168.016 228.854 168.139 231.517 167.806C233.951 167.474 236.331 166.476 238.808 167.018C241.092 167.507 243.054 168.607 243.978 170.875Z" fill="white"/>
<path d="M139.836 138.752C139.461 136.093 139.171 133.433 138.839 130.81C138.507 127.927 138.254 124.968 137.36 122.166C135.564 116.54 132.087 111.643 130.175 106.064C129.277 103.444 128.765 101.061 128.802 98.278C128.848 95.2525 129.247 92.2504 129.51 89.2383C129.942 84.2014 130.996 79.2377 132.17 74.3272C133.722 67.8641 136.05 61.1816 135.351 54.4691C135.268 53.6911 135.169 52.9165 135.069 52.1418C134.427 47.0751 136.139 43.3216 138.457 38.9663C142.031 32.2372 147.363 26.0002 154.202 22.4095C161.716 18.4698 170.892 17.1366 178.745 13.7289C182.118 12.2563 185.366 10.5118 188.456 8.5125C189.723 7.69464 190.687 6.64073 192.02 5.9492C194.031 4.90859 196.159 4.0608 198.227 3.17312C200.728 2.09368 203.344 1.3007 206.023 0.809297C214.274 -0.61168 222.738 -0.157158 230.789 2.13916C238.535 4.36002 246.581 9.12092 248.499 17.5323C248.991 19.6999 250.614 19.4938 252.582 19.4938C258.4 18.164 264.644 19.4938 269.82 22.3331C277.354 26.4589 279.897 33.6369 283.95 40.6186C287.55 46.8257 292.594 52.0122 296.996 57.6242C302.604 64.7689 306.877 72.8345 305.487 82.1933C304.822 86.552 304.157 90.6446 304.303 95.0198C304.44 99.4715 302.309 104.512 301.208 108.777C300.487 111.54 300.211 114.536 299.14 117.142C296.55 123.369 296.128 129.935 296.424 136.565C296.444 137.047 296.464 137.529 296.494 138.014C296.555 139.789 296.506 141.565 296.348 143.334C296.296 144.593 296.072 145.839 295.683 147.037C295.304 148.081 294.429 149.697 293.159 149.873C289.007 150.488 289.805 138.43 289.741 136.209C289.532 128.895 288.235 120.686 284.016 114.482C281.825 111.264 280.482 107.191 279.585 103.408C278.587 99.2155 278.325 95.2658 278.328 90.9904C278.328 84.3411 278.817 77.6186 275.253 71.5678C271.994 66.0389 265.302 63.5886 259.195 63.1365C257.728 63.0267 256.798 63.1198 255.365 63.0334C245.484 62.4383 235.749 63.1198 226.563 66.9798C223.645 68.1668 220.512 68.733 217.364 68.6421C209.312 68.4958 201.695 65.2775 193.895 63.6551C190.161 62.8751 186.335 62.6288 182.532 62.9237C178.512 63.1996 174.479 63.449 171.138 66.0189C168.126 68.3462 166.068 71.6708 164.901 75.2581C164.122 77.7452 163.612 80.3088 163.382 82.9048C163.049 86.153 163.993 89.2449 163.714 92.4598C163.249 98.0652 162.218 103.431 159.505 108.418C158.8 109.715 158.318 111.101 157.726 112.444C157.188 113.661 156.377 114.555 155.652 115.659C154.063 118.076 152.301 120.423 151.197 123.12C148.687 129.274 150.269 136.016 150.359 142.403C150.399 145.023 150.359 147.872 148.653 150.023C146.875 152.244 144.498 151.629 142.802 149.634C141.03 147.559 140.834 144.919 140.388 142.353C140.195 141.129 140.003 139.949 139.836 138.752Z" fill="#1E244A"/>
<path d="M254.281 242.318C254.296 242.431 254.316 242.542 254.34 242.651C254.224 242.581 254.111 242.594 254.074 242.338C254.141 242.332 254.231 242.325 254.281 242.318Z" fill="#8CC295"/>
<path d="M257.35 129.423C257.802 131.751 257.044 134.247 255.757 136.192C254.324 138.353 251.169 138.633 248.822 137.988C243.582 136.551 242.039 130.341 245.703 126.441C247.661 124.36 250.979 122.88 253.719 124.33C255.405 125.221 256.99 127.571 257.35 129.423Z" fill="#2B1A0F"/>
<path d="M186.741 538.441C190.065 541.035 188.662 545.277 186.348 548.026C184.034 550.776 178.888 548.415 177.664 545.676C176.112 542.205 178.153 537.577 182.179 537.294C184.034 537.165 185.185 537.231 186.741 538.441Z" fill="#37628F"/>
<path d="M118.585 324.783C123.207 339.102 115.63 347.374 113.548 360.772C111.886 371.498 115.876 381.199 115.447 391.675C115.158 398.434 111.407 404.222 109.669 410.602C108.908 413.464 108.331 416.371 107.94 419.306C104.057 447.263 97.7663 475.077 92.294 502.811C90.9641 509.46 89.8437 516.632 88.1315 523.65C85.9605 532.55 82.8619 541.194 77.3164 548.166C64.1508 564.716 32.4969 571.139 15.7839 555.889C5.80992 546.783 1.96994 532.284 0.610164 519.318C-2.40862 490.557 6.26206 459.75 15.8803 432.984C19.2515 423.618 23.7996 414.728 27.2306 405.389C30.471 396.724 32.5937 387.681 33.5474 378.479C34.2124 371.887 35.7816 365.43 38.94 359.569C42.647 352.693 49.0569 347.75 51.321 340.06C54.3996 329.6 52.4215 317.479 63.0803 310.73C64.2738 309.975 65.6436 309.596 66.5778 308.662C66.7684 309.566 66.9901 310.467 67.2428 311.365C68.1404 314.433 69.6664 317.442 70.2516 320.591C70.7004 322.998 71.2323 324.404 72.7982 326.402C75.6143 329.987 79.0774 333.013 83.0082 335.322C90.1994 339.541 99.668 341.326 106.743 335.894C112.119 331.778 114.18 326.046 116.295 320.165C117.974 321.056 118.04 323.057 118.585 324.783Z" fill="#190482"/>
<path d="M191.172 242.864C191.172 242.628 191.172 242.398 191.172 242.165C191.423 237.466 191.43 232.756 191.192 228.056C191.052 225.705 190.826 223.361 190.477 221.037C190.328 220.04 190.012 219.069 189.836 218.132C189.676 217.254 189.919 215.901 189.307 215.176L189.742 214.425C190.301 214.757 190.866 215.07 191.435 215.392C191.977 216.084 192.489 216.762 192.974 217.274C195.7 220.15 198.207 223.015 201.392 225.422C206.046 228.943 210.937 232.484 216.423 234.618C222.838 237.115 229.574 238.691 236.43 239.3C242.415 239.778 247.977 238.302 253.745 237.95C253.805 238.811 253.885 239.665 253.991 240.513C254.064 241.121 254.157 241.72 254.264 242.318C254.197 242.318 254.124 242.318 254.058 242.345C254.094 242.601 254.207 242.588 254.324 242.657C254.593 244.154 254.915 245.62 255.195 247.096C255.618 249.124 255.798 251.196 255.73 253.266C255.499 257.182 254.467 261.009 252.698 264.51C249.247 271.442 243.213 277.187 235.972 280.003C234.545 280.558 233.132 281.197 231.686 281.702C229.012 282.599 226.191 282.978 223.375 282.819C220.552 282.637 217.755 282.171 215.026 281.429C210.571 280.243 206.854 279.026 203.058 276.25C197.349 272.061 192.927 265.943 191.145 259.048C190.459 256.631 190.385 254.081 190.929 251.627C191.164 250.39 191.275 249.133 191.262 247.874C191.258 246.188 191.142 244.526 191.172 242.864Z" fill="#F5B49B"/>
<path d="M263.54 103.182C264.654 104.994 263.623 106.942 261.621 107.238C259.753 107.517 257.928 106.703 256.206 106.104C255.421 105.828 254.577 105.502 253.782 105.31C252.785 105.067 251.824 105.376 250.83 105.346C247.964 105.256 245.43 106.36 242.754 107.211C242.043 107.434 241.132 107.517 240.427 107.105C237.977 105.695 239.895 103.298 241.371 101.985C242.309 101.117 243.411 100.446 244.613 100.01C246.275 99.3817 248.18 98.6802 249.932 98.4275C251.461 98.1618 253.018 98.0992 254.563 98.2413C257.682 98.5937 261.838 100.402 263.54 103.182Z" fill="#1E244A"/>
<path d="M200.225 103.182C201.342 104.994 200.308 106.942 198.304 107.238C196.435 107.517 194.617 106.703 192.894 106.104C192.11 105.828 191.265 105.503 190.467 105.31C189.47 105.067 188.509 105.376 187.512 105.346C184.646 105.257 182.116 106.36 179.436 107.211C178.731 107.434 177.82 107.517 177.109 107.105C174.659 105.695 176.574 103.298 178.05 101.985C178.989 101.117 180.092 100.445 181.295 100.01C182.957 99.3819 184.862 98.6804 186.614 98.4277C188.138 98.1668 189.689 98.1075 191.229 98.2515C194.351 98.5939 198.513 100.403 200.225 103.182Z" fill="#1E244A"/>
<path d="M195.002 129.423C195.454 131.751 194.696 134.247 193.407 136.192C191.974 138.353 188.819 138.633 186.471 137.988C181.235 136.551 179.692 130.341 183.353 126.441C185.314 124.36 188.629 122.88 191.368 124.33C193.057 125.221 194.643 127.571 195.002 129.423Z" fill="#2B1A0F"/>
<path d="M191.451 215.392C190.883 215.06 190.318 214.75 189.759 214.425C186.514 212.563 183.333 210.581 180.211 208.374C174.064 204.022 167.481 199.045 162.943 192.961C160.256 189.363 157.477 185.916 154.668 182.398C152.167 179.266 150.552 175.536 148.131 172.351C145.558 168.96 142.659 168.421 139.082 166.397C135.425 164.329 132.02 161.506 129.573 158.085C128.616 156.755 127.612 155.758 126.94 154.245C126.175 152.637 125.542 150.969 125.048 149.258C124.134 145.784 124.087 142.044 125.48 138.682C126.093 137.294 127.058 136.089 128.279 135.188C129.5 134.286 130.935 133.719 132.442 133.543C136.409 133.147 137.762 136.019 139.836 138.732C140.003 139.929 140.185 141.119 140.395 142.313C140.84 144.88 141.037 147.519 142.809 149.594C144.504 151.589 146.881 152.204 148.66 149.983C150.382 147.832 150.405 144.996 150.365 142.363C150.276 135.96 148.703 129.217 151.203 123.08C152.307 120.384 154.069 118.036 155.658 115.619C156.383 114.516 157.194 113.625 157.733 112.404C158.325 111.075 158.807 109.675 159.512 108.378C162.224 103.391 163.255 98.022 163.721 92.42C163.99 89.2051 163.056 86.1032 163.388 82.865C163.619 80.269 164.128 77.7054 164.907 75.2183C166.064 71.6443 168.122 68.2964 171.135 65.9924C174.476 63.4224 178.509 63.1731 182.528 62.8971C186.332 62.6023 190.158 62.8486 193.892 63.6286C201.691 65.2643 209.308 68.4825 217.36 68.6155C220.509 68.7064 223.642 68.1403 226.56 66.9532C235.749 63.0933 245.48 62.4117 255.361 63.0068C256.794 63.0933 257.725 63.0068 259.191 63.1099C265.299 63.5687 271.991 66.0123 275.249 71.5412C278.813 77.5921 278.334 84.3112 278.324 90.9638C278.324 95.2393 278.584 99.189 279.581 103.381C280.479 107.165 281.822 111.238 284.013 114.456C288.232 120.66 289.529 128.855 289.738 136.182C289.801 138.403 289.003 150.478 293.156 149.847C294.426 149.657 295.3 148.055 295.679 147.011C296.069 145.812 296.293 144.566 296.344 143.307C296.502 141.539 296.551 139.762 296.49 137.988C296.46 137.502 296.441 137.02 296.421 136.538H296.617C300.134 131.272 307.721 133.995 309.812 139.028C311.252 142.496 311.199 146.342 310.258 149.943C309.745 151.703 309.092 153.418 308.303 155.073C307.611 156.639 306.574 157.666 305.59 159.043C303.06 162.567 299.529 165.486 295.766 167.614C292.993 169.189 290.064 170.456 287.225 171.896L287.022 171.806C283.425 180.021 278.983 188.532 273.471 195.185C269.148 200.395 263.902 205.531 259.018 210.229C257.512 211.668 255.933 213.028 254.287 214.305C245.942 220.798 234.605 226.447 224.897 226.766V226.982C221.167 226.844 217.464 226.272 213.866 225.276C209.474 224.079 205.169 222.683 201.146 220.575C197.848 218.86 194.62 217.171 191.451 215.392ZM261.635 107.238C263.63 106.942 264.667 104.994 263.553 103.182C261.838 100.402 257.682 98.5939 254.547 98.2514C253.006 98.1072 251.454 98.1664 249.929 98.4276C248.18 98.6936 246.272 99.3818 244.609 100.01C243.408 100.446 242.306 101.117 241.368 101.985C239.892 103.298 237.973 105.695 240.424 107.105C241.142 107.517 242.053 107.437 242.751 107.211C245.41 106.36 247.961 105.256 250.826 105.346C251.824 105.376 252.791 105.067 253.779 105.31C254.573 105.502 255.418 105.828 256.202 106.104C257.941 106.703 259.766 107.517 261.635 107.238ZM255.757 136.192C257.043 134.247 257.801 131.757 257.349 129.423C256.99 127.572 255.404 125.221 253.719 124.33C250.979 122.88 247.661 124.36 245.703 126.441C242.046 130.331 243.582 136.551 248.822 137.988C251.169 138.633 254.324 138.353 255.757 136.192ZM239.313 182.382C242.023 179.596 245.63 174.981 243.968 170.875C243.043 168.608 241.082 167.507 238.804 167.012C236.328 166.473 233.947 167.484 231.513 167.8C228.854 168.132 226.151 168.016 223.471 168.132C221.428 168.26 219.379 168.27 217.334 168.162C215.143 168.003 212.902 167.969 210.718 167.747C208.351 167.501 205.525 168.192 204.069 170.187C202.29 172.594 203.543 176.504 205.126 178.638C207.15 181.378 209.827 183.608 212.663 185.474C215.795 187.532 218.724 188.353 222.404 188.831C228.937 189.669 234.815 187.01 239.313 182.382ZM198.304 107.245C200.298 106.949 201.342 105 200.225 103.189C198.513 100.409 194.351 98.6005 191.215 98.2581C189.676 98.1141 188.125 98.1734 186.601 98.4343C184.855 98.7003 182.944 99.3885 181.281 100.017C180.079 100.452 178.975 101.123 178.037 101.992C176.56 103.305 174.645 105.702 177.096 107.112C177.814 107.524 178.725 107.444 179.423 107.218C182.103 106.367 184.633 105.263 187.498 105.353C188.496 105.383 189.47 105.074 190.454 105.316C191.252 105.509 192.096 105.835 192.881 106.111C194.617 106.703 196.435 107.517 198.304 107.238V107.245ZM193.406 136.199C194.696 134.254 195.454 131.764 195.002 129.43C194.643 127.578 193.054 125.228 191.368 124.337C188.629 122.887 185.314 124.367 183.353 126.448C179.696 130.338 181.235 136.558 186.471 137.994C188.818 138.633 191.973 138.353 193.406 136.192V136.199Z" fill="#F5B49B"/>
<path d="M56.4144 85.5845C54.7022 86.3059 52.8503 87.679 52.5245 89.1784C52.345 89.9896 52.5944 90.8408 52.3816 91.6553C52.0225 92.9852 50.573 93.6501 49.5357 94.581C48.6735 95.3743 48.0652 96.4049 47.7871 97.543C47.5091 98.6812 47.5738 99.8761 47.9731 100.978C48.638 102.72 50.1408 104.149 50.3369 106.004C50.5031 107.577 49.7485 109.429 50.8123 110.599C51.7133 111.597 53.3125 111.364 54.5692 111.829C56.185 112.424 57.1524 114.157 58.725 114.855C60.9991 115.889 63.5923 114.502 66.0891 114.393C67.6018 114.323 69.0813 114.725 70.594 114.915C72.1067 115.104 73.7391 115.014 74.946 114.097C76.2758 113.099 76.7479 111.347 77.732 110.011C78.7161 108.674 80.1191 107.813 81.3891 106.776C82.6591 105.739 83.8161 104.385 83.9391 102.76C84.1054 100.552 82.33 98.7102 81.6983 96.5891C81.2827 95.2027 81.3659 93.7199 81.2129 92.267C81.0666 90.9172 80.6211 89.1419 79.2181 88.6099C78.4535 88.3207 77.6157 88.3074 76.8277 88.1079C74.3243 87.4662 72.6519 85.0625 70.2682 84.0685C68.7355 83.4268 66.9967 83.4035 65.3676 83.736C63.835 84.0385 62.279 85.0359 60.7131 85.0658C59.1472 85.0958 57.8805 84.9428 56.4144 85.5845Z" fill="white"/>
<path d="M208.683 566.82C207.506 563.286 207.589 559.709 206.964 556.025C205.461 547.168 204.471 538.232 203.679 529.288C203.304 525.016 203.533 520.249 202.579 516.076C201.821 512.752 201.582 509.623 201.399 506.195C200.434 489.696 197.599 473.359 192.948 457.499C193.137 458.64 193.32 459.787 193.483 460.94C195.288 473.68 196.219 486.54 196.807 499.373C196.831 499.902 196.857 500.43 196.881 500.959C197.18 507.575 197.396 514.191 197.605 520.804C198.021 533.817 198.38 546.593 198.333 559.639C198.304 569.34 197.951 579.038 197.479 588.726H211.642C211.423 585.811 211.027 582.892 210.625 580.009C210.04 575.787 210.013 570.863 208.683 566.82Z" fill="#EDEDED"/>
<path d="M283.737 298.119C282.852 292.66 282.473 287.228 281.12 281.828C278.461 271.269 273.657 260.976 265.411 253.639C262.363 250.926 258.187 249.613 255.211 247.089C255.635 249.117 255.814 251.189 255.747 253.26C255.516 257.176 254.484 261.003 252.715 264.504C249.264 271.436 243.229 277.18 235.988 279.996C234.562 280.552 233.149 281.19 231.703 281.695C229.028 282.592 226.207 282.971 223.391 282.812C220.564 282.634 217.761 282.17 215.026 281.429C210.571 280.242 206.854 279.026 203.058 276.25C197.349 272.061 192.927 265.943 191.145 259.048C190.459 256.631 190.385 254.08 190.929 251.627C191.164 250.39 191.275 249.133 191.262 247.874C190.384 248.768 188.502 249.822 187.442 250.779C180.739 256.834 177.341 267.173 174.279 275.418C168.628 290.589 167.484 306.793 167.344 322.841C167.208 339.215 168.229 355.516 170.795 371.714C172.156 380.411 173.982 389.03 176.264 397.533C181.753 417.856 189.466 436.69 192.934 457.499C197.586 473.359 200.421 489.696 201.385 506.195C201.585 509.623 201.808 512.768 202.566 516.076C203.52 520.249 203.29 525.016 203.666 529.288C204.457 538.232 205.448 547.168 206.951 556.025C207.576 559.709 207.493 563.286 208.67 566.82C210.019 570.863 210.039 575.797 210.628 580.009C211.03 582.892 211.426 585.811 211.645 588.727H263.699C263.822 575.248 263.998 561.674 262.798 548.312C261.801 537.075 261.186 525.788 261.488 514.504C261.738 505.235 261.003 495.836 261.315 486.5C261.648 476.054 263.909 465.668 264.338 455.179C264.67 447.356 266 439.789 267.662 432.142C269.561 423.369 269.441 414.329 271.838 405.578C274.265 396.741 276.825 387.958 278.587 378.905C280.183 370.673 281.164 362.371 282.849 354.179C286.676 335.621 286.769 316.824 283.737 298.119Z" fill="#FFFBF2"/>
<path d="M232.67 59.2333C232.486 59.233 232.306 59.1784 232.153 59.0764C232 58.9743 231.881 58.8294 231.81 58.6596C231.739 58.4899 231.719 58.303 231.754 58.1223C231.789 57.9416 231.876 57.7753 232.005 57.6441C238.804 50.7554 241.933 41.6858 244.1 33.7498C244.129 33.6273 244.181 33.5117 244.255 33.4101C244.329 33.3084 244.423 33.2226 244.531 33.158C244.638 33.0934 244.758 33.0512 244.883 33.034C245.007 33.0167 245.134 33.0248 245.255 33.0577C245.377 33.0906 245.49 33.1477 245.589 33.2255C245.688 33.3033 245.77 33.4002 245.83 33.5105C245.891 33.6207 245.928 33.742 245.941 33.8671C245.953 33.9923 245.94 34.1186 245.902 34.2386C241.913 48.8238 237.321 54.9179 233.335 58.9573C233.248 59.0454 233.145 59.1153 233.031 59.1627C232.916 59.2101 232.794 59.2341 232.67 59.2333Z" fill="black"/>
<path d="M247.681 59.5924C247.461 59.5921 247.248 59.5138 247.08 59.3716C246.911 59.2294 246.799 59.0322 246.762 58.8151C246.725 58.5979 246.766 58.3746 246.877 58.1847C246.989 57.9948 247.164 57.8504 247.372 57.7772C252.241 56.0962 256.738 53.4894 260.617 50.1005C260.804 49.937 261.048 49.8542 261.295 49.8704C261.543 49.8866 261.774 50.0005 261.937 50.187C262.101 50.3735 262.184 50.6173 262.167 50.8648C262.151 51.1124 262.037 51.3433 261.851 51.5069C257.79 55.0512 253.084 57.7795 247.99 59.5425C247.891 59.575 247.786 59.5919 247.681 59.5924Z" fill="black"/>
<path d="M204.8 50.5427C204.586 50.5421 204.38 50.4686 204.214 50.3343C204.048 50.2 203.934 50.0131 203.889 49.8046C201.788 40.08 196.335 32.7225 188.928 29.6207C188.815 29.5731 188.712 29.5036 188.625 29.4163C188.539 29.329 188.47 29.2255 188.424 29.1117C188.378 28.9979 188.354 28.8761 188.355 28.7533C188.355 28.6304 188.38 28.5088 188.428 28.3955C188.475 28.2822 188.545 28.1794 188.632 28.0929C188.719 28.0065 188.823 27.9381 188.936 27.8916C189.05 27.8451 189.172 27.8215 189.295 27.8222C189.418 27.8228 189.539 27.8476 189.653 27.8952C197.632 31.2398 203.487 39.0826 205.717 49.4123C205.769 49.6542 205.723 49.9067 205.589 50.1147C205.455 50.3227 205.244 50.4693 205.003 50.5227C204.936 50.5362 204.868 50.5428 204.8 50.5427Z" fill="black"/>
<path d="M173.348 50.1006C173.19 50.0998 173.034 50.0587 172.896 49.9809C167.244 46.8458 161.848 45.6123 156.818 46.3238C156.697 46.3408 156.573 46.3338 156.454 46.303C156.335 46.2722 156.224 46.2182 156.126 46.1443C156.028 46.0704 155.945 45.9778 155.883 45.872C155.821 45.7662 155.78 45.6492 155.763 45.5276C155.746 45.406 155.753 45.2822 155.784 45.1634C155.814 45.0445 155.868 44.9329 155.942 44.8349C156.016 44.7368 156.109 44.6543 156.214 44.5921C156.32 44.5298 156.437 44.489 156.559 44.472C162.001 43.7073 167.803 45.0139 173.804 48.3519C173.986 48.4521 174.129 48.6101 174.211 48.8007C174.293 48.9914 174.309 49.2039 174.257 49.4048C174.204 49.6056 174.087 49.7834 173.922 49.91C173.758 50.0366 173.556 50.1048 173.348 50.1039V50.1006Z" fill="black"/>
<path d="M225.18 155.522C224.107 155.503 223.049 155.262 222.074 154.814C220.493 154.176 219.041 153.257 217.789 152.101C217.639 151.923 217.561 151.696 217.57 151.464C217.579 151.232 217.673 151.012 217.835 150.846C217.998 150.68 218.216 150.58 218.448 150.566C218.679 150.553 218.908 150.625 219.089 150.771C220.183 151.765 221.448 152.554 222.822 153.098C223.751 153.55 224.789 153.725 225.815 153.603C226.521 153.486 227.208 153.272 227.856 152.968C228.744 152.559 231.43 151.306 229.665 145.515C229.079 143.6 228.391 141.675 227.726 139.816C227.118 138.117 226.489 136.358 225.938 134.6C225.666 133.632 225.502 132.638 225.449 131.634C225.409 131.175 225.372 130.74 225.309 130.304C224.83 126.9 225.13 123.389 225.522 120.101C225.537 119.979 225.575 119.861 225.635 119.754C225.695 119.648 225.776 119.553 225.872 119.478C225.969 119.402 226.079 119.346 226.198 119.313C226.316 119.28 226.439 119.27 226.561 119.285C226.683 119.299 226.801 119.338 226.907 119.398C227.014 119.458 227.108 119.539 227.184 119.635C227.26 119.732 227.316 119.842 227.349 119.96C227.382 120.078 227.392 120.202 227.377 120.324C226.998 123.485 226.712 126.85 227.161 130.045C227.228 130.534 227.271 131.012 227.311 131.475C227.352 132.343 227.489 133.203 227.72 134.041C228.262 135.767 228.883 137.505 229.485 139.188C230.15 141.069 230.855 143.014 231.453 144.973C233.305 151.057 230.945 153.617 228.641 154.667C227.836 155.043 226.983 155.307 226.107 155.452C225.8 155.499 225.49 155.522 225.18 155.522Z" fill="#AB684D"/>
<path d="M142.662 161.23C142.489 161.23 142.318 161.182 142.17 161.091C142.022 161 141.903 160.87 141.824 160.715C141.342 159.751 140.425 159.129 139.451 158.471C138.324 157.709 137.044 156.845 136.438 155.329C135.833 153.813 136.246 152.383 136.621 151.166C136.792 150.668 136.924 150.156 137.014 149.637C137.045 149.116 136.943 148.595 136.718 148.124C136.618 147.852 136.515 147.572 136.429 147.26C136.156 146.263 135.91 145.664 135.331 145.189C133.842 143.969 132.512 143.367 131.588 143.493C131.33 143.536 131.084 143.634 130.867 143.78C130.65 143.926 130.467 144.118 130.331 144.341C130.186 144.537 129.969 144.668 129.729 144.706C129.488 144.745 129.242 144.688 129.042 144.547C128.843 144.406 128.707 144.193 128.663 143.954C128.618 143.714 128.669 143.466 128.805 143.264C129.086 142.828 129.458 142.458 129.894 142.178C130.33 141.898 130.822 141.715 131.335 141.641C132.825 141.442 134.567 142.147 136.515 143.746C137.572 144.61 137.945 145.714 138.23 146.765C138.297 147.004 138.38 147.237 138.473 147.486C138.815 148.245 138.949 149.082 138.862 149.91C138.76 150.524 138.608 151.129 138.407 151.718C138.074 152.819 137.795 153.686 138.174 154.637C138.553 155.588 139.461 156.223 140.501 156.925C141.542 157.626 142.799 158.477 143.493 159.877C143.564 160.019 143.597 160.178 143.59 160.336C143.582 160.495 143.534 160.649 143.451 160.785C143.368 160.92 143.251 161.032 143.113 161.11C142.974 161.188 142.818 161.229 142.659 161.23H142.662Z" fill="#AB684D"/>
<path d="M293.614 162.341C293.47 162.342 293.327 162.307 293.199 162.241C293.089 162.186 292.991 162.11 292.91 162.018C292.83 161.925 292.769 161.817 292.73 161.701C292.691 161.585 292.675 161.462 292.684 161.339C292.692 161.217 292.725 161.097 292.78 160.988C293.501 159.551 294.775 158.7 295.865 157.952C296.956 157.204 297.86 156.599 298.275 155.578C298.691 154.558 298.375 153.64 298.036 152.546C297.83 151.938 297.672 151.314 297.564 150.681C297.478 149.831 297.617 148.974 297.966 148.194C298.059 147.938 298.149 147.696 298.216 147.45C298.512 146.366 298.881 145.235 299.978 144.344C301.972 142.702 303.774 141.971 305.297 142.18C305.822 142.257 306.325 142.444 306.772 142.731C307.219 143.018 307.599 143.397 307.887 143.842C308.023 144.045 308.074 144.293 308.03 144.532C307.985 144.772 307.849 144.985 307.65 145.126C307.45 145.266 307.204 145.323 306.963 145.285C306.723 145.246 306.506 145.115 306.361 144.92C306.217 144.684 306.023 144.483 305.794 144.329C305.564 144.176 305.304 144.075 305.031 144.032C304.067 143.902 302.684 144.524 301.141 145.791C300.536 146.286 300.284 146.904 299.998 147.942C299.911 148.274 299.805 148.553 299.702 148.833C299.489 149.424 299.319 149.89 299.393 150.409C299.487 150.946 299.622 151.475 299.798 151.991C300.187 153.244 300.629 154.651 299.991 156.27C299.353 157.889 298.109 158.677 296.892 159.501C295.895 160.166 294.934 160.831 294.432 161.829C294.355 161.98 294.238 162.107 294.094 162.198C293.95 162.288 293.784 162.337 293.614 162.341Z" fill="#AB684D"/>
<path d="M112.71 270.847C112.533 270.846 112.358 270.813 112.192 270.751C112.157 270.734 112.12 270.725 112.082 270.724C111.841 270.697 111.619 270.578 111.465 270.391C111.31 270.204 111.234 269.964 111.253 269.722C111.272 269.48 111.384 269.255 111.566 269.095C111.748 268.934 111.986 268.851 112.228 268.862C112.404 268.874 112.577 268.908 112.744 268.965C112.833 268.945 112.925 268.939 113.016 268.945C115.496 269.128 117.671 266.036 118.435 264.051C119.732 260.747 120.098 256.923 119.513 252.681C119.021 249.094 118.379 245.367 116.427 242.86L115.324 241.424C115.173 241.227 115.106 240.978 115.139 240.732C115.172 240.486 115.301 240.263 115.498 240.112C115.695 239.962 115.944 239.895 116.19 239.928C116.436 239.961 116.659 240.09 116.81 240.287C117.175 240.77 117.541 241.247 117.907 241.716C120.138 244.602 120.839 248.592 121.364 252.429C121.989 256.99 121.587 261.129 120.174 264.73C119.576 266.249 118.677 267.632 117.531 268.796C116.125 270.192 114.569 270.89 113.026 270.83C112.922 270.845 112.816 270.85 112.71 270.847Z" fill="#AB684D"/>
<path d="M80.3515 228.568C80.1601 228.563 79.9748 228.499 79.8206 228.386C79.6665 228.272 79.5509 228.114 79.4896 227.933C79.4283 227.752 79.4242 227.556 79.4779 227.372C79.5315 227.188 79.6404 227.025 79.7896 226.905C82.9346 224.571 86.666 223.155 90.5681 222.816C90.815 222.795 91.0602 222.873 91.2498 223.032C91.4393 223.192 91.5577 223.42 91.5789 223.667C91.6 223.914 91.5222 224.159 91.3626 224.349C91.203 224.538 90.9746 224.657 90.7277 224.678C87.1752 224.987 83.7779 226.274 80.9134 228.398C80.7492 228.514 80.5522 228.573 80.3515 228.568Z" fill="#AB684D"/>
<path d="M99.3553 285.043C98.0886 285.043 96.9017 284.711 96.0506 283.793C95.9128 283.7 95.7658 283.621 95.6118 283.557C95.1064 283.324 94.2586 282.932 94.1755 281.955C94.157 281.72 94.2281 281.486 94.3745 281.301C94.521 281.116 94.732 280.994 94.9652 280.958C95.1983 280.922 95.4364 280.976 95.6316 281.108C95.8268 281.241 95.9646 281.442 96.0174 281.672C96.1403 281.742 96.2668 281.805 96.3964 281.862C96.7774 282.013 97.1244 282.239 97.4171 282.527C98.8167 284.026 102.77 282.663 104.495 281.529C109.316 278.311 112.807 270.322 109.758 261.857C109.396 260.86 108.684 259.862 107.996 258.865C107.727 258.486 107.451 258.097 107.195 257.705C103.132 251.521 99.1226 247.97 95.2727 247.149C91.1368 246.271 86.5189 246.969 84.1351 247.465C84.014 247.493 83.8886 247.496 83.7663 247.475C83.6439 247.453 83.527 247.408 83.4224 247.341C83.3178 247.274 83.2276 247.187 83.1571 247.085C83.0865 246.982 83.0371 246.867 83.0117 246.745C82.9863 246.624 82.9854 246.498 83.009 246.377C83.0326 246.255 83.0804 246.139 83.1494 246.035C83.2184 245.932 83.3073 245.843 83.4109 245.775C83.5145 245.706 83.6307 245.659 83.7527 245.636C86.2828 245.111 91.1933 244.373 95.6616 245.324C100.07 246.261 104.356 249.978 108.754 256.681C108.993 257.04 109.249 257.402 109.519 257.785C110.28 258.852 111.065 259.959 111.514 261.212C114.024 268.194 112.78 278.231 105.529 283.072C104.262 283.906 101.676 285.043 99.3553 285.043Z" fill="#AB684D"/>
<path d="M86.8015 294.964C85.9245 294.954 85.062 294.738 84.2836 294.334C83.5052 293.93 82.8325 293.349 82.3199 292.637C81.383 291.431 80.7994 289.989 80.6343 288.471C80.6068 287.888 80.6279 287.305 80.6974 286.726C80.7772 285.845 80.8537 285.01 80.5512 284.362C79.7965 282.736 78.4068 281.612 76.9339 280.422L76.4452 280.026C76.253 279.87 76.131 279.643 76.1061 279.396C76.0811 279.149 76.1553 278.902 76.3122 278.71C76.4692 278.518 76.6961 278.396 76.943 278.371C77.1899 278.346 77.4366 278.42 77.6288 278.577L78.1075 278.969C79.6834 280.239 81.3092 281.556 82.2467 283.577C82.7587 284.681 82.6523 285.855 82.5559 286.902C82.4988 287.381 82.4799 287.863 82.4994 288.345C82.6359 289.499 83.0867 290.594 83.8027 291.51C85.1857 293.315 87.2669 293.618 89.2385 292.304C92.6662 290.02 94.0492 285.236 94.1988 281.523C94.2533 279.452 93.9553 277.386 93.3178 275.415C92.6296 273.181 90.7977 271.323 89.0257 269.527L88.6001 269.095C86.6875 267.087 84.356 265.525 81.7713 264.52C81.5394 264.432 81.352 264.255 81.2504 264.029C81.1488 263.803 81.1412 263.545 81.2294 263.313C81.3176 263.082 81.4943 262.894 81.7206 262.793C81.9469 262.691 82.2043 262.683 82.4362 262.772C85.28 263.872 87.8447 265.589 89.9466 267.798L90.3688 268.227C92.2107 270.092 94.2952 272.217 95.1164 274.877C95.8106 277.046 96.1321 279.318 96.0673 281.596C95.8479 287.002 93.6802 291.57 90.2724 293.857C89.2512 294.563 88.0428 294.948 86.8015 294.964Z" fill="#AB684D"/>
<path d="M98.0219 296.876C97.9296 296.875 97.8378 296.862 97.7492 296.836C97.5127 296.764 97.3144 296.601 97.1979 296.383C97.0813 296.164 97.056 295.909 97.1275 295.672C98.4973 291.161 100.12 287.793 102.397 284.751C102.806 284.209 103.172 283.707 103.534 283.215C104.063 282.493 104.565 281.812 105.16 281.034C105.232 280.93 105.324 280.842 105.431 280.775C105.538 280.708 105.658 280.664 105.782 280.644C105.907 280.625 106.035 280.63 106.157 280.662C106.279 280.693 106.394 280.748 106.494 280.825C106.595 280.902 106.678 280.998 106.74 281.108C106.803 281.218 106.842 281.339 106.856 281.464C106.869 281.59 106.858 281.717 106.821 281.838C106.785 281.959 106.724 282.071 106.643 282.167C106.061 282.932 105.565 283.607 105.04 284.319C104.674 284.817 104.305 285.316 103.893 285.871C101.752 288.73 100.236 291.919 98.9062 296.214C98.8483 296.404 98.7313 296.571 98.5723 296.69C98.4132 296.809 98.2205 296.874 98.0219 296.876Z" fill="#AB684D"/>
<path d="M88.3307 523.879C88.258 523.88 88.1855 523.872 88.1146 523.856C87.9951 523.828 87.8825 523.776 87.783 523.704C87.6836 523.632 87.5994 523.541 87.5351 523.436C87.4709 523.331 87.428 523.215 87.4087 523.094C87.3895 522.972 87.3944 522.848 87.4231 522.729C88.5169 518.134 89.3813 513.463 90.2158 508.945C90.6181 506.757 91.0004 504.693 91.4093 502.628C92.7625 495.766 94.1887 488.781 95.5718 482.015C99.7742 461.446 104.123 440.178 107.045 419.179C107.441 416.205 108.026 413.259 108.797 410.359C109.495 407.977 110.332 405.638 111.304 403.354C112.88 399.441 114.366 395.741 114.542 391.638C114.732 387.127 114.063 382.642 113.415 378.306C112.571 372.654 111.696 366.786 112.651 360.632C113.365 356.044 114.698 352.091 115.975 348.265C118.505 340.761 120.686 334.278 117.714 325.075C117.574 324.643 117.468 324.204 117.362 323.782C117.056 322.545 116.79 321.475 115.892 320.986C115.777 320.932 115.675 320.854 115.591 320.759C115.507 320.664 115.443 320.552 115.404 320.431C115.364 320.311 115.35 320.183 115.362 320.057C115.373 319.93 115.411 319.807 115.471 319.696C115.532 319.584 115.615 319.486 115.715 319.407C115.814 319.329 115.929 319.272 116.052 319.239C116.175 319.206 116.303 319.199 116.429 319.218C116.554 319.236 116.675 319.28 116.783 319.347C118.405 320.228 118.814 321.877 119.177 323.337C119.277 323.745 119.373 324.134 119.509 324.504C122.671 334.295 120.287 341.373 117.764 348.867C116.5 352.617 115.194 356.493 114.506 360.922C113.591 366.796 114.446 372.508 115.27 378.034C115.935 382.459 116.6 387.03 116.414 391.721C116.228 396.146 114.609 400.166 113.043 404.056C112.101 406.273 111.289 408.543 110.609 410.855C109.855 413.677 109.284 416.546 108.9 419.442C105.971 440.514 101.619 461.811 97.407 482.411C96.0273 489.16 94.601 496.142 93.2479 502.997C92.8422 505.048 92.4633 507.11 92.0576 509.291C91.2198 513.832 90.3521 518.53 89.2483 523.168C89.1975 523.372 89.0794 523.554 88.9129 523.683C88.7464 523.812 88.5413 523.881 88.3307 523.879Z" fill="#2E5378"/>
<path d="M86.6319 383.021C86.5083 383.021 86.3859 382.997 86.2717 382.949C86.1576 382.902 86.054 382.832 85.9669 382.745C78.0144 374.766 70.9295 365.952 62.731 355.17C62.5811 354.973 62.5158 354.724 62.5494 354.478C62.5831 354.232 62.713 354.01 62.9105 353.86C63.108 353.71 63.357 353.645 63.6026 353.679C63.8483 353.712 64.0705 353.842 64.2204 354.04C72.3691 364.762 79.414 373.522 87.2901 381.425C87.4198 381.556 87.5077 381.723 87.5429 381.904C87.5781 382.086 87.559 382.273 87.488 382.444C87.417 382.614 87.2972 382.76 87.1437 382.863C86.9902 382.965 86.8098 383.02 86.6252 383.021H86.6319Z" fill="#2E5378"/>
<path d="M71.5147 404.175C67.1228 404.175 62.4616 403.351 57.2785 401.678C57.1605 401.642 57.051 401.582 56.9562 401.503C56.8614 401.424 56.7832 401.327 56.7263 401.217C56.6693 401.108 56.6346 400.988 56.6242 400.865C56.6138 400.742 56.6279 400.618 56.6657 400.5C56.7035 400.383 56.7642 400.274 56.8444 400.18C56.9246 400.086 57.0226 400.009 57.1327 399.953C57.2429 399.897 57.3631 399.864 57.4862 399.854C57.6094 399.845 57.7332 399.861 57.8504 399.9C65.753 402.45 72.3558 402.958 78.6261 401.499C78.8677 401.443 79.1218 401.484 79.3325 401.615C79.5433 401.746 79.6934 401.956 79.7498 402.197C79.8062 402.439 79.7644 402.693 79.6335 402.904C79.5025 403.114 79.2932 403.264 79.0516 403.321C76.5803 403.893 74.0514 404.18 71.5147 404.175Z" fill="#2E5378"/>
<path d="M351.663 590C351.54 589.999 351.419 589.974 351.306 589.926C351.193 589.879 351.09 589.809 351.004 589.722C350.918 589.634 350.85 589.531 350.804 589.417C350.757 589.303 350.734 589.182 350.735 589.059C350.795 582.639 350.23 576.013 349.684 569.607C349.209 564.041 348.72 558.303 348.64 552.697C348.494 542.391 347.976 531.935 347.47 521.811C347.291 518.154 347.101 514.394 346.935 510.684C345.938 488.741 344.445 467.852 342.35 446.851C340.143 424.715 338.271 403.062 339.611 381.508C340.578 365.909 344.016 349.259 350.113 330.611C350.193 330.379 350.361 330.187 350.581 330.078C350.801 329.969 351.055 329.95 351.288 330.027C351.521 330.103 351.715 330.268 351.827 330.487C351.94 330.705 351.962 330.958 351.889 331.193C345.841 349.691 342.433 366.185 341.476 381.621C340.146 403.038 342.008 424.609 344.209 446.664C346.307 467.699 347.809 488.612 348.8 510.601C348.97 514.304 349.156 518.075 349.339 521.718C349.841 531.859 350.363 542.331 350.509 552.671C350.589 558.193 351.074 563.915 351.546 569.447C352.095 575.9 352.663 582.569 352.603 589.062C352.604 589.186 352.58 589.308 352.533 589.422C352.486 589.537 352.416 589.64 352.329 589.728C352.241 589.815 352.137 589.884 352.023 589.93C351.909 589.977 351.786 590.001 351.663 590Z" fill="#2E5378"/>
<path d="M380.188 553.911C379.993 553.914 379.802 553.857 379.642 553.746C379.481 553.636 379.359 553.478 379.293 553.295C379.227 553.111 379.219 552.912 379.272 552.724C379.325 552.537 379.434 552.37 379.586 552.248C389.484 543.91 396.416 535.585 400.199 527.51C400.25 527.396 400.322 527.294 400.413 527.209C400.503 527.123 400.609 527.057 400.726 527.014C400.842 526.97 400.966 526.95 401.09 526.955C401.214 526.96 401.336 526.99 401.449 527.043C401.561 527.095 401.662 527.17 401.745 527.262C401.829 527.354 401.893 527.462 401.934 527.579C401.975 527.696 401.993 527.82 401.986 527.944C401.978 528.068 401.946 528.189 401.891 528.301C397.998 536.613 390.9 545.163 380.793 553.678C380.626 553.826 380.411 553.909 380.188 553.911Z" fill="#2E5378"/>
<path d="M73.0074 148.51C72.8729 148.51 72.7396 148.484 72.6151 148.433C72.2028 148.267 71.7939 148.078 71.3983 147.892C70.8591 147.622 70.304 147.385 69.736 147.183C66.8136 146.226 63.8879 144.983 61.0586 143.782L60.2408 143.433C59.9901 143.321 59.7934 143.115 59.6928 142.859C59.5922 142.603 59.5958 142.319 59.7028 142.066C59.8097 141.812 60.0115 141.611 60.265 141.505C60.5184 141.399 60.8033 141.397 61.0586 141.498L61.8798 141.831C64.6692 143.014 67.5517 144.241 70.3909 145.172C71.0417 145.4 71.6779 145.667 72.2959 145.973C72.6816 146.153 73.0473 146.326 73.403 146.469C73.629 146.56 73.8163 146.727 73.9327 146.941C74.0491 147.155 74.0873 147.403 74.041 147.643C73.9946 147.882 73.8665 148.098 73.6785 148.253C73.4906 148.408 73.2545 148.493 73.0107 148.493L73.0074 148.51Z" fill="#A19086"/>
<path d="M74.5102 143.58C74.2689 143.569 74.0315 143.516 73.8087 143.423L73.7222 143.393C73.3133 143.257 72.9708 143.131 72.665 143.008L72.4289 142.911C71.8924 142.67 71.3362 142.476 70.7666 142.33C67.9905 141.665 65.2178 140.764 62.5348 139.879C61.6537 139.59 60.776 139.301 59.905 139.021C59.6607 138.921 59.4632 138.732 59.3518 138.493C59.2403 138.254 59.2232 137.981 59.3036 137.73C59.3841 137.478 59.5564 137.266 59.7861 137.136C60.0158 137.006 60.2862 136.967 60.5433 137.027C61.421 137.306 62.3054 137.599 63.203 137.891C65.8461 138.759 68.5757 139.66 71.262 140.292C71.9447 140.456 72.6121 140.678 73.2568 140.956L73.4895 141.053C73.7488 141.159 74.0547 141.269 74.4171 141.385L74.5068 141.419C74.7348 141.405 74.9609 141.467 75.1506 141.594C75.3403 141.722 75.4831 141.907 75.5574 142.123C75.628 142.317 75.6411 142.527 75.5951 142.729C75.5491 142.93 75.446 143.113 75.2981 143.257C75.1969 143.363 75.0744 143.447 74.9386 143.503C74.8028 143.558 74.6568 143.584 74.5102 143.58Z" fill="#A19086"/>
<path d="M74.8325 139.467C74.4091 139.437 74.004 139.282 73.6689 139.022C73.6157 138.985 73.5658 138.948 73.5193 138.922C71.99 138.15 70.3575 137.705 68.6287 137.236C67.9904 137.06 67.3288 136.88 66.6738 136.684C66.215 136.545 61.9661 135.105 60.1609 134.317C60.0316 134.264 59.9143 134.185 59.8158 134.086C59.7173 133.987 59.6396 133.869 59.5872 133.739C59.5348 133.61 59.5089 133.471 59.5108 133.331C59.5128 133.191 59.5426 133.053 59.5986 132.925C59.6546 132.797 59.7356 132.681 59.8369 132.585C59.9381 132.489 60.0576 132.413 60.1883 132.364C60.319 132.314 60.4583 132.291 60.598 132.296C60.7377 132.301 60.8751 132.334 61.002 132.392C62.7009 133.134 66.8567 134.543 67.2822 134.673C67.9073 134.862 68.5556 135.039 69.1806 135.208C70.936 135.684 72.7513 136.179 74.4701 137.05C74.5997 137.117 74.7241 137.194 74.8425 137.279L74.9522 137.349C75.2003 137.351 75.4398 137.44 75.6283 137.602C75.8167 137.763 75.9419 137.986 75.9818 138.231C76.0216 138.476 75.9734 138.727 75.8459 138.94C75.7183 139.153 75.5195 139.314 75.2847 139.394C75.1393 139.444 74.9863 139.469 74.8325 139.467Z" fill="#A19086"/>
<path d="M69.5365 132.525C69.3987 132.524 69.2624 132.496 69.1355 132.443C69.0085 132.389 68.8934 132.311 68.7967 132.213C68.7001 132.114 68.6237 131.998 68.5721 131.87C68.5205 131.742 68.4946 131.606 68.4959 131.468C68.4959 129.24 69.0079 127.036 69.4933 124.902C69.7693 123.678 70.0286 122.521 70.2081 121.364C70.3477 120.437 70.4774 119.499 70.6104 118.555C71.1224 114.841 71.6543 110.998 72.9609 107.437C73.0573 107.175 73.1537 106.919 73.2535 106.669C72.5314 106.52 71.8221 106.315 71.1324 106.054C69.3817 105.439 67.8188 104.383 66.5942 102.989C66.2917 103.285 65.9725 103.551 65.6733 103.8C65.4971 103.946 65.3176 104.096 65.1513 104.246C64.3575 105.023 63.4188 105.638 62.3885 106.054C61.6978 106.315 60.9874 106.521 60.2641 106.669C60.3638 106.919 60.4636 107.175 60.56 107.437C61.8632 110.998 62.3952 114.841 62.9105 118.555C63.0402 119.499 63.1698 120.437 63.3128 121.364C63.5289 122.777 63.8447 124.217 64.1506 125.61C64.6046 127.502 64.952 129.417 65.1912 131.348C65.2114 131.488 65.2032 131.63 65.1671 131.767C65.131 131.904 65.0677 132.031 64.981 132.143C64.8944 132.255 64.7861 132.347 64.6627 132.416C64.5393 132.485 64.4033 132.528 64.2629 132.543C64.1224 132.558 63.9804 132.545 63.8453 132.503C63.7101 132.462 63.5847 132.394 63.4765 132.303C63.3682 132.213 63.2794 132.101 63.2153 131.975C63.1512 131.849 63.1131 131.712 63.1033 131.571C62.8719 129.718 62.5389 127.879 62.1059 126.062C61.7934 124.636 61.4676 123.163 61.2415 121.68C61.0986 120.746 60.9656 119.795 60.8359 118.844C60.3372 115.237 59.8186 111.51 58.5918 108.159C58.4222 107.693 58.2593 107.254 58.0598 106.829C56.341 106.895 54.2398 106.806 53.0961 105.542C52.654 105.054 52.1719 104.173 52.398 102.753C52.624 101.333 53.4419 100.801 53.904 100.632C54.7684 100.299 55.8057 100.602 56.7499 101.413C57.7945 102.331 58.666 103.429 59.3232 104.655H59.3963C60.1861 104.559 60.9598 104.359 61.697 104.06C62.467 103.732 63.1668 103.259 63.7583 102.666C63.9445 102.5 64.1406 102.334 64.3401 102.171C64.6963 101.89 65.0298 101.581 65.3375 101.247C64.6181 100.013 64.1207 98.6629 63.868 97.2573C63.5355 95.4154 63.745 92.9352 65.4671 91.9744C65.7333 91.82 66.0355 91.7386 66.3432 91.7386C66.6509 91.7386 66.9531 91.82 67.2192 91.9744C68.722 92.8421 68.8816 95.8476 68.8816 95.8776C68.9554 97.7066 68.6026 99.5278 67.8509 101.197C68.8781 102.516 70.2631 103.51 71.8405 104.063C72.5779 104.362 73.3514 104.562 74.1412 104.658H74.2143C74.8718 103.434 75.7433 102.337 76.7876 101.42C77.7318 100.605 78.7824 100.319 79.6368 100.635C80.0989 100.805 80.9068 101.3 81.1395 102.756C81.3723 104.212 80.8869 105.057 80.4447 105.546C79.2977 106.809 77.1965 106.899 75.481 106.832C75.2948 107.245 75.1186 107.683 74.9457 108.162C73.7189 111.513 73.2036 115.24 72.7049 118.848C72.5719 119.798 72.4423 120.749 72.2993 121.683C72.1098 122.917 71.8272 124.164 71.5546 125.37C71.0958 127.395 70.6237 129.486 70.6104 131.488C70.6051 131.768 70.4891 132.034 70.2878 132.228C70.0865 132.423 69.8164 132.53 69.5365 132.525ZM78.8688 102.603C78.5928 102.674 78.3404 102.816 78.1374 103.016C77.5547 103.523 77.0406 104.104 76.608 104.744C77.5522 104.718 78.4699 104.575 78.8622 104.139C78.9353 104.06 79.1581 103.807 79.0417 103.095C79.031 102.919 78.9724 102.749 78.8721 102.603H78.8688ZM54.5989 102.603C54.5205 102.753 54.4698 102.915 54.4493 103.082C54.3362 103.804 54.5557 104.046 54.6288 104.126C55.0244 104.562 55.9387 104.704 56.8829 104.731C56.4503 104.091 55.9362 103.51 55.3536 103.002C55.1512 102.798 54.8893 102.663 54.6055 102.617L54.5989 102.603ZM66.2784 93.9592C65.8329 94.4779 65.7265 95.7911 65.9226 96.8616C66.0424 97.5207 66.2261 98.1665 66.4712 98.7899C66.6919 97.8422 66.7902 96.8702 66.7638 95.8975C66.7165 95.233 66.5545 94.5817 66.285 93.9725L66.2784 93.9592Z" fill="#A84216"/>
<path d="M180.008 463.055C179.784 463.056 179.567 462.975 179.397 462.829C179.227 462.682 179.116 462.479 179.084 462.257C177.637 452.436 174.782 443.047 172.182 435.158C171.281 432.425 170.187 429.616 169.14 426.896C166.872 421.038 164.528 414.98 163.644 408.81C163.622 408.687 163.626 408.56 163.654 408.438C163.682 408.316 163.734 408.201 163.808 408.1C163.881 407.999 163.974 407.913 164.081 407.848C164.188 407.784 164.307 407.741 164.431 407.723C164.555 407.706 164.681 407.713 164.802 407.745C164.923 407.777 165.036 407.832 165.135 407.909C165.235 407.986 165.317 408.081 165.378 408.19C165.44 408.299 165.479 408.42 165.493 408.544C166.347 414.502 168.651 420.46 170.882 426.221C171.942 428.961 173.039 431.797 173.957 434.573C176.584 442.552 179.466 452.024 180.939 461.984C180.957 462.106 180.951 462.229 180.921 462.348C180.891 462.467 180.838 462.579 180.765 462.678C180.691 462.776 180.599 462.859 180.494 462.922C180.389 462.985 180.272 463.027 180.151 463.045L180.008 463.055Z" fill="#2E5378"/>
<path d="M355.393 324.397C355.272 324.397 355.152 324.374 355.041 324.327C354.927 324.281 354.823 324.213 354.736 324.126C354.648 324.04 354.579 323.937 354.531 323.824C354.484 323.71 354.459 323.589 354.459 323.466C354.458 323.343 354.482 323.221 354.529 323.107C356.045 319.394 358.186 316.002 360.28 312.728C361.69 310.507 363.149 308.213 364.366 305.879C364.423 305.77 364.5 305.673 364.594 305.594C364.688 305.514 364.797 305.455 364.914 305.417C365.031 305.38 365.155 305.366 365.277 305.377C365.4 305.387 365.519 305.422 365.628 305.478C365.737 305.535 365.834 305.612 365.913 305.706C365.992 305.8 366.052 305.909 366.089 306.026C366.127 306.143 366.14 306.267 366.13 306.389C366.12 306.512 366.085 306.631 366.028 306.74C364.775 309.147 363.296 311.478 361.866 313.722C359.825 316.93 357.717 320.248 356.264 323.809C356.194 323.983 356.074 324.132 355.919 324.237C355.763 324.341 355.58 324.397 355.393 324.397Z" fill="#2E5378"/>
</svg>
