<svg width="2986" height="2493" viewBox="0 0 2986 2493" fill="none" xmlns="http://www.w3.org/2000/svg">
<g filter="url(#filter0_d_559_22)">
<path d="M1458.84 2243C1460.84 2243 1462.92 2243.17 1465.09 2243.5C1467.26 2243.83 1469.26 2244.42 1471.09 2245.25C1472.92 2246.08 1474.42 2247.25 1475.59 2248.75C1476.92 2250.25 1477.59 2252.25 1477.59 2254.75C1477.59 2257.08 1476.92 2259 1475.59 2260.5C1474.26 2262 1472.59 2263.17 1470.59 2264C1468.76 2264.83 1466.67 2265.42 1464.34 2265.75C1462.17 2266.08 1460.26 2266.25 1458.59 2266.25H1366.09V2243H1458.84ZM1458.59 2280C1462.59 2280 1466.51 2279.58 1470.34 2278.75C1474.34 2277.75 1477.92 2276.25 1481.09 2274.25C1484.26 2272.25 1486.76 2269.67 1488.59 2266.5C1490.59 2263.17 1491.59 2259.25 1491.59 2254.75C1491.59 2250.08 1490.67 2246.08 1488.84 2242.75C1487.01 2239.42 1484.51 2236.75 1481.34 2234.75C1478.34 2232.75 1474.84 2231.33 1470.84 2230.5C1467.01 2229.5 1463.01 2229 1458.84 2229H1352.34V2280H1458.59ZM1481.34 2291.25C1479.01 2292.58 1476.42 2293.58 1473.59 2294.25C1470.76 2294.92 1468.09 2295.58 1465.59 2296.25C1474.92 2307.25 1484.26 2318.08 1493.59 2328.75C1503.09 2339.42 1512.59 2350.25 1522.09 2361.25H1501.84L1444.09 2295H1352.34V2361.25H1336.84V2213.75H1458.84C1465.67 2213.75 1472.01 2214.5 1477.84 2216C1483.84 2217.5 1488.92 2219.92 1493.09 2223.25C1497.42 2226.58 1500.76 2230.83 1503.09 2236C1505.59 2241.17 1506.84 2247.42 1506.84 2254.75C1506.84 2263.92 1504.76 2271.5 1500.59 2277.5C1496.42 2283.33 1490.09 2287.92 1481.59 2291.25H1481.34ZM1520.84 2254.75C1520.84 2245.25 1519.34 2237.08 1516.34 2230.25C1513.34 2223.25 1509.09 2217.5 1503.59 2213C1498.09 2208.5 1491.51 2205.17 1483.84 2203C1476.34 2200.83 1468.01 2199.75 1458.84 2199.75H1323.34V2375.25H1366.09V2308.75H1437.59L1495.09 2375.25H1552.59L1489.59 2303C1510.42 2293.83 1520.84 2277.75 1520.84 2254.75ZM1317.09 2381.5V2193.5H1458.84C1465.34 2193.5 1471.59 2194 1477.59 2195C1483.59 2195.83 1489.59 2197.67 1495.59 2200.5C1501.76 2203.33 1508.09 2207.42 1514.59 2212.75C1521.26 2218.08 1528.34 2225.17 1535.84 2234C1540.67 2238.83 1544.42 2245.33 1547.09 2253.5C1549.92 2261.5 1551.34 2270.25 1551.34 2279.75C1551.34 2290.75 1548.92 2300.5 1544.09 2309C1539.42 2317.5 1532.59 2324.42 1523.59 2329.75C1528.76 2335.75 1534.17 2342 1539.84 2348.5C1545.51 2355 1551.17 2361.58 1556.84 2368.25C1562.51 2374.75 1568.09 2381.17 1573.59 2387.5C1579.26 2394 1584.59 2400.08 1589.59 2405.75H1517.59L1492.34 2381.5L1455.84 2339.25H1396.59V2405.75H1342.84L1317.09 2381.5Z" fill="#5F34FF" fill-opacity="0.7" shape-rendering="crispEdges"/>
</g>
<g filter="url(#filter1_d_559_22)">
<path d="M2516.5 593L2606 512V1144.25V1776.5L1817 2279V2023.5M1065.5 2023.5V2279L312 1776.5V512L402.5 593" stroke="#190482" stroke-width="139"/>
</g>
<g filter="url(#filter2_d_559_22)">
<path d="M2288 296L1562 744.5V2000L2288 1533.5V296Z" stroke="#8E8FFA" stroke-width="139" shape-rendering="crispEdges"/>
<path d="M629 1533.5V296L1328.5 744.5V2000L629 1533.5Z" stroke="#8E8FFA" stroke-width="139" shape-rendering="crispEdges"/>
</g>
<defs>
<filter id="filter0_d_559_22" x="1313.09" y="2193.5" width="280.502" height="220.25" filterUnits="userSpaceOnUse" color-interpolation-filters="sRGB">
<feFlood flood-opacity="0" result="BackgroundImageFix"/>
<feColorMatrix in="SourceAlpha" type="matrix" values="0 0 0 0 0 0 0 0 0 0 0 0 0 0 0 0 0 0 127 0" result="hardAlpha"/>
<feOffset dy="4"/>
<feGaussianBlur stdDeviation="2"/>
<feComposite in2="hardAlpha" operator="out"/>
<feColorMatrix type="matrix" values="0 0 0 0 0 0 0 0 0 0 0 0 0 0 0 0 0 0 0.25 0"/>
<feBlend mode="normal" in2="BackgroundImageFix" result="effect1_dropShadow_559_22"/>
<feBlend mode="normal" in="SourceGraphic" in2="effect1_dropShadow_559_22" result="shape"/>
</filter>
<filter id="filter1_d_559_22" x="238.5" y="355.364" width="2441" height="2061.52" filterUnits="userSpaceOnUse" color-interpolation-filters="sRGB">
<feFlood flood-opacity="0" result="BackgroundImageFix"/>
<feColorMatrix in="SourceAlpha" type="matrix" values="0 0 0 0 0 0 0 0 0 0 0 0 0 0 0 0 0 0 127 0" result="hardAlpha"/>
<feOffset dy="4"/>
<feGaussianBlur stdDeviation="2"/>
<feComposite in2="hardAlpha" operator="out"/>
<feColorMatrix type="matrix" values="0 0 0 0 0 0 0 0 0 0 0 0 0 0 0 0 0 0 0.25 0"/>
<feBlend mode="normal" in2="BackgroundImageFix" result="effect1_dropShadow_559_22"/>
<feBlend mode="normal" in="SourceGraphic" in2="effect1_dropShadow_559_22" result="shape"/>
</filter>
<filter id="filter2_d_559_22" x="555.5" y="168.879" width="1806" height="1969.01" filterUnits="userSpaceOnUse" color-interpolation-filters="sRGB">
<feFlood flood-opacity="0" result="BackgroundImageFix"/>
<feColorMatrix in="SourceAlpha" type="matrix" values="0 0 0 0 0 0 0 0 0 0 0 0 0 0 0 0 0 0 127 0" result="hardAlpha"/>
<feOffset dy="4"/>
<feGaussianBlur stdDeviation="2"/>
<feComposite in2="hardAlpha" operator="out"/>
<feColorMatrix type="matrix" values="0 0 0 0 0 0 0 0 0 0 0 0 0 0 0 0 0 0 0.25 0"/>
<feBlend mode="normal" in2="BackgroundImageFix" result="effect1_dropShadow_559_22"/>
<feBlend mode="normal" in="SourceGraphic" in2="effect1_dropShadow_559_22" result="shape"/>
</filter>
</defs>
</svg>
