<svg width="329" height="312" viewBox="0 0 429 412" fill="none" xmlns="http://www.w3.org/2000/svg">
<path d="M24.017 160.201H44.891L43.045 169.573H5.41504L6.90604 162.118L29.555 144.369C35.164 139.896 36.868 137.269 36.868 134.003C36.868 130.737 34.383 128.536 29.555 128.536C25.579 128.536 21.745 130.382 18.976 133.719L11.237 128.11C15.213 122.643 22.668 119.022 31.258 119.022C41.766 119.022 48.653 124.631 48.653 132.37C48.653 138.263 45.955 143.233 37.222 149.978L24.017 160.201Z" fill="#263238"/>
<path d="M94.662 159.136H86.497L84.438 169.573H73.22L75.35 159.136H48.584L50.075 151.397L79.327 119.874H91.894L64.63 149.764H77.693L79.539 140.463H90.26L88.414 149.764H96.578L94.662 159.136Z" fill="#263238"/>
<path d="M127.464 109.791H137.83L101.336 176.672H91.041L127.464 109.791Z" fill="#263238"/>
<path d="M174.82 119.873L173.329 127.327L146.775 169.572H133.995L159.484 129.244H143.367L141.734 137.338H131.51L134.989 119.872H174.82V119.873Z" fill="#263238"/>
<path d="M0.770996 208.776L3.679 203.258C6.325 204.936 9.382 205.83 12.365 205.83C15.198 205.83 16.838 204.935 16.838 203.518C16.838 200.014 4.164 201.953 4.164 193.751C4.164 188.122 8.973 184.432 16.689 184.432C20.379 184.432 23.734 185.215 26.083 186.668L23.399 192.148C21.349 190.843 18.814 190.172 16.242 190.172C13.185 190.172 11.545 191.29 11.545 192.706C11.508 196.285 24.219 194.234 24.219 202.287C24.219 207.878 19.299 211.568 11.656 211.568C7.18299 211.571 3.119 210.378 0.770996 208.776Z" fill="#263238"/>
<path d="M37.373 190.658L36.516 195.057H48.109L47.028 200.574H35.398L34.466 205.346H48.147L46.954 211.049H26.04L31.259 184.955H51.687L50.531 190.659L37.373 190.658Z" fill="#263238"/>
<path d="M70.7309 203.221L75.1669 211.049H67.4499L63.5739 204.115H59.8459L58.4669 211.049H51.0859L56.3049 184.955H67.4509C74.1239 184.955 77.9629 188.049 77.9629 193.268C77.9619 198.077 75.2789 201.656 70.7309 203.221ZM66.4069 190.771H62.5299L60.9649 198.413H65.3629C68.6059 198.413 70.5079 196.848 70.5079 193.976C70.5069 191.777 68.9409 190.771 66.4069 190.771Z" fill="#263238"/>
<path d="M110.314 184.955L93.9489 211.049H86.6799L80.7529 184.955H88.3199L92.0479 201.916L102.709 184.955H110.314Z" fill="#263238"/>
<path d="M111.875 184.955H119.256L114.037 211.049H106.656L111.875 184.955Z" fill="#263238"/>
<path d="M120.408 200.089C120.408 191.031 127.08 184.433 136.773 184.433C141.582 184.433 145.496 186.185 147.359 189.353L142.028 193.603C140.798 191.626 138.897 190.545 136.287 190.545C131.218 190.545 127.863 194.46 127.863 199.604C127.863 203.108 130.249 205.457 134.237 205.457C136.586 205.457 138.748 204.562 140.611 202.437L144.972 206.724C142.027 210.265 138.188 211.57 133.528 211.57C125.515 211.571 120.408 206.911 120.408 200.089Z" fill="#263238"/>
<path d="M158.128 190.658L157.271 195.057H168.864L167.783 200.574H156.153L155.221 205.346H168.9L167.707 211.049H146.794L152.013 184.955H172.441L171.285 190.659L158.128 190.658Z" fill="#263238"/>
<path d="M29.152 105.161H14.583C14.583 84.878 22.79 64.139 37.1 48.263C52.163 31.552 71.707 22.349 92.129 22.349C133.802 22.349 162.907 52.769 162.907 96.324H148.338C148.338 60.791 125.749 36.918 92.129 36.918C59.169 36.918 29.152 69.445 29.152 105.161Z" fill="#190482"/>
<path d="M37.1418 101.108C39.4698 101.146 41.3558 101.342 41.3548 101.546C41.3528 101.75 39.4648 101.917 37.1358 101.92C34.8088 101.923 32.9228 101.727 32.9248 101.482C32.9258 101.237 34.8148 101.07 37.1418 101.108Z" fill="#263238"/>
<path d="M47.1979 69.173C49.1469 70.448 50.5479 71.763 50.3279 72.111C50.1079 72.459 48.3199 71.754 46.3339 70.538C44.3499 69.322 42.9479 68.007 43.2059 67.601C43.4619 67.194 45.2509 67.898 47.1979 69.173Z" fill="#263238"/>
<path d="M72.4046 47.16C73.3476 49.289 73.8156 51.153 73.4496 51.323C73.0836 51.493 71.9606 49.934 70.9406 47.841C69.9216 45.749 69.4536 43.885 69.8966 43.679C70.3386 43.473 71.4626 45.033 72.4046 47.16Z" fill="#263238"/>
<path d="M105.598 44.543C105.018 46.798 104.23 48.551 103.839 48.458C103.447 48.365 103.532 46.445 104.027 44.17C104.522 41.896 105.31 40.143 105.786 40.256C106.262 40.369 106.178 42.29 105.598 44.543Z" fill="#263238"/>
<path d="M132.722 63.595C130.782 64.883 129.026 65.663 128.799 65.336C128.572 65.009 129.918 63.637 131.805 62.272C133.69 60.908 135.447 60.128 135.727 60.532C136.007 60.936 134.661 62.308 132.722 63.595Z" fill="#263238"/>
<path d="M141.654 95.0151C139.325 95.0121 137.437 94.8421 137.436 94.6351C137.435 94.4281 139.321 94.2351 141.649 94.2051C143.976 94.1751 145.864 94.3451 145.866 94.5851C145.868 94.8251 143.981 95.0181 141.654 95.0151Z" fill="#263238"/>
<path d="M88.153 99.335C87.455 99.335 86.754 99.11 86.168 98.654L61.6839 79.638C60.2719 78.541 60.016 76.507 61.113 75.095C62.209 73.684 64.2419 73.427 65.6559 74.524L87.9649 91.852L118.821 63.523C120.13 62.305 122.178 62.38 123.397 63.69C124.614 65 124.54 67.048 123.23 68.266L90.358 98.469C89.74 99.043 88.947 99.335 88.153 99.335Z" fill="#190482"/>
<path d="M104.757 12.682H76.6821C76.2441 12.682 75.8901 12.327 75.8901 11.89V1.72498C75.8901 1.28698 76.2451 0.932983 76.6821 0.932983H104.757C105.195 0.932983 105.549 1.28798 105.549 1.72498V11.89C105.549 12.327 105.195 12.682 104.757 12.682Z" fill="#190482"/>
<path d="M98.3852 6.80701H83.0542V20.705H98.3852V6.80701Z" fill="#190482"/>
<path d="M37.3222 44.871L25.8062 59.133C25.3582 59.688 24.5442 59.775 23.9892 59.327L16.1192 52.972C15.5642 52.524 15.4772 51.71 15.9252 51.155L27.4412 36.893C27.8892 36.338 28.7032 36.251 29.2582 36.699L37.1292 43.054C37.6842 43.503 37.7702 44.316 37.3222 44.871Z" fill="#190482"/>
<path d="M104.761 12.682C104.761 12.846 98.4742 12.98 90.7212 12.98C82.9652 12.98 76.6792 12.847 76.6792 12.682C76.6792 12.518 82.9652 12.384 90.7212 12.384C98.4742 12.384 104.761 12.518 104.761 12.682Z" fill="#263238"/>
<path d="M27.1799 56.677C27.0229 56.856 24.9029 55.238 22.2829 53.268C19.6659 51.292 17.5269 49.7 17.6559 49.499C17.7779 49.307 20.1449 50.596 22.7909 52.594C25.4389 54.587 27.3309 56.507 27.1799 56.677Z" fill="#263238"/>
<path d="M29.616 53.088C29.459 53.267 27.339 51.649 24.719 49.679C22.102 47.703 19.963 46.111 20.092 45.91C20.214 45.718 22.581 47.007 25.227 49.005C27.875 50.998 29.767 52.918 29.616 53.088Z" fill="#263238"/>
<path d="M32.614 50.0799C32.457 50.2589 30.337 48.6409 27.717 46.6709C25.1 44.6949 22.961 43.1029 23.09 42.9019C23.212 42.7099 25.579 43.9989 28.225 45.9969C30.873 47.9899 32.766 49.9099 32.614 50.0799Z" fill="#263238"/>
<path d="M35.512 46.4909C35.355 46.6699 33.235 45.0519 30.615 43.0819C27.998 41.1059 25.859 39.514 25.988 39.313C26.11 39.121 28.477 40.4099 31.123 42.4079C33.771 44.4009 35.664 46.3209 35.512 46.4909Z" fill="#263238"/>
<path d="M151.839 49.998L139.444 36.493C138.962 35.967 138.997 35.15 139.522 34.668L146.975 27.828C147.501 27.346 148.318 27.381 148.8 27.906L161.195 41.411C161.677 41.937 161.642 42.754 161.117 43.236L153.664 50.076C153.139 50.559 152.321 50.524 151.839 49.998Z" fill="#190482"/>
<path d="M141.669 38.2169C141.515 38.0349 143.43 36.1779 145.767 33.8799C148.11 31.5849 150.001 29.7059 150.18 29.8629C150.352 30.0119 148.726 32.1609 146.357 34.4809C143.994 36.8049 141.815 38.3919 141.669 38.2169Z" fill="#263238"/>
<path d="M144.857 41.1589C144.703 40.9769 146.618 39.1199 148.955 36.8219C151.298 34.5269 153.19 32.648 153.369 32.805C153.541 32.954 151.914 35.1029 149.546 37.4229C147.182 39.7469 145.002 41.3329 144.857 41.1589Z" fill="#263238"/>
<path d="M147.386 44.57C147.232 44.388 149.147 42.531 151.484 40.233C153.827 37.938 155.719 36.059 155.897 36.216C156.069 36.365 154.443 38.514 152.074 40.834C149.712 43.158 147.532 44.745 147.386 44.57Z" fill="#263238"/>
<path d="M150.505 47.968C150.351 47.786 152.266 45.929 154.603 43.631C156.946 41.336 158.837 39.457 159.016 39.614C159.188 39.763 157.562 41.912 155.193 44.232C152.831 46.557 150.651 48.143 150.505 47.968Z" fill="#263238"/>
<path d="M79.8341 12.668C79.6011 12.668 79.4121 10.074 79.4121 6.87503C79.4121 3.67503 79.6011 1.08203 79.8341 1.08203C80.0671 1.08203 80.2561 3.67503 80.2561 6.87503C80.2551 10.074 80.0661 12.668 79.8341 12.668Z" fill="#263238"/>
<path d="M85.3278 12.668C85.0948 12.668 84.9058 10.074 84.9058 6.87503C84.9058 3.67503 85.0948 1.08203 85.3278 1.08203C85.5608 1.08203 85.7498 3.67503 85.7498 6.87503C85.7498 10.074 85.5608 12.668 85.3278 12.668Z" fill="#263238"/>
<path d="M90.8229 12.668C90.5899 12.668 90.4009 10.074 90.4009 6.87503C90.4009 3.67503 90.5899 1.08203 90.8229 1.08203C91.0559 1.08203 91.2449 3.67503 91.2449 6.87503C91.2439 10.074 91.0549 12.668 90.8229 12.668Z" fill="#263238"/>
<path d="M96.317 12.668C96.084 12.668 95.895 10.074 95.895 6.87503C95.895 3.67503 96.084 1.08203 96.317 1.08203C96.55 1.08203 96.738 3.67503 96.738 6.87503C96.738 10.074 96.55 12.668 96.317 12.668Z" fill="#263238"/>
<path d="M101.811 12.668C101.578 12.668 101.389 10.074 101.389 6.87503C101.389 3.67503 101.578 1.08203 101.811 1.08203C102.044 1.08203 102.232 3.67503 102.232 6.87503C102.233 10.074 102.044 12.668 101.811 12.668Z" fill="#263238"/>
<path d="M94.0912 100.168C96.9572 97.302 96.9572 92.6553 94.0912 89.7892C91.2251 86.9232 86.5784 86.9232 83.7124 89.7892C80.8463 92.6553 80.8463 97.302 83.7124 100.168C86.5784 103.034 91.2251 103.034 94.0912 100.168Z" fill="#190482"/>
<path d="M96.2423 94.98C96.1683 94.983 96.1813 94.326 95.8713 93.224C95.5643 92.142 94.8163 90.565 93.1833 89.358C91.6053 88.148 89.0183 87.477 86.5223 88.413C84.0463 89.272 81.9133 91.906 81.9413 94.979C81.9133 98.053 84.0463 100.688 86.5223 101.547C89.0183 102.483 91.6053 101.812 93.1833 100.602C94.8163 99.395 95.5643 97.818 95.8713 96.736C96.1813 95.633 96.1683 94.976 96.2423 94.98C96.2683 94.98 96.2853 95.141 96.2943 95.452C96.3093 95.762 96.2783 96.225 96.1543 96.807C95.9233 97.953 95.2163 99.669 93.5053 101.024C91.8533 102.381 89.0463 103.189 86.2853 102.198C83.5493 101.295 81.1553 98.388 81.1883 94.979C81.1563 91.571 83.5493 88.665 86.2853 87.762C89.0463 86.771 91.8523 87.579 93.5053 88.936C95.2173 90.291 95.9243 92.007 96.1553 93.153C96.2783 93.734 96.3093 94.198 96.2953 94.508C96.2863 94.818 96.2683 94.98 96.2423 94.98Z" fill="#263238"/>
<path d="M347.265 120.142L359.81 118.159C365.682 122.893 372.893 126.112 380.923 127.128C404.015 130.047 425.104 113.668 428.027 90.545C430.95 67.421 414.601 46.309 391.509 43.389C368.418 40.47 347.328 56.849 344.405 79.973C343.184 89.629 345.333 98.928 349.921 106.704L349.904 106.687L347.265 120.142Z" fill="white"/>
<path d="M347.265 120.142C347.265 120.142 347.308 119.863 347.413 119.291C347.523 118.7 347.681 117.848 347.89 116.73C348.325 114.433 348.963 111.057 349.795 106.664C349.806 106.603 349.865 106.564 349.925 106.575C349.947 106.579 349.968 106.591 349.983 106.606L350 106.622L349.825 106.758C347.058 102.091 344.267 95.324 343.929 86.874C343.839 84.772 343.919 82.58 344.181 80.33C344.553 78.099 344.849 75.761 345.6 73.456C346.928 68.813 349.147 64.09 352.393 59.773C355.626 55.457 359.879 51.557 364.967 48.596C370.045 45.632 375.962 43.623 382.239 43.014C388.51 42.37 395.123 43.241 401.328 45.621C407.512 48.01 413.382 51.84 417.907 57.093L419.612 59.091C420.141 59.785 420.621 60.514 421.126 61.222C422.187 62.606 422.947 64.172 423.818 65.656C424.258 66.397 424.544 67.214 424.912 67.987C425.24 68.777 425.655 69.532 425.909 70.346C426.415 71.972 427.08 73.544 427.38 75.207C428.964 81.759 428.932 88.504 427.534 94.73C426.108 100.96 423.274 106.624 419.612 111.305C415.947 115.997 411.45 119.707 406.687 122.338C401.92 124.979 396.895 126.537 392.08 127.205C389.672 127.6 387.307 127.595 385.033 127.619C382.765 127.432 380.566 127.345 378.497 126.914C370.165 125.354 363.89 121.619 359.743 118.241L359.827 118.264C355.741 118.881 352.595 119.356 350.45 119.679C349.408 119.833 348.613 119.951 348.06 120.032C347.526 120.112 347.265 120.142 347.265 120.142C347.265 120.142 347.553 120.085 348.098 119.993C348.656 119.899 349.459 119.764 350.51 119.587C352.633 119.236 355.748 118.721 359.793 118.052C359.824 118.047 359.855 118.057 359.878 118.075C364.032 121.402 370.287 125.071 378.558 126.582C380.612 127.001 382.795 127.077 385.043 127.255C387.298 127.222 389.641 127.219 392.025 126.819C396.794 126.141 401.764 124.584 406.475 121.958C411.183 119.343 415.624 115.663 419.24 111.017C422.853 106.381 425.645 100.78 427.048 94.621C428.423 88.465 428.448 81.801 426.88 75.331C426.583 73.688 425.924 72.136 425.425 70.53C425.175 69.725 424.764 68.981 424.439 68.2C424.074 67.437 423.793 66.63 423.357 65.898C422.495 64.433 421.746 62.885 420.697 61.519C420.198 60.82 419.723 60.1 419.201 59.414L417.516 57.441C413.047 52.251 407.25 48.469 401.144 46.105C395.017 43.751 388.482 42.883 382.285 43.514C376.081 44.109 370.23 46.086 365.204 49.008C360.167 51.926 355.952 55.776 352.742 60.039C349.52 64.304 347.309 68.973 345.979 73.568C345.228 75.85 344.927 78.165 344.549 80.376C344.281 82.606 344.192 84.779 344.273 86.864C344.571 95.246 347.303 101.983 350.017 106.648C350.049 106.701 350.031 106.77 349.978 106.801C349.934 106.827 349.877 106.819 349.842 106.784L349.825 106.767L350.013 106.709C349.13 111.058 348.451 114.399 347.989 116.673C347.757 117.8 347.58 118.659 347.457 119.255C347.337 119.835 347.265 120.142 347.265 120.142Z" fill="#263238"/>
<path d="M399.156 86.4771C399.156 84.1091 401.075 82.1901 403.442 82.1901C405.81 82.1901 407.729 84.1091 407.729 86.4771C407.729 88.8441 405.81 90.7631 403.442 90.7631C401.076 90.7631 399.156 88.8441 399.156 86.4771Z" fill="#263238"/>
<path d="M382.002 86.4771C382.002 84.1091 383.921 82.1901 386.288 82.1901C388.656 82.1901 390.575 84.1091 390.575 86.4771C390.575 88.8441 388.656 90.7631 386.288 90.7631C383.922 90.7631 382.002 88.8441 382.002 86.4771Z" fill="#263238"/>
<path d="M364.892 88.62C363.708 86.57 364.411 83.948 366.461 82.765C368.511 81.581 371.133 82.284 372.316 84.334C373.499 86.384 372.797 89.006 370.747 90.19C368.698 91.373 366.076 90.67 364.892 88.62Z" fill="#263238"/>
<path d="M65.294 240.001C62.656 238.749 58.229 236.143 55.494 235.119C52.759 234.095 49.693 233.612 46.923 234.538C45.304 235.08 43.697 236.365 43.686 238.071L54.439 245.955L65.294 243.098V240.001Z" fill="#FF9A6C"/>
<path d="M53.5322 239.89C53.5322 239.89 34.2152 235.704 31.0372 234.046C27.8582 232.388 10.9902 223.946 8.19319 223.946C5.39619 223.946 2.98019 224.709 2.47119 227.506L6.14519 230.362L6.61219 231.821L12.8922 235.092L14.0422 237.201L30.0202 245.739C30.0202 245.739 46.8042 254.258 49.6012 254.767C52.3982 255.276 66.3852 256.42 72.3612 261.506L96.3612 251.656C96.3612 251.656 89.4262 241.807 84.0932 239.386C79.3342 237.226 71.3442 237.221 65.7492 239.51L53.5322 239.89Z" fill="#FFBF9D"/>
<path d="M69.5933 256.034C69.5933 256.034 100.143 322.653 105.059 335.996C105.059 335.996 139.21 330.385 140.38 311.425L96.3603 251.433L69.5933 256.034Z" fill="#FFBF9D"/>
<path d="M41.2163 241.397C41.2143 241.415 41.1023 241.412 40.8893 241.389C40.6723 241.377 40.3653 241.307 39.9703 241.204C39.1863 240.985 38.0903 240.554 36.7903 239.92C35.4873 239.291 33.9813 238.462 32.3203 237.533C31.4883 237.071 30.6193 236.579 29.7063 236.105C28.8043 235.628 27.8103 235.233 26.8033 234.791C24.7903 233.923 22.8493 233.162 21.0233 232.689C19.2123 232.24 17.4713 231.897 16.1613 232.336C14.8433 232.789 14.2533 233.916 13.9183 234.602C13.5773 235.322 13.4583 235.756 13.4083 235.74C13.3913 235.735 13.4083 235.624 13.4573 235.416C13.5003 235.206 13.5873 234.903 13.7323 234.522C13.8803 234.143 14.0873 233.68 14.4423 233.206C14.7883 232.732 15.3223 232.254 16.0383 231.99C16.7503 231.712 17.5903 231.682 18.4473 231.753C19.3083 231.829 20.2073 231.994 21.1423 232.225C23.0133 232.683 24.9893 233.442 27.0093 234.313C28.0133 234.753 29.0153 235.156 29.9433 235.653C30.8663 236.141 31.7323 236.642 32.5583 237.116C34.2073 238.069 35.6873 238.927 36.9583 239.592C38.2263 240.262 39.2833 240.738 40.0343 241.011C40.7823 241.287 41.2233 241.346 41.2163 241.397Z" fill="#FF9A6C"/>
<path d="M22.7952 231.821C22.7742 231.88 21.7173 231.586 20.0913 230.884C18.4843 230.157 16.2803 229.136 13.7443 228.349C12.4943 227.97 11.2193 227.944 10.0923 228.037C8.96725 228.129 8.02425 228.577 7.51525 229.237C7.00325 229.895 6.85625 230.602 6.75725 231.07C6.69125 231.549 6.65125 231.822 6.61225 231.821C6.57925 231.821 6.55025 231.548 6.55525 231.046C6.59725 230.555 6.68425 229.791 7.22125 229.013C7.49925 228.639 7.88825 228.282 8.38025 228.031C8.87225 227.784 9.44025 227.635 10.0353 227.56C11.2163 227.434 12.5532 227.449 13.8852 227.848C16.4862 228.654 18.6872 229.744 20.2452 230.55C21.8162 231.329 22.8242 231.745 22.7952 231.821Z" fill="#FF9A6C"/>
<path d="M70.953 238.011C70.964 238.045 70.685 238.166 70.169 238.354C69.655 238.548 68.895 238.783 67.945 239.033C66.047 239.537 63.359 240.03 60.356 240.164C57.352 240.292 54.631 240.035 52.696 239.698C51.728 239.531 50.95 239.363 50.421 239.215C49.891 239.072 49.602 238.976 49.61 238.941C49.628 238.859 50.816 239.095 52.749 239.334C54.681 239.575 57.368 239.77 60.334 239.644C63.298 239.511 65.958 239.083 67.861 238.675C69.764 238.269 70.927 237.931 70.953 238.011Z" fill="#FF9A6C"/>
<path d="M355.444 198.452L310.951 189.252L300.015 181.002L241.308 192.323C240.372 194.039 230.856 207.288 230.856 207.288L207.741 215.141C197.855 217.797 189.038 223.363 182.656 231.159C177.779 237.117 172.342 245.343 167.689 256.261C157.288 280.667 142.276 308.869 142.276 308.869L132.865 293.714L93.2109 312.385C93.2109 312.385 116.441 359.222 124.132 365.909C132.681 373.342 152.335 374.198 165.926 360.336C174.119 351.98 197.791 318.935 202.721 310.664L210 345.258L216.734 384.734L205.853 411.897H364.651L358.081 386.224C358.081 386.224 364.554 319.286 366.339 306.834C370.553 277.445 355.444 198.452 355.444 198.452Z" fill="#190482"/>
<path d="M355.444 198.452C355.444 198.452 387.244 207.374 394.243 238.977C398.485 258.131 412.886 312.716 417.95 357.661C420.96 384.378 420.867 409.072 420.96 411.897H372.159L351.473 207.372L355.444 198.452Z" fill="#190482"/>
<path d="M273.884 225.594C273.895 225.6 273.849 225.712 273.75 225.923C273.628 226.171 273.479 226.474 273.298 226.844C272.903 227.649 272.332 228.831 271.65 230.347C270.246 233.359 268.582 237.803 265.906 242.77L265.769 243.023L265.548 242.834C262.251 240.024 258.666 236.644 254.967 232.992C248.423 226.494 242.682 220.442 238.436 216.151C236.34 214.044 234.629 212.324 233.395 211.084C232.827 210.519 232.369 210.064 232.016 209.713C231.705 209.395 231.547 209.222 231.559 209.209C231.571 209.196 231.753 209.343 232.087 209.636C232.457 209.969 232.937 210.401 233.534 210.937C234.773 212.085 236.548 213.767 238.695 215.891C243.011 220.118 248.796 226.132 255.332 232.622C259.026 236.27 262.589 239.655 265.851 242.478L265.493 242.543C268.184 237.639 269.913 233.214 271.393 230.229C272.114 228.726 272.727 227.561 273.164 226.776C273.372 226.419 273.542 226.127 273.681 225.888C273.805 225.687 273.873 225.587 273.884 225.594Z" fill="black"/>
<path d="M311.624 190.376C311.642 190.379 311.609 190.62 311.529 191.076C311.434 191.583 311.311 192.244 311.157 193.068C310.796 194.79 310.194 197.265 309.337 200.292C307.613 206.343 304.814 214.575 301.376 223.531C299.553 228.272 297.753 232.747 296.071 236.722L295.942 237.026L295.694 236.807C291.162 232.81 287.103 229.661 284.35 227.315C282.965 226.151 281.886 225.212 281.163 224.553C280.832 224.244 280.563 223.993 280.345 223.79C280.163 223.613 280.073 223.517 280.082 223.507C280.091 223.497 280.198 223.574 280.397 223.732C280.628 223.92 280.913 224.153 281.263 224.439C282.066 225.092 283.165 225.984 284.533 227.095C287.336 229.376 291.431 232.468 296.011 236.453L295.635 236.538C297.286 232.56 299.07 228.081 300.891 223.345C304.325 214.398 307.175 206.2 308.985 200.189C309.885 197.182 310.539 194.728 310.96 193.024C311.153 192.21 311.308 191.557 311.427 191.057C311.539 190.607 311.606 190.373 311.624 190.376Z" fill="black"/>
<path d="M208.751 340.832C208.742 340.835 208.713 340.758 208.663 340.605C208.607 340.422 208.538 340.199 208.455 339.925C208.271 339.282 208.019 338.404 207.702 337.294C207.363 336.154 207.028 334.739 206.628 333.099C206.21 331.462 205.8 329.584 205.368 327.503C203.592 319.19 201.813 307.561 200.708 294.639C199.582 281.713 199.333 269.96 199.388 261.465C199.423 257.216 199.504 253.779 199.622 251.406C199.679 250.253 199.724 249.341 199.756 248.674C199.775 248.388 199.791 248.155 199.804 247.964C199.818 247.804 199.829 247.723 199.838 247.723C199.847 247.723 199.853 247.806 199.857 247.966C199.858 248.157 199.859 248.391 199.861 248.678C199.852 249.346 199.84 250.259 199.824 251.412C199.769 253.785 199.743 257.221 199.756 261.466C199.795 269.954 200.103 281.687 201.227 294.595C202.331 307.498 204.049 319.112 205.729 327.43C206.137 329.512 206.521 331.393 206.912 333.033C207.284 334.677 207.59 336.097 207.899 337.243C208.177 338.363 208.396 339.248 208.557 339.897C208.621 340.177 208.673 340.404 208.716 340.591C208.747 340.748 208.76 340.83 208.751 340.832Z" fill="black"/>
<path d="M358.081 233.515C358.089 233.512 358.135 233.604 358.218 233.788C358.309 234 358.425 234.271 358.571 234.61C358.885 235.371 359.324 236.436 359.884 237.792C360.161 238.486 360.491 239.25 360.81 240.101C361.103 240.965 361.42 241.901 361.76 242.904C362.1 243.912 362.463 244.989 362.848 246.129C363.166 247.292 363.502 248.521 363.854 249.81C366.831 260.104 368.345 274.987 367.486 291.281C366.607 307.582 364.707 322.232 363.528 332.845C362.916 338.123 362.42 342.407 362.072 345.411C361.895 346.866 361.756 348.009 361.657 348.825C361.607 349.191 361.567 349.483 361.536 349.712C361.506 349.911 361.486 350.013 361.477 350.012C361.468 350.011 361.47 349.908 361.483 349.706C361.501 349.476 361.524 349.182 361.552 348.814C361.628 347.995 361.734 346.848 361.869 345.389C362.151 342.415 362.591 338.115 363.161 332.804C364.247 322.18 366.088 307.524 366.965 291.256C367.82 274.995 366.372 260.187 363.497 249.903C363.158 248.615 362.836 247.387 362.53 246.224C362.16 245.083 361.81 244.005 361.483 242.996C361.158 241.99 360.855 241.051 360.575 240.185C360.27 239.33 359.956 238.562 359.693 237.864C359.173 236.495 358.765 235.418 358.473 234.65C358.347 234.302 358.246 234.025 358.168 233.809C358.103 233.618 358.073 233.518 358.081 233.515Z" fill="black"/>
<path d="M142.504 342.934C142.36 342.935 142.193 335.309 142.13 325.904C142.067 316.495 142.133 308.87 142.277 308.869C142.421 308.868 142.588 316.492 142.651 325.9C142.714 335.306 142.648 342.933 142.504 342.934Z" fill="black"/>
<path d="M286.804 389.08C286.795 389.079 286.805 388.937 286.833 388.661C286.867 388.362 286.912 387.957 286.971 387.44C287.107 386.341 287.301 384.767 287.55 382.753C287.68 381.733 287.824 380.603 287.981 379.368C288.113 378.126 288.256 376.778 288.41 375.332C288.702 372.434 289.103 369.142 289.365 365.485C289.515 363.658 289.672 361.744 289.836 359.751C289.996 357.757 290.086 355.677 290.222 353.526C290.521 349.226 290.645 344.622 290.819 339.779C291.04 330.091 291.005 319.432 290.504 308.258C289.954 297.083 288.989 286.465 287.859 276.839C287.23 272.034 286.675 267.461 285.974 263.207C285.637 261.079 285.351 259.016 285.005 257.046C284.655 255.077 284.319 253.186 283.997 251.381C283.392 247.765 282.684 244.525 282.122 241.667C281.833 240.241 281.564 238.913 281.316 237.689C281.044 236.474 280.794 235.362 280.569 234.36C280.132 232.378 279.791 230.83 279.552 229.749C279.445 229.24 279.362 228.841 279.3 228.546C279.246 228.274 279.223 228.134 279.232 228.132C279.241 228.13 279.281 228.266 279.352 228.533C279.426 228.825 279.526 229.219 279.654 229.724C279.915 230.8 280.288 232.342 280.766 234.315C281.004 235.315 281.269 236.424 281.558 237.636C281.819 238.858 282.102 240.184 282.406 241.607C282.996 244.461 283.73 247.699 284.358 251.314C284.69 253.119 285.037 255.009 285.4 256.978C285.757 258.949 286.052 261.011 286.399 263.141C287.12 267.396 287.691 271.971 288.334 276.781C289.492 286.415 290.472 297.045 291.023 308.234C291.525 319.421 291.546 330.094 291.298 339.792C291.11 344.64 290.97 349.248 290.652 353.552C290.507 355.704 290.406 357.785 290.236 359.781C290.06 361.775 289.892 363.69 289.731 365.518C289.445 369.176 289.017 372.469 288.698 375.365C288.529 376.811 288.371 378.157 288.226 379.399C288.052 380.633 287.893 381.762 287.749 382.78C287.458 384.789 287.231 386.359 287.073 387.456C286.993 387.97 286.93 388.372 286.884 388.67C286.841 388.942 286.813 389.081 286.804 389.08Z" fill="black"/>
<path d="M307.943 281.136C307.938 281.132 308.006 281.121 308.144 281.103C308.304 281.084 308.508 281.059 308.768 281.027C309.349 280.962 310.17 280.871 311.225 280.754C313.416 280.521 316.582 280.183 320.588 279.756C328.706 278.916 340.226 277.723 353.942 276.304L354.189 276.278L354.196 276.528C354.455 286.625 354.747 298.039 355.057 310.149L355.06 310.255L354.988 310.333C353.709 311.707 352.342 313.176 350.963 314.657C345.929 320.059 341.044 325.302 336.399 330.288L336.271 330.426L336.103 330.342C327.161 325.903 318.87 321.788 311.531 318.145L311.424 318.092L311.413 317.974C310.344 306.823 309.461 297.599 308.841 291.135C308.547 287.953 308.315 285.451 308.155 283.718C308.083 282.889 308.026 282.245 307.986 281.784C307.948 281.349 307.943 281.136 307.943 281.136C307.943 281.136 307.983 281.377 308.035 281.825C308.088 282.295 308.161 282.951 308.256 283.795C308.443 285.537 308.713 288.051 309.057 291.249C309.726 297.675 310.682 306.846 311.837 317.933L311.719 317.763C319.068 321.386 327.371 325.478 336.325 329.892L336.029 329.946C340.671 324.956 345.552 319.71 350.582 314.303C351.961 312.822 353.329 311.354 354.607 309.98L354.538 310.163C354.249 298.052 353.976 286.638 353.735 276.54L353.989 276.764C340.324 278.083 328.848 279.19 320.76 279.97C316.727 280.347 313.54 280.645 311.334 280.851C310.257 280.947 309.42 281.022 308.826 281.074C308.555 281.096 308.342 281.113 308.175 281.126C308.025 281.136 307.947 281.139 307.943 281.136Z" fill="black"/>
<path d="M354.253 288.18C354.258 288.216 353.641 288.331 352.522 288.51C351.403 288.692 349.778 288.919 347.768 289.176C343.748 289.694 338.179 290.283 332.026 290.869C325.914 291.467 320.385 292.008 316.274 292.41C314.325 292.615 312.716 292.784 311.504 292.911C310.377 293.028 309.752 293.075 309.747 293.04C309.742 293.004 310.358 292.889 311.478 292.71C312.597 292.528 314.221 292.301 316.232 292.044C320.252 291.526 325.821 290.937 331.976 290.351C338.086 289.753 343.614 289.213 347.725 288.81C349.674 288.605 351.283 288.436 352.495 288.309C353.622 288.192 354.248 288.144 354.253 288.18Z" fill="black"/>
<g opacity="0.3">
<path d="M363.91 327.509C364.47 334.32 365.03 341.132 365.59 347.943C369.297 330.442 375.126 311.633 374.221 293.766C373.322 276.015 371.634 258.823 361.574 242.655C361.574 242.655 368.397 259.742 367.477 280.646C366.556 301.551 363.91 327.509 363.91 327.509Z" fill="black"/>
</g>
<path d="M135.882 289.481C135.212 288.327 134.441 287.087 133.179 286.652C131.775 286.168 130.262 286.845 128.933 287.507C116.837 293.528 104.741 299.551 92.645 305.574C90.263 306.76 87.674 308.17 86.772 310.673C85.617 313.874 87.723 317.248 89.726 320C93.071 324.595 97.068 329.589 102.714 330.239L133.915 308.839C137.73 308.279 140.102 304.033 139.954 300.18C139.807 296.325 137.818 292.816 135.882 289.481Z" fill="#190482"/>
<path d="M139.821 302.556C139.833 302.569 139.723 302.69 139.503 302.906C139.234 303.16 138.911 303.467 138.521 303.835C137.664 304.637 136.394 305.765 134.799 307.129C131.611 309.859 127.077 313.486 121.844 317.185C116.606 320.88 111.67 323.94 108.031 326.03C106.212 327.077 104.724 327.896 103.681 328.435C103.204 328.678 102.806 328.881 102.477 329.049C102.199 329.184 102.049 329.248 102.04 329.232C102.031 329.216 102.165 329.122 102.426 328.957C102.742 328.766 103.123 328.535 103.582 328.258C104.66 327.614 106.098 326.755 107.843 325.712C111.429 323.544 116.319 320.444 121.544 316.758C126.763 313.069 131.321 309.498 134.564 306.845C136.13 305.55 137.421 304.482 138.389 303.681C138.803 303.342 139.148 303.06 139.435 302.826C139.676 302.637 139.809 302.543 139.821 302.556Z" fill="black"/>
<g opacity="0.3">
<path d="M311.152 192.667C306.881 206.854 300.899 222.888 295.853 236.63C291.548 232.976 285.529 228.147 281.223 224.493C284.927 231.845 289.388 238.816 294.512 245.26C295.105 246.006 295.908 246.825 296.845 246.645C297.731 246.475 298.187 245.51 298.506 244.666C301.131 237.724 303.757 230.782 306.382 223.841C310.057 214.122 313.615 202.764 311.152 192.667Z" fill="black"/>
</g>
<path d="M243.649 38.4C256.613 34.657 268.809 38.432 280.8 44.62C292.791 50.809 302.458 61.105 308.721 73.058C315.317 85.647 318.236 100.323 315.848 114.333C313.46 128.344 305.544 141.539 293.676 149.36C277.47 160.039 255.135 159.483 238.435 149.593C221.735 139.703 210.764 121.467 207.845 102.279C205.834 89.06 207.47 75.118 213.641 63.256C219.813 51.394 230.721 41.818 243.649 38.4Z" fill="#263238"/>
<path d="M286.329 79.0951C283.823 74.2561 283.934 68.5261 282.562 63.2531C279.541 51.6411 268.961 43.2551 257.442 39.8981C246.726 36.7761 234.336 39.1241 222.462 44.5031C214.322 48.1901 206.91 53.8531 202.054 61.3541C195.61 71.3091 194.432 84.4751 199.008 95.4161L258.398 79.7871C264.581 83.8241 270.908 87.9261 278.06 89.7571C280.159 90.2951 282.389 90.6261 284.477 90.0481C286.565 89.4701 288.468 87.7911 288.735 85.6411C289.026 83.2911 287.417 81.1971 286.329 79.0951Z" fill="#263238"/>
<path d="M300.499 184.401L285.167 76.5761C284.491 71.4761 282.181 66.2841 277.042 66.5211L223.058 61.3191C206.143 62.1001 198.204 84.2861 199.702 101.153C201.366 119.892 204.137 142.704 208.451 156.217C217.125 183.388 239.008 183.674 239.008 183.674C239 183.579 240.339 189.072 242.003 199.173L277.002 222.448L300.499 184.401Z" fill="#FFBF9D"/>
<path d="M212.732 121.657C212.953 123.553 214.742 124.93 216.726 124.735C218.706 124.54 220.137 122.85 219.916 120.953C219.694 119.057 217.906 117.679 215.926 117.873C213.941 118.067 212.51 119.761 212.732 121.657Z" fill="#263238"/>
<path d="M206.431 112.213C206.944 112.611 209.345 110.196 213.189 109.619C217.021 108.988 220.143 110.535 220.488 110C220.662 109.76 220.081 108.989 218.718 108.282C217.373 107.577 215.178 107.026 212.786 107.401C210.394 107.78 208.515 108.969 207.495 110.047C206.453 111.135 206.181 112.038 206.431 112.213Z" fill="#263238"/>
<path d="M248.26 115.883C248.48 117.779 250.269 119.155 252.253 118.96C254.233 118.765 255.664 117.075 255.443 115.178C255.222 113.282 253.433 111.903 251.453 112.098C249.468 112.292 248.038 113.987 248.26 115.883Z" fill="#263238"/>
<path d="M242.978 107.124C243.494 107.522 245.896 105.107 249.738 104.531C253.569 103.899 256.692 105.446 257.037 104.912C257.209 104.672 256.635 103.9 255.265 103.194C253.92 102.487 251.726 101.936 249.334 102.312C246.943 102.691 245.064 103.88 244.043 104.959C243.004 106.045 242.729 106.949 242.978 107.124Z" fill="#263238"/>
<path d="M234.719 137.792C234.704 137.571 232.252 137.523 228.306 137.619C227.309 137.667 226.35 137.614 226.083 136.97C225.744 136.295 225.993 135.176 226.294 133.961C226.854 131.445 227.439 128.808 228.056 126.045C230.461 114.791 232.043 105.597 231.589 105.505C231.135 105.411 228.816 114.459 226.411 125.713C225.842 128.484 225.296 131.127 224.779 133.655C224.577 134.826 224.132 136.19 224.858 137.584C225.235 138.277 226.036 138.699 226.691 138.772C227.349 138.868 227.903 138.794 228.393 138.749C232.319 138.365 234.738 138.013 234.719 137.792Z" fill="#263238"/>
<path d="M239.008 183.674C239.008 183.674 257.926 182.022 274.783 168.032C274.783 168.032 266.053 189.877 240.757 192.077L239.008 183.674Z" fill="#FF9A6C"/>
<path d="M237.759 146.807C238.862 144.769 241.13 143.395 243.574 143.287C245.269 143.212 247.077 143.759 248.297 144.963C249.518 146.165 250.024 148.062 249.301 149.497C248.487 151.114 246.371 151.781 244.458 151.54C242.544 151.298 240.782 150.332 239.099 149.359C238.634 149.089 238.157 148.807 237.828 148.39C237.499 147.974 237.353 147.385 237.615 146.959" fill="#FF9A6C"/>
<path d="M246.435 138.724C245.805 138.783 246.434 142.955 243.315 146.462C240.206 149.977 235.687 150.187 235.744 150.775C235.725 151.046 236.858 151.435 238.742 151.199C240.593 150.981 243.191 149.98 245.099 147.834C247.001 145.686 247.567 143.12 247.448 141.387C247.34 139.619 246.717 138.657 246.435 138.724Z" fill="#263238"/>
<path d="M241.898 95.6421C242.436 96.6291 246.198 95.5481 250.788 95.4031C255.379 95.1661 259.215 95.9301 259.671 94.9021C259.869 94.4131 259.085 93.5271 257.461 92.7401C255.849 91.9521 253.378 91.3471 250.625 91.4591C247.873 91.5761 245.46 92.3841 243.92 93.3031C242.367 94.2231 241.659 95.1711 241.898 95.6421Z" fill="#263238"/>
<path d="M204.981 95.2381C205.79 96.0071 208.299 94.6971 211.476 94.1681C214.634 93.5281 217.445 93.8571 217.926 92.8491C218.131 92.3641 217.572 91.5551 216.269 90.9081C214.982 90.2621 212.938 89.8861 210.76 90.2861C208.583 90.6901 206.809 91.7701 205.838 92.8331C204.85 93.9021 204.618 94.8571 204.981 95.2381Z" fill="#263238"/>
<path d="M295.071 69.859C287.789 54.424 261.449 35.251 244.731 38.681L219.938 58.439C222.794 67.405 230.951 74.454 240.236 75.981C245.194 76.796 250.986 76.429 254.365 80.149C257.817 83.947 256.939 90.265 260.207 94.221C264.737 99.704 274.901 98.059 278.564 104.155C280.164 106.819 279.976 110.281 281.623 112.915C283.818 116.425 293.909 119.9 297.655 118.138C301.401 116.376 300.524 109.714 301.337 106.053C302.727 99.798 301.414 96.826 300.25 93.591C297.496 85.93 298.545 77.224 295.071 69.859Z" fill="#263238"/>
<path d="M286.554 122.976C286.243 120.901 287.893 115.647 289.892 115.014C295.231 113.326 305.155 112.261 307.368 126.136C310.392 145.103 290.726 144.227 290.605 143.688C290.511 143.267 287.63 130.139 286.554 122.976Z" fill="#FFBF9D"/>
<path d="M295.253 135.579C295.327 135.505 295.621 135.757 296.219 135.925C296.804 136.087 297.768 136.11 298.697 135.582C300.584 134.527 301.763 131.077 301.311 127.644C301.084 125.91 300.461 124.324 299.632 123.06C298.832 121.765 297.78 120.938 296.742 120.921C295.702 120.848 295.083 121.566 294.936 122.136C294.766 122.708 294.948 123.067 294.852 123.115C294.807 123.172 294.395 122.863 294.423 122.056C294.442 121.667 294.592 121.183 294.98 120.748C295.376 120.305 296.015 120.011 296.731 119.974C298.21 119.843 299.741 120.978 300.651 122.365C301.643 123.746 302.385 125.522 302.639 127.469C303.127 131.31 301.741 135.198 299.125 136.428C297.847 136.988 296.669 136.764 296.023 136.408C295.361 136.032 295.193 135.623 295.253 135.579Z" fill="#FF9A6C"/>
<path d="M224.825 52.0469C223.949 60.0089 213.277 71.2969 208.783 77.9269C200.207 90.5759 198.693 94.6259 201.707 120.392C196.034 112.018 191.474 103.698 190.695 93.613C189.916 83.528 192.477 73.0459 198.642 65.0269C204.807 57.0079 214.715 51.7319 224.825 52.0469Z" fill="#263238"/>
<path d="M270.13 24.923C274.16 20.507 279.911 17.636 285.91 16.139C294.465 14.004 303.846 14.581 311.633 18.299C319.42 22.017 325.43 28.975 327.033 36.992C328.636 45.009 325.545 53.903 318.75 59.229C323.073 63.469 328.557 66.681 334.562 68.49C332.94 70.918 329.947 72.342 326.931 72.853C323.915 73.363 320.831 73.078 317.796 72.791C319.75 75.8 322.91 78.106 326.532 79.165C321.657 80.418 316.439 80.024 311.64 78.684C306.84 77.344 302.409 75.094 298.174 72.634C283.545 64.136 275.477 56.701 265.593 43.585C264.266 38.005 266.1 29.339 270.13 24.923Z" fill="#263238"/>
<path d="M301.665 64.995C290.931 49.314 277.263 40.916 264.889 38.309Z" fill="#263238"/>
<path d="M264.889 38.31C264.881 38.348 265.507 38.536 266.641 38.841C267.771 39.161 269.399 39.653 271.359 40.398C275.281 41.866 280.505 44.491 285.609 48.356C290.713 52.223 294.742 56.444 297.425 59.669C298.748 61.3 299.82 62.621 300.51 63.573C301.222 64.509 301.632 65.017 301.665 64.995C301.697 64.973 301.349 64.423 300.689 63.445C300.052 62.451 299.025 61.087 297.735 59.415C295.118 56.11 291.101 51.806 285.95 47.904C280.798 44.003 275.486 41.404 271.497 40.022C269.503 39.319 267.846 38.883 266.695 38.627C265.539 38.386 264.897 38.271 264.889 38.31Z" fill="#455A64"/>
<path d="M314.473 78.369C314.469 78.36 314.386 78.387 314.228 78.447C314.04 78.523 313.813 78.614 313.534 78.726C312.933 78.989 312.026 79.33 310.852 79.742C308.497 80.537 304.991 81.469 300.555 81.843C296.126 82.227 290.787 82.002 285.015 80.866C279.236 79.751 273.058 77.729 266.756 75.18C260.458 72.607 254.521 69.969 249.23 67.376C243.946 64.767 239.345 62.097 235.699 59.54C232.039 57 229.314 54.623 227.518 52.898C226.603 52.051 225.944 51.342 225.483 50.873C225.271 50.661 225.097 50.487 224.954 50.344C224.832 50.227 224.766 50.17 224.759 50.177C224.752 50.184 224.803 50.253 224.911 50.383C225.043 50.536 225.203 50.723 225.399 50.95C225.833 51.444 226.469 52.18 227.364 53.055C229.119 54.835 231.819 57.271 235.469 59.867C239.105 62.48 243.709 65.2 248.998 67.843C254.297 70.473 260.227 73.125 266.545 75.706C272.867 78.263 279.089 80.283 284.917 81.379C290.74 82.496 296.13 82.681 300.591 82.243C305.061 81.814 308.581 80.814 310.927 79.95C312.097 79.504 312.994 79.129 313.582 78.831C313.852 78.698 314.072 78.589 314.254 78.5C314.403 78.422 314.477 78.378 314.473 78.369Z" fill="#455A64"/>
<path d="M257.809 172.54L255.985 168.979C256.112 168.915 268.668 162.465 273.498 158.407C284.877 148.847 295.345 133.574 295.449 133.421L298.754 135.673C298.315 136.317 287.879 151.549 276.07 161.469C270.895 165.819 258.34 172.267 257.809 172.54Z" fill="#455A64"/>
<path d="M267.157 161.493C267.157 161.493 249.981 169.146 249.981 170.847C249.981 172.548 252.702 175.949 254.743 175.779C256.784 175.609 262.682 172.291 263.703 170.931C264.723 169.57 266.642 166.075 268.683 164.375L267.157 161.493Z" fill="#263238"/>
<path d="M298.627 110.028L294.631 109.84C294.639 109.673 295.333 92.8689 288.767 75.9579C280.088 53.6049 263.407 41.601 239.185 40.277C237.195 40.161 234.987 40.3269 232.599 40.7269L234.35 39.0759C235.199 38.2759 236.185 37.635 237.26 37.183C238.733 36.565 240.338 36.323 241.93 36.461C272.515 39.108 286.328 58.547 292.542 74.628C299.377 92.316 298.66 109.313 298.627 110.028Z" fill="#455A64"/>
<path d="M296.629 146.365C303.629 146.365 309.303 138.209 309.303 128.149C309.303 118.089 303.629 109.933 296.629 109.933C289.629 109.933 283.955 118.089 283.955 128.149C283.955 138.209 289.629 146.365 296.629 146.365Z" fill="#455A64"/>
<path d="M309.303 128.149C309.294 128.149 309.282 128.063 309.268 127.897C309.254 127.7 309.237 127.457 309.216 127.158C309.197 126.508 309.088 125.554 308.917 124.335C308.495 121.942 307.663 118.328 305.008 114.809C304.365 113.923 303.537 113.122 302.628 112.36C301.673 111.667 300.628 110.971 299.4 110.613C298.191 110.245 296.863 110.052 295.52 110.243C294.183 110.434 292.857 110.931 291.646 111.691C289.236 113.25 287.329 115.767 286.106 118.652C284.839 121.535 284.252 124.809 284.216 128.147C284.252 131.485 284.839 134.761 286.106 137.645C287.328 140.531 289.236 143.049 291.646 144.608C292.858 145.369 294.183 145.866 295.521 146.056C296.865 146.247 298.192 146.054 299.401 145.685C300.629 145.326 301.673 144.631 302.629 143.937C303.538 143.175 304.366 142.374 305.009 141.488C307.664 137.969 308.495 134.356 308.918 131.963C309.089 130.743 309.198 129.79 309.217 129.14C309.238 128.841 309.255 128.598 309.269 128.401C309.282 128.235 309.294 128.149 309.303 128.149C309.312 128.149 309.318 128.234 309.321 128.401C309.321 128.599 309.321 128.843 309.321 129.143C309.336 129.797 309.26 130.758 309.118 131.992C308.752 134.414 307.976 138.083 305.301 141.711C304.652 142.624 303.811 143.457 302.878 144.251C301.898 144.978 300.817 145.708 299.535 146.095C298.272 146.491 296.876 146.702 295.462 146.51C294.053 146.319 292.657 145.802 291.388 145.013C288.864 143.396 286.896 140.801 285.636 137.848C284.332 134.894 283.73 131.552 283.694 128.147C283.731 124.743 284.333 121.402 285.637 118.45C286.897 115.498 288.864 112.903 291.388 111.286C292.656 110.497 294.052 109.98 295.461 109.789C296.876 109.597 298.271 109.808 299.534 110.203C300.816 110.59 301.896 111.319 302.877 112.046C303.81 112.84 304.651 113.673 305.3 114.586C307.975 118.214 308.751 121.883 309.117 124.305C309.259 125.539 309.335 126.5 309.32 127.154C309.32 127.454 309.32 127.698 309.32 127.896C309.318 128.064 309.312 128.149 309.303 128.149Z" fill="#263238"/>
<path d="M298.58 138.721C303.036 138.721 306.648 133.529 306.648 127.125C306.648 120.721 303.036 115.529 298.58 115.529C294.124 115.529 290.512 120.721 290.512 127.125C290.512 133.529 294.124 138.721 298.58 138.721Z" fill="#455A64"/>
<path d="M306.646 127.125C306.587 127.127 306.608 126.25 306.365 124.702C306.086 123.184 305.545 120.893 303.859 118.674C303.022 117.586 301.849 116.533 300.318 116.037C299.558 115.808 298.725 115.688 297.883 115.809C297.044 115.93 296.214 116.243 295.453 116.722C293.939 117.704 292.736 119.292 291.965 121.117C291.166 122.94 290.795 125.012 290.771 127.124C290.794 129.237 291.165 131.31 291.964 133.133C292.735 134.958 293.938 136.547 295.452 137.528C296.213 138.007 297.044 138.32 297.883 138.441C298.725 138.562 299.558 138.442 300.318 138.213C301.849 137.716 303.021 136.663 303.859 135.575C305.545 133.355 306.086 131.065 306.365 129.547C306.608 128 306.588 127.124 306.646 127.125C306.664 127.125 306.674 127.343 306.676 127.759C306.692 128.176 306.649 128.789 306.564 129.577C306.341 131.124 305.857 133.469 304.151 135.799C303.302 136.94 302.092 138.069 300.452 138.623C299.638 138.88 298.737 139.018 297.824 138.895C296.914 138.773 296.013 138.441 295.195 137.933C293.567 136.893 292.304 135.227 291.496 133.335C290.659 131.442 290.273 129.302 290.25 127.123C290.274 124.944 290.66 122.805 291.496 120.913C292.305 119.021 293.568 117.356 295.195 116.316C296.013 115.808 296.914 115.476 297.824 115.354C298.737 115.231 299.638 115.369 300.452 115.626C302.092 116.18 303.301 117.309 304.151 118.45C305.857 120.779 306.341 123.125 306.564 124.672C306.649 125.46 306.692 126.073 306.676 126.49C306.674 126.908 306.664 127.125 306.646 127.125Z" fill="#263238"/>
<path d="M299.137 135.467C302.342 135.467 304.941 131.732 304.941 127.125C304.941 122.518 302.342 118.783 299.137 118.783C295.932 118.783 293.333 122.518 293.333 127.125C293.333 131.732 295.932 135.467 299.137 135.467Z" fill="#455A64"/>
<path d="M304.94 127.125C304.888 127.126 304.892 126.496 304.709 125.387C304.5 124.299 304.104 122.659 302.894 121.078C302.293 120.303 301.455 119.556 300.369 119.207C299.293 118.844 297.997 118.998 296.924 119.699C294.753 121.133 293.598 124.132 293.593 127.125C293.597 130.118 294.752 133.118 296.924 134.553C297.997 135.255 299.293 135.408 300.369 135.045C301.455 134.696 302.293 133.949 302.894 133.174C304.104 131.592 304.5 129.953 304.709 128.865C304.893 127.755 304.888 127.124 304.94 127.125C304.958 127.125 304.97 127.281 304.976 127.582C304.992 127.882 304.966 128.325 304.909 128.893C304.757 130.01 304.416 131.705 303.186 133.396C302.573 134.224 301.698 135.047 300.503 135.454C299.91 135.643 299.252 135.744 298.585 135.656C297.92 135.568 297.262 135.326 296.666 134.957C295.479 134.201 294.562 132.992 293.975 131.621C293.368 130.25 293.088 128.701 293.071 127.124C293.088 125.548 293.368 123.999 293.975 122.628C294.562 121.258 295.479 120.049 296.666 119.293C297.262 118.924 297.921 118.682 298.585 118.594C299.252 118.506 299.91 118.607 300.502 118.796C301.697 119.203 302.572 120.026 303.185 120.854C304.415 122.545 304.755 124.24 304.908 125.357C304.965 125.926 304.991 126.368 304.975 126.669C304.97 126.969 304.958 127.125 304.94 127.125Z" fill="#263238"/>
</svg>
